<?xml version="1.0" encoding="UTF-8"?>
<svg id="Capa_1" data-name="Capa 1" xmlns="http://www.w3.org/2000/svg" xmlns:xlink="http://www.w3.org/1999/xlink" viewBox="0 0 1600 1600">
  <defs>
    <style>
      .cls-1 {
        clip-path: url(#clippath);
      }

      .cls-2, .cls-3 {
        fill: #00d461;
      }

      .cls-4, .cls-5 {
        fill: #b3b3b3;
      }

      .cls-6, .cls-7 {
        fill: #cb0073;
      }

      .cls-8 {
        stroke: #00d461;
        stroke-width: 11.31px;
      }

      .cls-8, .cls-9, .cls-10, .cls-11, .cls-12, .cls-13 {
        stroke-miterlimit: 10;
      }

      .cls-8, .cls-14 {
        fill: #fff;
      }

      .cls-15 {
        clip-path: url(#clippath-1);
      }

      .cls-16 {
        clip-path: url(#clippath-4);
      }

      .cls-17 {
        clip-path: url(#clippath-3);
      }

      .cls-18 {
        clip-path: url(#clippath-2);
      }

      .cls-19 {
        clip-path: url(#clippath-5);
      }

      .cls-9 {
        stroke-width: 8.49px;
      }

      .cls-9, .cls-10, .cls-11, .cls-12, .cls-13 {
        fill: none;
      }

      .cls-9, .cls-11, .cls-12 {
        stroke: #4b2910;
      }

      .cls-9, .cls-12, .cls-13 {
        stroke-linecap: round;
      }

      .cls-10 {
        stroke: #999;
        stroke-width: 5.32px;
      }

      .cls-20, .cls-21 {
        opacity: .5;
      }

      .cls-20, .cls-22, .cls-23 {
        fill: #4b2910;
      }

      .cls-20, .cls-22, .cls-23, .cls-24, .cls-7, .cls-5, .cls-14, .cls-25, .cls-26, .cls-27, .cls-28, .cls-3 {
        stroke-width: 0px;
      }

      .cls-11 {
        stroke-width: 2.83px;
      }

      .cls-22 {
        fill-rule: evenodd;
      }

      .cls-12, .cls-13 {
        stroke-width: 5.66px;
      }

      .cls-13 {
        stroke: #e6e6e6;
      }

      .cls-24 {
        fill: #1b3cc0;
      }

      .cls-25 {
        fill: #fd6ec3;
      }

      .cls-26 {
        fill: #fe299e;
      }

      .cls-27 {
        fill: #ffb921;
      }

      .cls-28 {
        fill: #eb0e92;
      }
    </style>
    <clipPath id="clippath">
      <path class="cls-7" d="m767.2,649.16s-98.73-78.05-76.05-223.27c0,0,38.87-31.32,41.97-60.21.46-4.32-.95-11.96-10.23-14.03-6.84-1.52-13.58,3.27-16.77,9.51-2.75,5.38-5.96,10.71-10.78,14.72,0,0-.18-28.39,7.77-55.37,6.91-23.47-17.16-26.92-22.57-18.6,0,0-14.09-20.97-30.65-5.49,0,0-14.62-16.3-24.75-1.84-63.75,90.99-47.22,309.95,137.35,387.35"/>
    </clipPath>
    <clipPath id="clippath-1">
      <path class="cls-7" d="m1217.31,806.08s3.07-10.16,4.76-26.46v-.03c4.05-38.82.35-112.36-70.96-166.01-67.81-51.04-123.39-36.02-152.71-20.52-4.31,2.25-8.05,4.54-11.16,6.63-.78.53-1.52,1.04-2.23,1.53-1.81,1.26-3.37,2.44-4.65,3.45-.43.33-.83.63-1.17.93-2.21,1.77-3.33,2.86-3.33,2.86l15.77,26.32c2.43-.93,4.83-1.77,7.16-2.52,3.38-1.12,6.67-2.09,9.87-2.87,1.13-.3,2.25-.56,3.36-.8,1.55-.36,3.04-.68,4.54-.97,1.22-.21,2.42-.43,3.57-.6.21-.03.4-.07.58-.09,1.13-.18,2.27-.32,3.36-.45,78.53-9.4,91.24,78.12,95.27,94.51,4.57,18.4-6.49,25.32-6.49,25.32-26.99,18.61-11.55,45.07-11.55,45.07l1.29-.84,14.88-9.65,7.74-5.03c4.45-2.22,9.04-4.17,13.69-5.81,0,.23,0,.47,0,.7-.1,3.48-.16,9.07,0,15.62.47,18.46,2.79,44.4,11.77,51.4,14.39,11.19,23.3-6.03,23.3-6.03,13.17,10.12,21.54-4.99,21.54-4.99,16.87,7.33,21.79-20.67,21.79-20.67Z"/>
    </clipPath>
    <clipPath id="clippath-2">
      <path class="cls-3" d="m439.79,886.81s28.67-41.73,78.73-27.31c50.06,14.42,147.51,143.61,165.02,215.2,0,0-17.91,32.18-58.54,52.11l-185.22-240Z"/>
    </clipPath>
    <clipPath id="clippath-3">
      <path class="cls-5" d="m432.42,931.05c20.7,51.97,86.19,132.21,152.28,179.86,52.66,37.97,46.53-.93,34.08-24.87-26.27-50.49-83.88-140.75-132.56-185.08-40.26-36.67-69.31-8.86-53.8,30.08Z"/>
    </clipPath>
    <clipPath id="clippath-4">
      <path class="cls-3" d="m895.76,1192.93s-40.46-30.45-23.88-79.84c16.57-49.39,149.86-141.16,222.14-155.56,0,0,31.38,19.29,49.53,60.74l-247.79,174.66Z"/>
    </clipPath>
    <clipPath id="clippath-5">
      <path class="cls-5" d="m939.64,1202.21c52.82-18.43,135.82-80.39,186.28-144.35,40.21-50.97,1.08-46.53-23.37-35.13-51.58,24.06-144.24,77.72-190.64,124.43-38.37,38.63-11.85,68.86,27.72,55.05Z"/>
    </clipPath>
  </defs>
  <rect class="cls-26" width="1600" height="1600"/>
  <g>
    <path class="cls-28" d="m518.89,903.83c2.89,8.47,14.67,9.43,18.76,1.47,4.32-8.41,11.49-18.37,23.36-28.77,31.88-27.93,27.45-57.9,16.31-68.16-10.92-10.06-44.43-13.2-59.8,33.33-7.83,23.71-4.14,45.99,1.37,62.14Z"/>
    <path class="cls-28" d="m688.4,1166.95c13.48.39,16.2,19.36,3.37,23.52-39.75,12.89-96.12,25.09-161.12,21.48-128.01-7.12-158.75-73.12-120.46-103.16,22.38-17.57,81.28-19.61,138.98,22.38,37.03,26.95,94.66,34.48,139.23,35.79Z"/>
    <path class="cls-25" d="m756.13,1213.89c-292.87-39.04-500.31-317.46-419.28-543.16,44.14-122.93,195.69-98.01,154.53,104.02-28.07,137.82,34.78,326.93,268.82,411.04,37.33,13.42,11.68,30.2-4.08,28.1Z"/>
    <g>
      <g>
        <path class="cls-6" d="m767.2,649.16s-98.73-78.05-76.05-223.27c0,0,38.87-31.32,41.97-60.21.46-4.32-.95-11.96-10.23-14.03-6.84-1.52-13.58,3.27-16.77,9.51-2.75,5.38-5.96,10.71-10.78,14.72,0,0-.18-28.39,7.77-55.37,6.91-23.47-17.16-26.92-22.57-18.6,0,0-14.09-20.97-30.65-5.49,0,0-14.62-16.3-24.75-1.84-63.75,90.99-47.22,309.95,137.35,387.35"/>
        <g class="cls-1">
          <g class="cls-21">
            <path class="cls-22" d="m649.36,545.87l-7.37,11.05c-1.84,2.76-2.5,6.13-1.86,9.37.65,3.25,2.56,6.1,5.31,7.94l10.45,6.97c2.75,1.84,6.13,2.5,9.37,1.85,3.25-.65,6.1-2.56,7.94-5.31l7.37-11.05c4.1,1.42,8.53,1.74,12.86.87,6.39-1.28,12.02-5.04,15.64-10.47l5.91-8.86c3.88-5.81,5.29-12.93,3.92-19.78-1.37-6.85-5.4-12.88-11.22-16.76-5.81-3.88-12.15-8.1-17.96-11.98s-12.93-5.29-19.78-3.92c-6.85,1.37-12.88,5.41-16.76,11.22l-5.91,8.86c-3.62,5.43-4.93,12.07-3.65,18.46.86,4.32,2.87,8.3,5.75,11.53Zm3.98.84c.5-.75.4-1.76-.24-2.39-2.93-2.9-4.96-6.62-5.78-10.72-1.08-5.41.03-11.03,3.09-15.62l5.91-8.86c3.32-4.98,8.48-8.44,14.35-9.61,5.87-1.17,11.96.03,16.94,3.35,5.81,3.88,12.15,8.1,17.96,11.98,4.98,3.32,8.44,8.48,9.61,14.35,1.17,5.87-.03,11.96-3.35,16.94l-5.91,8.86c-3.06,4.59-7.82,7.78-13.23,8.86-4.1.82-8.32.38-12.12-1.21-.84-.35-1.8-.06-2.3.69l-8.2,12.3c-1.28,1.92-3.27,3.25-5.53,3.7-2.26.45-4.61-.01-6.53-1.29l-10.45-6.97c-1.92-1.28-3.25-3.27-3.7-5.53-.45-2.26.01-4.61,1.29-6.53l8.2-12.3Z"/>
            <path class="cls-22" d="m677.68,528.08c.67-1,.91-2.23.67-3.41-.24-1.18-.93-2.22-1.93-2.89l-8.81-5.88c-1-.67-2.23-.91-3.41-.67-1.18.24-2.22.93-2.89,1.93l-1.92,2.88c-3.01,4.52-1.79,10.63,2.73,13.64h0c4.52,3.01,10.63,1.79,13.64-2.73l1.92-2.88Z"/>
            <path class="cls-22" d="m703.11,545.04c.67-1,.91-2.23.67-3.41-.24-1.18-.93-2.22-1.93-2.89-2.97-1.98-7.1-4.73-10.07-6.72-1-.67-2.23-.91-3.41-.68s-2.22.93-2.89,1.93c-.59.89-1.25,1.87-1.92,2.87-3.25,4.87-1.93,11.44,2.94,14.69h0c4.87,3.25,11.44,1.93,14.69-2.94l1.92-2.87Z"/>
            <path class="cls-22" d="m675.99,548.89c.75-1.12,1.02-2.49.75-3.81-.26-1.32-1.04-2.48-2.16-3.22h0c-1.12-.75-2.49-1.02-3.81-.75-1.32.26-2.48,1.04-3.22,2.16-.33.49-.66.98-.96,1.45-.46.69-.63,1.53-.46,2.34.16.81.64,1.52,1.33,1.98l3.25,2.17c.69.46,1.53.62,2.34.46.81-.16,1.52-.64,1.98-1.33l.96-1.45Z"/>
            <path class="cls-22" d="m655.38,565.21c.32-.48.44-1.08.33-1.65-.11-.57-.45-1.07-.93-1.4s-1.08-.44-1.65-.33c-.57.11-1.07.45-1.4.93-1.89,2.84-5.33,7.99-5.33,7.99l3.65,2.43,5.33-7.99Z"/>
            <path class="cls-22" d="m664.06,571c.32-.48.44-1.08.33-1.65-.11-.57-.45-1.07-.93-1.4s-1.08-.44-1.65-.33c-.57.11-1.07.45-1.4.93-1.89,2.84-5.33,7.99-5.33,7.99l3.65,2.43s3.44-5.15,5.33-7.99Z"/>
          </g>
        </g>
      </g>
      <path class="cls-3" d="m972.13,581.47c-2.64-6.11-4.62-12.63-6.24-18.94-4.99-19.41-6.61-36.88-12.9-34.2-6.65,2.82-11.12,12.39-13.45,19.01.19,1.1.41,2.15.64,3.2,0,.03-.01.05.01.06v.03c.41,2.01.86,3.9,1.32,5.65.16.74.36,1.46.53,2.15,1.37,5.37,2.51,8.88,2.64,9.29l.02.03s5.19,3.34,22.37,15.37c1.24.87,2.52,1.78,3.88,2.75h.05c1.61,1.16,3.29,2.34,5.07,3.59-1.48-2.54-2.78-5.21-3.94-7.99Z"/>
      <path class="cls-3" d="m1049.1,695.45c-.21-6.65.34-13.44,1.15-19.91,2.49-19.88,7.39-36.73.55-36.55-7.22.18-14.89,7.45-19.49,12.74-.23,1.09-.4,2.15-.58,3.21-.02.02-.03.05-.01.06l-.02.02c-.34,2.02-.62,3.95-.84,5.75-.12.75-.21,1.49-.3,2.2-.7,5.5-.92,9.18-.95,9.61v.04s16.87,29.99,18.07,31.8c-.44-2.91,2.48-5.96,2.42-8.97Z"/>
      <path class="cls-3" d="m764.7,767.23c-3.55-6.64-7.94-12.99-12.39-18.88-13.69-18.1-28.03-31.85-21.22-35.54,7.19-3.91,18.82-1.12,26.33,1.47.84.94,1.61,1.88,2.39,2.82.03.01.06.03.05.06h.03c1.48,1.8,2.85,3.53,4.08,5.17.54.67,1.05,1.35,1.53,1.99,3.8,5,6.1,8.48,6.37,8.89l.02.04s.43,38.96.27,41.42c-1.21-3.1-5.8-4.45-7.45-7.43Z"/>
      <path class="cls-3" d="m997.49,596.63c-3.93-2.79-7.51-5.34-10.77-7.64-1.78-1.25-3.46-2.43-5.07-3.58h-.05c-1.36-.98-2.64-1.89-3.88-2.76-.49-.36-.99-.69-1.46-1.02.02-.29.03-.58.07-.86,4.16-5.65,11.23-13.5,18.4-14.27,6.07-.66,3.92,12.95,2.77,30.11Z"/>
      <path class="cls-11" d="m819,833.36s-.05-.01-.16-.07"/>
      <path class="cls-3" d="m876.5,524.19s-11.17-30.25-24.3-6.23c-13.14,24.05-23.65,39.78-18.41,5.77.56-3.65,1-7.34,1.33-11.02.04-.49.08-1,.12-1.49,2.53-30.07-1.64-58.79-1.64-58.79,0,0-9.8-25.93,14.83-11.15,19.56,11.76,29.74,47.91,33.1,62.18v.06c.86,3.63,1.26,5.84,1.26,5.84,0,0,.45,4.5.65,9.42.36,9.29-.28,20.13-6.93,5.41Z"/>
      <path class="cls-3" d="m942.09,553.93c-.37-.27-3.73-3-8.22-8.38-4.54-5.4-10.27-13.49-15.22-24.48-10.17-22.55-27.59-7.07-27.59-7.07l-7.62,4.79-1.9-15.26v-.06s17.95-28.16,36.89-43.75c18.94-15.56,23.95,7.62,17.59,32.42-3.27,12.77-1.55,28.86.93,41.41.19,1.1.41,2.15.64,3.2,0,.03-.01.05.01.06v.03c.41,2.01.86,3.9,1.32,5.65.16.74.36,1.46.53,2.15,1.37,5.37,2.51,8.88,2.64,9.29Z"/>
      <path class="cls-7" d="m1020.44,830.07c-23.47-7.88-37.92-27.06-45.1-39.47-38.87-.53-120.81,3.36-156.49,42.69-4.26-1.85-92.81-42.32-51.25-206.98,3.48-13.8,7.24-24.83,11.27-34.89l.02-.08,12.47-27.58c4.24-8.93,8.81-18.42,13.7-29.87,6.99-10.3,18.99-24.68,30.07-21.17-.33,3.68-.78,7.36-1.33,11.02-5.24,34.02,5.27,18.29,18.41-5.77,13.13-24.02,24.3,6.23,24.3,6.23,6.65,14.73,7.3,3.88,6.93-5.41l7.62-4.79s17.43-15.48,27.59,7.07c4.95,10.99,10.67,19.08,15.22,24.48,4.49,5.38,7.85,8.11,8.22,8.38l.02.03s4.89,3.15,20.91,14.35c.47.32.97.66,1.46,1.02,1.24.87,2.52,1.78,3.88,2.75h.05c1.61,1.16,3.29,2.34,5.07,3.59,3.27,2.3,6.85,4.85,10.77,7.64,2.35,1.65,4.82,3.42,7.41,5.26,39.37,27.98,61.22,96.47,57.9,149.32-1.88,30-8.27,64.1-29.13,92.19Z"/>
      <path class="cls-12" d="m757.99,679.27c1.07-10.5,2.77-21.68,5.18-33.57"/>
      <path class="cls-7" d="m943.27,879.39c37.03-9.96,61.31-27.92,77.16-49.32-23.47-7.88-37.92-27.06-45.1-39.47-38.87-.53-120.81,3.36-156.49,42.69-.57.64-1.15,1.31-1.73,1.95-4.95,5.89-8.9,12.52-11.57,19.99-9.57,26.78-12.4,53.09-7.26,79.96,8.5,44.66,39.08,90.8,97.36,143.14l160.02-108.77c-99.91-25.1-112.38-90.16-112.38-90.16Z"/>
      <path class="cls-7" d="m798.29,935.19c-31.16,24.19-84.5,72.61-114.75,139.52,0,0-25.61-80.93-83.55-145.03,0,0,122.01-100.3,222.92-102.37-4.95,5.89-14.69,20.46-17.36,27.92-9.57,26.78-12.4,53.09-7.26,79.96Z"/>
      <path class="cls-3" d="m844.72,556.92c-3.49-4.19-16.19-16.24-21.6,3.1-7.38,26.39-16.13,43.38-17.08,8.98-.11-3.69-.33-7.4-.67-11.08-.05-.49-.1-1-.15-1.49-2.9-30.03-12.16-57.54-12.16-57.54,0,0-14.29-23.75,12.59-13.63,21.35,8.06,37.86,41.8,43.72,55.23l.02.06c1.49,3.42,2.28,5.52,2.28,5.52,0,0,1.42,4.31,2.33,9.15,1.28,6.81-5.63,6.07-9.28,1.7Z"/>
      <path class="cls-12" d="m975.33,790.6c-38.87-.53-120.81,3.36-156.49,42.69-.57.64-1.15,1.31-1.73,1.95-4.95,5.89-8.9,12.52-11.57,19.99-9.57,26.78-12.4,53.09-7.26,79.96"/>
      <g>
        <path class="cls-14" d="m723.44,1009.45c-14.92,19.13-28.92,40.97-39.9,65.26,0,0-42.39-66.26-83.55-145.03,0,0,19.64-16.14,49.65-35.61,15.38,12.7,54.41,49.97,73.81,115.38Z"/>
        <path class="cls-14" d="m738.66,991.07c-2.96,3.36-5.93,6.83-8.83,10.41-19.87-63.55-58.02-99.74-72.98-112.01,3.24-2.06,6.58-4.13,10.02-6.19,14.46,11.82,51.46,46.67,71.78,107.79Z"/>
        <path class="cls-14" d="m758.05,970.52c-4.26,4.22-8.56,8.67-12.88,13.34-20.5-59.39-56.58-93.36-70.82-105.04,4.78-2.81,9.73-5.62,14.79-8.39,14.04,11.54,48.3,43.97,68.91,100.08Z"/>
        <path class="cls-24" d="m729.83,1001.48c-2.16,2.6-4.3,5.26-6.39,7.97-19.39-65.41-58.43-102.68-73.81-115.38,2.35-1.53,4.75-3.05,7.22-4.6,14.96,12.27,53.11,48.47,72.98,112.01Z"/>
        <path class="cls-24" d="m745.17,983.86c-2.17,2.33-4.34,4.76-6.52,7.21-20.32-61.12-57.32-95.97-71.78-107.79,2.45-1.47,4.94-2.97,7.48-4.45,14.24,11.68,50.32,45.65,70.82,105.04Z"/>
      </g>
      <g>
        <path class="cls-14" d="m820,990.74c-3.59-6.15-6.77-12.22-9.55-18.24,22.28-20.86,72.81-61.15,140.92-73.19,2.53,4.59,5.83,9.73,10.11,15.12-70.75,13.58-121.98,57.28-141.48,76.32Z"/>
        <path class="cls-14" d="m831.15,1007.99c-2.59-3.67-5.03-7.36-7.34-11.02,19.29-18.88,70.99-63.31,142.55-76.83,3.26,3.7,7.01,7.4,11.26,11.09-72.88,12.19-125.97,56.9-146.47,76.76Z"/>
        <path class="cls-14" d="m1055.66,969.55l-160.02,108.77c-25.07-22.51-45-43.85-60.27-64.49,20.74-20.09,74.75-65.56,148.9-77.13,16.53,12.76,39.51,24.84,71.38,32.86Z"/>
        <path class="cls-24" d="m966.36,920.14c-71.56,13.53-123.26,57.95-142.55,76.83-1.3-2.09-2.58-4.17-3.81-6.23,19.5-19.03,70.73-62.73,141.48-76.32,1.51,1.87,3.11,3.8,4.87,5.72Z"/>
        <path class="cls-24" d="m984.28,936.7c-74.15,11.58-128.17,57.04-148.9,77.13-1.46-1.92-2.86-3.89-4.23-5.84,20.5-19.86,73.59-64.57,146.47-76.76,2.07,1.84,4.31,3.68,6.66,5.47Z"/>
      </g>
      <path class="cls-12" d="m666.55,343.4s.28-24.19,13.99-41.49"/>
      <path class="cls-12" d="m635.9,337.91s.28-24.19,13.99-41.49"/>
      <path class="cls-13" d="m682.69,883.54s5.63-6.53,12.78-7.26"/>
      <path class="cls-13" d="m692.2,893.79s5.63-6.53,12.78-7.26"/>
      <path class="cls-13" d="m701.97,904.49s5.63-6.53,12.78-7.26"/>
      <path class="cls-13" d="m710.05,913.96s5.63-6.53,12.78-7.26"/>
      <path class="cls-13" d="m953.55,913.66s-1.69-8.46-7.56-12.6"/>
      <path class="cls-13" d="m940.23,917.91s-1.69-8.46-7.56-12.6"/>
      <path class="cls-13" d="m926.46,922.42s-1.69-8.46-7.56-12.6"/>
      <path class="cls-13" d="m914.77,926.7s-1.69-8.46-7.56-12.6"/>
    </g>
    <g>
      <g>
        <path class="cls-6" d="m1217.31,806.08s3.07-10.16,4.76-26.46v-.03c4.05-38.82.35-112.36-70.96-166.01-67.81-51.04-123.39-36.02-152.71-20.52-4.31,2.25-8.05,4.54-11.16,6.63-.78.53-1.52,1.04-2.23,1.53-1.81,1.26-3.37,2.44-4.65,3.45-.43.33-.83.63-1.17.93-2.21,1.77-3.33,2.86-3.33,2.86l15.77,26.32c2.43-.93,4.83-1.77,7.16-2.52,3.38-1.12,6.67-2.09,9.87-2.87,1.13-.3,2.25-.56,3.36-.8,1.55-.36,3.04-.68,4.54-.97,1.22-.21,2.42-.43,3.57-.6.21-.03.4-.07.58-.09,1.13-.18,2.27-.32,3.36-.45,78.53-9.4,91.24,78.12,95.27,94.51,4.57,18.4-6.49,25.32-6.49,25.32-26.99,18.61-11.55,45.07-11.55,45.07l1.29-.84,14.88-9.65,7.74-5.03c4.45-2.22,9.04-4.17,13.69-5.81,0,.23,0,.47,0,.7-.1,3.48-.16,9.07,0,15.62.47,18.46,2.79,44.4,11.77,51.4,14.39,11.19,23.3-6.03,23.3-6.03,13.17,10.12,21.54-4.99,21.54-4.99,16.87,7.33,21.79-20.67,21.79-20.67Z"/>
        <g class="cls-15">
          <path class="cls-20" d="m1134.7,726.26c-.35.01-.71-.06-1.04-.23-6.81-3.52-12.3-7.4-16.3-11.51-4.87-5.01-7.44-10.29-7.64-15.7-.13-3.5,1.09-6.55,3.53-8.84,2.76-2.58,7.07-3.99,10.98-3.59,3.18.33,5.92,3.74,8.74,5.95,2.65-2.41,13.51-10.93,20.42-3.84,2.33,2.39,4.05,5.06,4.17,8.55.2,5.41-1.97,10.87-6.46,16.22-3.69,4.4-8.87,8.67-15.4,12.68-.31.19-.66.29-1.02.31Zm-12.13-35.76c-2.11.08-4.65.83-6.46,2.52-1.55,1.46-2.3,3.35-2.21,5.64.16,4.35,2.34,8.7,6.46,12.94,3.48,3.58,8.23,9.07,14.15,12.24,5.68-3.59,10.2-9.43,13.4-13.26,3.8-4.54,5.65-9.04,5.49-13.39-.08-2.29-.97-4.12-2.62-5.46-2.32-1.87-5.62-2.31-7.86-1.91-2.82.5-5.56,2.11-7.91,4.65-.38.41-.9.65-1.45.67-.55.02-1.09-.18-1.5-.56-2.54-2.36-5.38-3.77-8.24-4.06-.39-.04-.81-.05-1.25-.04Z"/>
          <path class="cls-20" d="m1162.62,631.24c8.37-.77,21.13-5.32,18.28-16.22-2.43-9.29-14.59-8.95-22.12-8.1-2.18.25-4.43.59-6.68,1.04,1.14-.9,2.24-1.83,3.31-2.83,5.43-5.09,9.28-12.95,5.46-20.21-1.52-2.89-4.35-5.43-7.66-5.94-3.89-.6-6.9,1.86-8.97,4.89-3.87,5.64-6.46,12.53-8.28,19.48-.73-5.47-1.96-10.89-4.03-15.82-2.47-5.9-8.63-12.97-15.62-8.88-7.85,4.59-5.49,15.53-2.4,22.31,1.94,4.25,4.61,8.09,7.84,11.37-3.36-.99-6.77-1.81-10.23-2.44-5.29-.97-11.09-1.95-16.45-.93-8.71,1.67-13.63,10.35-8.05,17.91,5.75,7.79,15.64,7.02,23.46,3.06,1.74-.88,3.47-1.77,5.2-2.68-2.96,3.13-5.69,6.45-7.99,10.05-4.77,7.46-7.19,18.92.04,25.68,7.83,7.33,15.6-.17,18.67-7.88,1.47-3.69,2.58-7.5,3.36-11.38.64,2.87,1.41,5.69,2.36,8.43,2.56,7.42,10.22,16.66,19.17,12.92,9.15-3.82,7.19-17.45,3.74-24.44-2.11-4.27-5.07-7.83-8.49-10.95,5.17,1.49,10.61,2.06,16.08,1.56Zm-17.67-40.41c1.44-2.97,3.21-6.65,6.47-7.97,5.64-2.28,8.06,4.17,7.47,8.63-.85,6.44-6.22,10.92-11.14,14.56-3.27,2.42-6.74,4.57-10.15,6.77,1.54-7.6,3.97-15,7.36-21.99Zm-27.08,12.2c-3.1-5.69-6.11-14.97-.43-20.07,12.76-11.45,16.03,25.41,16.19,31.54,0,.2.08.44.2.69-.75.52-1.48,1.07-2.17,1.65-.2-.27-.43-.5-.7-.65-5.47-3.1-10.07-7.62-13.09-13.16Zm-26.26,24.83c-4.26-2.66-4.94-8.14-1.53-11.76,3.04-3.24,7.56-4.07,11.82-3.96,8.17.2,16.39,2.09,24.15,4.74-4.55,2.63-9.19,5.11-13.83,7.58-6.01,3.19-13.98,7.56-20.61,3.41Zm33.32,19.88c-1.24,4.07-2.72,8.42-5.63,11.63-3.34,3.68-8.92,4.48-11.64-.5-4.27-7.82,1.9-17.94,6.79-23.88,3.86-4.7,8.25-8.94,12.79-13,.1,2.97.28,5.96.57,8.96-.26,5.68-1.2,11.33-2.87,16.8Zm26-9.2c3.74,5.98,6.78,19.22-1.75,23.05-9.36,4.2-13.95-7.82-15.5-14.58-1.17-5.09-2-10.24-2.54-15.42.1-3.33-.03-6.66-.36-9.96.01.01.02.02.04.03,2.31,1.79,4.77,3.36,7.34,4.68,4.95,3.33,9.62,7.13,12.79,12.2Zm-17.37-18.29c.26.02.51-.03.73-.19,1.55-1.14,3.15-2.21,4.77-3.26,4.74-2.65,10.18-4.24,15.39-5.34,5.1-1.08,21.14-4.2,23.27,2.95,1.26,4.24-2.14,8.28-5.55,10.22-3.94,2.25-8.78,3.03-13.25,3.22-7.15.31-14.27-1.29-20.59-4.53-1.57-1.06-3.17-2.08-4.76-3.08Z"/>
        </g>
      </g>
      <path class="cls-12" d="m1174.71,831.14s9.1-22.41,3.16-43.67"/>
      <path class="cls-12" d="m1196.63,825.5s9.1-22.41,3.16-43.67"/>
      <path class="cls-12" d="m1024.07,626.45c-9.76,1.17-20.54,3.83-32.45,8.32"/>
      <path class="cls-12" d="m975.85,608.44s8.08-7.76,22.55-15.4"/>
    </g>
    <g>
      <g>
        <path class="cls-2" d="m439.79,886.81s28.67-41.73,78.73-27.31c50.06,14.42,147.51,143.61,165.02,215.2,0,0-17.91,32.18-58.54,52.11l-185.22-240Z"/>
        <g class="cls-18">
          <path class="cls-14" d="m554.1,872.63s12.57,38.26-7.31,71.45l-95-84.92,53.09-23.76,49.22,37.22Z"/>
          <path class="cls-14" d="m695.92,1082.49s-28.79-28.16-67.35-24.97l34.28,122.72,44.75-37.16-11.68-60.6Z"/>
          <path class="cls-8" d="m606.92,1148c-9.89-2.53-21.48-8.66-35.45-18.73-66.43-47.9-136.74-131.29-160.06-189.84-9.65-24.22-7.3-47.92,6.3-63.37,11.31-12.87,28.95-17.76,47.18-13.09,12.19,3.12,24.5,10.29,36.58,21.28,52.37,47.7,112.07,142.69,137.39,191.36,6.33,12.17,19.38,42.59,3.82,62.2-3.84,4.84-15.01,15.51-35.75,10.2h0Z"/>
        </g>
      </g>
      <g>
        <path class="cls-4" d="m432.42,931.05c20.7,51.97,86.19,132.21,152.28,179.86,52.66,37.97,46.53-.93,34.08-24.87-26.27-50.49-83.88-140.75-132.56-185.08-40.26-36.67-69.31-8.86-53.8,30.08Z"/>
        <g class="cls-17">
          <line class="cls-10" x1="748.55" y1="1005.55" x2="454.78" y2="1213.39"/>
          <line class="cls-10" x1="736.25" y1="988.17" x2="442.49" y2="1196.01"/>
          <line class="cls-10" x1="723.96" y1="970.79" x2="430.19" y2="1178.63"/>
          <line class="cls-10" x1="711.66" y1="953.41" x2="417.9" y2="1161.26"/>
          <line class="cls-10" x1="699.37" y1="936.04" x2="405.6" y2="1143.88"/>
          <line class="cls-10" x1="687.07" y1="918.66" x2="393.31" y2="1126.5"/>
          <line class="cls-10" x1="674.78" y1="901.28" x2="381.01" y2="1109.12"/>
          <line class="cls-10" x1="662.48" y1="883.9" x2="368.72" y2="1091.75"/>
          <line class="cls-10" x1="650.19" y1="866.53" x2="356.42" y2="1074.37"/>
          <line class="cls-10" x1="637.89" y1="849.15" x2="344.13" y2="1056.99"/>
          <line class="cls-10" x1="625.6" y1="831.77" x2="331.83" y2="1039.61"/>
          <line class="cls-10" x1="613.3" y1="814.39" x2="319.54" y2="1022.24"/>
          <line class="cls-10" x1="601.01" y1="797.02" x2="307.24" y2="1004.86"/>
        </g>
      </g>
    </g>
    <path class="cls-3" d="m800.58,628.87c5.29-9.1,14.5-16.66,28.22-.43,1.29,1.52,3.73.16,3.12-1.74-4.53-14.03-13.6-36.46-22.23-24.25-6.8,9.63-10.47,18.26-12.45,25.04-.6,2.06,2.26,3.23,3.34,1.37Z"/>
    <path class="cls-3" d="m901.57,609.21c-8.71-5.92-20.28-8.74-25.62,11.83-.5,1.93-3.29,1.76-3.56-.22-1.99-14.61-3.52-38.75,9.54-31.48,10.3,5.73,17.35,11.93,22.06,17.18,1.44,1.6-.63,3.89-2.41,2.68Z"/>
    <path class="cls-3" d="m1019.26,729.42c-3.86-14.67-11.83-27.85-27.84-6.45-1.5,2.01-3.71-.53-2.82-3.23,6.6-20.01,18.94-51.61,25.63-31.62,5.28,15.77,7.61,29.41,8.54,39.93.28,3.21-2.72,4.36-3.51,1.36Z"/>
    <g>
      <path class="cls-23" d="m950.42,670.24c-.38,4.03-1.36,7.86-2.89,11.41-3.71,8.69-10.5,15.64-18.93,19.59-5.94,2.8-12.68,4.07-19.69,3.41-20.95-1.96-36.37-20.56-34.41-41.51.38-4.06,1.36-7.88,2.92-11.43,3.68-8.72,10.52-15.64,18.93-19.56,5.94-2.8,12.68-4.07,19.67-3.42,20.98,1.96,36.38,20.53,34.41,41.51Z"/>
      <path class="cls-14" d="m947.53,681.65c-3.71,8.69-10.5,15.64-18.93,19.59l-51.19-49.53c3.68-8.72,10.52-15.64,18.93-19.56l51.19,49.5Z"/>
    </g>
    <g>
      <path class="cls-23" d="m853.34,682.06c-.38,4.03-1.36,7.86-2.89,11.41-3.71,8.69-10.5,15.64-18.93,19.59-5.94,2.8-12.68,4.07-19.69,3.41-20.95-1.96-36.37-20.56-34.41-41.51.38-4.06,1.36-7.88,2.92-11.43,3.68-8.72,10.52-15.64,18.93-19.56,5.94-2.8,12.68-4.07,19.67-3.42,20.98,1.96,36.38,20.53,34.41,41.51Z"/>
      <path class="cls-14" d="m850.46,693.46c-3.71,8.69-10.5,15.64-18.93,19.59l-51.19-49.53c3.68-8.72,10.52-15.64,18.93-19.56l51.19,49.5Z"/>
    </g>
    <path class="cls-23" d="m851.26,679.61l-9.89-8.04c.5-.62,5.1-6.14,12.61-9.64,10.53-4.91,21.75-3.37,31.59,4.33l-7.86,10.03c-13.71-10.73-24.44.88-26.45,3.31Z"/>
    <path class="cls-9" d="m885.75,764.96s35.74.58,52.7-36.32"/>
    <path class="cls-7" d="m916.89,427.45c-6.65.79-10.25-7.57-5.13-11.88,32.93-27.69,116.43-79.47,246.01-36.83,171.2,56.34,166.51,169.76,111.38,191.63-38.3,15.19-101.86-6.94-153.36-73.69-58.71-76.09-156.23-74.3-198.89-69.24Z"/>
    <path class="cls-25" d="m1168.24,357c-7.52-.71-8.35-11.41-1.02-13.27,22.69-5.75,54.65-10.51,90.86-6.11,71.3,8.66,86.07,46.68,63.57,62.08-13.16,9-46.16,7.99-76.87-17.6-19.72-16.42-51.65-22.74-76.52-25.1Z"/>
    <path class="cls-7" d="m291.23,668.49c-1.86,9.74-15.95,9.49-17.47-.31-4.7-30.36-6.96-72.72,3.28-119.49,20.16-92.1,71.68-106.68,89-75.37,10.13,18.31,4.71,61.31-32.53,98.28-23.9,23.73-36.12,64.68-42.29,96.89Z"/>
    <path class="cls-28" d="m1249.43,620.01c-9.72-4.55-20.37,4.84-16.89,15,3.68,10.74,6.33,25.23,5.44,44.14-2.38,50.81,27.22,71.92,45.37,70.84,17.79-1.06,48.4-27.43,20.95-79.45-13.98-26.5-36.32-41.85-54.87-50.53Z"/>
    <g>
      <g>
        <path class="cls-2" d="m895.76,1192.93s-40.46-30.45-23.88-79.84c16.57-49.39,149.86-141.16,222.14-155.56,0,0,31.38,19.29,49.53,60.74l-247.79,174.66Z"/>
        <g class="cls-16">
          <path class="cls-14" d="m896.54,1042.28s52.72-14.82,96.65,14.14l-120.96,124.08-29.16-73.53,53.47-64.68Z"/>
          <path class="cls-14" d="m1102.35,945.5s-29.38,27.54-27.86,66.2l124.09-28.94-35.19-46.31-61.04,9.05Z"/>
          <path class="cls-8" d="m1163.94,1037.26c-2.96,9.77-9.58,21.09-20.25,34.61-50.73,64.3-137.08,130.93-196.59,151.7-24.62,8.59-48.19,5.22-63.04-9.03-12.37-11.86-16.49-29.69-11.04-47.71,3.65-12.05,11.34-24.03,22.85-35.62,49.92-50.26,147.4-105.79,197.13-128.99,12.43-5.8,43.39-17.52,62.31-1.12,4.67,4.05,14.85,15.67,8.64,36.16h0Z"/>
        </g>
      </g>
      <g>
        <path class="cls-4" d="m939.64,1202.21c52.82-18.43,135.82-80.39,186.28-144.35,40.21-50.97,1.08-46.53-23.37-35.13-51.58,24.06-144.24,77.72-190.64,124.43-38.37,38.63-11.85,68.86,27.72,55.05Z"/>
        <g class="cls-19">
          <line class="cls-10" x1="1014.63" y1="889.87" x2="1227.71" y2="1179.85"/>
          <line class="cls-10" x1="997.48" y1="902.48" x2="1210.56" y2="1192.46"/>
          <line class="cls-10" x1="980.32" y1="915.08" x2="1193.41" y2="1205.06"/>
          <line class="cls-10" x1="963.17" y1="927.69" x2="1176.25" y2="1217.67"/>
          <line class="cls-10" x1="946.02" y1="940.29" x2="1159.1" y2="1230.27"/>
          <line class="cls-10" x1="928.86" y1="952.89" x2="1141.95" y2="1242.88"/>
          <line class="cls-10" x1="911.71" y1="965.5" x2="1124.79" y2="1255.48"/>
          <line class="cls-10" x1="894.55" y1="978.1" x2="1107.64" y2="1268.09"/>
          <line class="cls-10" x1="877.4" y1="990.71" x2="1090.48" y2="1280.69"/>
          <line class="cls-10" x1="860.25" y1="1003.31" x2="1073.33" y2="1293.3"/>
          <line class="cls-10" x1="843.09" y1="1015.92" x2="1056.18" y2="1305.9"/>
          <line class="cls-10" x1="825.94" y1="1028.52" x2="1039.02" y2="1318.51"/>
          <line class="cls-10" x1="808.78" y1="1041.13" x2="1021.87" y2="1331.11"/>
        </g>
      </g>
    </g>
    <line class="cls-11" x1="1124.9" y1="792.83" x2="1120.28" y2="800.14"/>
    <g>
      <path class="cls-27" d="m1234.7,987.71c-1.68,5.53-3.47,11.05-5.4,16.52-43.21,124.12-145.06,233.45-308.33,209.91-38.5-5.54-62.87-14.35-74.21-22.28-.03,0-.05-.04-.08-.05-.35-.23-.67-.46-.96-.71-.35-.24-.66-.49-.98-.75-.29-.22-.58-.47-.85-.68-.64-.57-1.23-1.13-1.73-1.67-.16-.16-.32-.35-.48-.53-1.36-1.54-2.14-3.03-2.38-4.38-.05-.25-.08-.49-.09-.69-.02-.47.03-.9.14-1.34.58-2.27,2.98-4.11,7.1-5.28,168.54-47.57,197.68-142.86,205.29-179.72,17.21-83.6,9.57-112.82,18.17-154.13,4.19-20.21,16.4-37.93,32.67-51.4,4.4-3.6,9.07-6.9,13.95-9.89,2.83-1.7,5.72-3.29,8.67-4.79,4.45-2.22,9.04-4.17,13.69-5.81,0,.23,0,.47,0,.7-.1,3.48-.16,9.07,0,15.62.47,18.46,2.79,44.4,11.77,51.4,14.39,11.19,23.3-6.03,23.3-6.03,13.17,10.12,21.54-4.99,21.54-4.99,16.87,7.33,21.79-20.67,21.79-20.67,0,0,3.07-10.16,4.76-26.46,17.92,14.4,30.27,39.37,31.16,77.59.27,11.72-.01,23.76-.93,36-.35,5.37-.86,10.76-1.47,16.21-2.87,25.81-8.25,52.26-16.14,78.29Z"/>
      <path class="cls-23" d="m1120.93,781.77c-14.82,11.24-33.89,31.55-37.17,63.04-1.69,16.3-4.04,30.03-4.96,47.73-1.29,25.1-2.91,56.37-13.21,106.37-12.62,61.24-51.04,111.25-112.69,147.87-9.4,5.56-25.83,13.85-43.56,20.4-40.7,15.03-75.85,13.97-62.66,24.62-.35-.23-.67-.46-.96-.71-.35-.24-.66-.49-.98-.75-.29-.22-.58-.47-.85-.68-.64-.57-1.23-1.13-1.73-1.67-.16-.16-.32-.35-.48-.53-1.36-1.54-2.14-3.03-2.38-4.38-.05-.25-.08-.49-.09-.69-.02-.47.03-.9.14-1.34.58-2.27,2.98-4.11,7.1-5.28,168.54-47.57,197.68-142.86,205.29-179.72,17.21-83.6,9.57-112.82,18.17-154.13,4.19-20.21,16.4-37.93,32.67-51.4,4.4-3.6,9.07-6.9,13.95-9.89,2.83-1.7,5.72-3.29,8.67-4.79,4.45-2.22,9.04-4.17,13.69-5.81,0,.23,0,.47,0,.7,0,0-8.01,3.47-17.98,11.02Z"/>
      <g>
        <path class="cls-14" d="m1171.92,943.83c-7.15,27.92-23.43,49.18-40.15,54.94-4.93,1.69-9.9,2.05-14.69.82-20.99-5.38-30.51-39.09-21.25-75.26,9.27-36.17,33.83-61.15,54.82-55.77,4.8,1.23,8.98,3.94,12.49,7.78,11.89,13.09,15.94,39.56,8.79,67.48Z"/>
        <path class="cls-23" d="m1153.9,939.21c-4.25,16.58-13.23,29.38-22.2,33.05-2.64,1.07-5.29,1.37-7.81.72-11.05-2.83-15.56-22.56-10.06-44.03s18.94-36.6,29.99-33.77c2.52.65,4.7,2.18,6.5,4.39,6.1,7.53,7.82,23.07,3.57,39.65Z"/>
        <path class="cls-23" d="m1199.07,950.78c-2.95,11.51-7.44,21.86-12.89,30.48-11.63,18.51-27.62,28.95-41.95,25.28l-27.15-6.96c4.8,1.23,9.76.87,14.69-.82,9-3.1,17.86-10.69,25.25-21.39,6.35-9.18,11.6-20.65,14.9-33.56,4.13-16.14,4.53-31.81,1.78-44.68-1.95-9.38-5.56-17.28-10.57-22.8-3.51-3.85-7.69-6.55-12.49-7.78l27.15,6.96c10.77,2.76,18.52,12.95,22.25,27.13,3.59,13.45,3.55,30.49-.97,48.13Z"/>
        <path class="cls-14" d="m1300.14,960.88c-7.15,27.92-23.43,49.18-40.15,54.94-4.93,1.69-9.9,2.05-14.69.82-11.62-2.98-19.73-14.63-23.06-30.58l29.87,3.97c2.52.65,5.16.36,7.8-.72,8.97-3.69,17.95-16.48,22.19-33.06,4.25-16.58,2.53-32.11-3.57-39.63-1.8-2.21-3.97-3.76-6.49-4.41l-.4-.04c-.64-.13-1.25-.23-1.92-.26l-30.78-4.09c11.43-16.58,26.4-25.68,39.91-22.22,4.8,1.23,8.98,3.94,12.49,7.78,11.89,13.09,15.94,39.56,8.79,67.48Z"/>
        <path class="cls-23" d="m1306.01,892.57l-27.15-6.96c4.8,1.23,8.98,3.94,12.49,7.78,11.89,13.09,15.94,39.56,8.79,67.48-7.15,27.92-23.43,49.18-40.15,54.94-4.93,1.69-9.9,2.05-14.69.82l27.15,6.96c21.02,5.38,45.58-19.6,54.84-55.76,9.27-36.17-.26-69.88-21.28-75.26Z"/>
        <path class="cls-14" d="m1204.55,952.19c-2.86,11.18-7.06,21.29-12.13,29.92l-6.24-.84c5.45-8.62,9.94-18.97,12.89-30.48,4.52-17.65,4.56-34.69.97-48.13l6.13.81c3.23,13.97,2.93,30.97-1.62,48.73Z"/>
        <path class="cls-23" d="m1282.11,956.26c-4.25,16.58-13.22,29.37-22.19,33.06-2.64,1.08-5.28,1.36-7.8.72l-29.87-3.97-29.82-3.96c5.07-8.63,9.27-18.74,12.13-29.92,4.55-17.76,4.85-34.76,1.62-48.73l32.78,4.37,30.78,4.09c.67.02,1.28.12,1.92.26l.4.04c2.52.65,4.69,2.19,6.49,4.41,6.1,7.52,7.82,23.05,3.57,39.63Z"/>
      </g>
      <g>
        <path class="cls-14" d="m973.69,1214.61c-3.82,14.92-13.67,26.33-25.15,30.89-3.01,1.21-6.16,1.92-9.31,2.13-2.85.18-5.73-.08-8.59-.81-18.03-4.62-27.97-26.54-22.24-48.94,5.74-22.42,25-36.87,43.03-32.25,2.86.73,5.5,1.89,7.92,3.42,2.67,1.7,5.08,3.84,7.14,6.35,7.88,9.53,11.03,24.26,7.2,39.21Z"/>
        <ellipse class="cls-23" cx="941.04" cy="1206.23" rx="23.06" ry="18.55" transform="translate(-460.99 1818.5) rotate(-75.63)"/>
        <path class="cls-14" d="m1085.6,1243.28c-3.82,14.92-13.67,26.33-25.15,30.89-3.01,1.21-6.16,1.92-9.31,2.13-2.85.18-5.73-.08-8.59-.81-11.39-2.92-19.56-12.76-22.59-25.24l27.26,6.98h.03c9.91,2.54,20.52-5.4,23.68-17.72,3.16-12.34-2.33-24.41-12.23-26.95h-.03s-27.24-6.98-27.24-6.98c8.64-9.52,20.53-14.2,31.92-11.28,2.86.73,5.5,1.89,7.92,3.42,2.67,1.7,5.08,3.84,7.14,6.35,7.88,9.53,11.02,24.26,7.2,39.21Z"/>
        <path class="cls-23" d="m1079.83,1198.53l-16.48-4.22c2.86.73,5.5,1.89,7.92,3.42,2.67,1.7,5.08,3.84,7.14,6.35,7.88,9.53,11.03,24.26,7.2,39.21-3.82,14.92-13.67,26.33-25.15,30.89-3.01,1.21-6.16,1.92-9.31,2.13-2.85.18-5.73-.08-8.59-.81l16.48,4.22c18.03,4.62,37.31-9.82,43.05-32.22,5.74-22.42-4.22-44.35-22.25-48.97Z"/>
        <path class="cls-23" d="m1070.93,1239.52c-3.15,12.31-13.77,20.26-23.68,17.72h-.03s-68.17-17.47-68.17-17.47c-8.66,9.49-20.55,14.19-31.94,11.28l-16.48-4.22c2.86.73,5.73.99,8.59.81,3.15-.21,6.3-.92,9.31-2.13,11.49-4.57,21.33-15.97,25.15-30.89,3.83-14.95.68-29.68-7.2-39.21-2.06-2.5-4.48-4.65-7.14-6.35-2.42-1.53-5.06-2.69-7.92-3.42l16.48,4.22c11.39,2.92,19.53,12.75,22.56,25.24l68.2,17.47h.03c9.91,2.54,15.4,14.61,12.23,26.95Z"/>
      </g>
    </g>
    <g>
      <path class="cls-23" d="m782.52,719.87c-3.32.92-5.52,4.77-4.63,8.1,2.05.83,4.62.94,6.25-.55,1.63-1.49.52-7.01-1.62-7.55"/>
      <path class="cls-23" d="m798.29,727.89c.93-1.38,2.7-1.94,4.36-2.07.52-.04,1.09-.03,1.48.32.37.33.45.87.51,1.36.15,1.28.26,2.72-.53,3.74-.93,1.21-2.7,1.32-4.22,1.24-.19,0-.38-.02-.54-.12-.19-.12-.28-.35-.35-.56-.42-1.23-.55-2.55-.39-3.84"/>
      <path class="cls-23" d="m788.87,738.45c.67-.06,1.35,0,2,.15.55.13,1.09.35,1.48.76.7.75.69,1.89.63,2.92-.03.55-.07,1.14-.38,1.59-.56.82-1.72.9-2.71.89-.3,0-.63-.01-.87-.21-.17-.14-.26-.37-.34-.58-.68-1.98-.57-4.22.29-6.13"/>
      <path class="cls-23" d="m776.45,739.1c.8-.2,1.72.29,2,1.07s-.14,1.74-.89,2.08c-.76.34-1.75.02-2.16-.7-.27-.48-.29-1.05-.29-1.6,0-.35.01-.72.21-1s.67-.39.89-.13"/>
    </g>
    <g>
      <path class="cls-23" d="m957.6,689.34c-3.32.92-5.52,4.77-4.63,8.1,2.05.83,4.62.94,6.25-.55,1.63-1.49.52-7.01-1.62-7.55"/>
      <path class="cls-23" d="m973.36,697.37c.93-1.38,2.7-1.94,4.36-2.07.52-.04,1.09-.03,1.48.32.37.33.45.87.51,1.36.15,1.28.26,2.72-.53,3.74-.93,1.21-2.7,1.32-4.22,1.24-.19,0-.38-.02-.54-.12-.19-.12-.28-.35-.35-.56-.42-1.23-.55-2.55-.39-3.84"/>
      <path class="cls-23" d="m963.94,707.93c.67-.06,1.35,0,2,.15.55.13,1.09.35,1.48.76.7.75.69,1.89.63,2.92-.03.55-.07,1.14-.38,1.59-.56.82-1.72.9-2.71.89-.3,0-.63-.01-.87-.21-.17-.14-.26-.37-.34-.58-.68-1.98-.57-4.22.29-6.13"/>
      <path class="cls-23" d="m951.53,708.57c.8-.2,1.72.29,2,1.07s-.14,1.74-.89,2.08-1.75.02-2.16-.7c-.27-.48-.29-1.05-.29-1.6,0-.35.01-.72.21-1s.67-.39.89-.13"/>
    </g>
    <path class="cls-3" d="m853.86,737.19c.97,2.98-2.76,5.29-4.97,3.07-6.71-6.74-14.14-17.89-10.47-32.22,4.26-16.61,15.66-12.73,22.46-8.61,2.08,1.26,1.85,4.32-.37,5.32-6.05,2.7-13.83,10.41-6.64,32.45Z"/>
  </g>
</svg>