<?xml version="1.0" encoding="UTF-8"?>
<svg id="Capa_1" data-name="Capa 1" xmlns="http://www.w3.org/2000/svg" xmlns:xlink="http://www.w3.org/1999/xlink" viewBox="0 0 1600 1600">
  <defs>
    <style>
      .cls-1 {
        clip-path: url(#clippath);
      }

      .cls-2 {
        stroke-width: 8.55px;
      }

      .cls-2, .cls-3, .cls-4, .cls-5, .cls-6, .cls-7, .cls-8, .cls-9, .cls-10 {
        stroke-linecap: round;
      }

      .cls-2, .cls-3, .cls-4, .cls-5, .cls-6, .cls-7, .cls-8, .cls-9, .cls-10, .cls-11 {
        fill: none;
        stroke-miterlimit: 10;
      }

      .cls-2, .cls-7 {
        stroke: #4b2910;
      }

      .cls-3 {
        stroke-dasharray: 0 0 28.03 28.03;
      }

      .cls-3, .cls-4, .cls-5, .cls-6, .cls-8, .cls-9, .cls-10 {
        stroke: #824014;
        stroke-width: 8.03px;
      }

      .cls-4 {
        stroke-dasharray: 0 0 28.09 28.09;
      }

      .cls-5 {
        stroke-dasharray: 0 0 26.83 26.83;
      }

      .cls-12, .cls-13 {
        fill: #02af4c;
      }

      .cls-14, .cls-15 {
        fill: #fff;
      }

      .cls-16, .cls-17 {
        fill: #ffe706;
      }

      .cls-18, .cls-19 {
        fill: #fe299e;
      }

      .cls-20, .cls-21 {
        fill: #9b26c6;
      }

      .cls-22, .cls-23 {
        fill: #934a19;
      }

      .cls-24, .cls-25 {
        fill: #1b3cc0;
      }

      .cls-26, .cls-27 {
        fill: #4b2910;
      }

      .cls-28 {
        clip-path: url(#clippath-1);
      }

      .cls-29 {
        clip-path: url(#clippath-4);
      }

      .cls-30 {
        clip-path: url(#clippath-3);
      }

      .cls-31 {
        clip-path: url(#clippath-2);
      }

      .cls-32 {
        clip-path: url(#clippath-7);
      }

      .cls-33 {
        clip-path: url(#clippath-8);
      }

      .cls-34 {
        clip-path: url(#clippath-6);
      }

      .cls-35 {
        clip-path: url(#clippath-5);
      }

      .cls-36 {
        clip-path: url(#clippath-9);
      }

      .cls-37, .cls-38 {
        opacity: .15;
      }

      .cls-37, .cls-39, .cls-40, .cls-27, .cls-41, .cls-42, .cls-43, .cls-25, .cls-44, .cls-45, .cls-46, .cls-21, .cls-23, .cls-47, .cls-15, .cls-48, .cls-17, .cls-19, .cls-49, .cls-50, .cls-13 {
        stroke-width: 0px;
      }

      .cls-37, .cls-44 {
        fill: #1d1d1b;
      }

      .cls-51 {
        clip-path: url(#clippath-13);
      }

      .cls-52 {
        clip-path: url(#clippath-12);
      }

      .cls-53 {
        clip-path: url(#clippath-10);
      }

      .cls-54 {
        clip-path: url(#clippath-11);
      }

      .cls-7 {
        stroke-width: 3.98px;
      }

      .cls-8 {
        stroke-dasharray: 0 0 34.2 34.2;
      }

      .cls-40 {
        fill: #fc4e0e;
      }

      .cls-41 {
        fill: #5e0096;
      }

      .cls-42 {
        fill: #99d700;
      }

      .cls-43 {
        fill: #94c108;
      }

      .cls-45 {
        fill: #1bd7f3;
      }

      .cls-46 {
        fill: #bdef25;
      }

      .cls-47 {
        fill: #7d9907;
      }

      .cls-48 {
        fill: #fff5a9;
      }

      .cls-49 {
        fill: #e6e6e6;
      }

      .cls-50 {
        fill: #00d461;
      }

      .cls-9 {
        stroke-dasharray: 0 0 29.32 29.32;
      }

      .cls-10 {
        stroke-dasharray: 0 0 27.9 27.9;
      }

      .cls-11 {
        stroke: #7d9907;
        stroke-width: 5.35px;
      }
    </style>
    <clipPath id="clippath">
      <path class="cls-19" d="m691.66,1041.49s-52.22,53.71-9.87,103.32c0,0,48.28,19.7,93.07-35.34,44.8-55.04,33.84-107.58,33.84-107.58l-8.89-6.53-20.64-.93-87.51,47.05Z"/>
    </clipPath>
    <clipPath id="clippath-1">
      <path class="cls-25" d="m929.22,1088.62s43.92,60.68-5.15,103.66c0,0-50.62,12.53-87-48.4-36.38-60.93-17.96-111.34-17.96-111.34l9.74-5.18,20.56,2.06,79.8,59.19Z"/>
    </clipPath>
    <clipPath id="clippath-2">
      <path class="cls-23" d="m646.75,839.34c50.01,9.65,151.34,12.8,154.85-132.34,3.5-145.14-110.05-179.63-151.94-177.5-41.89,2.13-138.27,55.97-126.68,157.76,11.59,101.78,57.91,139.37,123.77,152.08Z"/>
    </clipPath>
    <clipPath id="clippath-3">
      <path class="cls-13" d="m980.87,557.91c15.76,56.83,37.09,146.42-141.72,191.21,0,0,11.53-22.99,8.98-74.88-2.56-51.89,29.14-112.45,95.28-135.71,9.98-3.51,28.7-12.25,37.47,19.38Z"/>
    </clipPath>
    <clipPath id="clippath-4">
      <path class="cls-17" d="m824.31,688.62s-72.92,22.85-61.8,89.04c11.58,68.95,82.6,72.96,112.03,65.6,29.43-7.36,53.18-22.79,53.18-22.79,0,0,14.05,16.05,32.11,15.38,18.06-.67,10.03-20.74,10.03-20.74,0,0,20.07,2.01,15.38-17.39,0,0,14.66-1.34,4.65-22.07-10-20.74-44.31-39.52-88.45-16.15-45.73,24.21-59.38,32.96-86.8,16.23-27.42-16.72-11.6-55.98,18.5-65.34"/>
    </clipPath>
    <clipPath id="clippath-5">
      <path class="cls-17" d="m824.31,688.62s-72.92,22.85-61.8,89.04c11.58,68.95,82.6,72.96,112.03,65.6,29.43-7.36,53.18-22.79,53.18-22.79,0,0,14.05,16.05,32.11,15.38,18.06-.67,10.03-20.74,10.03-20.74,0,0,20.07,2.01,15.38-17.39,0,0,14.66-1.34,4.65-22.07-10-20.74-44.31-39.52-88.45-16.15-45.73,24.21-59.38,32.96-86.8,16.23-27.42-16.72-11.6-55.98,18.5-65.34"/>
    </clipPath>
    <clipPath id="clippath-6">
      <path class="cls-17" d="m1077.35,751.27s70.23-1.35,126.57-22.6c36.13-13.63,81.91-45.23,87.51-91.89,3.17-26.43-3.27-53.95-25.21-69.51-13.84-9.81-21.9.42-19.1,6.61,0,0-17.41-7.35-17.89,9.78,0,0-18.58-1.54-13.03,17.61,3.98,13.73,12.79,19.63,12.79,19.63,0,0,6.05,84.75-141.33,110.65"/>
    </clipPath>
    <clipPath id="clippath-7">
      <path class="cls-27" d="m339.89,726.16l124.79-82c.45-.3.94-.59,1.41-.85,2.93-1.6,6.24-2.44,9.57-2.44h0c7.34,0,14.08,4,17.59,10.44,5.28,9.69,1.7,21.88-8,27.17l-131.1,71.47c-2.04,1.11-4.33,1.69-6.63,1.69-4.7,0-9.04-2.34-11.61-6.25-4.2-6.4-2.42-15.02,3.98-19.22Z"/>
    </clipPath>
    <clipPath id="clippath-8">
      <path class="cls-21" d="m458.51,633.7c-16.51,8.87-22.7,29.44-13.83,45.95,8.87,16.51,29.44,22.7,45.95,13.83,16.51-8.87,22.7-29.44,13.83-45.95-8.87-16.51-29.44-22.7-45.95-13.83Z"/>
    </clipPath>
    <clipPath id="clippath-9">
      <path class="cls-23" d="m350.45,719.22s-9.79-37.82,32.61-65.29c33.04-21.42,57.57.26,59.68,11.75,2.55,13.88-4.26,22.2-16.67,19.26,0,0-1.69,19.52-23.63,14.15,0,0-4.48,12.81-16.61,11.71-9.18-.83-13.47-6.25-13.47-6.25l-21.92,14.67Z"/>
    </clipPath>
    <clipPath id="clippath-10">
      <path class="cls-15" d="m665.63,713.74c22.88-5.49,39.43-21.84,46.93-33.71,4.95-7.84,2.61-18.21-5.24-23.16-7.81-4.93-18.13-2.63-23.11,5.15-2.07,3.17-20.67,29.75-52.13,15.97-8.5-3.72-18.4.15-22.12,8.64-3.72,8.49.15,18.4,8.64,22.12,17.53,7.68,33.4,8.26,47.02,5Z"/>
    </clipPath>
    <clipPath id="clippath-11">
      <path class="cls-27" d="m537.37,615.52s.85-6.14,4.93-7.09c79.21-18.51,126.94-6.14,141.27-1.76,3.35,1.02,3.32,7.16,3.32,7.16.02.3,2.58,48.46-39.88,45.08-35.05-2.79-32.02-37.23-29.85-49.36-8.15.1-16.97.59-26.42,1.58,1.81,12.04,4.41,46.66-24.78,49.45-35.39,3.39-28.6-45.07-28.6-45.07h0Z"/>
    </clipPath>
    <clipPath id="clippath-12">
      <path class="cls-19" d="m531.29,982.54s-67.88,31.68-45.9,93.09c0,0,38.14,35.56,99.56,0,61.41-35.56,69.82-88.57,69.82-88.57l-5.99-9.26-18.97-8.2-98.51,12.93Z"/>
    </clipPath>
    <clipPath id="clippath-13">
      <path class="cls-25" d="m1171.55,1010.76s62.14,41.83,30.88,99.09c0,0-43.2,29.2-98.35-15.46-55.15-44.66-55.22-98.34-55.22-98.34l7.36-8.22,20.01-5.15,95.31,28.07Z"/>
    </clipPath>
  </defs>
  <rect class="cls-42" x="0" width="1600" height="1600"/>
  <g>
    <g>
      <path class="cls-43" d="m521.73,1084.88c2.91,8.53,14.78,9.5,18.9,1.48,4.35-8.47,11.57-18.51,23.53-28.98,32.11-28.13,27.65-58.32,16.43-68.66-11-10.14-44.76-13.3-60.24,33.57-7.89,23.88-4.17,46.32,1.38,62.59Z"/>
      <path class="cls-43" d="m502.57,1179.17c11.68,6.94,4.8,24.97-8.53,22.36-41.3-8.08-96.92-24.89-152.4-59.85-109.26-68.85-104.06-142-55.65-149.75,28.3-4.53,81.17,22.47,111.46,87.66,19.44,41.84,66.5,76.64,105.12,99.58Z"/>
      <path class="cls-46" d="m757.07,1259.25c-295-39.32-503.95-319.77-422.33-547.11,44.46-123.83,197.11-98.73,155.66,104.78-28.28,138.83,35.03,329.31,270.78,414.03,37.6,13.51,11.76,30.42-4.11,28.3Z"/>
      <path class="cls-47" d="m862.94,444.95c-7.23.86-11.15-8.22-5.57-12.91,35.79-30.1,126.54-86.38,267.38-40.03,186.07,61.23,180.97,184.5,121.05,208.27-41.63,16.51-110.71-7.54-166.68-80.09-63.81-82.7-169.8-80.75-216.17-75.25Z"/>
      <path class="cls-46" d="m1154.37,375.18c-7.58-.72-8.41-11.5-1.03-13.37,22.86-5.79,55.05-10.59,91.52-6.16,71.82,8.72,86.69,47.02,64.03,62.53-13.25,9.07-46.49,8.04-77.43-17.72-19.86-16.54-52.03-22.91-77.08-25.28Z"/>
      <path class="cls-47" d="m288.78,709.88c-1.88,9.81-16.07,9.56-17.6-.31-4.74-30.59-7.01-73.25,3.3-120.36,20.31-92.77,72.2-107.46,89.65-75.92,10.2,18.44,4.75,61.75-32.76,98.99-24.08,23.9-36.38,65.15-42.6,97.59Z"/>
      <path class="cls-43" d="m1049.89,540.38c-9.79-4.58-20.51,4.88-17.01,15.11,3.7,10.81,6.37,25.41,5.48,44.47-2.4,51.18,27.42,72.45,45.7,71.35,17.92-1.07,48.75-27.63,21.1-80.03-14.09-26.7-36.59-42.16-55.27-50.9Z"/>
    </g>
    <g>
      <path class="cls-11" d="m337.73,739.28c-88.78,31.11-106.56,164.6-88.52,216.43,31.01,89.09,119.47,148.53,177.76,119.42,16.64-8.31,32.92-22.1,32.81-40.7-.11-17.87-14.02-32.94-29.58-41.73-15.56-8.79-33.24-13.15-49.2-21.2-37.05-18.68-63.17-65.45-45.08-102.79,15.35-31.7,57.09-44.03,90.96-34.37,33.87,9.66,60.34,36.43,79.87,65.74,13.28,19.93,10.77,130.37,95.1,170.54,50.19,23.9,177.12,1.26,223.76-54.77,63.69-76.5-53.18-145.06,116.58-197.56,55.74-17.24,200.55-54.15,274.38,19.88,55.07,55.22,53.62,139.34-23.44,135.36-32.74-1.69-63.45-69.67-136.9-69.67-168.59,0-118.69,120.95-112.54,136.54,31.07,78.81,165.02,29.02,141.54,119.94-22.55,87.33-182.1-.73-177.2-16.2"/>
      <g>
        <g>
          <g>
            <path class="cls-18" d="m691.66,1041.49s-52.22,53.71-9.87,103.32c0,0,48.28,19.7,93.07-35.34,44.8-55.04,33.84-107.58,33.84-107.58l-8.89-6.53-20.64-.93-87.51,47.05Z"/>
            <g class="cls-1">
              <path class="cls-15" d="m652.94,1108.2s41.78-60.59,104.42-1.16c62.65,59.44-46.47,64.86-46.47,64.86,0,0-56.96-1.85-57.95-63.7Z"/>
              <g>
                <path class="cls-15" d="m666.57,1158.37l-10.48-44.97,15.3,10.18c1.18.59,12.09,5.82,27.38,5.82,18.51,0,35.72-7.33,51.15-21.8,39.56-37.07,52.65-116.73,52.78-117.53l1-6.3,24.75,31.16-3.05,110.11-114.36,54.73-44.46-21.4Z"/>
                <path class="cls-19" d="m805.46,990.5l20.14,25.37-2.98,107.38-111.6,53.41-42.03-20.23-8.57-36.77,9.53,6.34s11.7,6.2,28.8,6.2c14.97,0,34.07-4.75,53.07-22.56,40.72-38.15,53.63-119.14,53.63-119.14m-3.54-13.48l-2.01,12.6c-.14.88-13.13,79.57-51.93,115.93-14.9,13.96-31.46,21.04-49.23,21.04-14.16,0-24.39-4.68-25.97-5.45l-9.25-6.15-11.79-7.85,3.22,13.8,8.57,36.77.61,2.62,2.42,1.17,42.03,20.23,2.43,1.17,2.43-1.16,111.6-53.41,3.09-1.48.1-3.43,2.98-107.38.06-2.05-1.27-1.6-20.14-25.37-7.93-9.99h0Z"/>
              </g>
              <path class="cls-15" d="m724.05,1077.64c-.75.28-1.61.25-2.36-.17-19.12-10.63-36.33-.31-37.06.14-1.32.81-3.05.4-3.86-.91-.81-1.32-.41-3.04.9-3.86.83-.52,20.67-12.55,42.74-.27,1.36.75,1.84,2.46,1.09,3.82-.33.6-.86,1.03-1.46,1.26Z"/>
              <path class="cls-15" d="m728.34,1065.27c-.75.28-1.61.25-2.36-.17-19.12-10.63-36.33-.31-37.06.14-1.32.81-3.05.4-3.86-.91-.81-1.32-.41-3.04.9-3.86.83-.52,20.67-12.55,42.74-.27,1.36.75,1.84,2.46,1.09,3.82-.33.6-.86,1.03-1.46,1.26Z"/>
            </g>
          </g>
          <path class="cls-23" d="m732.38,825.95s-13.74,104.21,44.84,151.86l22.59,17.56s-26.93,75.97-111.73,50.22c0,0-73.41-98.28-10.71-219.8"/>
          <path class="cls-15" d="m659.32,981.68c-1.1-4.18-2.14-8.51-3.05-13.04,20.99,2.62,60.37,2.86,94.72-23.21,2.12,3.99,4.5,7.87,7.09,11.62-35.9,28.59-77.9,27.49-98.76,24.63Z"/>
          <path class="cls-15" d="m663.92,996.7c-1.12-3.19-2.17-6.51-3.19-9.96,20.48,3.03,63.96,4.79,100.77-25.06,2.2,2.86,4.58,5.62,7.15,8.25-38.26,32.69-84.52,30.01-104.73,26.77Z"/>
          <path class="cls-15" d="m799.82,995.36s-26.93,75.98-111.74,50.22c0,0-12.15-16.28-22.33-43.74,19.97,3.32,67.95,6.59,107-27.9,1.45,1.34,2.92,2.62,4.47,3.88l22.6,17.54Z"/>
          <path class="cls-45" d="m761.51,961.68c-36.81,29.85-80.29,28.08-100.77,25.06-.48-1.66-.96-3.35-1.42-5.06,20.85,2.86,62.86,3.96,98.76-24.63,1.1,1.58,2.22,3.11,3.43,4.63Z"/>
          <path class="cls-45" d="m772.75,973.94c-39.06,34.48-87.03,31.22-107,27.9v-.03c-.64-1.66-1.23-3.37-1.82-5.11,20.21,3.24,66.47,5.92,104.73-26.77,1.31,1.39,2.68,2.73,4.1,4.02Z"/>
          <path class="cls-49" d="m753.69,963.16c-1.16.1-2.26-.62-2.6-1.77-.04-.13-1.97-6.39-6.45-9-1.18-.69-1.58-2.21-.89-3.4.69-1.19,2.21-1.59,3.4-.9,6.24,3.64,8.62,11.56,8.71,11.9.38,1.32-.37,2.7-1.69,3.08-.16.05-.32.08-.48.09Z"/>
          <path class="cls-49" d="m742.71,967.95c-1.16.1-2.26-.62-2.6-1.77-.04-.13-1.97-6.39-6.45-9-1.18-.69-1.58-2.21-.89-3.4.69-1.19,2.21-1.59,3.4-.9,6.24,3.64,8.62,11.56,8.71,11.9.38,1.32-.37,2.7-1.69,3.08-.16.05-.32.08-.48.09Z"/>
          <path class="cls-49" d="m731.74,972.74c-1.16.1-2.26-.62-2.6-1.77-.04-.13-1.97-6.39-6.45-9-1.18-.69-1.58-2.21-.89-3.4.69-1.19,2.21-1.59,3.4-.9,6.24,3.64,8.62,11.56,8.71,11.9.38,1.32-.37,2.7-1.69,3.08-.16.05-.32.08-.48.09Z"/>
          <path class="cls-49" d="m720.76,977.53c-1.16.1-2.26-.62-2.6-1.78-.04-.12-1.96-6.39-6.45-9-1.19-.69-1.59-2.21-.9-3.4.69-1.18,2.21-1.59,3.39-.9,6.24,3.64,8.62,11.56,8.72,11.9.38,1.32-.37,2.7-1.69,3.08-.16.05-.32.08-.48.09Z"/>
        </g>
        <g>
          <g>
            <path class="cls-24" d="m929.22,1088.62s43.92,60.68-5.15,103.66c0,0-50.62,12.53-87-48.4-36.38-60.93-17.96-111.34-17.96-111.34l9.74-5.18,20.56,2.06,79.8,59.19Z"/>
            <g class="cls-28">
              <path class="cls-15" d="m957.91,1160.22s-32.59-65.99-103.16-16.22c-70.57,49.77,36.62,70.88,36.62,70.88,0,0,56.63,6.39,66.54-54.67Z"/>
              <g>
                <path class="cls-15" d="m784.83,1151.99l12.87-109.4,28.98-27.26.09,6.38c.01.81,1.49,81.55,35.26,123.92,19.55,24.52,42,29.67,57.38,29.67,10,0,17.03-2.2,18.02-2.52l16.61-7.86-16.87,42.99-47.08,14.76-105.27-70.67Z"/>
                <path class="cls-25" d="m823.97,1021.74s1.09,82,35.87,125.63c20.27,25.42,43.62,30.73,59.58,30.73,11.43,0,19.07-2.72,19.07-2.72l10.35-4.9-13.79,35.14-44.51,13.95-102.72-68.96,12.55-106.68,23.59-22.19m5.44-12.82l-9.28,8.73-23.59,22.19-1.49,1.4-.24,2.03-12.55,106.68-.4,3.41,2.85,1.91,102.72,68.96,2.24,1.5,2.57-.81,44.51-13.95,2.57-.8.98-2.5,13.79-35.14,5.17-13.19-12.8,6.06-10.04,4.76c-1.24.39-7.78,2.33-16.98,2.33-14.77,0-36.34-4.96-55.19-28.61-33.16-41.6-34.64-121.41-34.65-122.21l-.18-12.74h0Z"/>
              </g>
              <path class="cls-15" d="m891.95,1119.72c.7.39,1.56.48,2.36.17,20.46-7.76,36,4.94,36.65,5.49,1.19.99,2.96.84,3.95-.35,1-1.18.85-2.95-.34-3.95-.75-.63-18.64-15.4-42.25-6.44-1.45.55-2.18,2.17-1.63,3.62.24.64.7,1.15,1.26,1.46Z"/>
              <path class="cls-15" d="m889.49,1106.86c.7.39,1.56.48,2.36.17,20.46-7.76,36,4.94,36.65,5.49,1.19.99,2.96.84,3.95-.35,1-1.18.85-2.95-.34-3.95-.75-.63-18.64-15.4-42.25-6.44-1.45.55-2.18,2.17-1.63,3.62.24.64.7,1.15,1.26,1.46Z"/>
            </g>
          </g>
          <path class="cls-17" d="m920.04,869.46s-1.45,105.1-66.29,143.8l-24.89,14.11s15.68,79.07,103.31,65.82c0,0,86.83-86.65,42.32-215.95"/>
          <path class="cls-15" d="m969.85,1034.1c1.69-3.97,3.35-8.11,4.9-12.46-21.15-.43-60.15-5.88-90.38-36.64-2.67,3.64-5.59,7.14-8.7,10.47,31.4,33.47,73.12,38.45,94.17,38.63Z"/>
          <path class="cls-15" d="m963.13,1048.3c1.57-2.99,3.08-6.12,4.59-9.4-20.7.04-63.98-4.49-96.09-39.34-2.59,2.52-5.34,4.9-8.26,7.13,33.14,37.87,79.3,41.9,99.77,41.61Z"/>
          <path class="cls-15" d="m828.85,1027.36s15.68,79.07,103.32,65.83c0,0,14.38-14.35,28.41-40.06-20.24.4-68.18-3.29-101.86-43.05-1.62,1.12-3.27,2.17-4.98,3.2l-24.89,14.09Z"/>
          <path class="cls-40" d="m871.62,999.56c32.12,34.85,75.39,39.38,96.09,39.34.72-1.57,1.44-3.17,2.14-4.8-21.05-.18-62.77-5.15-94.17-38.63-1.31,1.4-2.65,2.75-4.06,4.09Z"/>
          <path class="cls-40" d="m858.73,1010.07c33.67,39.76,81.62,43.45,101.86,43.05v-.03c.88-1.55,1.71-3.16,2.54-4.8-20.47.29-66.63-3.74-99.77-41.61-1.5,1.19-3.04,2.32-4.63,3.38Z"/>
          <path class="cls-49" d="m879.14,1002.16c1.13.27,2.32-.29,2.83-1.38.06-.13,2.87-6.04,7.68-7.98,1.27-.51,1.89-1.96,1.37-3.23-.51-1.27-1.96-1.89-3.23-1.38-6.7,2.7-10.19,10.2-10.34,10.51-.57,1.25-.02,2.72,1.22,3.29.15.07.31.12.47.16Z"/>
          <path class="cls-49" d="m889.32,1008.48c1.13.27,2.32-.29,2.83-1.38.06-.13,2.87-6.04,7.68-7.98,1.27-.51,1.89-1.96,1.37-3.23-.51-1.27-1.96-1.89-3.23-1.38-6.7,2.7-10.19,10.2-10.34,10.51-.57,1.25-.02,2.72,1.22,3.29.15.07.31.12.47.16Z"/>
          <path class="cls-49" d="m899.49,1014.81c1.13.27,2.32-.29,2.83-1.38.06-.13,2.87-6.04,7.68-7.98,1.27-.51,1.89-1.96,1.37-3.23-.51-1.27-1.96-1.89-3.23-1.38-6.7,2.7-10.19,10.2-10.34,10.51-.57,1.25-.02,2.72,1.22,3.29.15.07.31.12.47.16Z"/>
          <path class="cls-49" d="m909.66,1021.13c1.13.27,2.32-.29,2.83-1.38.06-.12,2.86-6.04,7.68-7.98,1.27-.51,1.89-1.96,1.38-3.23-.51-1.27-1.95-1.89-3.23-1.38-6.7,2.7-10.2,10.2-10.34,10.51-.57,1.25-.02,2.72,1.23,3.29.15.07.31.12.46.16Z"/>
        </g>
        <path class="cls-17" d="m899.08,875.39s143.45,50.82,182.81-91.47c39.36-142.29-62.1-204.97-103.21-213.44-41.11-8.47-147.82,20.33-161.82,123.66-14,103.33,42.86,162.62,42.86,162.62,0,0-6.12,47.43,39.36,18.63Z"/>
        <g>
          <path class="cls-22" d="m646.75,839.34c50.01,9.65,151.34,12.8,154.85-132.34,3.5-145.14-110.05-179.63-151.94-177.5-41.89,2.13-138.27,55.97-126.68,157.76,11.59,101.78,57.91,139.37,123.77,152.08Z"/>
          <g class="cls-31">
            <g>
              <path class="cls-6" d="m714.77,541.47s2.47,5.39,6,14.89"/>
              <path class="cls-8" d="m731.3,588.89c12.9,46.33,24.65,119.26-1.6,184.86"/>
              <path class="cls-6" d="m722.64,789.33c-2.4,4.73-5.02,9.4-7.87,14"/>
            </g>
            <g>
              <path class="cls-6" d="m768.65,526.3s2.47,5.39,6,14.89"/>
              <path class="cls-8" d="m785.18,573.72c12.9,46.33,24.65,119.26-1.6,184.86"/>
              <path class="cls-6" d="m776.52,774.16c-2.4,4.73-5.02,9.4-7.87,14"/>
            </g>
            <g>
              <path class="cls-6" d="m734.37,555.4s3.4,3.57,8.21,10.56"/>
              <path class="cls-10" d="m756.3,590.22c17.73,38.31,33.36,107.32-9.8,202.55"/>
              <path class="cls-6" d="m740.51,805.37c-1.95,3.92-3.99,7.89-6.14,11.9"/>
            </g>
            <g>
              <path class="cls-6" d="m680.71,529.82s2.41,4.09,5.74,12.08"/>
              <path class="cls-5" d="m695.08,567.3c10.66,38.68,19.34,106.37-6.5,198.76"/>
              <path class="cls-6" d="m684.8,778.94c-1.29,4.2-2.65,8.45-4.09,12.75"/>
            </g>
            <g>
              <path class="cls-6" d="m654.77,507.5s.79,4.6,1.76,13.26"/>
              <path class="cls-3" d="m658.87,548.69c2.57,43.16,2.6,117.42-15.08,209.19"/>
              <path class="cls-6" d="m641.04,771.63c-.9,4.33-1.84,8.69-2.82,13.09"/>
            </g>
            <g>
              <path class="cls-6" d="m618.62,502.26s-1.51,4.42-3.77,12.84"/>
              <path class="cls-4" d="m608.49,542.45c-8.57,42.32-18.18,115.81-9.43,209.75"/>
              <path class="cls-6" d="m600.48,766.18c.49,4.39,1.01,8.82,1.58,13.29"/>
            </g>
            <g>
              <path class="cls-6" d="m592.64,531.67s-2.91,3.92-7.25,11.24"/>
              <path class="cls-9" d="m571.93,568.94c-19.65,43.7-41.47,121.99-6.88,214.15"/>
              <path class="cls-6" d="m570.53,796.7c1.74,4.04,3.59,8.1,5.55,12.18"/>
            </g>
            <g>
              <path class="cls-19" d="m733.54,714.48c3.73-1.64,2.03-3.77,7.2-3.57,7.76.31,14.57-3.57,13.38-3.7-7.53-.83-17.08-10.57-23.25-4.53-1.91,1.87-2.08,2.03-4.87,2.13-7.14.25-8.1,14.67-12.42,20.17-.74.94,7.08-1.56,12.54-7.67,3.23-3.61,3.68-1.2,7.41-2.84Z"/>
              <path class="cls-19" d="m735.23,719.09c1.05-.46,3.58-2.09,5.11-3.38,1.81-1.52,4.74-2.8,7.28-3.91,2.54-1.11,5.56-2.6,6.74-4.06.71-.89-1.71,14.84-15.04,20.68-13.33,5.84-26.5-3.01-25.54-2.93,1.18.1,5.7-.75,7.92-2.03,2.4-1.38,5.28-2.64,7.63-2.93,1.98-.25,4.84-.99,5.89-1.45Z"/>
            </g>
          </g>
        </g>
        <g>
          <path class="cls-12" d="m980.87,557.91c15.76,56.83,37.09,146.42-141.72,191.21,0,0,11.53-22.99,8.98-74.88-2.56-51.89,29.14-112.45,95.28-135.71,9.98-3.51,28.7-12.25,37.47,19.38Z"/>
          <g class="cls-30">
            <path class="cls-50" d="m965.52,526.22s-17.25,135.84-126.37,222.89c-109.12,87.06,31.94-196.07,31.94-196.07l94.43-26.83Z"/>
            <path class="cls-13" d="m897.74,679.49c-16.12,0-36.9-2.47-62.1-10.39l4.82-15.32c58.74,18.49,90.59,4.61,90.91,4.47l6.76,14.57c-.91.43-14.74,6.68-40.4,6.68Z"/>
            <path class="cls-13" d="m888.36,714.49c-16.12,0-36.9-2.47-62.1-10.39l4.82-15.32c58.73,18.49,90.6,4.61,90.91,4.47l6.76,14.57c-.91.43-14.74,6.68-40.4,6.68Z"/>
            <path class="cls-13" d="m907.14,644.39c-16.12,0-36.9-2.47-62.1-10.39l4.82-15.32c58.74,18.49,90.6,4.61,90.91,4.47l6.76,14.57c-.92.43-14.75,6.68-40.4,6.68Z"/>
            <path class="cls-13" d="m926.43,608.11c-16.12,0-36.91-2.47-62.1-10.39l4.82-15.32c58.74,18.49,90.6,4.61,90.91,4.47l6.76,14.57c-.91.43-14.74,6.68-40.4,6.68Z"/>
          </g>
        </g>
        <path class="cls-2" d="m1026.28,644.54s-5.35,24.34-38.4,18.58"/>
        <g>
          <g>
            <path class="cls-27" d="m1032.26,752.55l.23-70.42c.92-10.75-12.67-16.16-19.38-7.71l-44.73,56.22c-10.06,12.65-29.5,14.16-45.37,17.22l-33.75,6.52c-24.14,4.66-35.24,32.84-20.76,52.71l62.49,85.8c14.34,19.68,44.21,18.03,56.28-3.12l16.33-28.6c8.47-14.84,17.05-33.06,33.35-38.18l108.01-38.77c10.75-3.38,9.02-19.09-2.2-20.05l-110.48-11.61Z"/>
            <path class="cls-15" d="m1340.65,511.7c-1.29.94-3.09.65-4.03-.63-.94-1.29-.65-3.09.63-4.03s3.09-.65,4.03.63c.94,1.29.65,3.09-.63,4.03Z"/>
            <path class="cls-15" d="m1329.05,514.95c-1.29.94-3.09.65-4.03-.63-.94-1.29-.65-3.09.63-4.03,1.29-.94,3.09-.65,4.03.63.94,1.29.65,3.09-.63,4.03Z"/>
            <path class="cls-15" d="m1317.6,518.05c-1.29.94-3.09.65-4.03-.63s-.65-3.09.63-4.03c1.29-.94,3.09-.65,4.03.63.94,1.29.65,3.09-.63,4.03Z"/>
            <rect class="cls-15" x="1339.45" y="510.94" width="2.06" height="7.6" transform="translate(-79.81 303.51) rotate(-12.55)"/>
            <rect class="cls-15" x="1327.23" y="514.13" width="2.06" height="7.6" transform="translate(-80.8 300.93) rotate(-12.55)"/>
            <rect class="cls-15" x="1315.77" y="516.17" width="2.06" height="7.6" transform="translate(-81.46 298.19) rotate(-12.54)"/>
            <path class="cls-45" d="m1308.22,561.07l-10.47-14.38-305.27,213.36c-4.53,3.09-5.61,9.32-2.38,13.76l9.04,12.41c3.23,4.44,9.49,5.32,13.83,1.96l295.26-227.11Z"/>
            <path class="cls-27" d="m1297.75,546.69l4.77-12.7c2.11-5.62,6.91-9.79,12.77-11.09l32.72-7.27c2.86-1,6.03-.02,7.81,2.43h0c2.23,3.06,1.55,7.36-1.52,9.59l-46.08,33.42-10.47-14.38Z"/>
            <path class="cls-15" d="m1343.81,525.67c-1.29.94-3.09.65-4.03-.63-.94-1.29-.66-3.09.63-4.03,1.29-.94,3.09-.65,4.03.63.94,1.29.65,3.09-.63,4.03Z"/>
            <path class="cls-15" d="m1332.82,528.8c-1.29.94-3.09.65-4.03-.63-.94-1.29-.65-3.09.63-4.03,1.29-.94,3.09-.65,4.03.63.94,1.29.65,3.09-.63,4.03Z"/>
            <path class="cls-15" d="m1320.85,531.92c-1.29.94-3.09.65-4.03-.63-.94-1.29-.65-3.09.63-4.03,1.29-.94,3.09-.65,4.03.63.94,1.29.65,3.09-.63,4.03Z"/>
            <path class="cls-45" d="m943.96,849.27l-29.64-40.69c-1.73-2.38-1.21-5.71,1.17-7.44l10.87-7.92c2.38-1.73,5.71-1.21,7.44,1.17l29.64,40.69c1.73,2.38,1.21,5.71-1.17,7.44l-10.87,7.92c-2.38,1.73-5.71,1.21-7.44-1.17Z"/>
            <path class="cls-15" d="m979.51,819.17c-1.68.23-3.42-.45-4.49-1.91l-20.71-28.44c-.75-1.03-1.05-2.28-.85-3.54.2-1.25.87-2.36,1.9-3.1l7.6-5.53c1.02-.75,2.28-1.05,3.54-.85,1.25.2,2.36.87,3.1,1.9l20.71,28.44c.75,1.03,1.05,2.28.85,3.54-.2,1.25-.87,2.36-1.9,3.1l-7.6,5.53c-.66.48-1.4.76-2.15.87Zm-14.13-41.35c-.44.06-.85.23-1.22.49l-7.6,5.54c-.58.42-.96,1.05-1.07,1.76-.11.71.06,1.42.48,2l20.71,28.44c.87,1.2,2.56,1.46,3.76.59l7.6-5.53c.58-.42.96-1.05,1.07-1.76.11-.71-.06-1.42-.48-2l-20.71-28.44c-.42-.58-1.05-.96-1.76-1.07-.26-.04-.53-.04-.78,0Z"/>
            <path class="cls-15" d="m934.46,814.11c-1.68,1.23-4.04.86-5.27-.83-1.23-1.68-.86-4.04.83-5.27,1.68-1.23,4.04-.86,5.27.83,1.23,1.68.86,4.04-.83,5.27Z"/>
            <path class="cls-15" d="m941.36,823.58c-1.68,1.23-4.04.86-5.27-.83-1.23-1.68-.86-4.04.83-5.27,1.68-1.23,4.04-.86,5.27.83,1.23,1.68.86,4.04-.83,5.27Z"/>
            <path class="cls-15" d="m948.25,833.05c-1.68,1.23-4.04.86-5.27-.83-1.23-1.68-.85-4.04.83-5.27,1.68-1.23,4.04-.86,5.27.83,1.23,1.68.86,4.04-.83,5.27Z"/>
            <g>
              <rect class="cls-15" x="944.72" y="856.18" width="51.12" height="2.06" transform="translate(-211.55 1385.92) rotate(-65.56)"/>
              <path class="cls-45" d="m960.05,883.03c-.47.06-.95,0-1.41-.21-1.29-.59-1.86-2.12-1.28-3.41l3.23-7.09c.59-1.3,2.12-1.86,3.41-1.28,1.29.59,1.87,2.12,1.28,3.41l-3.23,7.09c-.38.84-1.15,1.37-2,1.48Z"/>
            </g>
            <path class="cls-45" d="m924.33,771.45c-2.47,1.8-3.02,5.27-1.22,7.74,1.8,2.47,5.27,3.02,7.74,1.22,2.47-1.8,3.02-5.27,1.22-7.74-1.8-2.47-5.27-3.02-7.74-1.22Z"/>
            <path class="cls-45" d="m903.72,774.69c-2.47,1.8-3.02,5.27-1.22,7.74,1.8,2.47,5.27,3.02,7.74,1.22,2.47-1.8,3.02-5.27,1.22-7.74-1.8-2.47-5.27-3.02-7.74-1.22Z"/>
            <rect class="cls-15" x="894.12" y="678.49" width="447.36" height="2.06" transform="translate(-187.07 771.98) rotate(-35.35)"/>
            <rect class="cls-15" x="898.92" y="685.06" width="447.32" height="2.06" transform="translate(-188.47 795.95) rotate(-36.22)"/>
            <rect class="cls-15" x="903.9" y="691.95" width="447.39" height="2.06" transform="translate(-189.86 819.49) rotate(-37.06)"/>
            <path class="cls-15" d="m1308.36,562.09c-.36.05-.74-.1-.97-.41l-10.47-14.38c-.33-.46-.23-1.1.23-1.44.46-.33,1.1-.23,1.44.23l10.47,14.38c.33.46.23,1.1-.23,1.44-.14.1-.3.17-.47.19Z"/>
          </g>
          <g>
            <path class="cls-16" d="m824.31,688.62s-72.92,22.85-61.8,89.04c11.58,68.95,82.6,72.96,112.03,65.6,29.43-7.36,53.18-22.79,53.18-22.79,0,0,14.05,16.05,32.11,15.38,18.06-.67,10.03-20.74,10.03-20.74,0,0,20.07,2.01,15.38-17.39,0,0,14.66-1.34,4.65-22.07-10-20.74-44.31-39.52-88.45-16.15-45.73,24.21-59.38,32.96-86.8,16.23-27.42-16.72-11.6-55.98,18.5-65.34"/>
            <g class="cls-29">
              <path class="cls-7" d="m986.62,799.12s-11.16-18.42-29.49-25.49"/>
              <path class="cls-7" d="m971.87,817.16s-11.16-18.42-29.49-25.49"/>
            </g>
          </g>
          <g>
            <path class="cls-16" d="m824.31,688.62s-72.92,22.85-61.8,89.04c11.58,68.95,82.6,72.96,112.03,65.6,29.43-7.36,53.18-22.79,53.18-22.79,0,0,14.05,16.05,32.11,15.38,18.06-.67,10.03-20.74,10.03-20.74,0,0,20.07,2.01,15.38-17.39,0,0,14.66-1.34,4.65-22.07-10-20.74-44.31-39.52-88.45-16.15-45.73,24.21-59.38,32.96-86.8,16.23-27.42-16.72-11.6-55.98,18.5-65.34"/>
            <g class="cls-35">
              <path class="cls-7" d="m986.62,799.12s-11.16-18.42-29.49-25.49"/>
              <path class="cls-7" d="m971.87,817.16s-11.16-18.42-29.49-25.49"/>
              <path class="cls-37" d="m820.47,828.72s-11.27,7.58-19.99,6.43c0,0,.5,4.11,5.96,6.08,1.85.67,1.47,3.19-.53,3.21-4.94.07-10.82-2.02-14.48-10.71,0,0-11.84-2.36-21.69-10.09-1.6-1.26.13-3.58,2.04-2.75,8.32,3.64,20.62,7.94,29.12,6.15,0,0,.8-3.87-9.35-7.24-1.9-.63-1.34-3.2.7-3.21,5.36-.03,12.19,1.54,16.88,8.35l3.8-1.71s-6.83-4.64-10.71-9.54c-1.29-1.63-1.07-3.71,1.43-2.1,7.49,4.81,24.25,14.05,38.5,11.01,0,0,.01-4.33,3.26-8.72l-3.05-2.44s-7.09,16.31-22.45,2.79c-.94-.83.02-2.27,1.26-1.87,5.08,1.63,12.27,2.51,14.48-4.38,0,0-9.12-10.44-36.74-3.81-2.01.48-3.25-1.93-1.5-2.96,10.53-6.18,28.97-13.28,43.75.7,0,0,7.43-10.31,20.24-5.33,1.7.66,1.28,2.94-.56,3.16-3.48.41-7.79,1.8-11.79,5.57l1.57,1.64s14.33-13.48,57.62,8.56c1.9.97.67,3.62-1.42,3.05-10.7-2.87-24.35-6.35-28.57-6.56,0,0,1.35,7.98,10.83,8.05,1.06,0,2.21,1.16.11,2.41-2.4,1.43-5.88,2.6-9.78,1.05,0,0-1.36,8.83-11.38,5.83-1.56-.47-2.47-2.01.35-2.75,3.27-.86,6.47-3.18,5.01-9.16-2.72-11.13-19.49-8.68-22.05,4.2,0,0,5.52-.35,11.39-2.74,1.75-.71,3.37,1.19,2.15,2.53-3.92,4.32-10.79,9.42-21.62,9.95,0,0,4.21,5.69,15.01,2.81,1.86-.5,3.17,1.72,1.67,2.84-4.86,3.61-12.26,6.61-20.55,1.22,0,0-7.31,7.84-18.91,2.04-1.7-.85-.98-3.19.97-3.13,4.74.14,10.58-.65,12.79-4.88,0,0-9.92-1.26-13.77-3.53Z"/>
            </g>
          </g>
          <path class="cls-7" d="m815.21,720.75c5.02-4.58,11.11-8.24,17.93-10.36"/>
          <path class="cls-7" d="m863.55,778.69c-16.62,7.04-27.93,7.87-42.55.59"/>
          <path class="cls-7" d="m851.06,845.9c9.06-.02,17.21-1.07,23.47-2.64,5.79-1.45,11.36-3.21,16.58-5.1"/>
          <path class="cls-7" d="m824.31,688.62s-3.61,1.13-9.09,3.62"/>
          <g>
            <path class="cls-16" d="m1077.35,751.27s70.23-1.35,126.57-22.6c36.13-13.63,81.91-45.23,87.51-91.89,3.17-26.43-3.27-53.95-25.21-69.51-13.84-9.81-21.9.42-19.1,6.61,0,0-17.41-7.35-17.89,9.78,0,0-18.58-1.54-13.03,17.61,3.98,13.73,12.79,19.63,12.79,19.63,0,0,6.05,84.75-141.33,110.65"/>
            <g class="cls-34">
              <path class="cls-7" d="m1264.21,592.42s-11.16-18.42-29.49-25.49"/>
              <path class="cls-7" d="m1247.35,602.76s-11.16-18.42-29.49-25.49"/>
              <g class="cls-38">
                <path class="cls-44" d="m1207.99,691.91s-.36-5.79-5.19-14.09c-.91-1.57-1.46-3.53.72-1.24,2.37,2.49,5.21,6.01,6.79,9.87l3.17-3.09s-7.59-14.3,2.99-24.11c1.09-1.02,2.71-1.59,1.43.61-2.59,4.46-5.55,12.63.24,21.33,0,0,3.15-.68,6.11-.36.95.1,1.76.76,2.08,1.66l.6,1.67c.52,1.45-.37,3.03-1.88,3.3-5.01.89-14.48,3.86-12.01,13.35,0,0,12.52,5.07,5.98-8.4,0,0,1.25-2.07,3.48-1.91,0,0,9.89,14.24.03,17.46,0,0,4.81,6.84,16,8.66,1.81.29,3.34,1.76-1.33,1.7-3.87-.05-9.17-1.05-15.59-4.54,0,0-4.03,7.4-12.93,9.5-2.35.55-4.67.13-1.01-1.41,4.45-1.88,9.28-5.77,8.84-13.77,0,0-3.3-.19-5.88-3.44,0,0-3.11,14.55-15.86,14.92-10.27.3-15.94-.83-20.69,2.03-1.15.69-3.46.75-1.63-1.28,1.56-1.74,4.54-3.42,10.23-3.68,12.35-.57,26.54-5.63,22.15-21.61-2.07-2.23-9.74,16.57-21.78,15.46-1.31-.12-2.35-1.39.02-2.22,4.61-1.62,11.65-5.39,12.99-13.52,2.04-12.3,11.94-2.83,11.94-2.83Z"/>
                <path class="cls-44" d="m1224.71,679.51s-6.04-15.45,7.63-17.76c1.23-.21,2.94.2,1.38,1.16-3.46,2.14-8.55,6.61-5.31,13.26,1.15,2.36,4.02,5.17,6.13,5.96,2.06.77,4.23.3,5.03-4.3,0,0,.46-3.48-6.68-6.75,0,0,3.88-2.14,10.04,3.48,0,0,.57-3.9-1.8-10.65-.34-.96.97-1.6,1.5-.73,1.31,2.13,2.96,5.04,5.01,9.03,0,0,4.67-3.15,5.52-14.95.07-.98,1.47-1.08,1.65-.12,1.45,7.86,2.05,20.16-8.1,21.18,0,0,.71,2-1.18,3.4,0,0,6.21,1.5,11.97-4.73.65-.7,1.79.02,1.39.89-2.35,5.19-7.64,12.19-18.73,10.41,0,0,10.3,12.29,3.34,19.1-.99.97-3.19,1.42-2.32-.33,1.7-3.43,3.14-9.31-3.25-13.99,0,0-3.89-3.42-2.94,5.35.53,4.9-1.74,8.02-3.84,9.82-1.66,1.42-2.31,1.1-1.46-.77,1.47-3.26,2.74-9.43-1.35-18.69,0,0,1.48-1.59,1.57-2.27.14-1.09-1.47-4.13-1.47-4.13-.57-1.6-2.02-2.73-3.72-2.89h0Z"/>
              </g>
            </g>
          </g>
        </g>
        <g>
          <path class="cls-23" d="m743.07,649.83c22.37-30.22,56.78-94.23,35.92-183.65,0,0-36.58-25.24-41.24-50.68-.7-3.8.05-10.68,8.16-13.13,5.97-1.8,12.27,2.01,15.52,7.33,2.8,4.6,6,9.11,10.55,12.36,0,0-1.72-25.21-10.56-48.64-7.69-20.38,13.46-25.03,18.8-18.01,0,0,11.12-19.55,26.85-6.9,0,0,11.9-15.43,21.85-3.27,56.26,68.81,50.78,226.93-63.88,318.35"/>
          <path class="cls-7" d="m792.9,637.91c-8.46,9.01-17.74,17.61-27.86,25.68"/>
          <path class="cls-7" d="m743.07,649.83c9.32-12.59,20.73-31.05,29.36-54.76"/>
          <path class="cls-7" d="m795.37,391.32s-1.85-21.45-15.16-35.91"/>
          <path class="cls-7" d="m822.22,384.42s-1.85-21.45-15.16-35.91"/>
        </g>
        <g>
          <path class="cls-23" d="m543.72,758.04s-41.05,60.52-107.88,54.73c-66.83-5.79-87.35-84.72-87.35-84.72l72.09-28.21s19.47,122.4,116.3,36.1"/>
          <g>
            <g>
              <path class="cls-26" d="m339.89,726.16l124.79-82c.45-.3.94-.59,1.41-.85,2.93-1.6,6.24-2.44,9.57-2.44h0c7.34,0,14.08,4,17.59,10.44,5.28,9.69,1.7,21.88-8,27.17l-131.1,71.47c-2.04,1.11-4.33,1.69-6.63,1.69-4.7,0-9.04-2.34-11.61-6.25-4.2-6.4-2.42-15.02,3.98-19.22Z"/>
              <g class="cls-32">
                <path class="cls-21" d="m428.71,671.49c1.99,13.41,8.41,25.34,18.51,34.39,3.79,3.4-1.26,9.52-5.08,6.1-11.66-10.46-19.02-24.18-21.32-39.67-.75-5.07,7.15-5.86,7.9-.82h0Z"/>
                <path class="cls-21" d="m355.13,722.28c3.46,9.32,9.01,17.19,16.63,23.57,5.56,4.65-1.64,13.34-7.22,8.67-9.07-7.58-15.86-17.18-19.97-28.27-2.53-6.81,8.03-10.79,10.56-3.97h0Z"/>
              </g>
            </g>
            <g>
              <path class="cls-20" d="m458.51,633.7c-16.51,8.87-22.7,29.44-13.83,45.95,8.87,16.51,29.44,22.7,45.95,13.83,16.51-8.87,22.7-29.44,13.83-45.95-8.87-16.51-29.44-22.7-45.95-13.83Z"/>
              <g class="cls-33">
                <path class="cls-41" d="m452.69,630.26c9.17,25.5,25.34,47.28,47.16,63.37,2.6,1.92.12,6.36-2.51,4.42-23-16.96-39.88-39.54-49.55-66.43-1.11-3.08,3.79-4.42,4.9-1.35h0Z"/>
              </g>
            </g>
          </g>
          <g>
            <path class="cls-22" d="m350.45,719.22s-9.79-37.82,32.61-65.29c33.04-21.42,57.57.26,59.68,11.75,2.55,13.88-4.26,22.2-16.67,19.26,0,0-1.69,19.52-23.63,14.15,0,0-4.48,12.81-16.61,11.71-9.18-.83-13.47-6.25-13.47-6.25l-21.92,14.67Z"/>
            <g class="cls-36">
              <path class="cls-7" d="m403.02,701.08s-1.85-21.45-15.16-35.91"/>
              <path class="cls-7" d="m427.65,687.88s-1.85-21.45-15.16-35.91"/>
            </g>
          </g>
        </g>
        <g>
          <path class="cls-14" d="m665.63,713.74c22.88-5.49,39.43-21.84,46.93-33.71,4.95-7.84,2.61-18.21-5.24-23.16-7.81-4.93-18.13-2.63-23.11,5.15-2.07,3.17-20.67,29.75-52.13,15.97-8.5-3.72-18.4.15-22.12,8.64-3.72,8.49.15,18.4,8.64,22.12,17.53,7.68,33.4,8.26,47.02,5Z"/>
          <g class="cls-53">
            <g>
              <rect class="cls-39" x="661.77" y="668.26" width="4.66" height="46.68" transform="translate(-177.13 231.53) rotate(-17.49)"/>
              <rect class="cls-39" x="690.23" y="659.29" width="4.66" height="46.68" transform="translate(-250.43 445.17) rotate(-30.45)"/>
              <rect class="cls-39" x="633.32" y="677.22" width="4.66" height="46.68" transform="translate(-53.27 52.31) rotate(-4.52)"/>
            </g>
          </g>
        </g>
        <g>
          <path class="cls-26" d="m537.37,615.52s.85-6.14,4.93-7.09c79.21-18.51,126.94-6.14,141.27-1.76,3.35,1.02,3.32,7.16,3.32,7.16.02.3,2.58,48.46-39.88,45.08-35.05-2.79-32.02-37.23-29.85-49.36-8.15.1-16.97.59-26.42,1.58,1.81,12.04,4.41,46.66-24.78,49.45-35.39,3.39-28.6-45.07-28.6-45.07h0Z"/>
          <g class="cls-54">
            <rect class="cls-15" x="640.09" y="576.84" width="25.75" height="101.21" transform="translate(1532.18 844.34) rotate(150)"/>
            <rect class="cls-15" x="553.08" y="579.05" width="25.75" height="101.21" transform="translate(1370.91 891.98) rotate(150)"/>
          </g>
        </g>
        <g>
          <g>
            <path class="cls-18" d="m531.29,982.54s-67.88,31.68-45.9,93.09c0,0,38.14,35.56,99.56,0,61.41-35.56,69.82-88.57,69.82-88.57l-5.99-9.26-18.97-8.2-98.51,12.93Z"/>
            <g class="cls-52">
              <path class="cls-15" d="m471.42,1031.17s60.57-41.82,98.04,35.98c37.47,77.8-66.46,44.14-66.46,44.14,0,0-52.6-21.95-31.57-80.12Z"/>
              <g>
                <path class="cls-15" d="m466.35,1082.91l6.16-45.77,10.69,14.94c1.32,1.43,18.68,19.55,47.64,19.55,10.18,0,20.76-2.23,31.45-6.62,50.11-20.6,90.66-90.44,91.06-91.15l3.17-5.53,12.07,37.91-41.94,101.86-126.34,10.58-33.97-35.79Z"/>
                <path class="cls-19" d="m655.79,975.27l9.83,30.86-40.9,99.33-123.29,10.32-32.11-33.83,5.04-37.41,6.66,9.32s18.1,20.59,49.83,20.59c9.63,0,20.5-1.89,32.51-6.83,51.61-21.22,92.43-92.35,92.43-92.35m1.48-13.86l-6.35,11.06c-.44.77-40.52,69.73-89.69,89.95-10.35,4.25-20.57,6.41-30.38,6.41-27.15,0-43.68-16.64-45.47-18.53l-6.46-9.03-8.24-11.52-1.89,14.04-5.04,37.41-.36,2.66,1.85,1.95,32.11,33.83,1.86,1.95,2.69-.22,123.29-10.32,3.42-.29,1.31-3.17,40.9-99.33.78-1.89-.62-1.95-9.83-30.86-3.87-12.15h0Z"/>
              </g>
              <path class="cls-15" d="m548.75,1027.84c-.8,0-1.59-.34-2.15-1-14.1-16.73-33.86-13.18-34.69-13.02-1.52.29-2.99-.71-3.28-2.22-.29-1.52.69-2.99,2.21-3.29.96-.19,23.78-4.39,40.06,14.92,1,1.19.85,2.96-.34,3.96-.53.44-1.17.66-1.81.66Z"/>
              <path class="cls-15" d="m557.15,1017.79c-.8,0-1.59-.34-2.15-1-14.1-16.73-33.86-13.18-34.69-13.02-1.52.29-2.99-.7-3.28-2.22-.29-1.52.69-2.99,2.21-3.29.96-.19,23.78-4.39,40.05,14.92,1,1.19.85,2.96-.34,3.96-.53.44-1.17.66-1.81.66Z"/>
            </g>
          </g>
          <path class="cls-23" d="m693.12,841.27s-113.79,5.83-63.31,106.19l18.97,30.34s-53.07,48.44-122.55,7.12c0,0-77-203.18,148.22-176.34"/>
          <path class="cls-7" d="m582.49,813.15c22.87-6.94,52.86-9.21,91.96-4.55"/>
          <path class="cls-15" d="m514.15,928.42v-.02c-.41-5.03-.64-10.24-.64-15.51,20.25,6.83,60.37,15.74,104.29-.13.69,4.4,1.82,9.08,3.41,14.04-44.78,17.42-86.08,8.59-107.06,1.63Z"/>
          <path class="cls-15" d="m515.76,942.44c-.45-2.99-.84-6.08-1.18-9.26,21.33,7.02,63.01,15.72,108.02-2.3.88,2.47,1.89,5.02,3.01,7.62-45.33,19.31-87.71,11.04-109.85,3.95Z"/>
          <path class="cls-15" d="m648.78,977.81s-53.07,48.43-122.56,7.13c0,0-5.93-15.63-9.69-37.63,22.64,7.15,65.37,15.12,110.84-4.92.75,1.67,1.57,3.37,2.43,5.09l18.98,30.33Z"/>
          <path class="cls-45" d="m627.37,942.38c-45.47,20.04-88.2,12.07-110.84,4.92-.26-1.59-.52-3.2-.77-4.87,22.14,7.09,64.53,15.36,109.85-3.95.54,1.27,1.12,2.58,1.76,3.89Z"/>
          <path class="cls-45" d="m622.6,930.87c-45.01,18.02-86.68,9.32-108.02,2.3-.17-1.57-.32-3.14-.43-4.75,20.98,6.96,62.28,15.79,107.06-1.63.43,1.33.88,2.7,1.38,4.08Z"/>
          <path class="cls-7" d="m670.4,845.11s.06-.02.09-.02c4.94-1.29,10.03-1.83,15.13-1.83,14.44-.02,29.77-1.87,44.41-7.08"/>
          <path class="cls-49" d="m613.74,931.85c-1.14-.2-2.02-1.19-2.04-2.39,0-.14-.23-6.68-3.88-10.37-.96-.98-.95-2.55.02-3.51.98-.97,2.55-.96,3.51.02,5.07,5.14,5.3,13.41,5.31,13.76.03,1.37-1.06,2.51-2.43,2.53-.17,0-.33,0-.49-.04Z"/>
          <path class="cls-49" d="m601.9,933.61c-1.14-.2-2.02-1.19-2.04-2.39,0-.14-.23-6.68-3.88-10.37-.96-.98-.95-2.55.02-3.51.97-.97,2.55-.96,3.51.02,5.07,5.14,5.3,13.41,5.31,13.76.03,1.37-1.06,2.51-2.43,2.53-.17,0-.33,0-.49-.04Z"/>
          <path class="cls-49" d="m590.05,935.37c-1.14-.2-2.02-1.19-2.04-2.39,0-.14-.23-6.68-3.88-10.37-.96-.98-.95-2.55.02-3.51.98-.97,2.55-.96,3.51.02,5.07,5.14,5.3,13.41,5.31,13.76.03,1.37-1.06,2.51-2.43,2.53-.17,0-.33,0-.49-.04Z"/>
          <path class="cls-49" d="m578.2,937.13c-1.14-.2-2.02-1.19-2.04-2.39,0-.13-.23-6.68-3.87-10.37-.96-.98-.95-2.55.02-3.51.97-.96,2.54-.96,3.51.02,5.08,5.14,5.3,13.41,5.31,13.76.03,1.37-1.06,2.51-2.43,2.53-.17,0-.33,0-.49-.04Z"/>
        </g>
        <g>
          <g>
            <path class="cls-24" d="m1171.55,1010.76s62.14,41.83,30.88,99.09c0,0-43.2,29.2-98.35-15.46-55.15-44.66-55.22-98.34-55.22-98.34l7.36-8.22,20.01-5.15,95.31,28.07Z"/>
            <g class="cls-51">
              <path class="cls-15" d="m1223.15,1068.1s-53.34-50.72-102.44,20.32c-49.1,71.04,58.8,53.93,58.8,53.93,0,0,55.37-13.51,43.63-74.24Z"/>
              <g>
                <path class="cls-15" d="m1057.84,1120l-25.61-107.14,17.82-35.58,2.28,5.96c.29.76,29.49,76.05,75.8,104.18,13.39,8.14,27.09,12.26,40.7,12.26,22.76,0,38.09-11.69,39.44-12.76l12.88-13.1-1.02,46.17-39.11,30.08-123.17-30.07Z"/>
                <path class="cls-25" d="m1049.7,984.24s29.27,76.6,76.96,105.58c15.61,9.48,29.94,12.67,42.16,12.67,25.12,0,41.32-13.48,41.32-13.48l8.03-8.17-.84,37.74-36.98,28.44-120.19-29.34-24.97-104.48,14.5-28.96m.69-13.91l-5.71,11.4-14.5,28.96-.92,1.83.48,1.99,24.97,104.48.8,3.34,3.33.81,120.19,29.34,2.62.64,2.14-1.64,36.98-28.44,2.13-1.64.06-2.69.84-37.74.31-14.16-9.93,10.1-7.79,7.92c-1.74,1.34-16.25,12.04-37.56,12.04-13.09,0-26.3-3.99-39.25-11.86-45.46-27.62-74.35-102.04-74.63-102.79l-4.56-11.9h0Z"/>
              </g>
              <path class="cls-15" d="m1147.28,1052.79c.79.12,1.63-.09,2.28-.65,16.53-14.33,35.49-7.76,36.3-7.48,1.46.52,3.06-.23,3.59-1.69.53-1.46-.22-3.06-1.68-3.59-.92-.34-22.81-8.03-41.89,8.51-1.17,1.02-1.3,2.79-.28,3.96.45.52,1.05.83,1.68.93Z"/>
              <path class="cls-15" d="m1140.54,1041.57c.79.12,1.63-.09,2.28-.65,16.53-14.33,35.49-7.76,36.29-7.48,1.46.52,3.06-.23,3.59-1.69.53-1.46-.22-3.06-1.68-3.59-.92-.34-22.81-8.03-41.88,8.51-1.17,1.02-1.3,2.79-.28,3.96.45.52,1.05.83,1.68.93Z"/>
            </g>
          </g>
          <path class="cls-17" d="m1033.63,846.07s111.5,23.44,46.05,114.74l-23.45,27.03s44.9,56.09,119.96,26.07c0,0,107.62-188.75-119.04-197.22"/>
          <path class="cls-15" d="m1196.89,959.96v-.02c1.19-4.91,2.22-10.01,3.04-15.23-21.06,3.6-62.08,6.17-103.01-16.33-1.37,4.24-3.2,8.68-5.54,13.34,41.53,24.17,83.7,21.85,105.51,18.24Z"/>
          <path class="cls-15" d="m1193.13,973.56c.91-2.89,1.78-5.88,2.6-8.97-22.16,3.62-64.69,5.74-106.35-19.05-1.25,2.3-2.65,4.66-4.16,7.06,41.78,26.12,84.93,24.53,107.9,20.96Z"/>
          <path class="cls-15" d="m1056.23,987.84s44.91,56.09,119.96,26.08c0,0,8.29-14.51,15.42-35.67-23.48,3.55-66.92,4.79-108.73-22.08-1,1.53-2.08,3.08-3.19,4.65l-23.46,27.02Z"/>
          <path class="cls-40" d="m1082.88,956.17c41.81,26.86,85.25,25.62,108.73,22.08.51-1.53,1.01-3.08,1.51-4.69-22.97,3.57-66.13,5.16-107.9-20.96-.73,1.17-1.51,2.38-2.34,3.57Z"/>
          <path class="cls-40" d="m1089.38,945.54c41.66,24.79,84.18,22.67,106.35,19.05.41-1.53.8-3.06,1.16-4.63-21.8,3.62-63.98,5.93-105.51-18.24-.63,1.25-1.29,2.53-2,3.82Z"/>
          <path class="cls-49" d="m1097.98,947.88c1.16-.02,2.18-.86,2.39-2.04.03-.14,1.26-6.56,5.44-9.65,1.1-.81,1.34-2.37.52-3.47-.81-1.11-2.37-1.34-3.47-.52-5.81,4.29-7.32,12.42-7.38,12.77-.24,1.35.66,2.64,2.01,2.88.17.03.33.04.49.04Z"/>
          <path class="cls-49" d="m1109.41,951.46c1.16-.02,2.18-.86,2.39-2.04.03-.14,1.26-6.56,5.44-9.65,1.1-.81,1.34-2.37.52-3.47-.81-1.1-2.37-1.34-3.47-.52-5.81,4.29-7.32,12.42-7.38,12.77-.24,1.35.66,2.64,2.01,2.88.17.03.33.04.49.04Z"/>
          <path class="cls-49" d="m1120.84,955.03c1.16-.02,2.18-.86,2.39-2.04.03-.14,1.26-6.56,5.44-9.65,1.1-.81,1.34-2.37.52-3.47-.81-1.11-2.37-1.34-3.47-.52-5.81,4.29-7.32,12.42-7.38,12.77-.24,1.35.66,2.64,2.01,2.88.17.03.33.04.49.04Z"/>
          <path class="cls-49" d="m1132.27,958.61c1.16-.02,2.18-.86,2.39-2.04.02-.13,1.26-6.56,5.44-9.64,1.1-.81,1.34-2.37.52-3.47-.81-1.1-2.36-1.34-3.47-.52-5.81,4.29-7.32,12.42-7.38,12.77-.24,1.35.66,2.64,2.01,2.88.16.03.33.04.49.04Z"/>
        </g>
        <g>
          <ellipse class="cls-48" cx="1064.04" cy="679.52" rx="5.68" ry="8.16" transform="translate(-183.55 485.99) rotate(-23.75)"/>
          <ellipse class="cls-48" cx="1051.37" cy="698.24" rx="5.68" ry="8.16" transform="translate(-192.16 482.47) rotate(-23.75)"/>
          <ellipse class="cls-48" cx="1045.21" cy="665.04" rx="5.68" ry="8.16" transform="translate(-179.31 477.18) rotate(-23.75)"/>
          <ellipse class="cls-48" cx="1061.3" cy="644.54" rx="5.68" ry="8.16" transform="translate(-169.7 481.92) rotate(-23.75)"/>
          <ellipse class="cls-48" cx="1051.37" cy="641.92" rx="5.68" ry="8.16" transform="translate(-169.48 477.7) rotate(-23.75)"/>
          <ellipse class="cls-48" cx="1027.88" cy="625.64" rx="5.68" ry="8.16" transform="translate(-164.91 466.87) rotate(-23.75)"/>
          <ellipse class="cls-48" cx="1030.6" cy="607.94" rx="5.68" ry="8.16" transform="translate(-157.56 466.47) rotate(-23.75)"/>
          <ellipse class="cls-48" cx="1006.37" cy="612.53" rx="5.68" ry="8.16" transform="translate(-161.45 457.1) rotate(-23.75)"/>
        </g>
      </g>
    </g>
  </g>
</svg>