<?xml version="1.0" encoding="UTF-8"?>
<svg id="Capa_1" data-name="Capa 1" xmlns="http://www.w3.org/2000/svg" viewBox="0 0 2560 1600">
  <defs>
    <style>
      .cls-1 {
        stroke-width: 0px;
      }
    </style>
  </defs>
  <path class="cls-1" d="m1371.02,1274.72c-29.61.36-62.57-15.03-81.27-34.1-12.33-12.53-21.04-26.97-26.15-43.34-4.39-15.19-6.68-32.4-6.89-51.63-.19-17.35,2.68-45.28,8.59-83.81,3.95-25.37,5.9-40.39,5.84-45.09-.02-2.11.07-5.5-.81-10.02-4.51-23.16-31.67-17.75-40.47-26.69-7.1-7.21-11.43-16.41-11.57-29.07-.08-7.74,1.82-15.85,5.72-24.33,6.19-13.66,16.29-17.88,29.38-20.28,6.56-1.2,15.72-2.36,18.06-15.41,6.62-38.06,9.6-54.28,10.72-58.99,4.73-18.11,13.38-31.21,25.96-39.33,6.29-3.82,12.83-5.77,19.63-5.84,10.08-.11,18.92,4.25,26.52,13.08,8.55,10.23,12.91,23.08,13.08,38.55.13,11.96-1.6,25.7-5.18,41.21-.68,2.59-1,5.41-.96,8.45.1,9.14,9.64,13.61,28.64,13.41l14.06-.5c28.14-.3,42.32,10.22,42.55,31.55l.04,3.87c.21,19.23-5.75,32.66-17.86,40.29-7.7,3.84-16,5.8-24.91,5.9l-2.46.03c-17.12.18-28.79,4.53-35.03,13.04-5.07,8.73-7.47,24.94-7.21,48.62.21,18.99,2.98,37.6,8.34,55.84,3.94,13.41,7.49,42.7,22.63,44.47,39.72,4.63,42.22,48.05,41.72,62.04-.41,11.58-1.72,23.35-6.43,33.94-10.81,24.3-31.55,33.85-54.28,34.13Z"/>
  <path class="cls-1" d="m1164.95,1179.6c-19.23.35-35.09,4.74-47.6,13.18-9.7,8.38-14.42,19.37-14.18,32.97.54,17.11,7.14,31.53,19.78,43.26,18.59,16.31,39.84,24.25,63.76,23.82,11.48-.21,21.74-3.68,30.77-10.41,13.42-10.09,19.97-23.7,19.66-40.81-.09-4.69-.76-9.25-2.01-13.68-4.3-17.28-13.69-30.71-28.17-40.3-10.66-5.67-24.66-8.35-42.01-8.03Zm-.83-420.29c48.53.88,72.45,20.43,71.76,58.65-.14,7.5-1.34,15.69-3.61,24.56-4.26,15.17-8.87,30.21-13.84,45.13-14.11,41.02-21.37,72.31-21.76,93.88-.52,28.6,6.63,54.76,21.44,78.49,6.37,10.9,9.46,21.28,9.29,31.13-.26,14.3-7.76,27.18-22.51,38.64-23.3,17.4-45.85,25.9-67.66,25.51-23.21-.42-34.85-11.54-34.92-33.35.92-24.85,3.13-49.55,6.62-74.11,3.21-21.99,5.02-43.77,5.41-65.33.19-10.32.02-20.52-.5-30.61-1.54-31.46-8.47-62.66-20.81-93.6-5.16-12.76-7.64-24.65-7.44-35.67.22-11.96,3.58-22.92,10.1-32.89,13.28-20.87,36.09-31.01,68.45-30.42Z"/>
  <path class="cls-1" d="m863.82,1304.08c-36.72,4.92-60.63.44-71.72-13.45-6.3-8.15-10.04-16.64-11.22-25.47-1.19-8.84,3.59-41.87,5.31-65.68,7.64-105.5,14.83-188.63-57.91-314.13-5.46-9.41-12.45-25.84-13.63-34.68-1.28-9.53.7-19.49,5.93-29.9,6.08-12.88,15.33-22.87,27.74-29.98,12.41-7.1,23.5-11.31,33.26-12.62,22.77-3.05,36.44,4.46,40.99,22.54l5.04,21.68c1.26,4.09,2.33,8.56,3.22,13.41,15-46.96,43.76-73.29,86.29-79,45.08-6.05,84.5,9.14,118.25,45.54,21.06,22.97,35.09,45.57,42.1,67.82,7,22.25,11.71,42.32,14.11,60.21,1.53,11.39,2.49,22.97,2.88,34.75,2.29,45.36-7.97,87.9-30.79,127.63-19.21,31.44-45.43,49.39-78.66,53.84-33.24,4.46-62.76-6.61-88.56-33.19-3.61-4.01-7.7-8.9-12.26-14.68-4.51,6.99-6.32,13.75-5.45,20.25.81,6.05,2.96,12.38,6.45,19.01,7.85,19.77,19.01,39.44,33.47,59.04,9.13,13.44,14.5,26.09,16.09,37.94,1.34,9.99.11,19.38-3.68,28.17-8.82,22.48-31.24,36.13-67.26,40.96Zm68.1-288.78c54.4-8.13,52.85-73.92,51.58-91.35-2.02-27.83-16.11-58.78-37.07-75.62-10.47-8.41-44.11-17.3-62.43,5.53-15.37,19.16-26.91,47.18-23.01,90.39,3.18,35.18,28.32,77.41,70.92,71.05Z"/>
  <path class="cls-1" d="m1415.71,762.7c-15.17,1.52-31.03,1.65-47.58.38-16.56-1.27-32.97-5.92-49.24-13.95-31.75-17.33-49.64-43.34-53.66-78.06-1.3-11.18-.48-22.48,2.44-33.92,4.27-18.2,13.5-33.19,27.72-44.99,7.4-5.34,13.44-8.28,18.1-8.83l7.69-.89c19.33-2.24,34.46,8.17,45.4,31.21,3.64,9.02,9.16,16.88,16.54,23.58,6.44,4.69,11.56,7.04,15.34,7.08,3.78.04,6.14,0,7.07-.11,5.36-.62,10.34-3.44,14.95-8.46,6.64-7.85,9.47-16.09,8.47-24.7-.46-3.96-1.76-8.06-3.9-12.3-9.92-16.32-27.82-28.17-53.69-35.56-23.44-6.72-41.38-15.86-53.81-27.4-14.86-14.09-23.85-27.1-27-39.01-3.15-11.91-4.98-20.08-5.49-24.5-1.73-14.9.09-29.75,5.46-44.54,15.07-39.04,48.46-61.56,100.17-67.55,27.95-3.24,52.57-.54,73.88,8.08,25.84,11.17,43.95,29.96,54.33,56.38,1.1,3.41,1.85,6.75,2.22,10.01,1.7,14.67-2.67,26.87-13.11,36.57-8.35,7.34-18.01,11.65-28.95,12.92-24.23,2.81-38.59-6.03-43.09-26.52-3.46-13.53-8.29-20.64-14.51-21.33-4.77-.39-8.2-.47-10.29-.22-5.59.65-11.15,2.59-16.68,5.83-7.72,4.67-13.33,10.28-16.82,16.82-2.67,5.5-3.74,10.47-3.23,14.89,1.73,14.91,26.16,29.19,73.31,42.85,18.56,5.41,36.23,12.21,53,20.42,16.76,8.21,30.57,20.42,41.42,36.63,9.05,15.01,14.61,31.36,16.66,49.06,2.38,20.5-.34,39.82-8.16,57.95-12.08,26.19-33.65,46.74-64.73,61.68-22.11,10.83-45.52,17.67-70.21,20.53Z"/>
  <path class="cls-1" d="m1187.07,477.47c-21.89.22-40.16-3.79-54.8-12.02-11.44-8.26-17.34-19.33-17.72-33.2-.21-17.46,6.6-32.36,20.42-44.7,20.36-17.19,44.16-25.92,71.39-26.19,13.08-.13,24.92,3.11,35.51,9.7,15.75,9.89,23.87,23.57,24.34,41.03.13,4.79-.41,9.46-1.63,14.01-4.07,17.75-14.1,31.72-30.11,41.93-11.85,6.1-27.66,9.25-47.41,9.44Zm19.92,255.02c-7.05,0-14.09-1.61-20.32-4.91-11.46-6.07-19.76-17.59-22.37-30.24-2.75-13.34,2.66-27.38,2.3-40.99-.69-25.61-8.93-48.85-24.73-69.69-6.82-9.59-10.35-18.8-10.59-27.62-.34-12.81,6.6-24.53,20.85-35.18,22.53-16.18,44.7-24.38,66.49-24.6,23.2-.23,35.29,9.42,36.29,28.94.13,22.26-1.03,44.43-3.48,66.51-2.28,19.77-3.16,39.31-2.64,58.62.67,25.01,7.8,53.45-15.78,70.81-7.47,5.5-16.76,8.33-26.03,8.34Z"/>
  <path class="cls-1" d="m1112.73,200.87c-106.65-.65-117.69,83.89-130.57,118.59-3.99,10.93-7.52,22.06-10.59,33.42-10.65,40.06-21.8,61.05-33.47,62.99-7.77,0-37.1-6.11-39.18-45.2l.08-8.03c.16-16.92,2.14-33.63,5.95-50.12,3.3-11.36,5-21.53,5.08-30.52.09-9.21-1.55-17.14-4.91-23.77-6.73-12.64-22.06-21.3-45.99-26-17.55-3.2-35.23-4.8-53.04-4.79-42.47.02-67.54,7.43-75.21,22.21-5.35,10.07-8.06,19.28-8.14,27.63-.08,8.56,1.66,17.88,5.22,27.95,4.68,12.21,11.14,22.85,19.39,31.96,8.25,9.1,17.13,17.71,26.64,25.85,29.9,25.68,57.92,56.19,84.08,91.51,8.12,11.13,12.13,21.73,12.03,31.8-.12,13.28-7.21,25.81-21.24,37.6-23.01,19.07-46.92,36.97-71.74,53.69-18.16,12.43-31.55,22.67-40.19,30.7-8.64,8.04-15.41,17.84-20.31,29.41-3.28,8.36-4.95,16.17-5.01,23.46-.07,7.28,1.46,14.03,4.61,20.24,6.05,12.42,17.62,20.12,34.72,23.11,10.48,1.49,20.64,2.24,30.46,2.23,20.32-.01,39.19-3.56,56.61-10.64,25.67-10.73,45.05-32.37,58.14-64.93l5.97-16.07c10.32-29.35,19.87-50.35,28.67-62.99,5.31-6.86,10.6-10.29,15.85-10.29,5.7,0,11.26,4.06,16.67,12.2,8.55,13.27,13.3,24.46,14.24,33.56.94,9.1,1.4,15.69,1.36,19.76-.1,10.28-.84,20.96-4.4,31.49-14.39,42.52,2.37,89.9,26.51,103.16,75.11,41.27,122.5-20.93,131.84-41.92,3.27-7.5,20.81-61.52-13.72-90.24-14.01-11.65-27-24.08-41.28-34.99-7.48-5.78-20.17-16.37-38.06-31.78-16.09-13.7-25.27-26.01-27.57-36.93-2.29-10.92-3.41-19.38-3.36-25.38.09-9.43,1.77-18.75,5.06-27.95,5.84-15,13.85-28.5,24.01-40.49,19.85-23.57,62.58-62.47,108.84-78.49,29.88-10.35,57.83-32.49,58.57-73.61.34-19.28-18.18-58.93-92.6-59.38Z"/>
  <path class="cls-1" d="m1727.59,1197.06l-4.6-.06c-36.07-.44-57.96-19.52-65.68-57.22l-5.09-23.09c-5.99,8.37-12.23,16.48-18.72,24.33-27.05,35.74-60.14,53.37-99.27,52.88-9.98-.12-20.45-1.4-31.42-3.84-46.93-11.83-74.81-43.13-83.65-93.9-1.2-7.17-1.74-14.22-1.66-21.13.32-26.34,11.13-52.3,32.43-77.88,12.98-15.19,27.77-27.03,44.38-35.52,16.6-8.49,34.15-15.31,52.63-20.46,26.96-7.59,53.04-17.38,78.26-29.35,12.88-7.26,19.42-18.56,19.61-33.91.18-14.58-5.69-26.17-17.61-34.75-6.85-4.94-13.72-7.46-20.63-7.55-16.38.82-30.68,8.58-42.88,23.26-4.43,6.09-7.97,12.82-10.61,20.21-9.79,26.49-28.38,39.56-55.74,39.22-13.3-.16-25.01-5.16-35.12-15.02-10.35-11.38-15.43-24.62-15.24-39.71l.04-3.07c3.45-30.4,17.92-53.25,43.44-68.54,20.1-12.03,39.57-19.47,58.41-22.3,18.84-2.84,36.18-4.16,52.04-3.96,24.3.3,45.88,3.25,64.74,8.86,65.24,19.74,97.47,62.6,96.65,128.59-.12,9.98-1.15,20.32-3.07,31.05-4.16,26.56-6.42,53.52-6.75,80.89l-.13,10.36c-.23,18.68,10.1,30.96,31.01,36.84,23.46,5.66,35.08,18.22,34.84,37.65-.08,6.65-1.58,14.18-4.5,22.59-7.71,23.19-19.19,41.34-34.44,54.45-15.26,13.12-32.48,19.81-51.67,20.08Zm-137.5-114.9c24.04.3,42.26-14.31,54.65-43.84,6.3-12.71,9.53-26.1,9.71-40.17.23-18.67-3.24-28.05-10.4-28.14l-3.07-.04c-2.56-.03-4.99.45-7.31,1.45-14.4,5.71-28.55,12.31-42.46,19.81-14.15,6.73-23.94,12.37-29.37,16.91-8.53,7.06-12.87,16.73-13.02,29,.16,6.91,1.37,13.58,3.59,20,6.7,16.46,19.26,24.8,37.68,25.02Z"/>
</svg>