<?xml version="1.0" encoding="UTF-8"?>
<svg id="Capa_1" data-name="Capa 1" xmlns="http://www.w3.org/2000/svg" xmlns:xlink="http://www.w3.org/1999/xlink" viewBox="0 0 1600 1600">
  <defs>
    <style>
      .cls-1 {
        stroke-dasharray: 0 0 39.91 39.91;
      }

      .cls-1, .cls-2, .cls-3, .cls-4, .cls-5, .cls-6, .cls-7, .cls-8 {
        fill: none;
        stroke-linecap: round;
        stroke-miterlimit: 10;
      }

      .cls-1, .cls-2, .cls-3, .cls-4, .cls-5, .cls-6, .cls-8 {
        stroke: #824014;
        stroke-width: 11.49px;
      }

      .cls-9 {
        clip-path: url(#clippath);
      }

      .cls-3 {
        stroke-dasharray: 0 0 41.94 41.94;
      }

      .cls-4 {
        stroke-dasharray: 0 0 48.92 48.92;
      }

      .cls-10, .cls-11 {
        fill: #fff;
      }

      .cls-12, .cls-13 {
        fill: #fe299e;
      }

      .cls-14, .cls-15 {
        fill: #9b26c6;
      }

      .cls-16, .cls-17 {
        fill: #934a19;
      }

      .cls-18, .cls-19 {
        fill: #4b2910;
      }

      .cls-20 {
        clip-path: url(#clippath-1);
      }

      .cls-21 {
        clip-path: url(#clippath-4);
      }

      .cls-22 {
        clip-path: url(#clippath-3);
      }

      .cls-23 {
        clip-path: url(#clippath-2);
      }

      .cls-24 {
        clip-path: url(#clippath-7);
      }

      .cls-25 {
        clip-path: url(#clippath-6);
      }

      .cls-26 {
        clip-path: url(#clippath-5);
      }

      .cls-5 {
        stroke-dasharray: 0 0 40.1 40.1;
      }

      .cls-6 {
        stroke-dasharray: 0 0 38.38 38.38;
      }

      .cls-27, .cls-19, .cls-28, .cls-29, .cls-15, .cls-17, .cls-11, .cls-30, .cls-13, .cls-31 {
        stroke-width: 0px;
      }

      .cls-7 {
        stroke: #4b2910;
        stroke-width: 5.7px;
      }

      .cls-28 {
        fill: #5e0096;
      }

      .cls-29 {
        fill: #1bd7f3;
      }

      .cls-30 {
        fill: #ffe706;
      }

      .cls-31 {
        fill: #e6e6e6;
      }

      .cls-8 {
        stroke-dasharray: 0 0 40.18 40.18;
      }
    </style>
    <clipPath id="clippath">
      <path class="cls-13" d="m857.91,1169.36s-74.69,76.82-14.12,147.79c0,0,69.06,28.18,133.14-50.55,64.08-78.73,48.4-153.89,48.4-153.89l-12.72-9.34-29.53-1.33-125.18,67.31Z"/>
    </clipPath>
    <clipPath id="clippath-1">
      <path class="cls-17" d="m793.68,880.21c71.54,13.8,216.49,18.32,221.5-189.3,5.01-207.61-157.42-256.95-217.34-253.91-59.92,3.04-197.78,80.06-181.2,225.66,16.58,145.6,82.84,199.37,177.04,217.54Z"/>
    </clipPath>
    <clipPath id="clippath-2">
      <path class="cls-19" d="m354.74,718.3l178.5-117.29c.65-.42,1.35-.85,2.02-1.21,4.19-2.29,8.93-3.5,13.69-3.5h0c10.5,0,20.14,5.72,25.16,14.94,7.56,13.87,2.43,31.3-11.44,38.86l-187.53,102.23c-2.92,1.58-6.19,2.41-9.49,2.41-6.72,0-12.93-3.34-16.61-8.94-6.01-9.15-3.46-21.49,5.69-27.5Z"/>
    </clipPath>
    <clipPath id="clippath-3">
      <path class="cls-15" d="m524.41,586.05c-23.61,12.69-32.47,42.12-19.79,65.73,12.69,23.62,42.12,32.47,65.73,19.79,23.61-12.69,32.47-42.12,19.79-65.73-12.69-23.61-42.12-32.47-65.73-19.79Z"/>
    </clipPath>
    <clipPath id="clippath-4">
      <path class="cls-17" d="m369.84,708.38s-14-54.1,46.64-93.4c47.27-30.63,82.35.37,85.37,16.81,3.64,19.85-6.1,31.76-23.84,27.54,0,0-2.42,27.92-33.8,20.25,0,0-6.41,18.33-23.75,16.75-13.13-1.19-19.27-8.94-19.27-8.94l-31.35,20.98Z"/>
    </clipPath>
    <clipPath id="clippath-5">
      <path class="cls-11" d="m820.68,700.54c32.73-7.85,56.41-31.25,67.12-48.22,7.08-11.22,3.73-26.05-7.49-33.13-11.17-7.05-25.93-3.76-33.05,7.36-2.96,4.53-29.56,42.56-74.56,22.84-12.16-5.32-26.32.22-31.64,12.36-5.32,12.15.21,26.31,12.36,31.64,25.07,10.98,47.77,11.82,67.25,7.15Z"/>
    </clipPath>
    <clipPath id="clippath-6">
      <path class="cls-19" d="m637.22,560.04s1.22-8.78,7.05-10.14c113.3-26.48,181.58-8.78,202.08-2.51,4.8,1.47,4.75,10.24,4.75,10.24.02.43,3.69,69.32-57.05,64.49-50.13-3.99-45.8-53.26-42.69-70.61-11.66.15-24.27.84-37.79,2.27,2.59,17.23,6.31,66.74-35.45,70.74-50.63,4.85-40.9-64.47-40.9-64.47h0Z"/>
    </clipPath>
    <clipPath id="clippath-7">
      <path class="cls-13" d="m628.52,1085.04s-97.1,45.31-65.66,133.16c0,0,54.56,50.86,142.41,0,87.85-50.86,99.87-126.69,99.87-126.69l-8.57-13.25-27.13-11.72-140.92,18.49Z"/>
    </clipPath>
  </defs>
  <rect class="cls-30" x="0" width="1600" height="1600"/>
  <g>
    <g>
      <g>
        <path class="cls-12" d="m857.91,1169.36s-74.69,76.82-14.12,147.79c0,0,69.06,28.18,133.14-50.55,64.08-78.73,48.4-153.89,48.4-153.89l-12.72-9.34-29.53-1.33-125.18,67.31Z"/>
        <g class="cls-9">
          <path class="cls-11" d="m802.52,1264.79s59.76-86.68,149.37-1.66c89.61,85.02-66.47,92.77-66.47,92.77,0,0-81.48-2.64-82.9-91.11Z"/>
          <g>
            <path class="cls-11" d="m822.02,1336.55l-15-64.33,21.88,14.56c1.7.85,17.3,8.32,39.16,8.32,26.47,0,51.09-10.49,73.17-31.18,56.59-53.02,75.32-166.98,75.5-168.12l1.44-9.01,35.4,44.57-4.37,157.51-163.59,78.29-63.59-30.61Z"/>
            <path class="cls-13" d="m1020.7,1096.43l28.81,36.28-4.26,153.6-159.64,76.4-60.12-28.94-12.26-52.59,13.64,9.07s16.74,8.86,41.19,8.86c21.41,0,48.73-6.79,75.92-32.27,58.25-54.58,76.72-170.42,76.72-170.42m-5.06-19.28l-2.87,18.01h0c-.05.29-4.7,28.94-16.29,63.73-15.14,45.43-35.19,80.73-57.99,102.1-21.31,19.97-45.01,30.1-70.43,30.1-20.49,0-34.91-6.69-37.14-7.78l-13.25-8.81-16.87-11.22,4.6,19.73,12.26,52.59.87,3.74,3.46,1.67,60.12,28.94,3.47,1.67,3.48-1.66,159.64-76.4,4.42-2.12.14-4.9,4.26-153.6.08-2.93-1.82-2.29-28.81-36.28-11.35-14.29h0Z"/>
          </g>
          <path class="cls-11" d="m904.25,1221.07c-1.07.41-2.3.35-3.38-.24-27.36-15.21-51.97-.44-53.01.2-1.89,1.16-4.36.57-5.52-1.31-1.16-1.88-.59-4.35,1.29-5.52,1.19-.74,29.57-17.95,61.14-.39,1.94,1.08,2.64,3.52,1.56,5.46-.48.86-1.23,1.48-2.08,1.8Z"/>
          <path class="cls-11" d="m910.38,1203.38c-1.07.41-2.3.35-3.38-.24-27.36-15.21-51.97-.44-53,.2-1.88,1.16-4.36.58-5.52-1.31-1.16-1.88-.59-4.35,1.29-5.52,1.19-.74,29.56-17.95,61.14-.39,1.94,1.08,2.64,3.52,1.56,5.46-.48.86-1.23,1.48-2.08,1.8Z"/>
        </g>
      </g>
      <path class="cls-17" d="m916.16,861.04s-19.65,149.07,64.14,217.23l32.32,25.11s-38.52,108.67-159.82,71.83c0,0-105.01-140.58-15.32-314.4"/>
      <path class="cls-11" d="m811.65,1083.8c-1.57-5.97-3.06-12.18-4.37-18.65,30.02,3.75,86.35,4.1,135.49-33.2,3.03,5.71,6.43,11.26,10.15,16.62-51.35,40.9-111.44,39.33-141.27,35.23Z"/>
      <path class="cls-11" d="m818.24,1105.29c-1.61-4.56-3.1-9.31-4.56-14.25,29.29,4.33,91.49,6.85,144.14-35.84,3.14,4.1,6.55,8.04,10.22,11.79-54.72,46.76-120.9,42.93-149.81,38.29Z"/>
      <path class="cls-11" d="m1012.62,1103.37s-38.52,108.68-159.84,71.84c0,0-17.39-23.28-31.94-62.57,28.57,4.75,97.19,9.42,153.06-39.9,2.07,1.91,4.17,3.75,6.39,5.55l32.32,25.08Z"/>
      <path class="cls-29" d="m957.82,1055.2c-52.65,42.7-114.84,40.17-144.14,35.84-.69-2.37-1.38-4.79-2.03-7.24,29.83,4.1,89.92,5.67,141.27-35.23,1.57,2.26,3.18,4.44,4.9,6.62Z"/>
      <path class="cls-29" d="m973.91,1072.74c-55.87,49.32-124.5,44.65-153.06,39.9v-.04c-.92-2.37-1.76-4.83-2.6-7.31,28.91,4.63,95.08,8.46,149.81-38.29,1.88,1.99,3.83,3.91,5.86,5.74Z"/>
      <path class="cls-31" d="m946.65,1057.32c-1.65.14-3.23-.89-3.71-2.54-.06-.19-2.81-9.14-9.23-12.88-1.69-.99-2.27-3.16-1.28-4.86.99-1.7,3.16-2.27,4.86-1.28,8.92,5.2,12.32,16.54,12.46,17.02.55,1.88-.53,3.86-2.41,4.41-.23.07-.46.11-.69.13Z"/>
      <path class="cls-31" d="m930.94,1064.17c-1.65.14-3.23-.89-3.71-2.54-.06-.19-2.81-9.14-9.23-12.88-1.69-.99-2.27-3.16-1.28-4.86.98-1.7,3.16-2.27,4.86-1.28,8.92,5.2,12.32,16.54,12.46,17.02.55,1.88-.53,3.86-2.41,4.41-.23.07-.46.11-.69.13Z"/>
      <path class="cls-31" d="m915.24,1071.02c-1.65.14-3.23-.89-3.71-2.54-.06-.19-2.81-9.14-9.23-12.88-1.69-.99-2.27-3.16-1.28-4.86.99-1.7,3.16-2.27,4.86-1.28,8.92,5.2,12.32,16.54,12.46,17.02.55,1.88-.53,3.86-2.41,4.41-.23.07-.46.11-.69.13Z"/>
      <path class="cls-31" d="m899.54,1077.87c-1.65.14-3.23-.89-3.71-2.54-.05-.18-2.8-9.13-9.22-12.87-1.7-.99-2.27-3.16-1.28-4.86.98-1.69,3.16-2.27,4.86-1.28,8.93,5.2,12.33,16.54,12.47,17.02.55,1.88-.53,3.86-2.42,4.41-.23.07-.46.11-.69.13Z"/>
    </g>
    <g>
      <path class="cls-16" d="m793.68,880.21c71.54,13.8,216.49,18.32,221.5-189.3,5.01-207.61-157.42-256.95-217.34-253.91-59.92,3.04-197.78,80.06-181.2,225.66,16.58,145.6,82.84,199.37,177.04,217.54Z"/>
      <g class="cls-20">
        <g>
          <path class="cls-2" d="m890.97,454.12s3.53,7.72,8.59,21.3"/>
          <path class="cls-4" d="m914.61,521.96c18.45,66.27,35.27,170.59-2.3,264.43"/>
          <path class="cls-2" d="m902.23,808.67c-3.43,6.76-7.17,13.44-11.26,20.02"/>
        </g>
        <g>
          <path class="cls-2" d="m968.05,432.42s3.53,7.72,8.59,21.3"/>
          <path class="cls-4" d="m991.69,500.26c18.45,66.27,35.27,170.59-2.3,264.43"/>
          <path class="cls-2" d="m979.31,786.97c-3.43,6.76-7.17,13.44-11.26,20.02"/>
        </g>
        <g>
          <path class="cls-2" d="m919,474.05s4.86,5.11,11.74,15.1"/>
          <path class="cls-1" d="m950.38,523.85c25.36,54.79,47.71,153.52-14.02,289.72"/>
          <path class="cls-2" d="m927.79,831.62c-2.79,5.61-5.71,11.28-8.79,17.01"/>
        </g>
        <g>
          <path class="cls-2" d="m842.25,437.46s3.45,5.86,8.21,17.28"/>
          <path class="cls-6" d="m862.81,491.06c15.25,55.32,27.67,152.15-9.3,284.32"/>
          <path class="cls-2" d="m848.1,793.81c-1.85,6.01-3.79,12.09-5.85,18.24"/>
        </g>
        <g>
          <path class="cls-2" d="m805.15,405.53s1.13,6.58,2.52,18.98"/>
          <path class="cls-5" d="m811.02,464.46c3.68,61.74,3.72,167.95-21.57,299.23"/>
          <path class="cls-2" d="m785.5,783.35c-1.29,6.19-2.64,12.43-4.04,18.72"/>
        </g>
        <g>
          <path class="cls-2" d="m753.44,398.03s-2.17,6.33-5.39,18.37"/>
          <path class="cls-8" d="m738.94,455.53c-12.26,60.53-26.01,165.66-13.49,300.03"/>
          <path class="cls-2" d="m727.49,775.56c.69,6.28,1.45,12.62,2.26,19.02"/>
        </g>
        <g>
          <path class="cls-2" d="m716.27,440.1s-4.16,5.61-10.38,16.08"/>
          <path class="cls-3" d="m686.64,493.42c-28.1,62.51-59.31,174.49-9.84,306.32"/>
          <path class="cls-2" d="m684.64,819.21c2.49,5.78,5.13,11.58,7.94,17.43"/>
        </g>
        <g>
          <path class="cls-13" d="m917.82,701.59c5.34-2.34,2.9-5.4,10.3-5.1,11.1.44,20.84-5.1,19.14-5.29-10.77-1.18-24.43-15.12-33.26-6.49-2.73,2.68-2.98,2.91-6.96,3.05-10.21.36-11.59,20.98-17.76,28.86-1.05,1.34,10.12-2.24,17.94-10.97,4.62-5.16,5.27-1.72,10.61-4.06Z"/>
          <path class="cls-13" d="m920.24,708.2c1.51-.66,5.13-2.99,7.31-4.83,2.59-2.18,6.78-4.01,10.41-5.6,3.63-1.59,7.96-3.71,9.65-5.8,1.02-1.27-2.45,21.23-21.51,29.58-19.06,8.36-37.9-4.3-36.53-4.19,1.68.15,8.15-1.07,11.33-2.9,3.43-1.98,7.56-3.77,10.91-4.19,2.84-.36,6.92-1.41,8.43-2.07Z"/>
        </g>
      </g>
    </g>
    <g>
      <path class="cls-17" d="m931.45,609.12c32.01-43.23,81.22-134.79,51.38-262.7,0,0-52.32-36.1-58.98-72.49-1-5.44.07-15.28,11.67-18.78,8.54-2.58,17.56,2.87,22.19,10.49,4,6.57,8.58,13.03,15.09,17.67,0,0-2.46-36.07-15.1-69.58-11-29.15,19.25-35.8,26.9-25.76,0,0,15.91-27.96,38.4-9.87,0,0,17.02-22.08,31.25-4.68,80.48,98.42,72.64,324.61-91.37,455.38"/>
      <path class="cls-7" d="m1002.73,592.07c-12.1,12.89-25.37,25.19-39.86,36.74"/>
      <path class="cls-7" d="m931.45,609.12c13.33-18.01,29.66-44.41,42-78.33"/>
      <path class="cls-7" d="m1006.27,239.34s-2.65-30.69-21.68-51.36"/>
      <path class="cls-7" d="m1044.67,229.47s-2.65-30.69-21.68-51.36"/>
    </g>
    <g>
      <path class="cls-17" d="m646.3,763.9s-58.71,86.56-154.31,78.28c-95.6-8.28-124.95-121.19-124.95-121.19l103.12-40.35s27.85,175.09,166.35,51.64"/>
      <g>
        <g>
          <path class="cls-18" d="m354.74,718.3l178.5-117.29c.65-.42,1.35-.85,2.02-1.21,4.19-2.29,8.93-3.5,13.69-3.5h0c10.5,0,20.14,5.72,25.16,14.94,7.56,13.87,2.43,31.3-11.44,38.86l-187.53,102.23c-2.92,1.58-6.19,2.41-9.49,2.41-6.72,0-12.93-3.34-16.61-8.94-6.01-9.15-3.46-21.49,5.69-27.5Z"/>
          <g class="cls-23">
            <path class="cls-15" d="m481.78,640.11c2.85,19.19,12.04,36.24,26.47,49.2,5.42,4.86-1.81,13.62-7.27,8.72-16.68-14.97-27.21-34.59-30.5-56.75-1.08-7.25,10.23-8.38,11.3-1.17h0Z"/>
            <path class="cls-15" d="m376.54,712.76c4.95,13.33,12.88,24.59,23.79,33.72,7.95,6.65-2.34,19.08-10.33,12.4-12.97-10.85-22.68-24.58-28.56-40.43-3.61-9.74,11.48-15.43,15.1-5.68h0Z"/>
          </g>
        </g>
        <g>
          <path class="cls-14" d="m524.41,586.05c-23.61,12.69-32.47,42.12-19.79,65.73,12.69,23.62,42.12,32.47,65.73,19.79,23.61-12.69,32.47-42.12,19.79-65.73-12.69-23.61-42.12-32.47-65.73-19.79Z"/>
          <g class="cls-22">
            <path class="cls-28" d="m516.09,581.13c13.12,36.47,36.25,67.63,67.46,90.64,3.72,2.74.18,9.1-3.58,6.32-32.9-24.26-57.04-56.56-70.88-95.03-1.59-4.41,5.43-6.32,7.01-1.94h0Z"/>
          </g>
        </g>
      </g>
      <g>
        <path class="cls-16" d="m369.84,708.38s-14-54.1,46.64-93.4c47.27-30.63,82.35.37,85.37,16.81,3.64,19.85-6.1,31.76-23.84,27.54,0,0-2.42,27.92-33.8,20.25,0,0-6.41,18.33-23.75,16.75-13.13-1.19-19.27-8.94-19.27-8.94l-31.35,20.98Z"/>
        <g class="cls-21">
          <path class="cls-7" d="m445.04,682.43s-2.65-30.69-21.68-51.36"/>
          <path class="cls-7" d="m480.26,663.56s-2.65-30.69-21.68-51.36"/>
        </g>
      </g>
    </g>
    <g>
      <path class="cls-10" d="m820.68,700.54c32.73-7.85,56.41-31.25,67.12-48.22,7.08-11.22,3.73-26.05-7.49-33.13-11.17-7.05-25.93-3.76-33.05,7.36-2.96,4.53-29.56,42.56-74.56,22.84-12.16-5.32-26.32.22-31.64,12.36-5.32,12.15.21,26.31,12.36,31.64,25.07,10.98,47.77,11.82,67.25,7.15Z"/>
      <g class="cls-26">
        <g>
          <rect class="cls-27" x="815.17" y="635.48" width="6.67" height="66.78" transform="translate(-163.17 276.87) rotate(-17.49)"/>
          <rect class="cls-27" x="855.87" y="622.66" width="6.67" height="66.78" transform="translate(-213.97 525.96) rotate(-30.45)"/>
          <rect class="cls-27" x="774.46" y="648.31" width="6.67" height="66.78" transform="translate(-51.34 63.46) rotate(-4.52)"/>
        </g>
      </g>
    </g>
    <g>
      <path class="cls-18" d="m637.22,560.04s1.22-8.78,7.05-10.14c113.3-26.48,181.58-8.78,202.08-2.51,4.8,1.47,4.75,10.24,4.75,10.24.02.43,3.69,69.32-57.05,64.49-50.13-3.99-45.8-53.26-42.69-70.61-11.66.15-24.27.84-37.79,2.27,2.59,17.23,6.31,66.74-35.45,70.74-50.63,4.85-40.9-64.47-40.9-64.47h0Z"/>
      <g class="cls-25">
        <rect class="cls-11" x="784.15" y="504.71" width="36.83" height="144.78" transform="translate(1786.17 675.6) rotate(150)"/>
        <rect class="cls-11" x="659.68" y="507.87" width="36.83" height="144.78" transform="translate(1555.48 743.74) rotate(150)"/>
      </g>
    </g>
    <g>
      <g>
        <path class="cls-12" d="m628.52,1085.04s-97.1,45.31-65.66,133.16c0,0,54.56,50.86,142.41,0,87.85-50.86,99.87-126.69,99.87-126.69l-8.57-13.25-27.13-11.72-140.92,18.49Z"/>
        <g class="cls-24">
          <path class="cls-11" d="m542.87,1154.6s86.63-59.82,140.23,51.47c53.6,111.29-95.07,63.14-95.07,63.14,0,0-75.24-31.39-45.16-114.61Z"/>
          <g>
            <path class="cls-11" d="m535.63,1228.61l8.81-65.46,15.29,21.38c1.89,2.04,26.72,27.97,68.15,27.97,14.56,0,29.7-3.19,44.98-9.47,71.72-29.49,129.68-129.37,130.25-130.38l4.54-7.91,17.27,54.23-59.99,145.71-180.73,15.13-48.59-51.19Z"/>
            <path class="cls-13" d="m806.6,1074.64l14.06,44.15-58.5,142.08-176.36,14.76-45.94-48.4,7.2-53.52,9.53,13.32s25.89,29.46,71.28,29.46c13.77,0,29.33-2.71,46.51-9.77,73.83-30.35,132.21-132.09,132.21-132.09m2.12-19.82l-9.08,15.82h0c-.14.25-14.66,25.39-37.85,53.8-30.28,37.1-61.55,62.99-90.45,74.87-14.8,6.08-29.42,9.17-43.46,9.17-17.12,0-33.27-4.46-47.98-13.25-9.92-5.93-15.84-11.96-17.05-13.24l-9.25-12.93-11.79-16.48-2.7,20.08-7.2,53.52-.51,3.81,2.65,2.79,45.94,48.4,2.65,2.8,3.84-.32,176.36-14.76,4.89-.41,1.87-4.54,58.5-142.08,1.11-2.71-.89-2.79-14.06-44.15-5.54-17.38h0Z"/>
          </g>
          <path class="cls-11" d="m653.49,1149.83c-1.14,0-2.28-.48-3.07-1.43-20.18-23.93-48.43-18.85-49.63-18.63-2.18.41-4.28-1.01-4.7-3.18-.42-2.17.99-4.28,3.17-4.7,1.38-.27,34.01-6.28,57.3,21.34,1.43,1.7,1.22,4.23-.48,5.66-.75.64-1.67.95-2.59.95Z"/>
          <path class="cls-11" d="m665.5,1135.47c-1.14,0-2.28-.48-3.07-1.43-20.18-23.93-48.43-18.85-49.62-18.63-2.17.41-4.28-1.01-4.7-3.18-.42-2.17.99-4.28,3.17-4.7,1.38-.27,34.01-6.29,57.29,21.34,1.43,1.7,1.22,4.23-.48,5.66-.75.64-1.67.95-2.59.95Z"/>
        </g>
      </g>
      <path class="cls-17" d="m860.01,882.97s-162.77,8.35-90.57,151.9l27.13,43.4s-75.91,69.29-175.3,10.19c0,0-110.15-290.63,212.02-252.24"/>
      <path class="cls-7" d="m701.75,842.74c32.71-9.93,75.61-13.18,131.54-6.51"/>
      <path class="cls-11" d="m604.01,1007.63v-.03c-.59-7.2-.91-14.64-.91-22.19,28.96,9.77,86.36,22.51,149.18-.19.99,6.29,2.6,12.98,4.87,20.08-64.06,24.92-123.14,12.29-153.14,2.33Z"/>
      <path class="cls-11" d="m606.31,1027.68c-.64-4.28-1.2-8.7-1.69-13.25,30.52,10.04,90.13,22.49,154.51-3.29,1.26,3.53,2.7,7.17,4.31,10.89-64.83,27.63-125.47,15.79-157.13,5.65Z"/>
      <path class="cls-11" d="m796.58,1078.27s-75.92,69.28-175.31,10.2c0,0-8.49-22.35-13.87-53.83,32.39,10.23,93.5,21.63,158.55-7.04,1.07,2.38,2.25,4.82,3.48,7.28l27.14,43.39Z"/>
      <path class="cls-29" d="m765.96,1027.6c-65.05,28.67-126.16,17.27-158.55,7.04-.38-2.27-.75-4.58-1.1-6.96,31.67,10.15,92.3,21.98,157.13-5.65.78,1.82,1.61,3.69,2.52,5.57Z"/>
      <path class="cls-29" d="m759.13,1011.14c-64.38,25.78-123.99,13.33-154.51,3.29-.24-2.25-.45-4.5-.62-6.8,30.01,9.96,89.09,22.59,153.14-2.33.62,1.9,1.26,3.86,1.98,5.84Z"/>
      <path class="cls-7" d="m827.5,888.46s.09-.02.13-.03c7.06-1.84,14.34-2.61,21.64-2.62,20.65-.02,42.59-2.67,63.52-10.13"/>
      <path class="cls-31" d="m746.46,1012.53c-1.63-.29-2.89-1.7-2.92-3.42,0-.2-.33-9.56-5.55-14.84-1.38-1.4-1.36-3.64.03-5.02,1.4-1.38,3.64-1.37,5.03.03,7.26,7.35,7.58,19.18,7.59,19.68.04,1.96-1.52,3.58-3.48,3.62-.24,0-.47-.01-.7-.05Z"/>
      <path class="cls-31" d="m729.52,1015.05c-1.63-.29-2.89-1.7-2.92-3.42,0-.2-.33-9.56-5.54-14.84-1.38-1.4-1.36-3.64.03-5.02,1.39-1.38,3.64-1.37,5.03.03,7.26,7.35,7.58,19.18,7.59,19.68.04,1.96-1.52,3.58-3.48,3.62-.24,0-.47-.01-.7-.05Z"/>
      <path class="cls-31" d="m712.57,1017.57c-1.63-.29-2.89-1.7-2.92-3.42,0-.2-.33-9.56-5.54-14.84-1.38-1.4-1.36-3.64.03-5.02,1.4-1.38,3.64-1.37,5.03.03,7.26,7.35,7.58,19.18,7.59,19.68.04,1.96-1.52,3.58-3.48,3.62-.24,0-.47-.01-.7-.05Z"/>
      <path class="cls-31" d="m695.62,1020.08c-1.63-.29-2.89-1.7-2.92-3.42,0-.19-.32-9.55-5.54-14.84-1.38-1.4-1.37-3.65.03-5.03,1.39-1.38,3.64-1.37,5.02.03,7.26,7.35,7.58,19.18,7.59,19.68.04,1.96-1.52,3.58-3.48,3.62-.24,0-.47-.01-.7-.05Z"/>
    </g>
  </g>
</svg>