<?xml version="1.0" encoding="UTF-8"?>
<svg id="Capa_1" data-name="Capa 1" xmlns="http://www.w3.org/2000/svg" xmlns:xlink="http://www.w3.org/1999/xlink" viewBox="0 0 1600 1600">
  <defs>
    <style>
      .cls-1 {
        stroke: #999;
        stroke-width: 6.17px;
      }

      .cls-1, .cls-2, .cls-3, .cls-4, .cls-5 {
        fill: none;
      }

      .cls-1, .cls-2, .cls-3, .cls-4, .cls-5, .cls-6 {
        stroke-miterlimit: 10;
      }

      .cls-7 {
        clip-path: url(#clippath);
      }

      .cls-8, .cls-9 {
        fill: #00d461;
      }

      .cls-10, .cls-6, .cls-11 {
        fill: #ededed;
      }

      .cls-12, .cls-13 {
        fill: #cb0073;
      }

      .cls-14 {
        clip-path: url(#clippath-1);
      }

      .cls-15 {
        clip-path: url(#clippath-4);
      }

      .cls-16 {
        clip-path: url(#clippath-3);
      }

      .cls-17 {
        clip-path: url(#clippath-2);
      }

      .cls-18 {
        clip-path: url(#clippath-5);
      }

      .cls-2 {
        stroke-width: 9.84px;
      }

      .cls-2, .cls-3, .cls-4 {
        stroke: #4b2910;
      }

      .cls-2, .cls-3, .cls-5 {
        stroke-linecap: round;
      }

      .cls-19, .cls-20 {
        opacity: .5;
      }

      .cls-19, .cls-21, .cls-22 {
        fill: #4b2910;
      }

      .cls-19, .cls-21, .cls-22, .cls-23, .cls-13, .cls-11, .cls-24, .cls-9 {
        stroke-width: 0px;
      }

      .cls-3, .cls-5 {
        stroke-width: 6.56px;
      }

      .cls-4 {
        stroke-width: 3.28px;
      }

      .cls-21 {
        fill-rule: evenodd;
      }

      .cls-5 {
        stroke: #e6e6e6;
      }

      .cls-6 {
        stroke: #00d461;
        stroke-width: 13.13px;
      }

      .cls-23 {
        fill: #1b3cc0;
      }

      .cls-24 {
        fill: #ffb921;
      }
    </style>
    <clipPath id="clippath">
      <path class="cls-13" d="m669.7,642.88s-114.54-90.56-88.23-259.04c0,0,45.1-36.34,48.69-69.85.54-5.01-1.1-13.88-11.87-16.27-7.93-1.76-15.76,3.79-19.46,11.03-3.19,6.24-6.92,12.42-12.51,17.08,0,0-.2-32.94,9.02-64.24,8.02-27.23-19.91-31.23-26.18-21.58,0,0-16.35-24.33-35.56-6.37,0,0-16.96-18.91-28.71-2.14-73.96,105.57-54.79,359.6,159.35,449.4"/>
    </clipPath>
    <clipPath id="clippath-1">
      <path class="cls-13" d="m1191.92,824.93s3.56-11.79,5.53-30.7v-.03c4.7-45.04.41-130.35-82.33-192.61-78.67-59.21-143.16-41.79-177.17-23.81-5.01,2.61-9.34,5.26-12.95,7.69-.9.62-1.77,1.21-2.59,1.78-2.1,1.46-3.91,2.83-5.4,4-.5.38-.97.73-1.36,1.07-2.56,2.05-3.86,3.31-3.86,3.31l18.3,30.53c2.82-1.07,5.61-2.05,8.3-2.92,3.92-1.3,7.73-2.42,11.46-3.33,1.31-.34,2.61-.65,3.9-.93,1.8-.42,3.52-.79,5.27-1.12,1.42-.25,2.8-.5,4.14-.7.25-.04.46-.09.67-.1,1.31-.21,2.64-.37,3.89-.53,91.11-10.91,105.85,90.63,110.53,109.65,5.31,21.35-7.52,29.37-7.52,29.37-31.31,21.59-13.4,52.29-13.4,52.29l1.5-.97,17.26-11.19,8.98-5.83c5.16-2.57,10.49-4.83,15.89-6.74,0,.27,0,.54,0,.81-.12,4.03-.19,10.52,0,18.12.54,21.41,3.23,51.51,13.65,59.63,16.69,12.98,27.03-7,27.03-7,15.29,11.74,24.99-5.79,24.99-5.79,19.57,8.5,25.28-23.98,25.28-23.98Z"/>
    </clipPath>
    <clipPath id="clippath-2">
      <path class="cls-9" d="m289.85,918.6s33.26-48.42,91.34-31.69c58.08,16.73,171.14,166.61,191.46,249.68,0,0-20.78,37.34-67.92,60.46l-214.89-278.45Z"/>
    </clipPath>
    <clipPath id="clippath-3">
      <path class="cls-11" d="m281.3,969.92c24.01,60.29,99.99,153.39,176.67,208.68,61.1,44.05,53.99-1.08,39.54-28.85-30.48-58.57-97.32-163.29-153.79-214.72-46.71-42.54-80.41-10.28-62.42,34.89Z"/>
    </clipPath>
    <clipPath id="clippath-4">
      <path class="cls-9" d="m818.86,1273.76s-46.94-35.33-27.71-92.63c19.23-57.3,173.86-163.77,257.73-180.48,0,0,36.4,22.38,57.47,70.47l-287.48,202.64Z"/>
    </clipPath>
    <clipPath id="clippath-5">
      <path class="cls-11" d="m869.77,1284.52c61.28-21.38,157.58-93.26,216.13-167.48,46.65-59.14,1.25-53.98-27.11-40.75-59.84,27.92-167.35,90.17-221.18,144.36-44.52,44.82-13.75,79.89,32.16,63.87Z"/>
    </clipPath>
  </defs>
  <g>
    <g>
      <path class="cls-12" d="m669.7,642.88s-114.54-90.56-88.23-259.04c0,0,45.1-36.34,48.69-69.85.54-5.01-1.1-13.88-11.87-16.27-7.93-1.76-15.76,3.79-19.46,11.03-3.19,6.24-6.92,12.42-12.51,17.08,0,0-.2-32.94,9.02-64.24,8.02-27.23-19.91-31.23-26.18-21.58,0,0-16.35-24.33-35.56-6.37,0,0-16.96-18.91-28.71-2.14-73.96,105.57-54.79,359.6,159.35,449.4"/>
      <g class="cls-7">
        <g class="cls-20">
          <path class="cls-21" d="m532.98,523.04l-8.55,12.82c-2.13,3.2-2.91,7.11-2.15,10.87.75,3.77,2.97,7.08,6.17,9.21l12.12,8.08c3.2,2.13,7.11,2.91,10.87,2.15,3.77-.75,7.08-2.97,9.21-6.17l8.55-12.82c4.75,1.65,9.9,2.02,14.92,1.02,7.42-1.48,13.94-5.85,18.14-12.15l6.85-10.27c4.5-6.75,6.13-15,4.54-22.95-1.59-7.95-6.27-14.94-13.02-19.44-6.74-4.5-14.09-9.4-20.84-13.9-6.75-4.5-15-6.13-22.95-4.54-7.95,1.59-14.94,6.27-19.44,13.02l-6.85,10.27c-4.2,6.29-5.72,14-4.24,21.42,1,5.02,3.32,9.63,6.67,13.38Zm4.62.98c.58-.87.46-2.04-.28-2.78-3.4-3.36-5.75-7.68-6.7-12.44-1.25-6.28.04-12.8,3.59-18.12l6.85-10.27c3.85-5.78,9.84-9.79,16.65-11.15,6.81-1.36,13.88.04,19.66,3.89,6.75,4.5,14.09,9.4,20.84,13.9,5.78,3.85,9.79,9.84,11.15,16.65,1.36,6.81-.04,13.88-3.89,19.66l-6.85,10.27c-3.55,5.33-9.07,9.02-15.35,10.28-4.76.95-9.65.44-14.06-1.41-.97-.41-2.09-.07-2.67.81l-9.52,14.27c-1.49,2.23-3.8,3.77-6.42,4.3-2.63.52-5.35-.01-7.58-1.5l-12.12-8.08c-2.23-1.49-3.77-3.79-4.3-6.42-.52-2.63.02-5.35,1.5-7.58l9.52-14.27Z"/>
          <path class="cls-21" d="m565.84,502.41c.77-1.16,1.06-2.58.78-3.95-.27-1.37-1.08-2.57-2.24-3.35l-10.22-6.82c-1.16-.77-2.58-1.06-3.95-.78-1.37.27-2.57,1.08-3.35,2.24l-2.23,3.34c-3.5,5.24-2.08,12.33,3.16,15.82h0c5.24,3.5,12.33,2.08,15.82-3.16.78-1.16,1.54-2.31,2.23-3.34Z"/>
          <path class="cls-21" d="m595.34,522.08c.77-1.16,1.06-2.58.78-3.95-.27-1.37-1.08-2.57-2.24-3.35-3.45-2.3-8.23-5.49-11.68-7.79-1.16-.78-2.58-1.06-3.95-.78s-2.57,1.08-3.35,2.24c-.69,1.03-1.45,2.17-2.22,3.33-3.77,5.65-2.24,13.28,3.41,17.04h0c5.65,3.77,13.28,2.24,17.04-3.41l2.22-3.33Z"/>
          <path class="cls-21" d="m563.88,526.55c.87-1.3,1.18-2.89.87-4.41-.31-1.53-1.21-2.87-2.5-3.74h0c-1.3-.87-2.89-1.18-4.41-.87-1.53.31-2.87,1.21-3.74,2.5-.38.57-.76,1.14-1.12,1.68-.53.8-.73,1.77-.54,2.71.19.94.74,1.77,1.54,2.3l3.77,2.52c.8.53,1.77.72,2.71.54.94-.19,1.77-.74,2.3-1.54l1.12-1.68Z"/>
          <path class="cls-21" d="m539.97,545.48c.37-.56.51-1.25.38-1.91-.13-.66-.52-1.24-1.08-1.62s-1.25-.51-1.91-.38c-.66.13-1.24.52-1.62,1.08-2.2,3.29-6.18,9.27-6.18,9.27l4.24,2.82,6.18-9.27Z"/>
          <path class="cls-21" d="m550.04,552.2c.37-.56.51-1.25.38-1.91-.13-.66-.52-1.24-1.08-1.62s-1.25-.51-1.91-.38c-.66.13-1.24.52-1.62,1.08-2.2,3.29-6.18,9.27-6.18,9.27l4.24,2.82s3.99-5.98,6.18-9.27Z"/>
        </g>
      </g>
    </g>
    <path class="cls-9" d="m907.46,564.34c-3.06-7.09-5.36-14.65-7.24-21.98-5.78-22.52-7.67-42.79-14.97-39.68-7.72,3.27-12.9,14.38-15.61,22.05.22,1.27.48,2.49.74,3.71,0,.03-.02.06.02.07v.03c.48,2.33,1,4.53,1.53,6.56.19.86.41,1.7.61,2.5,1.59,6.23,2.92,10.3,3.07,10.78l.02.04s6.02,3.88,25.96,17.83c1.43,1.01,2.92,2.07,4.5,3.19l.06.02c1.86,1.32,3.81,2.7,5.88,4.15-1.72-2.95-3.23-6.04-4.57-9.27Z"/>
    <path class="cls-9" d="m996.76,696.59c-.25-7.72.39-15.6,1.33-23.1,2.89-23.07,8.57-42.61.64-42.4-8.38.21-17.28,8.64-22.62,14.78-.27,1.26-.47,2.5-.67,3.73-.02.03-.04.05-.01.07l-.02.03c-.4,2.34-.72,4.58-.98,6.67-.14.87-.24,1.73-.34,2.55-.81,6.38-1.07,10.65-1.11,11.15v.05s19.57,34.79,20.97,36.89c-.52-3.37,2.87-6.92,2.81-10.41Z"/>
    <path class="cls-9" d="m666.81,779.86c-4.12-7.71-9.21-15.07-14.38-21.91-15.89-20.99-32.52-36.95-24.62-41.23,8.34-4.53,21.83-1.3,30.55,1.7.98,1.09,1.87,2.18,2.77,3.27.03.02.07.03.05.06l.03.02c1.72,2.07,3.3,4.08,4.73,5.98.63.77,1.21,1.56,1.78,2.3,4.41,5.8,7.07,9.84,7.39,10.31l.02.05s.49,45.2.32,48.05c-1.4-3.6-6.73-5.16-8.64-8.62Z"/>
    <path class="cls-9" d="m936.88,581.93c-4.56-3.23-8.71-6.19-12.5-8.86-2.07-1.44-4.02-2.82-5.88-4.15l-.06-.02c-1.58-1.12-3.07-2.17-4.5-3.19-.57-.42-1.15-.8-1.7-1.18.02-.33.04-.67.09-.99,4.83-6.55,13.03-15.67,21.35-16.55,7.04-.77,4.55,15.02,3.21,34.94Z"/>
    <path class="cls-4" d="m729.8,856.59s-.06-.02-.18-.08"/>
    <path class="cls-9" d="m796.52,497.89s-12.96-35.1-28.2-7.22c-15.24,27.9-27.44,46.16-21.36,6.69.65-4.24,1.16-8.51,1.55-12.78.04-.57.09-1.16.14-1.73,2.94-34.88-1.9-68.21-1.9-68.21,0,0-11.37-30.08,17.2-12.94,22.69,13.64,34.51,55.59,38.4,72.14l.02.07c.99,4.22,1.45,6.77,1.45,6.77,0,0,.53,5.22.76,10.93.42,10.78-.33,23.36-8.04,6.27Z"/>
    <path class="cls-9" d="m872.61,532.39c-.43-.31-4.33-3.48-9.53-9.73-5.27-6.26-11.91-15.65-17.66-28.4-11.8-26.16-32.01-8.2-32.01-8.2l-8.84,5.56-2.21-17.71-.02-.07s20.84-32.67,42.81-50.76c21.97-18.05,27.78,8.85,20.41,37.61-3.8,14.81-1.8,33.48,1.07,48.04.22,1.27.48,2.49.74,3.71,0,.03-.02.06.02.07v.03c.48,2.33,1,4.53,1.53,6.56.19.86.41,1.7.61,2.5,1.59,6.23,2.92,10.3,3.07,10.78Z"/>
    <path class="cls-13" d="m963.51,852.77c-27.23-9.14-43.99-31.39-52.33-45.79-45.1-.61-140.16,3.9-181.56,49.53-4.94-2.15-107.68-49.1-59.46-240.13,4.03-16.01,8.4-28.81,13.08-40.48l.02-.1,14.46-32c4.92-10.36,10.22-21.37,15.89-34.65,8.11-11.95,22.04-28.64,34.88-24.57-.38,4.27-.9,8.54-1.55,12.78-6.08,39.47,6.12,21.22,21.36-6.69,15.24-27.87,28.2,7.22,28.2,7.22,7.72,17.09,8.47,4.51,8.04-6.27l8.84-5.56s20.22-17.96,32.01,8.2c5.74,12.75,12.38,22.14,17.66,28.4,5.21,6.25,9.11,9.41,9.53,9.73l.02.04s5.67,3.65,24.26,16.65c.55.38,1.13.76,1.7,1.18,1.43,1.01,2.92,2.07,4.5,3.19l.06.02c1.86,1.32,3.81,2.7,5.88,4.15,3.79,2.66,7.94,5.63,12.5,8.86,2.73,1.92,5.59,3.97,8.6,6.1,45.68,32.47,71.02,111.93,67.17,173.24-2.18,34.81-9.6,74.37-33.8,106.96Z"/>
    <path class="cls-3" d="m659.02,677.81c1.25-12.19,3.21-25.15,6.01-38.95"/>
    <path class="cls-13" d="m873.98,909.99c42.97-11.55,71.14-32.39,89.52-57.22-27.23-9.14-43.99-31.39-52.33-45.79-45.1-.61-140.16,3.9-181.56,49.53-.67.74-1.34,1.52-2,2.26-5.75,6.83-10.33,14.53-13.43,23.19-11.11,31.06-14.39,61.59-8.42,92.76,9.86,51.82,45.34,105.35,112.95,166.06l185.65-126.19c-115.92-29.12-130.39-104.61-130.39-104.61Z"/>
    <path class="cls-13" d="m705.77,974.72c-36.15,28.07-98.04,84.24-133.13,161.87,0,0-29.71-93.89-96.94-168.26,0,0,141.55-116.37,258.63-118.77-5.75,6.83-17.04,23.74-20.14,32.4-11.11,31.06-14.39,61.59-8.42,92.76Z"/>
    <path class="cls-9" d="m759.65,535.86c-4.05-4.86-18.78-18.84-25.06,3.59-8.57,30.62-18.71,50.33-19.81,10.41-.13-4.29-.38-8.58-.77-12.85-.06-.56-.12-1.16-.17-1.72-3.37-34.85-14.11-66.76-14.11-66.76,0,0-16.58-27.55,14.6-15.81,24.77,9.35,43.92,48.49,50.72,64.07l.03.07c1.73,3.97,2.64,6.4,2.64,6.4,0,0,1.65,5,2.71,10.62,1.49,7.9-6.53,7.05-10.76,1.98Z"/>
    <path class="cls-3" d="m911.18,806.98c-45.1-.61-140.16,3.9-181.56,49.53-.67.74-1.34,1.52-2,2.26-5.75,6.83-10.33,14.53-13.43,23.19-11.11,31.06-14.39,61.59-8.42,92.76"/>
    <g>
      <path class="cls-11" d="m618.93,1060.88c-17.31,22.19-33.55,47.54-46.29,75.71,0,0-49.18-76.88-96.94-168.26,0,0,22.78-18.72,57.6-41.31,17.84,14.73,63.13,57.98,85.63,133.86Z"/>
      <path class="cls-11" d="m636.59,1039.56c-3.44,3.9-6.87,7.93-10.24,12.08-23.05-73.73-67.31-115.72-84.67-129.96,3.76-2.39,7.63-4.79,11.63-7.18,16.78,13.72,59.71,54.15,83.28,125.06Z"/>
      <path class="cls-11" d="m659.09,1015.72c-4.95,4.9-9.93,10.06-14.94,15.48-23.78-68.9-65.65-108.32-82.17-121.86,5.54-3.26,11.29-6.53,17.16-9.73,16.29,13.39,56.04,51.01,79.95,116.11Z"/>
      <path class="cls-23" d="m626.35,1051.64c-2.5,3.02-4.99,6.11-7.42,9.25-22.5-75.89-67.79-119.13-85.63-133.86,2.72-1.77,5.51-3.53,8.38-5.34,17.36,14.24,61.61,56.23,84.67,129.96Z"/>
      <path class="cls-23" d="m644.15,1031.2c-2.52,2.71-5.04,5.52-7.56,8.36-23.57-70.91-66.5-111.35-83.28-125.06,2.84-1.71,5.73-3.44,8.67-5.16,16.52,13.55,58.38,52.97,82.17,121.86Z"/>
    </g>
    <g>
      <path class="cls-11" d="m730.96,1039.17c-4.17-7.13-7.85-14.17-11.08-21.16,25.85-24.21,84.47-70.94,163.49-84.92,2.94,5.33,6.76,11.29,11.73,17.54-82.09,15.76-141.52,66.46-164.15,88.54Z"/>
      <path class="cls-11" d="m743.89,1059.19c-3.01-4.26-5.84-8.54-8.51-12.78,22.38-21.91,82.37-73.45,165.39-89.14,3.78,4.29,8.13,8.59,13.07,12.87-84.55,14.15-146.15,66.02-169.94,89.06Z"/>
      <path class="cls-11" d="m1004.37,1014.6l-185.65,126.19c-29.08-26.12-52.21-50.88-69.93-74.82,24.06-23.31,86.73-76.06,172.76-89.49,19.18,14.8,45.84,28.82,82.82,38.12Z"/>
      <path class="cls-23" d="m900.76,957.26c-83.02,15.69-143,67.23-165.39,89.14-1.51-2.42-3-4.83-4.41-7.23,22.63-22.08,82.06-72.78,164.15-88.54,1.75,2.18,3.61,4.41,5.65,6.63Z"/>
      <path class="cls-23" d="m921.55,976.48c-86.03,13.43-148.7,66.18-172.76,89.49-1.7-2.23-3.32-4.51-4.9-6.78,23.79-23.04,85.38-74.91,169.94-89.06,2.4,2.14,5.01,4.26,7.72,6.35Z"/>
    </g>
    <path class="cls-3" d="m552.93,288.13s.33-28.06,16.23-48.14"/>
    <path class="cls-3" d="m517.37,281.77s.33-28.06,16.23-48.14"/>
    <path class="cls-5" d="m571.66,914.8s6.53-7.58,14.83-8.42"/>
    <path class="cls-5" d="m582.69,926.7s6.53-7.58,14.83-8.42"/>
    <path class="cls-5" d="m594.03,939.11s6.53-7.58,14.83-8.42"/>
    <path class="cls-5" d="m603.4,950.1s6.53-7.58,14.83-8.42"/>
    <path class="cls-5" d="m885.91,949.75s-1.96-9.81-8.77-14.62"/>
    <path class="cls-5" d="m870.45,954.69s-1.96-9.81-8.77-14.62"/>
    <path class="cls-5" d="m854.48,959.92s-1.96-9.81-8.77-14.62"/>
    <path class="cls-5" d="m840.91,964.88s-1.96-9.81-8.77-14.62"/>
  </g>
  <g>
    <g>
      <path class="cls-12" d="m1191.92,824.93s3.56-11.79,5.53-30.7v-.03c4.7-45.04.41-130.35-82.33-192.61-78.67-59.21-143.16-41.79-177.17-23.81-5.01,2.61-9.34,5.26-12.95,7.69-.9.62-1.77,1.21-2.59,1.78-2.1,1.46-3.91,2.83-5.4,4-.5.38-.97.73-1.36,1.07-2.56,2.05-3.86,3.31-3.86,3.31l18.3,30.53c2.82-1.07,5.61-2.05,8.3-2.92,3.92-1.3,7.73-2.42,11.46-3.33,1.31-.34,2.61-.65,3.9-.93,1.8-.42,3.52-.79,5.27-1.12,1.42-.25,2.8-.5,4.14-.7.25-.04.46-.09.67-.1,1.31-.21,2.64-.37,3.89-.53,91.11-10.91,105.85,90.63,110.53,109.65,5.31,21.35-7.52,29.37-7.52,29.37-31.31,21.59-13.4,52.29-13.4,52.29l1.5-.97,17.26-11.19,8.98-5.83c5.16-2.57,10.49-4.83,15.89-6.74,0,.27,0,.54,0,.81-.12,4.03-.19,10.52,0,18.12.54,21.41,3.23,51.51,13.65,59.63,16.69,12.98,27.03-7,27.03-7,15.29,11.74,24.99-5.79,24.99-5.79,19.57,8.5,25.28-23.98,25.28-23.98Z"/>
      <g class="cls-14">
        <path class="cls-19" d="m1096.08,732.33c-.41.02-.82-.07-1.2-.27-7.9-4.09-14.27-8.58-18.91-13.35-5.65-5.81-8.63-11.94-8.87-18.22-.15-4.06,1.27-7.6,4.1-10.26,3.2-3,8.2-4.63,12.74-4.17,3.69.38,6.86,4.34,10.14,6.9,3.08-2.79,15.67-12.68,23.69-4.46,2.71,2.78,4.69,5.87,4.84,9.93.23,6.28-2.29,12.61-7.49,18.82-4.28,5.1-10.29,10.05-17.87,14.71-.36.22-.77.34-1.18.36Zm-14.08-41.49c-2.45.09-5.4.97-7.49,2.93-1.8,1.69-2.67,3.89-2.57,6.54.19,5.04,2.71,10.09,7.5,15.02,4.04,4.16,9.55,10.53,16.42,14.2,6.58-4.17,11.83-10.94,15.55-15.38,4.41-5.26,6.55-10.49,6.37-15.53-.1-2.65-1.12-4.78-3.04-6.34-2.69-2.17-6.52-2.68-9.12-2.22-3.28.58-6.45,2.45-9.18,5.4-.44.47-1.04.75-1.69.77-.64.02-1.27-.21-1.74-.65-2.94-2.74-6.25-4.37-9.56-4.71-.45-.05-.94-.06-1.44-.04Z"/>
        <path class="cls-19" d="m1128.47,622.09c9.71-.89,24.51-6.17,21.2-18.81-2.82-10.78-16.93-10.38-25.66-9.39-2.53.29-5.13.68-7.75,1.2,1.32-1.04,2.6-2.12,3.84-3.28,6.3-5.9,10.77-15.02,6.33-23.45-1.76-3.35-5.04-6.3-8.89-6.9-4.51-.7-8,2.16-10.41,5.67-4.49,6.55-7.5,14.54-9.6,22.6-.85-6.35-2.28-12.63-4.67-18.36-2.86-6.85-10.01-15.05-18.12-10.31-9.11,5.33-6.37,18.02-2.79,25.88,2.25,4.93,5.35,9.38,9.1,13.19-3.9-1.15-7.85-2.1-11.87-2.83-6.14-1.12-12.86-2.27-19.09-1.07-10.11,1.93-15.82,12-9.34,20.77,6.67,9.04,18.14,8.14,27.22,3.55,2.02-1.02,4.03-2.05,6.03-3.1-3.43,3.63-6.6,7.48-9.27,11.66-5.54,8.65-8.34,21.95.05,29.79,9.09,8.5,18.1-.19,21.66-9.14,1.7-4.28,2.99-8.7,3.9-13.2.74,3.33,1.64,6.6,2.74,9.78,2.97,8.6,11.85,19.32,22.24,14.99,10.61-4.43,8.34-20.24,4.34-28.35-2.44-4.95-5.88-9.08-9.85-12.7,6,1.73,12.31,2.39,18.65,1.81Zm-20.5-46.89c1.67-3.44,3.72-7.72,7.51-9.25,6.54-2.64,9.35,4.84,8.66,10.01-.99,7.47-7.21,12.67-12.92,16.89-3.8,2.81-7.81,5.3-11.78,7.86,1.79-8.82,4.6-17.4,8.53-25.52Zm-31.42,14.15c-3.6-6.61-7.09-17.37-.5-23.28,14.8-13.28,18.6,29.48,18.79,36.6,0,.23.09.51.23.8-.87.61-1.71,1.24-2.52,1.92-.23-.31-.5-.58-.81-.76-6.35-3.6-11.69-8.85-15.19-15.27Zm-30.47,28.81c-4.94-3.09-5.73-9.44-1.78-13.65,3.53-3.76,8.77-4.72,13.71-4.6,9.48.23,19.02,2.43,28.02,5.49-5.28,3.05-10.66,5.93-16.04,8.79-6.97,3.7-16.21,8.78-23.91,3.96Zm38.66,23.07c-1.44,4.72-3.16,9.77-6.53,13.49-3.88,4.27-10.35,5.2-13.51-.58-4.95-9.08,2.21-20.82,7.88-27.71,4.48-5.45,9.57-10.38,14.84-15.08.12,3.44.33,6.92.66,10.39-.3,6.59-1.4,13.14-3.33,19.49Zm30.17-10.67c4.34,6.94,7.86,22.3-2.03,26.74-10.86,4.88-16.19-9.08-17.99-16.91-1.36-5.9-2.33-11.88-2.95-17.89.11-3.86-.03-7.72-.42-11.56.01.01.03.03.04.04,2.68,2.08,5.53,3.89,8.51,5.43,5.75,3.86,11.16,8.27,14.84,14.15Zm-20.15-21.23c.3.02.59-.03.85-.22,1.8-1.32,3.66-2.57,5.53-3.79,5.5-3.08,11.81-4.92,17.86-6.2,5.92-1.25,24.53-4.87,27,3.43,1.47,4.92-2.49,9.6-6.44,11.86-4.57,2.61-10.19,3.51-15.38,3.74-8.3.36-16.56-1.49-23.89-5.25-1.82-1.23-3.68-2.41-5.53-3.57Z"/>
      </g>
    </g>
    <path class="cls-3" d="m1142.49,854.01s10.56-26,3.67-50.67"/>
    <path class="cls-3" d="m1167.93,847.47s10.56-26,3.67-50.67"/>
    <path class="cls-3" d="m967.73,616.54c-11.33,1.35-23.84,4.45-37.65,9.66"/>
    <path class="cls-3" d="m911.78,595.64s9.37-9,26.16-17.87"/>
  </g>
  <g>
    <g>
      <path class="cls-8" d="m289.85,918.6s33.26-48.42,91.34-31.69c58.08,16.73,171.14,166.61,191.46,249.68,0,0-20.78,37.34-67.92,60.46l-214.89-278.45Z"/>
      <g class="cls-17">
        <path class="cls-11" d="m422.47,902.15s14.58,44.39-8.48,82.9l-110.22-98.52,61.6-27.57,57.11,43.19Z"/>
        <path class="cls-11" d="m587.01,1145.63s-33.4-32.67-78.14-28.97l39.78,142.38,51.92-43.11-13.56-70.3Z"/>
        <path class="cls-6" d="m483.74,1221.63c-11.47-2.94-24.92-10.05-41.13-21.73-77.08-55.57-158.65-152.32-185.7-220.26-11.19-28.1-8.46-55.59,7.31-73.52,13.13-14.93,33.59-20.61,54.74-15.19,14.15,3.62,28.43,11.93,42.44,24.69,60.76,55.34,130.02,165.55,159.4,222.01,7.35,14.12,22.49,49.42,4.43,72.16-4.45,5.61-17.41,18-41.48,11.83h0Z"/>
      </g>
    </g>
    <g>
      <path class="cls-10" d="m281.3,969.92c24.01,60.29,99.99,153.39,176.67,208.68,61.1,44.05,53.99-1.08,39.54-28.85-30.48-58.57-97.32-163.29-153.79-214.72-46.71-42.54-80.41-10.28-62.42,34.89Z"/>
      <g class="cls-16">
        <line class="cls-1" x1="648.06" y1="1056.36" x2="307.24" y2="1297.49"/>
        <line class="cls-1" x1="633.8" y1="1036.19" x2="292.98" y2="1277.33"/>
        <line class="cls-1" x1="619.53" y1="1016.03" x2="278.71" y2="1257.17"/>
        <line class="cls-1" x1="605.27" y1="995.87" x2="264.45" y2="1237.01"/>
        <line class="cls-1" x1="591" y1="975.71" x2="250.18" y2="1216.85"/>
        <line class="cls-1" x1="576.74" y1="955.55" x2="235.92" y2="1196.69"/>
        <line class="cls-1" x1="562.47" y1="935.39" x2="221.65" y2="1176.53"/>
        <line class="cls-1" x1="548.21" y1="915.23" x2="207.39" y2="1156.37"/>
        <line class="cls-1" x1="533.95" y1="895.07" x2="193.12" y2="1136.2"/>
        <line class="cls-1" x1="519.68" y1="874.9" x2="178.86" y2="1116.04"/>
        <line class="cls-1" x1="505.42" y1="854.74" x2="164.6" y2="1095.88"/>
        <line class="cls-1" x1="491.15" y1="834.58" x2="150.33" y2="1075.72"/>
        <line class="cls-1" x1="476.89" y1="814.42" x2="136.07" y2="1055.56"/>
      </g>
    </g>
  </g>
  <path class="cls-9" d="m708.43,619.34c6.13-10.56,16.82-19.33,32.74-.5,1.49,1.76,4.33.18,3.62-2.01-5.26-16.28-15.78-42.3-25.79-28.13-7.89,11.17-12.15,21.19-14.44,29.05-.7,2.4,2.62,3.75,3.87,1.59Z"/>
  <path class="cls-9" d="m825.6,596.53c-10.1-6.86-23.53-10.14-29.73,13.73-.58,2.24-3.82,2.04-4.13-.25-2.31-16.95-4.09-44.96,11.06-36.52,11.95,6.65,20.13,13.84,25.6,19.93,1.67,1.86-.74,4.51-2.8,3.11Z"/>
  <path class="cls-9" d="m962.14,735.99c-4.48-17.02-13.72-32.31-32.3-7.48-1.74,2.33-4.31-.61-3.27-3.75,7.65-23.22,21.97-59.88,29.73-36.68,6.12,18.29,8.83,34.13,9.91,46.33.33,3.72-3.15,5.06-4.07,1.58Z"/>
  <g>
    <path class="cls-22" d="m882.27,667.34c-.44,4.67-1.58,9.11-3.35,13.23-4.3,10.08-12.18,18.14-21.97,22.73-6.9,3.24-14.71,4.72-22.85,3.96-24.31-2.27-42.2-23.85-39.93-48.16.44-4.7,1.58-9.15,3.38-13.26,4.27-10.11,12.21-18.14,21.96-22.7,6.9-3.25,14.71-4.72,22.82-3.96,24.34,2.28,42.2,23.82,39.93,48.16Z"/>
    <path class="cls-11" d="m878.92,680.57c-4.3,10.08-12.18,18.14-21.97,22.73l-59.39-57.46c4.27-10.11,12.21-18.14,21.96-22.7l59.4,57.43Z"/>
  </g>
  <g>
    <path class="cls-22" d="m769.65,681.05c-.44,4.67-1.58,9.11-3.35,13.23-4.3,10.08-12.18,18.14-21.97,22.73-6.9,3.24-14.71,4.72-22.85,3.96-24.31-2.27-42.2-23.85-39.93-48.16.44-4.7,1.58-9.15,3.38-13.26,4.27-10.11,12.21-18.14,21.96-22.7,6.9-3.25,14.71-4.72,22.82-3.96,24.34,2.28,42.2,23.82,39.93,48.16Z"/>
    <path class="cls-11" d="m766.3,694.28c-4.3,10.08-12.18,18.14-21.97,22.73l-59.39-57.46c4.27-10.11,12.21-18.14,21.96-22.7l59.4,57.43Z"/>
  </g>
  <path class="cls-22" d="m767.23,678.21l-11.48-9.32c.58-.72,5.91-7.12,14.62-11.19,12.22-5.7,25.23-3.91,36.65,5.03l-9.11,11.64c-15.9-12.45-28.36,1.02-30.69,3.85Z"/>
  <path class="cls-2" d="m807.24,777.23s41.47.68,61.14-42.14"/>
  <g>
    <g>
      <path class="cls-8" d="m818.86,1273.76s-46.94-35.33-27.71-92.63c19.23-57.3,173.86-163.77,257.73-180.48,0,0,36.4,22.38,57.47,70.47l-287.48,202.64Z"/>
      <g class="cls-15">
        <path class="cls-11" d="m819.77,1098.97s61.16-17.19,112.13,16.4l-140.34,143.95-33.83-85.31,62.03-75.05Z"/>
        <path class="cls-11" d="m1058.54,986.7s-34.08,31.95-32.32,76.81l143.97-33.58-40.83-53.73-70.82,10.5Z"/>
        <path class="cls-6" d="m1130,1093.15c-3.43,11.33-11.12,24.47-23.49,40.15-58.86,74.6-159.04,151.91-228.09,176-28.56,9.97-55.9,6.05-73.14-10.48-14.35-13.76-19.13-34.45-12.81-55.35,4.23-13.98,13.15-27.88,26.51-41.33,57.92-58.31,171.02-122.74,228.7-149.65,14.42-6.73,50.34-20.33,72.29-1.3,5.41,4.69,17.23,18.17,10.02,41.95h0Z"/>
      </g>
    </g>
    <g>
      <path class="cls-10" d="m869.77,1284.52c61.28-21.38,157.58-93.26,216.13-167.48,46.65-59.14,1.25-53.98-27.11-40.75-59.84,27.92-167.35,90.17-221.18,144.36-44.52,44.82-13.75,79.89,32.16,63.87Z"/>
      <g class="cls-18">
        <line class="cls-1" x1="956.77" y1="922.15" x2="1203.99" y2="1258.59"/>
        <line class="cls-1" x1="936.87" y1="936.77" x2="1184.09" y2="1273.21"/>
        <line class="cls-1" x1="916.97" y1="951.4" x2="1164.19" y2="1287.84"/>
        <line class="cls-1" x1="897.07" y1="966.02" x2="1144.28" y2="1302.46"/>
        <line class="cls-1" x1="877.16" y1="980.65" x2="1124.38" y2="1317.08"/>
        <line class="cls-1" x1="857.26" y1="995.27" x2="1104.48" y2="1331.71"/>
        <line class="cls-1" x1="837.36" y1="1009.89" x2="1084.58" y2="1346.33"/>
        <line class="cls-1" x1="817.46" y1="1024.52" x2="1064.68" y2="1360.96"/>
        <line class="cls-1" x1="797.56" y1="1039.14" x2="1044.77" y2="1375.58"/>
        <line class="cls-1" x1="777.66" y1="1053.77" x2="1024.87" y2="1390.2"/>
        <line class="cls-1" x1="757.75" y1="1068.39" x2="1004.97" y2="1404.83"/>
        <line class="cls-1" x1="737.85" y1="1083.01" x2="985.07" y2="1419.45"/>
        <line class="cls-1" x1="717.95" y1="1097.64" x2="965.17" y2="1434.08"/>
      </g>
    </g>
  </g>
  <line class="cls-4" x1="1084.71" y1="809.56" x2="1079.35" y2="818.05"/>
  <g>
    <path class="cls-24" d="m1212.09,1035.66c-1.95,6.41-4.03,12.82-6.26,19.16-50.14,144-168.3,270.85-357.72,243.53-44.66-6.43-72.94-16.65-86.1-25.85-.03,0-.06-.05-.09-.06-.4-.27-.78-.54-1.11-.83-.4-.27-.77-.57-1.13-.87-.34-.26-.67-.55-.98-.79-.74-.67-1.42-1.31-2.01-1.94-.19-.18-.37-.4-.55-.62-1.57-1.79-2.49-3.52-2.76-5.08-.06-.29-.09-.57-.1-.8-.03-.55.03-1.04.16-1.55.68-2.64,3.46-4.77,8.24-6.12,195.54-55.19,229.35-165.74,238.17-208.5,19.97-96.99,11.11-130.9,21.08-178.82,4.86-23.45,19.03-44.01,37.91-59.63,5.1-4.18,10.52-8.01,16.18-11.47,3.28-1.97,6.64-3.82,10.06-5.55,5.16-2.57,10.49-4.83,15.89-6.74,0,.27,0,.54,0,.81-.12,4.03-.19,10.52,0,18.12.54,21.41,3.23,51.51,13.65,59.63,16.69,12.98,27.03-7,27.03-7,15.29,11.74,24.99-5.79,24.99-5.79,19.57,8.5,25.28-23.98,25.28-23.98,0,0,3.56-11.79,5.53-30.7,20.79,16.71,35.11,45.68,36.15,90.02.31,13.6-.02,27.57-1.08,41.76-.41,6.23-1,12.48-1.7,18.81-3.33,29.94-9.57,60.63-18.73,90.83Z"/>
    <path class="cls-22" d="m1080.1,796.73c-17.2,13.04-39.32,36.61-43.13,73.13-1.96,18.91-4.69,34.84-5.75,55.37-1.5,29.12-3.37,65.4-15.32,123.41-14.64,71.05-59.22,129.07-130.74,171.56-10.9,6.46-29.96,16.07-50.54,23.67-47.22,17.44-88,16.21-72.7,28.57-.4-.27-.78-.54-1.11-.83-.4-.27-.77-.57-1.13-.87-.34-.26-.67-.55-.98-.79-.74-.67-1.42-1.31-2.01-1.94-.19-.18-.37-.4-.55-.62-1.57-1.79-2.49-3.52-2.76-5.08-.06-.29-.09-.57-.1-.8-.03-.55.03-1.04.16-1.55.68-2.64,3.46-4.77,8.24-6.12,195.54-55.19,229.35-165.74,238.17-208.5,19.97-96.99,11.11-130.9,21.08-178.82,4.86-23.45,19.03-44.01,37.91-59.63,5.1-4.18,10.52-8.01,16.18-11.47,3.28-1.97,6.64-3.82,10.06-5.55,5.16-2.57,10.49-4.83,15.89-6.74,0,.27,0,.54,0,.81,0,0-9.3,4.02-20.86,12.78Z"/>
    <g>
      <path class="cls-11" d="m1139.25,984.75c-8.3,32.39-27.19,57.06-46.58,63.75-5.72,1.96-11.48,2.38-17.05.95-24.35-6.24-35.4-45.35-24.65-87.31,10.75-41.96,39.24-70.94,63.6-64.71,5.56,1.43,10.42,4.57,14.49,9.03,13.79,15.19,18.49,45.9,10.2,78.29Z"/>
      <path class="cls-22" d="m1118.35,979.4c-4.93,19.24-15.35,34.09-25.75,38.34-3.07,1.25-6.13,1.59-9.06.84-12.82-3.28-18.06-26.17-11.67-51.09,6.38-24.92,21.97-42.47,34.8-39.18,2.93.75,5.45,2.52,7.54,5.09,7.07,8.73,9.07,26.76,4.15,46Z"/>
      <path class="cls-22" d="m1170.75,992.82c-3.42,13.35-8.63,25.36-14.95,35.36-13.5,21.48-32.05,33.59-48.67,29.33l-31.5-8.07c5.56,1.43,11.33,1.01,17.05-.95,10.44-3.59,20.73-12.41,29.29-24.81,7.37-10.65,13.45-23.96,17.29-38.93,4.8-18.72,5.25-36.9,2.07-51.84-2.26-10.88-6.45-20.05-12.26-26.45-4.07-4.46-8.93-7.6-14.49-9.03l31.5,8.07c12.49,3.2,21.49,15.02,25.81,31.48,4.17,15.6,4.12,35.37-1.13,55.84Z"/>
      <path class="cls-11" d="m1288.01,1004.53c-8.3,32.39-27.19,57.06-46.58,63.75-5.72,1.96-11.48,2.38-17.05.95-13.48-3.45-22.89-16.97-26.75-35.48l34.66,4.61c2.92.75,5.99.42,9.05-.83,10.41-4.28,20.82-19.12,25.75-38.36,4.93-19.23,2.94-37.26-4.14-45.98-2.09-2.57-4.61-4.36-7.53-5.11l-.46-.05c-.74-.15-1.46-.27-2.23-.3l-35.71-4.74c13.26-19.23,30.63-29.79,46.31-25.77,5.56,1.43,10.42,4.57,14.49,9.03,13.79,15.19,18.49,45.9,10.2,78.29Z"/>
      <path class="cls-22" d="m1294.83,925.28l-31.5-8.07c5.56,1.43,10.42,4.57,14.49,9.03,13.79,15.19,18.49,45.9,10.2,78.29-8.3,32.39-27.19,57.06-46.58,63.75-5.72,1.96-11.48,2.38-17.05.95l31.5,8.07c24.38,6.25,52.88-22.74,63.63-64.7,10.75-41.96-.3-81.07-24.68-87.32Z"/>
      <path class="cls-11" d="m1177.11,994.45c-3.32,12.97-8.19,24.7-14.07,34.71l-7.24-.97c6.32-10,11.53-22.01,14.95-35.36,5.24-20.47,5.3-40.24,1.13-55.84l7.11.94c3.74,16.2,3.4,35.93-1.88,56.53Z"/>
      <path class="cls-22" d="m1267.1,999.17c-4.93,19.23-15.34,34.08-25.75,38.36-3.06,1.25-6.13,1.58-9.05.83l-34.66-4.61-34.6-4.59c5.89-10.01,10.75-21.74,14.07-34.71,5.28-20.6,5.62-40.33,1.88-56.53l38.03,5.07,35.71,4.74c.77.03,1.49.14,2.23.3l.46.05c2.92.75,5.45,2.55,7.53,5.11,7.08,8.72,9.07,26.75,4.14,45.98Z"/>
    </g>
    <g>
      <path class="cls-11" d="m909.27,1298.91c-4.44,17.31-15.86,30.54-29.18,35.84-3.49,1.4-7.15,2.23-10.8,2.47-3.31.21-6.64-.09-9.96-.94-20.92-5.36-32.45-30.8-25.8-56.78,6.66-26.01,29-42.77,49.93-37.41,3.32.85,6.38,2.19,9.19,3.97,3.09,1.97,5.9,4.46,8.28,7.36,9.14,11.05,12.79,28.15,8.35,45.49Z"/>
      <ellipse class="cls-22" cx="871.39" cy="1289.19" rx="26.76" ry="21.52" transform="translate(-593.72 1813.4) rotate(-75.63)"/>
      <path class="cls-11" d="m1039.11,1332.17c-4.44,17.31-15.86,30.54-29.18,35.84-3.49,1.4-7.15,2.23-10.8,2.47-3.31.21-6.64-.09-9.96-.94-13.21-3.38-22.69-14.8-26.2-29.29l31.63,8.1h.03c11.49,2.95,23.81-6.27,27.47-20.55,3.67-14.32-2.7-28.32-14.19-31.27h-.03s-31.6-8.1-31.6-8.1c10.02-11.05,23.82-16.47,37.03-13.09,3.32.85,6.38,2.19,9.19,3.97,3.09,1.97,5.9,4.46,8.28,7.36,9.14,11.05,12.79,28.15,8.35,45.49Z"/>
      <path class="cls-22" d="m1032.42,1280.25l-19.12-4.9c3.32.85,6.38,2.19,9.19,3.97,3.09,1.97,5.9,4.46,8.28,7.36,9.14,11.05,12.79,28.15,8.35,45.49-4.44,17.31-15.86,30.54-29.18,35.84-3.49,1.4-7.15,2.23-10.8,2.47-3.31.21-6.64-.09-9.96-.94l19.12,4.9c20.92,5.36,43.29-11.39,49.95-37.38,6.66-26.01-4.9-51.46-25.82-56.82Z"/>
      <path class="cls-22" d="m1022.09,1327.81c-3.66,14.29-15.98,23.51-27.47,20.56h-.03s-79.09-20.27-79.09-20.27c-10.05,11.01-23.85,16.47-37.06,13.08l-19.12-4.9c3.32.85,6.65,1.15,9.96.94,3.66-.24,7.31-1.07,10.8-2.47,13.33-5.3,24.75-18.53,29.18-35.84,4.44-17.34.79-34.44-8.35-45.49-2.39-2.91-5.19-5.39-8.28-7.36-2.8-1.77-5.87-3.12-9.19-3.97l19.12,4.9c13.21,3.38,22.66,14.8,26.18,29.28l79.12,20.27h.03c11.49,2.95,17.86,16.95,14.19,31.27Z"/>
    </g>
  </g>
  <g>
    <path class="cls-22" d="m687.48,724.91c-3.86,1.07-6.41,5.53-5.37,9.4,2.37.97,5.36,1.08,7.25-.64,1.89-1.73.6-8.13-1.88-8.76"/>
    <path class="cls-22" d="m705.77,734.22c1.08-1.6,3.13-2.25,5.06-2.4.6-.05,1.27-.04,1.72.37.43.39.52,1.01.59,1.58.17,1.49.3,3.15-.61,4.34-1.08,1.41-3.13,1.53-4.9,1.44-.22-.01-.44-.03-.62-.14-.22-.14-.32-.4-.41-.65-.48-1.42-.64-2.96-.45-4.45"/>
    <path class="cls-22" d="m694.85,746.48c.77-.07,1.56-.01,2.32.17.63.15,1.27.4,1.72.88.82.86.8,2.2.74,3.39-.04.64-.08,1.32-.44,1.85-.65.95-1.99,1.04-3.14,1.04-.35,0-.74-.01-1.01-.24-.2-.17-.31-.42-.39-.67-.78-2.3-.66-4.9.34-7.11"/>
    <path class="cls-22" d="m680.44,747.22c.93-.24,2,.34,2.32,1.25s-.16,2.02-1.03,2.42c-.88.4-2.03.02-2.5-.82-.31-.55-.34-1.22-.34-1.85,0-.4.01-.83.25-1.16s.78-.46,1.03-.15"/>
  </g>
  <g>
    <path class="cls-22" d="m890.6,689.5c-3.86,1.07-6.41,5.53-5.37,9.4,2.37.97,5.36,1.08,7.25-.64,1.89-1.73.6-8.13-1.88-8.76"/>
    <path class="cls-22" d="m908.89,698.81c1.08-1.6,3.13-2.25,5.06-2.4.6-.05,1.27-.04,1.72.37.43.39.52,1.01.59,1.58.17,1.49.3,3.15-.61,4.34-1.08,1.41-3.13,1.53-4.9,1.44-.22-.01-.44-.03-.62-.14-.22-.14-.32-.4-.41-.65-.48-1.42-.64-2.96-.45-4.45"/>
    <path class="cls-22" d="m897.97,711.06c.77-.07,1.56-.01,2.32.17.63.15,1.27.4,1.72.88.82.86.8,2.2.74,3.39-.04.64-.08,1.32-.44,1.85-.65.95-1.99,1.04-3.14,1.04-.35,0-.74-.01-1.01-.24-.2-.17-.31-.42-.39-.67-.78-2.3-.66-4.9.34-7.11"/>
    <path class="cls-22" d="m883.56,711.81c.93-.24,2,.34,2.32,1.25s-.16,2.02-1.03,2.42-2.03.02-2.5-.82c-.31-.55-.34-1.22-.34-1.85,0-.4.01-.83.25-1.16s.78-.46,1.03-.15"/>
  </g>
  <path class="cls-9" d="m770.24,745.02c1.13,3.46-3.2,6.14-5.77,3.56-7.79-7.82-16.41-20.75-12.15-37.39,4.94-19.28,18.17-14.77,26.05-9.99,2.41,1.46,2.15,5.02-.43,6.17-7.01,3.13-16.05,12.08-7.71,37.65Z"/>
</svg>