<?xml version="1.0" encoding="UTF-8"?>
<svg id="Capa_1" data-name="Capa 1" xmlns="http://www.w3.org/2000/svg" xmlns:xlink="http://www.w3.org/1999/xlink" viewBox="0 0 1600 1600">
  <defs>
    <style>
      .cls-1 {
        stroke-width: 6.04px;
      }

      .cls-1, .cls-2 {
        fill: none;
        stroke: #4b2910;
        stroke-linecap: round;
        stroke-miterlimit: 10;
      }

      .cls-2 {
        stroke-width: 12.97px;
      }

      .cls-3 {
        clip-path: url(#clippath);
      }

      .cls-4, .cls-5 {
        fill: #02af4c;
      }

      .cls-6, .cls-7 {
        fill: #ffe706;
      }

      .cls-8, .cls-9 {
        fill: #1b3cc0;
      }

      .cls-10 {
        clip-path: url(#clippath-1);
      }

      .cls-11 {
        clip-path: url(#clippath-4);
      }

      .cls-12 {
        clip-path: url(#clippath-3);
      }

      .cls-13 {
        clip-path: url(#clippath-2);
      }

      .cls-14 {
        clip-path: url(#clippath-5);
      }

      .cls-15, .cls-16 {
        opacity: .15;
      }

      .cls-15, .cls-17, .cls-18, .cls-9, .cls-19, .cls-20, .cls-21, .cls-22, .cls-7, .cls-23, .cls-5 {
        stroke-width: 0px;
      }

      .cls-15, .cls-19 {
        fill: #1d1d1b;
      }

      .cls-17 {
        fill: #fc4e0e;
      }

      .cls-18 {
        fill: #4b2910;
      }

      .cls-20 {
        fill: #1bd7f3;
      }

      .cls-21 {
        fill: #ededed;
      }

      .cls-22 {
        fill: #fff5a9;
      }

      .cls-23 {
        fill: #00d461;
      }
    </style>
    <clipPath id="clippath">
      <path class="cls-9" d="m652.47,1163.19s66.62,92.06-7.81,157.26c0,0-76.79,19.01-131.98-73.42-55.19-92.43-27.24-168.9-27.24-168.9l14.78-7.85,31.19,3.13,121.06,89.8Z"/>
    </clipPath>
    <clipPath id="clippath-1">
      <path class="cls-5" d="m730.82,358.08c23.9,86.21,56.27,222.12-215,290.07,0,0,17.49-34.87,13.62-113.59-3.88-78.72,44.2-170.59,144.54-205.88,15.14-5.33,43.54-18.58,56.85,29.39Z"/>
    </clipPath>
    <clipPath id="clippath-2">
      <path class="cls-7" d="m493.31,556.38s-110.62,34.66-93.76,135.07c17.56,104.6,125.31,110.68,169.96,99.52,44.65-11.16,80.68-34.57,80.68-34.57,0,0,21.31,24.35,48.71,23.34,27.4-1.01,15.22-31.46,15.22-31.46,0,0,30.44,3.04,23.34-26.38,0,0,22.24-2.03,7.06-33.49-15.18-31.46-67.22-59.96-134.19-24.51-69.38,36.73-90.08,49.99-131.68,24.63-41.6-25.37-17.6-84.92,28.07-99.13"/>
    </clipPath>
    <clipPath id="clippath-3">
      <path class="cls-7" d="m493.31,556.38s-110.62,34.66-93.76,135.07c17.56,104.6,125.31,110.68,169.96,99.52,44.65-11.16,80.68-34.57,80.68-34.57,0,0,21.31,24.35,48.71,23.34,27.4-1.01,15.22-31.46,15.22-31.46,0,0,30.44,3.04,23.34-26.38,0,0,22.24-2.03,7.06-33.49-15.18-31.46-67.22-59.96-134.19-24.51-69.38,36.73-90.08,49.99-131.68,24.63-41.6-25.37-17.6-84.92,28.07-99.13"/>
    </clipPath>
    <clipPath id="clippath-4">
      <path class="cls-7" d="m877.18,651.41s106.54-2.05,192.02-34.29c54.82-20.67,124.26-68.61,132.76-139.41,4.81-40.09-4.95-81.85-38.25-105.45-20.99-14.88-33.23.64-28.98,10.03,0,0-26.41-11.15-27.14,14.84,0,0-28.19-2.34-19.76,26.72,6.04,20.83,19.4,29.78,19.4,29.78,0,0,9.17,128.56-214.41,167.87"/>
    </clipPath>
    <clipPath id="clippath-5">
      <path class="cls-9" d="m1020.09,1045.07s94.26,63.46,46.85,150.32c0,0-65.54,44.3-149.2-23.46-83.66-67.75-83.77-149.18-83.77-149.18l11.16-12.46,30.36-7.81,144.59,42.59Z"/>
    </clipPath>
  </defs>
  <g>
    <g>
      <path class="cls-8" d="m652.47,1163.19s66.62,92.06-7.81,157.26c0,0-76.79,19.01-131.98-73.42-55.19-92.43-27.24-168.9-27.24-168.9l14.78-7.85,31.19,3.13,121.06,89.8Z"/>
      <g class="cls-3">
        <path class="cls-21" d="m695.98,1271.81s-49.45-100.11-156.5-24.61c-107.06,75.5,55.56,107.53,55.56,107.53,0,0,85.92,9.7,100.95-82.93Z"/>
        <g>
          <path class="cls-21" d="m433.42,1259.33l19.53-165.97,43.97-41.36.13,9.67c0,.31.5,31.32,7.38,69.92,6.31,35.39,19.44,84.61,46.11,118.07,29.66,37.2,63.71,45.01,87.05,45.01,15.18,0,25.84-3.33,27.33-3.82l25.19-11.93-25.59,65.21-71.42,22.39-159.69-107.2Z"/>
          <path class="cls-9" d="m492.79,1061.73s1.65,124.4,54.42,190.59c30.75,38.57,66.17,46.62,90.38,46.62,17.34,0,28.93-4.13,28.93-4.13l15.7-7.44-20.92,53.31-67.53,21.17-155.83-104.61,19.04-161.84,35.79-33.67m8.25-19.45l-14.08,13.25-35.79,33.67-2.26,2.13-.36,3.08-19.04,161.84-.61,5.17,4.32,2.9,155.83,104.61,3.39,2.28,3.9-1.22,67.53-21.17,3.89-1.22,1.49-3.8,20.92-53.31,7.85-20-19.42,9.2-15.24,7.22c-1.88.6-11.81,3.53-25.75,3.53-22.41,0-55.12-7.53-83.73-43.41-20.66-25.91-36.29-66.03-45.23-116.02-6.84-38.28-7.34-69.07-7.34-69.37l-.27-19.33h0Z"/>
        </g>
        <path class="cls-21" d="m595.93,1210.36c1.06.59,2.36.72,3.58.26,31.04-11.77,54.61,7.5,55.6,8.32,1.81,1.51,4.48,1.27,5.99-.53,1.51-1.8,1.28-4.48-.51-5.99-1.14-.96-28.28-23.36-64.1-9.77-2.2.83-3.31,3.29-2.47,5.49.37.98,1.06,1.74,1.91,2.21Z"/>
        <path class="cls-21" d="m592.19,1190.85c1.06.59,2.36.72,3.58.26,31.04-11.77,54.61,7.5,55.6,8.32,1.8,1.5,4.49,1.27,5.99-.53,1.51-1.8,1.28-4.48-.51-5.99-1.14-.96-28.28-23.36-64.1-9.77-2.2.83-3.31,3.29-2.47,5.49.37.98,1.06,1.74,1.91,2.21Z"/>
      </g>
    </g>
    <path class="cls-7" d="m638.54,830.71s-2.2,159.44-100.56,218.15l-37.76,21.41s23.79,119.94,156.73,99.85c0,0,131.72-131.45,64.2-327.6"/>
    <path class="cls-21" d="m714.11,1080.48c2.56-6.03,5.08-12.31,7.44-18.9-32.08-.66-91.25-8.92-137.1-55.58-4.05,5.52-8.47,10.83-13.19,15.89,47.63,50.78,110.93,58.33,142.86,58.6Z"/>
    <path class="cls-21" d="m703.91,1102.02c2.39-4.54,4.68-9.29,6.96-14.25-31.41.06-97.06-6.81-145.78-59.68-3.92,3.82-8.1,7.44-12.54,10.81,50.27,57.45,120.3,63.56,151.35,63.12Z"/>
    <path class="cls-21" d="m500.21,1070.25s23.79,119.95,156.75,99.86c0,0,21.81-21.77,43.1-60.78-30.71.61-103.44-4.99-154.52-65.31-2.46,1.69-4.96,3.3-7.56,4.85l-37.76,21.38Z"/>
    <path class="cls-17" d="m565.09,1028.08c48.72,52.87,114.37,59.74,145.78,59.68,1.09-2.39,2.18-4.81,3.24-7.28-31.93-.27-95.23-7.82-142.86-58.6-1.99,2.13-4.02,4.17-6.16,6.2Z"/>
    <path class="cls-17" d="m545.53,1044.03c51.08,60.31,123.81,65.92,154.52,65.31v-.04c1.33-2.35,2.59-4.79,3.86-7.28-31.05.44-101.08-5.67-151.35-63.12-2.27,1.8-4.62,3.51-7.03,5.13Z"/>
    <path class="cls-21" d="m576.5,1032.02c1.71.4,3.52-.44,4.29-2.09.09-.19,4.35-9.16,11.65-12.1,1.93-.78,2.86-2.97,2.09-4.9-.78-1.93-2.97-2.87-4.9-2.09-10.16,4.09-15.46,15.47-15.68,15.95-.87,1.89-.03,4.13,1.86,4.99.23.11.47.19.71.24Z"/>
    <path class="cls-21" d="m591.93,1041.62c1.71.4,3.52-.44,4.29-2.09.09-.19,4.35-9.16,11.65-12.1,1.93-.78,2.86-2.97,2.09-4.9-.77-1.93-2.97-2.87-4.9-2.09-10.16,4.09-15.46,15.47-15.69,15.95-.87,1.89-.03,4.13,1.86,4.99.23.11.47.19.71.24Z"/>
    <path class="cls-21" d="m607.36,1051.21c1.71.4,3.52-.44,4.29-2.09.09-.19,4.35-9.16,11.65-12.1,1.93-.78,2.86-2.97,2.09-4.9-.78-1.93-2.97-2.87-4.9-2.09-10.16,4.09-15.46,15.47-15.69,15.95-.87,1.89-.03,4.13,1.86,4.99.23.11.47.19.71.24Z"/>
    <path class="cls-21" d="m622.79,1060.8c1.71.4,3.52-.44,4.29-2.1.08-.18,4.34-9.16,11.65-12.1,1.93-.78,2.87-2.97,2.09-4.9-.77-1.93-2.97-2.86-4.9-2.09-10.17,4.09-15.47,15.47-15.69,15.95-.86,1.89-.03,4.13,1.86,4.99.23.11.46.19.7.24Z"/>
  </g>
  <path class="cls-7" d="m606.74,839.71s217.62,77.09,277.33-138.77c59.71-215.86-94.21-310.94-156.58-323.79-62.37-12.85-224.25,30.84-245.48,187.59-21.23,156.76,65.02,246.7,65.02,246.7,0,0-9.29,71.95,59.71,28.27Z"/>
  <g>
    <path class="cls-4" d="m730.82,358.08c23.9,86.21,56.27,222.12-215,290.07,0,0,17.49-34.87,13.62-113.59-3.88-78.72,44.2-170.59,144.54-205.88,15.14-5.33,43.54-18.58,56.85,29.39Z"/>
    <g class="cls-10">
      <path class="cls-23" d="m707.53,310.01s-26.17,206.07-191.71,338.14c-165.54,132.07,48.45-297.44,48.45-297.44l143.25-40.7Z"/>
      <path class="cls-5" d="m604.7,542.52c-24.45,0-55.98-3.74-94.2-15.77l7.32-23.25c89.11,28.05,137.44,6.99,137.91,6.78l10.26,22.1c-1.39.65-22.37,10.14-61.29,10.14Z"/>
      <path class="cls-5" d="m590.48,595.62c-24.45,0-55.99-3.74-94.2-15.77l7.32-23.25c89.1,28.05,137.44,7,137.91,6.78l10.26,22.1c-1.39.65-22.36,10.13-61.28,10.13Z"/>
      <path class="cls-5" d="m618.96,489.28c-24.45,0-55.98-3.74-94.2-15.77l7.32-23.25c89.11,28.05,137.44,6.99,137.91,6.78l10.26,22.1c-1.39.65-22.37,10.14-61.29,10.14Z"/>
      <path class="cls-5" d="m648.23,434.24c-24.45,0-55.99-3.74-94.2-15.77l7.31-23.25c89.11,28.05,137.44,7,137.92,6.78l10.26,22.1c-1.39.65-22.36,10.13-61.28,10.13Z"/>
    </g>
  </g>
  <path class="cls-2" d="m799.71,489.51s-8.11,36.93-58.25,28.18"/>
  <g>
    <g>
      <path class="cls-18" d="m808.77,653.36l.35-106.83c1.4-16.31-19.21-24.51-29.4-11.7l-67.86,85.29c-15.26,19.19-44.75,21.48-68.83,26.13l-51.2,9.89c-36.62,7.07-53.46,49.82-31.5,79.96l94.79,130.15c21.75,29.86,67.06,27.35,85.37-4.74l24.77-43.39c12.85-22.51,25.86-50.15,50.59-57.92l163.85-58.82c16.3-5.12,13.69-28.96-3.34-30.42l-167.6-17.61Z"/>
      <path class="cls-21" d="m1276.61,287.97c-1.95,1.42-4.69.99-6.12-.96-1.42-1.95-.99-4.69.96-6.12,1.95-1.42,4.69-.99,6.12.96,1.42,1.95.99,4.69-.96,6.12Z"/>
      <path class="cls-21" d="m1259.02,292.91c-1.96,1.42-4.69.99-6.12-.96-1.42-1.95-.99-4.69.96-6.12,1.96-1.42,4.69-.99,6.12.96,1.42,1.95.99,4.69-.96,6.12Z"/>
      <path class="cls-21" d="m1241.65,297.62c-1.95,1.42-4.69.99-6.12-.96-1.42-1.95-.99-4.69.96-6.12,1.95-1.42,4.69-.99,6.12.96,1.42,1.95.99,4.69-.96,6.12Z"/>
      <rect class="cls-21" x="1274.8" y="286.83" width="3.13" height="11.53" transform="translate(-33.08 284.28) rotate(-12.55)"/>
      <rect class="cls-21" x="1256.25" y="291.67" width="3.13" height="11.53" transform="translate(-34.58 280.36) rotate(-12.55)"/>
      <rect class="cls-21" x="1238.87" y="294.76" width="3.13" height="11.53" transform="translate(-35.66 276.38) rotate(-12.54)"/>
      <path class="cls-20" d="m1227.42,362.88l-15.89-21.82-463.11,323.67c-6.88,4.69-8.51,14.14-3.61,20.87l13.71,18.83c4.9,6.73,14.4,8.07,20.97,2.97l447.92-344.53Z"/>
      <path class="cls-18" d="m1211.53,341.06l7.23-19.26c3.2-8.52,10.49-14.85,19.37-16.83l49.64-11.03c4.33-1.52,9.15-.02,11.86,3.69h0c3.39,4.65,2.36,11.16-2.3,14.54l-69.9,50.71-15.89-21.82Z"/>
      <path class="cls-21" d="m1281.41,309.17c-1.95,1.42-4.69.99-6.12-.96-1.42-1.96-.99-4.69.96-6.12,1.95-1.42,4.69-.99,6.12.96,1.42,1.96.99,4.69-.96,6.12Z"/>
      <path class="cls-21" d="m1264.74,313.93c-1.95,1.42-4.69.99-6.12-.96-1.42-1.96-.99-4.69.96-6.12,1.95-1.42,4.69-.99,6.12.96,1.42,1.96.99,4.69-.96,6.12Z"/>
      <path class="cls-21" d="m1246.57,318.66c-1.95,1.42-4.69.99-6.12-.96-1.42-1.95-.99-4.69.96-6.12,1.95-1.42,4.69-.99,6.12.96,1.42,1.95.99,4.69-.96,6.12Z"/>
      <path class="cls-20" d="m674.82,800.08l-44.96-61.73c-2.63-3.61-1.83-8.66,1.77-11.29l16.5-12.01c3.61-2.63,8.66-1.83,11.29,1.77l44.96,61.73c2.63,3.61,1.83,8.66-1.77,11.29l-16.5,12.01c-3.61,2.63-8.66,1.83-11.29-1.77Z"/>
      <path class="cls-21" d="m728.76,754.43c-2.54.35-5.19-.68-6.81-2.9l-31.42-43.15c-1.13-1.56-1.59-3.46-1.29-5.36.3-1.9,1.32-3.57,2.88-4.71l11.53-8.4c1.55-1.13,3.46-1.59,5.36-1.29,1.9.3,3.57,1.32,4.71,2.88l31.42,43.15c1.13,1.56,1.59,3.46,1.29,5.36-.3,1.9-1.32,3.57-2.88,4.71l-11.53,8.4c-1,.73-2.12,1.16-3.26,1.31Zm-21.43-62.73c-.66.09-1.29.34-1.85.75l-11.53,8.4c-.88.64-1.46,1.59-1.63,2.67-.17,1.08.09,2.16.73,3.04l31.42,43.15c1.32,1.82,3.88,2.22,5.7.9l11.53-8.4c.88-.64,1.46-1.59,1.63-2.67.17-1.08-.09-2.16-.73-3.04l-31.42-43.15c-.64-.88-1.59-1.46-2.67-1.63-.4-.06-.8-.07-1.19-.01Z"/>
      <path class="cls-21" d="m660.41,746.74c-2.55,1.86-6.13,1.3-7.99-1.26-1.86-2.55-1.3-6.13,1.26-7.99,2.55-1.86,6.13-1.3,7.99,1.26,1.86,2.55,1.3,6.13-1.26,7.99Z"/>
      <path class="cls-21" d="m670.87,761.11c-2.55,1.86-6.13,1.3-7.99-1.26-1.86-2.55-1.3-6.13,1.26-7.99,2.55-1.86,6.13-1.3,7.99,1.26,1.86,2.55,1.3,6.13-1.26,7.99Z"/>
      <path class="cls-21" d="m681.34,775.47c-2.55,1.86-6.13,1.3-7.99-1.26-1.86-2.55-1.3-6.13,1.26-7.99,2.55-1.86,6.13-1.3,7.99,1.26,1.86,2.55,1.3,6.13-1.26,7.99Z"/>
      <g>
        <rect class="cls-21" x="675.98" y="810.57" width="77.55" height="3.13" transform="translate(-320.32 1126.86) rotate(-65.56)"/>
        <path class="cls-20" d="m699.24,851.31c-.71.1-1.45,0-2.15-.32-1.96-.9-2.83-3.21-1.93-5.18l4.91-10.76c.9-1.97,3.22-2.83,5.18-1.93,1.96.9,2.83,3.21,1.93,5.18l-4.91,10.76c-.58,1.27-1.75,2.08-3.03,2.25Z"/>
      </g>
      <path class="cls-20" d="m645.04,682.04c-3.75,2.73-4.58,7.99-1.85,11.74,2.73,3.75,7.99,4.58,11.74,1.85,3.75-2.73,4.58-7.99,1.85-11.74-2.73-3.75-7.99-4.58-11.74-1.85Z"/>
      <path class="cls-20" d="m613.78,686.95c-3.75,2.73-4.58,7.99-1.85,11.74,2.73,3.75,7.99,4.58,11.74,1.85,3.75-2.73,4.58-7.99,1.85-11.74-2.73-3.75-7.99-4.58-11.74-1.85Z"/>
      <rect class="cls-21" x="599.21" y="541.01" width="678.66" height="3.13" transform="translate(-140.88 643.02) rotate(-35.35)"/>
      <rect class="cls-21" x="606.5" y="550.98" width="678.61" height="3.13" transform="translate(-143.71 665.67) rotate(-36.22)"/>
      <rect class="cls-21" x="614.05" y="561.42" width="678.7" height="3.13" transform="translate(-146.7 688.26) rotate(-37.06)"/>
      <path class="cls-21" d="m1227.63,364.43c-.55.07-1.12-.15-1.48-.63l-15.89-21.82c-.51-.7-.35-1.68.34-2.18.69-.51,1.67-.35,2.18.34l15.89,21.82c.51.7.35,1.68-.34,2.18-.22.16-.46.25-.71.29Z"/>
    </g>
    <g>
      <path class="cls-6" d="m493.31,556.38s-110.62,34.66-93.76,135.07c17.56,104.6,125.31,110.68,169.96,99.52,44.65-11.16,80.68-34.57,80.68-34.57,0,0,21.31,24.35,48.71,23.34,27.4-1.01,15.22-31.46,15.22-31.46,0,0,30.44,3.04,23.34-26.38,0,0,22.24-2.03,7.06-33.49-15.18-31.46-67.22-59.96-134.19-24.51-69.38,36.73-90.08,49.99-131.68,24.63-41.6-25.37-17.6-84.92,28.07-99.13"/>
      <g class="cls-13">
        <path class="cls-1" d="m739.54,724s-16.93-27.94-44.74-38.66"/>
        <path class="cls-1" d="m717.17,751.37s-16.93-27.94-44.74-38.66"/>
      </g>
    </g>
    <g>
      <path class="cls-6" d="m493.31,556.38s-110.62,34.66-93.76,135.07c17.56,104.6,125.31,110.68,169.96,99.52,44.65-11.16,80.68-34.57,80.68-34.57,0,0,21.31,24.35,48.71,23.34,27.4-1.01,15.22-31.46,15.22-31.46,0,0,30.44,3.04,23.34-26.38,0,0,22.24-2.03,7.06-33.49-15.18-31.46-67.22-59.96-134.19-24.51-69.38,36.73-90.08,49.99-131.68,24.63-41.6-25.37-17.6-84.92,28.07-99.13"/>
      <g class="cls-12">
        <path class="cls-1" d="m739.54,724s-16.93-27.94-44.74-38.66"/>
        <path class="cls-1" d="m717.17,751.37s-16.93-27.94-44.74-38.66"/>
        <path class="cls-15" d="m487.49,768.92s-17.09,11.49-30.32,9.76c0,0,.76,6.24,9.04,9.22,2.81,1.01,2.23,4.83-.81,4.87-7.49.1-16.41-3.06-21.96-16.24,0,0-17.95-3.58-32.9-15.3-2.43-1.91.19-5.44,3.09-4.17,12.63,5.52,31.28,12.04,44.17,9.33,0,0,1.22-5.87-14.18-10.98-2.88-.96-2.03-4.85,1.06-4.87,8.13-.04,18.5,2.33,25.61,12.67l5.76-2.59s-10.36-7.04-16.24-14.47c-1.96-2.48-1.62-5.63,2.16-3.19,11.36,7.3,36.79,21.32,58.41,16.7,0,0,.02-6.57,4.95-13.23l-4.63-3.69s-10.76,24.75-34.06,4.23c-1.43-1.26.04-3.44,1.92-2.84,7.71,2.47,18.62,3.81,21.96-6.65,0,0-13.84-15.84-55.74-5.78-3.05.73-4.94-2.92-2.28-4.48,15.98-9.38,43.95-20.14,66.38,1.06,0,0,11.27-15.64,30.71-8.09,2.57,1,1.94,4.46-.85,4.79-5.27.62-11.82,2.73-17.89,8.45l2.39,2.48s21.74-20.44,87.41,12.98c2.88,1.47,1.01,5.49-2.16,4.63-16.23-4.36-36.93-9.63-43.34-9.96,0,0,2.04,12.11,16.43,12.21,1.61.01,3.36,1.76.16,3.66-3.64,2.17-8.92,3.94-14.83,1.59,0,0-2.06,13.4-17.26,8.85-2.37-.71-3.75-3.05.53-4.17,4.96-1.31,9.81-4.82,7.59-13.9-4.13-16.89-29.57-13.17-33.46,6.36,0,0,8.38-.53,17.28-4.16,2.65-1.08,5.11,1.81,3.26,3.84-5.95,6.55-16.38,14.29-32.79,15.09,0,0,6.38,8.63,22.77,4.26,2.83-.75,4.81,2.61,2.53,4.3-7.37,5.48-18.6,10.03-31.17,1.84,0,0-11.09,11.9-28.69,3.1-2.58-1.29-1.49-4.84,1.47-4.76,7.2.21,16.05-.98,19.41-7.41,0,0-15.05-1.91-20.89-5.36Z"/>
      </g>
    </g>
    <path class="cls-1" d="m479.51,605.12c7.61-6.95,16.85-12.5,27.2-15.72"/>
    <path class="cls-1" d="m552.84,693.01c-25.22,10.69-42.37,11.93-64.55.89"/>
    <path class="cls-1" d="m533.89,794.97c13.74-.03,26.11-1.62,35.61-4,8.79-2.2,17.24-4.87,25.15-7.74"/>
    <path class="cls-1" d="m493.31,556.38s-5.47,1.71-13.8,5.49"/>
    <g>
      <path class="cls-6" d="m877.18,651.41s106.54-2.05,192.02-34.29c54.82-20.67,124.26-68.61,132.76-139.41,4.81-40.09-4.95-81.85-38.25-105.45-20.99-14.88-33.23.64-28.98,10.03,0,0-26.41-11.15-27.14,14.84,0,0-28.19-2.34-19.76,26.72,6.04,20.83,19.4,29.78,19.4,29.78,0,0,9.17,128.56-214.41,167.87"/>
      <g class="cls-11">
        <path class="cls-1" d="m1160.65,410.43s-16.93-27.94-44.74-38.66"/>
        <path class="cls-1" d="m1135.08,426.12s-16.93-27.94-44.74-38.66"/>
        <g class="cls-16">
          <path class="cls-19" d="m1075.36,561.37s-.55-8.79-7.87-21.38c-1.38-2.38-2.22-5.36,1.09-1.88,3.59,3.77,7.91,9.11,10.31,14.97l4.81-4.69s-11.52-21.69,4.53-36.58c1.66-1.54,4.11-2.41,2.18.92-3.93,6.76-8.42,19.17.37,32.35,0,0,4.78-1.04,9.27-.55,1.44.16,2.66,1.15,3.15,2.52l.9,2.54c.78,2.2-.56,4.6-2.86,5.01-7.61,1.36-21.97,5.85-18.23,20.25,0,0,18.99,7.69,9.08-12.74,0,0,1.89-3.14,5.29-2.89,0,0,15,21.61.05,26.49,0,0,7.29,10.38,24.27,13.14,2.75.45,5.07,2.67-2.02,2.57-5.87-.08-13.91-1.6-23.66-6.89,0,0-6.11,11.23-19.61,14.42-3.56.84-7.09.2-1.54-2.15,6.75-2.85,14.07-8.76,13.41-20.9,0,0-5.01-.29-8.92-5.21,0,0-4.71,22.07-24.06,22.63-15.57.45-24.19-1.25-31.38,3.08-1.74,1.05-5.24,1.13-2.47-1.95,2.37-2.63,6.89-5.18,15.53-5.58,18.74-.87,40.26-8.54,33.61-32.79-3.15-3.38-14.77,25.14-33.05,23.46-1.99-.18-3.57-2.1.03-3.37,7-2.46,17.67-8.18,19.71-20.51,3.1-18.65,18.11-4.3,18.11-4.3Z"/>
          <path class="cls-19" d="m1100.73,542.55s-9.16-23.44,11.57-26.94c1.86-.31,4.46.31,2.1,1.77-5.26,3.24-12.97,10.03-8.05,20.11,1.74,3.58,6.1,7.84,9.31,9.04,3.12,1.17,6.42.46,7.63-6.52,0,0,.69-5.28-10.14-10.24,0,0,5.88-3.25,15.22,5.28,0,0,.86-5.92-2.73-16.15-.51-1.46,1.47-2.43,2.27-1.11,1.99,3.23,4.49,7.65,7.6,13.7,0,0,7.09-4.78,8.37-22.68.11-1.48,2.24-1.64,2.51-.18,2.2,11.93,3.11,30.59-12.28,32.13,0,0,1.08,3.03-1.8,5.16,0,0,9.41,2.28,18.16-7.17.99-1.07,2.71.02,2.12,1.35-3.57,7.88-11.58,18.5-28.41,15.79,0,0,15.63,18.64,5.07,28.98-1.51,1.48-4.84,2.15-3.52-.5,2.58-5.21,4.76-14.12-4.93-21.22,0,0-5.9-5.19-4.46,8.12.8,7.44-2.63,12.17-5.82,14.9-2.51,2.15-3.5,1.67-2.22-1.17,2.23-4.95,4.16-14.3-2.05-28.35,0,0,2.24-2.41,2.37-3.45.22-1.65-2.23-6.26-2.23-6.26-.87-2.43-3.07-4.14-5.65-4.38h0Z"/>
        </g>
      </g>
    </g>
  </g>
  <g>
    <g>
      <path class="cls-8" d="m1020.09,1045.07s94.26,63.46,46.85,150.32c0,0-65.54,44.3-149.2-23.46-83.66-67.75-83.77-149.18-83.77-149.18l11.16-12.46,30.36-7.81,144.59,42.59Z"/>
      <g class="cls-14">
        <path class="cls-21" d="m1098.37,1132.05s-80.91-76.94-155.4,30.82c-74.49,107.77,89.2,81.81,89.2,81.81,0,0,84-20.49,66.19-112.63Z"/>
        <g>
          <path class="cls-21" d="m847.58,1210.79l-38.85-162.53,27.03-53.97,3.46,9.03c.44,1.15,44.75,115.37,114.99,158.05,20.32,12.35,41.09,18.61,61.75,18.61,34.53,0,57.78-17.73,59.83-19.35l19.54-19.88-1.55,70.04-59.33,45.63-186.85-45.62Z"/>
          <path class="cls-9" d="m835.24,1004.84s44.41,116.21,116.76,160.17c23.68,14.39,45.42,19.22,63.96,19.22,38.11,0,62.69-20.45,62.69-20.45l12.18-12.39-1.27,57.26-56.1,43.14-182.34-44.52-37.89-158.49,22-43.94m1.04-21.1l-8.66,17.29-22,43.94-1.39,2.78.72,3.02,37.89,158.49,1.21,5.06,5.05,1.23,182.34,44.52,3.97.97,3.24-2.49,56.1-43.14,3.23-2.49.09-4.08,1.27-57.26.48-21.48-15.06,15.32-11.82,12.02c-2.63,2.04-24.65,18.27-56.98,18.27-19.86,0-39.89-6.05-59.54-17.99-28.32-17.21-56.82-49.48-82.43-93.34-19.61-33.58-30.68-62.31-30.79-62.59l-6.91-18.06h0Z"/>
        </g>
        <path class="cls-21" d="m983.27,1108.84c1.2.19,2.47-.13,3.45-.99,25.08-21.75,53.85-11.78,55.06-11.34,2.22.79,4.65-.35,5.45-2.56.8-2.21-.34-4.64-2.54-5.45-1.4-.51-34.6-12.19-63.54,12.92-1.78,1.54-1.97,4.23-.43,6.01.68.79,1.6,1.27,2.55,1.42Z"/>
        <path class="cls-21" d="m973.04,1091.81c1.2.19,2.47-.13,3.45-.99,25.08-21.75,53.85-11.78,55.06-11.34,2.21.79,4.65-.35,5.45-2.56.8-2.21-.34-4.64-2.54-5.45-1.4-.51-34.6-12.19-63.54,12.92-1.78,1.54-1.97,4.23-.43,6.01.68.79,1.6,1.27,2.55,1.42Z"/>
      </g>
    </g>
    <path class="cls-7" d="m810.86,795.23s169.15,35.55,69.86,174.06l-35.58,41s68.12,85.09,181.98,39.55c0,0,163.27-286.34-180.59-299.18"/>
    <path class="cls-21" d="m1058.53,968v-.03c1.81-7.45,3.37-15.19,4.61-23.1-31.95,5.47-94.18,9.36-156.26-24.77-2.07,6.43-4.86,13.17-8.41,20.23,63.01,36.66,126.98,33.15,160.06,27.66Z"/>
    <path class="cls-21" d="m1052.82,988.63c1.38-4.38,2.69-8.92,3.95-13.6-33.62,5.49-98.13,8.71-161.33-28.9-1.9,3.49-4.01,7.07-6.31,10.7,63.38,39.62,128.85,37.21,163.69,31.8Z"/>
    <path class="cls-21" d="m845.14,1010.3s68.12,85.08,181.99,39.56c0,0,12.57-22.02,23.39-54.11-35.62,5.38-101.52,7.26-164.95-33.49-1.51,2.32-3.15,4.68-4.85,7.05l-35.58,40.99Z"/>
    <path class="cls-17" d="m885.57,962.25c63.43,40.75,129.33,38.87,164.95,33.49.77-2.32,1.54-4.67,2.3-7.11-34.85,5.41-100.32,7.82-163.69-31.8-1.11,1.78-2.29,3.61-3.55,5.42Z"/>
    <path class="cls-17" d="m895.43,946.13c63.2,37.61,127.71,34.39,161.33,28.9.62-2.32,1.22-4.64,1.76-7.02-33.08,5.49-97.05,9-160.06-27.66-.96,1.89-1.95,3.83-3.04,5.79Z"/>
    <path class="cls-21" d="m908.47,949.68c1.76-.04,3.3-1.31,3.63-3.1.04-.21,1.92-9.96,8.25-14.63,1.67-1.24,2.03-3.59.79-5.27-1.24-1.68-3.59-2.03-5.27-.79-8.81,6.5-11.1,18.84-11.19,19.37-.37,2.05,1,4,3.05,4.37.25.04.5.06.74.06Z"/>
    <path class="cls-21" d="m925.81,955.11c1.76-.04,3.3-1.31,3.63-3.1.04-.21,1.92-9.96,8.25-14.63,1.67-1.24,2.03-3.59.79-5.27-1.23-1.68-3.59-2.03-5.27-.79-8.81,6.51-11.1,18.85-11.19,19.37-.37,2.05,1,4,3.05,4.37.25.04.5.06.74.06Z"/>
    <path class="cls-21" d="m943.15,960.53c1.76-.04,3.3-1.31,3.63-3.1.04-.21,1.92-9.96,8.25-14.63,1.67-1.24,2.03-3.59.79-5.27-1.24-1.68-3.59-2.03-5.27-.79-8.81,6.51-11.1,18.85-11.19,19.37-.37,2.05,1,4,3.05,4.37.25.04.5.06.74.06Z"/>
    <path class="cls-21" d="m960.49,965.96c1.76-.04,3.3-1.31,3.63-3.1.04-.19,1.91-9.95,8.25-14.63,1.68-1.24,2.03-3.59.8-5.27-1.23-1.67-3.59-2.03-5.27-.8-8.82,6.51-11.11,18.85-11.2,19.37-.36,2.05,1,4.01,3.05,4.37.25.04.5.06.74.06Z"/>
  </g>
  <g>
    <ellipse class="cls-22" cx="856.99" cy="542.57" rx="8.62" ry="12.37" transform="translate(-145.93 391.02) rotate(-23.75)"/>
    <ellipse class="cls-22" cx="837.76" cy="570.97" rx="8.62" ry="12.37" transform="translate(-158.99 385.69) rotate(-23.75)"/>
    <ellipse class="cls-22" cx="828.43" cy="520.6" rx="8.62" ry="12.37" transform="translate(-139.5 377.66) rotate(-23.75)"/>
    <ellipse class="cls-22" cx="852.83" cy="489.51" rx="8.62" ry="12.37" transform="translate(-124.92 384.85) rotate(-23.75)"/>
    <ellipse class="cls-22" cx="837.76" cy="485.53" rx="8.62" ry="12.37" transform="translate(-124.59 378.45) rotate(-23.75)"/>
    <ellipse class="cls-22" cx="802.14" cy="460.83" rx="8.62" ry="12.37" transform="translate(-117.66 362.01) rotate(-23.75)"/>
    <ellipse class="cls-22" cx="806.27" cy="433.98" rx="8.62" ry="12.37" transform="translate(-106.5 361.4) rotate(-23.75)"/>
    <ellipse class="cls-22" cx="769.5" cy="440.94" rx="8.62" ry="12.37" transform="translate(-112.41 347.19) rotate(-23.75)"/>
  </g>
</svg>