<?xml version="1.0" encoding="UTF-8"?>
<svg id="Capa_1" data-name="Capa 1" xmlns="http://www.w3.org/2000/svg" viewBox="0 0 1600 1600">
  <defs>
    <style>
      .cls-1 {
        fill: none;
      }

      .cls-1, .cls-2, .cls-3, .cls-4, .cls-5, .cls-6, .cls-7 {
        stroke-width: 0px;
      }

      .cls-2 {
        fill: #f2f2f2;
      }

      .cls-3 {
        fill: #172323;
      }

      .cls-4 {
        fill: #ccc;
      }

      .cls-5 {
        fill: #fff;
      }

      .cls-6 {
        fill: #fe299e;
      }

      .cls-7 {
        fill: #e6e6e6;
      }
    </style>
  </defs>
  <g>
    <path class="cls-7" d="m600.09,542.57c14.06,12.17,31.36,20.47,48.99,26.03,19.15,6.04,39.13,9.05,59.1,10.8,22.08,1.93,44.29,2.63,66.45,2.4,45.61-.47,91.18-5.24,135.9-14.25,22.09-4.45,43.98-9.93,65.56-16.43,6.62-1.99,13.27-4.07,19.82-6.43-5.5-11.18-10.96-22.36-14.13-34.37-2.44-9.23-2.56-32.5-11.43-36.05-3.23-1.29-8.95,10.86-12.42,10.91-61.74.93-125.76-4.68-187.5-5.37-25.47-.28-50.97,1.23-76.23,4.52l-2.93-.25c-10.3,0-20.6-1.46-30.89-.92-10.29.55-29.75-11.98-37.11-4.76-3.6,3.54-11.8,32.65-23.17,64.16Z"/>
    <path class="cls-6" d="m598.15,1142.32c1.6,2.82,3.22,5.62,4.85,8.42,4.48,7.7,9.08,15.35,13.79,22.92,3.98,6.41,8.24,12.98,14.62,17.02,5.21,3.29,11.4,4.61,17.47,5.72,23.81,4.36,47.98,6.44,72.13,8.23,73.65,5.49,149.19,8.25,219.85-13.26,10.42-3.18,20.93-6.99,29.36-13.9,7.79-6.39,13.34-15.03,19.83-22.75,1.41-1.68,2.87-3.32,4.36-4.96,9.17-10.05,19.31-19.55,23.94-32.21,2.96-8.1,3.4-16.86,3.7-25.48.61-17.69.74-35.4.4-53.1l.6-2.6c-.48-20.62-.95-41.24-1.42-61.86-.16-6.7-.31-13.41-.46-20.11-.1-4.49-.2-74.41-1.5-153.74-.01-.79-.02-1.58-.04-2.38-1.64-98.05-5.13-209.55-12.75-229.49-2.88-7.54-6.41-14.82-9.97-22.09-.33-.67-.66-1.34-.99-2.01-6.55,2.35-13.2,4.43-19.82,6.43-21.58,6.5-43.47,11.98-65.56,16.43-44.72,9.01-90.28,13.78-135.9,14.25-22.16.23-44.37-.47-66.45-2.4-19.96-1.75-39.94-4.76-59.09-10.8-17.63-5.56-34.93-13.86-48.99-26.03-.24.68-.49,1.36-.74,2.05-5.43,14.93-11.56,30.28-18.25,43.61-2.01,4.01-3.17,20.03-3.72,43.59-.03,1.23-.05,2.48-.09,3.76-2.19,108.18,7.37,360.48,7.37,360.48.55,26.56,1.11,53.12,1.66,79.68.12,6.1.33,16.23.53,25.52.3,14.41,4.18,28.53,11.3,41.06Z"/>
    <path class="cls-7" d="m603,1150.74c4.48,7.7,9.08,15.35,13.78,22.92,3.98,6.41,8.25,12.98,14.62,17.02,5.21,3.29,11.4,4.61,17.46,5.72,23.81,4.36,47.98,6.44,72.13,8.23,73.65,5.49,149.2,8.25,219.85-13.26,10.43-3.18,20.93-6.99,29.36-13.91,7.79-6.39,13.35-15.03,19.83-22.75,1.41-1.68,2.87-3.32,4.36-4.96-8.48,2.17-16.8,4.49-24.35,5.78-26.69,4.54-53.57,7.97-80.54,10.29-54.46,4.67-109.32,4.81-163.81.38-30.62-2.49-61.11-6.41-91.36-11.78-10.25-1.82-20.97-3.73-31.35-3.7Z"/>
    <path class="cls-4" d="m976.95,488.7c-5.1,6.02-12.79,9.09-20.24,11.67-50.12,17.33-103.67,22.21-156.69,23.7-37.81,1.06-75.99.43-112.92-7.73-17.98-3.97-35.53-9.7-52.7-16.33-5.58-2.15-11.3-4.52-15.45-8.82-4.15-4.3-6.34-11.07-3.65-16.41,3.69-7.32,13.61-8.18,21.8-8.05,35.3.55,70.59,1.09,105.89,1.64,33.12.51,66.25,1.02,99.35,2.51,26,1.17,52.02,2.94,78.02,1.75,16.25-.75,32.38-2.71,48.51-4.7,5.13-.63,9.71-1.89,11.95,3.77,2.19,5.53-.2,12.68-3.86,17Z"/>
    <path class="cls-7" d="m923.83,439.73c-93.1-12.5-189.11-12.54-279.56,12.81-9.98,2.8-20.9,6.73-25.6,15.97-.75,1.47-1.32,3.11-1.11,4.75.31,2.51,2.33,4.44,4.29,6.03,18.19,14.74,42.02,20.22,65.12,24.06,76.76,12.75,155.76,11.94,232.25-2.37,17.75-3.32,35.71-7.5,51.17-16.83,5.81-3.51,10.93-9.08,9.72-16.47-.95-5.79-7.4-10.47-11.82-13.71-12.72-9.3-29.19-12.2-44.45-14.25Z"/>
    <path class="cls-4" d="m631.09,475.11c1.51,2.29,4.15,3.45,6.79,4.33-.19-1.65.15-3.41.98-4.84,1.79-3.11,5.15-4.95,8.43-6.4,9.07-4,18.84-6.16,28.57-8.07,21.9-4.29,44.03-7.39,66.27-9.29,21.84-1.86,43.76-2.57,65.67-3.05,43.12-.97,86.91-1.01,128.48,10.49,7.05,1.95,14.13,4.28,20.17,8.41,2.54,1.74,4.94,3.85,6.31,6.61.49.99.84,2.05,1.04,3.15,2.83-2.14,4.76-4.73,5.02-7.86.95-11.79-22.81-17.83-31.05-20.16-16.2-4.57-33.08-6.02-49.8-7.22-81.55-5.87-165.02-6.9-243.31,16.65-4.1,1.24-8.34,2.63-11.4,5.62-3.06,2.99-4.53,8.06-2.17,11.63Z"/>
    <path class="cls-1" d="m880.93,473.19c-.15-.15-.3-.29-.45-.44"/>
    <path class="cls-3" d="m864.46,460.25c13.99-.75,28.07-.18,41.93,1.68,4.28.57,11.71,3.98,15.01,6.52,3.3,2.54,5.61,6.52,4.76,10.39-1.47,6.73-10.58,9.03-18.04,9.96-29.01,3.61-59.18,6.64-87.02-1.54-4.58-1.35-9.38-3.23-11.84-7-3.9-5.99.21-14.19,6.72-17.87,6.51-3.69,14.55-4.07,22.2-4.34,10.15-.37,16.14,2.76,26.28,2.22Z"/>
    <path class="cls-2" d="m743.92,438.33c6.11,7.79,12.22,15.57,18.33,23.35,6.89,8.78,13.86,17.64,22.45,24.74,2.78,2.29,5.78,4.43,9.22,5.44,4.4,1.3,9.12.64,13.47-.68,11.21-3.38,20.83-10.96,27.98-20.25,3.42-4.45,6.39-9.45,7.27-15.04,1.33-8.39-2.28-17.04-7.73-23.63-5.45-6.59-12.61-11.48-19.67-16.28-5.93-4.03-11.86-8.06-17.8-12.1-5.39-3.67-10.84-7.36-16.89-9.72-19.77-7.71-48.98,1.06-45.66,27.12.82,6.44,4.99,11.92,9.02,17.04Zm44.32-10.58c10.86-5.11,30.56,8.23,34.13,18.56,1.55,4.5.08,9.58-2.79,13.29-2.86,3.71-6.94,6.26-11.07,8.44-4.72,2.49-10.09,4.65-15.31,3.33-5.08-1.29-8.86-5.6-11.73-10.04-7.3-11.29-6.69-27.24,6.77-33.58Zm-29.73-24.27c10.71-5.62,25.4,1.96,15.05,13.62-3.96,4.47-8.49,8.4-13.2,12.07-1.84,1.43-3.74,2.86-5.98,3.55-2.23.69-4.85.54-6.68-.95-7.7-6.29,4.38-24.92,10.81-28.29Z"/>
  </g>
  <g>
    <path class="cls-5" d="m883.41,779.18c-6.17-.41-12.78-4.16-16.36-8.43-2.36-2.81-3.94-5.96-4.73-9.45-.66-3.23-.86-6.86-.58-10.86.25-3.61,1.3-9.38,3.17-17.3,1.24-5.22,1.89-8.31,1.96-9.29.03-.44.1-1.14,0-2.1-.56-4.89-6.3-4.22-7.99-6.22-1.36-1.62-2.11-3.6-1.93-6.24.11-1.61.64-3.27,1.59-4.97,1.51-2.74,3.68-3.45,6.45-3.74,1.39-.14,3.31-.23,4.01-2.91,2.01-7.81,2.89-11.14,3.2-12.1,1.28-3.69,3.3-6.28,6.05-7.76,1.37-.69,2.77-.99,4.18-.89,2.1.14,3.87,1.2,5.31,3.16,1.61,2.27,2.31,5.02,2.09,8.24-.17,2.49-.76,5.32-1.76,8.49-.18.53-.3,1.11-.34,1.74-.13,1.91,1.78,2.99,5.74,3.26l2.94.13c5.86.4,8.64,2.82,8.34,7.27l-.05.81c-.27,4.01-1.73,6.7-4.38,8.09-1.67.67-3.43.94-5.28.82l-.51-.04c-3.57-.24-6.07.47-7.51,2.14-1.2,1.73-1.97,5.07-2.3,10-.27,3.96,0,7.88.82,11.76.6,2.86.86,9.01,3.98,9.63,8.19,1.62,8,10.7,7.66,13.6-.28,2.4-.74,4.83-1.9,6.96-2.65,4.88-7.13,6.53-11.86,6.21Z"/>
    <path class="cls-5" d="m848.72,671.88c-4-.39-7.23-1.56-9.69-3.53-1.88-1.9-2.68-4.27-2.41-7.1.39-3.55,2-6.45,4.83-8.68,4.14-3.09,8.69-4.39,13.66-3.91,2.39.23,4.47,1.12,6.23,2.67,2.63,2.32,3.77,5.26,3.42,8.82-.1.98-.31,1.91-.64,2.82-1.18,3.53-3.36,6.17-6.53,7.92-2.31,1.01-5.27,1.33-8.88.98Zm-7.09,87.47c10.12.61,15.42-3.06,15.9-11.03.09-1.56-.02-3.29-.35-5.17-.64-3.23-1.35-6.43-2.14-9.62-2.26-8.77-3.26-15.4-2.98-19.9.36-5.96,2.28-11.29,5.75-15.99,1.51-2.16,2.32-4.27,2.44-6.33.18-2.98-1.17-5.79-4.05-8.41-4.56-4-9.12-6.15-13.66-6.42-4.84-.29-7.44,1.83-7.82,6.37-.22,5.19-.16,10.36.16,15.54.31,4.63.32,9.19.05,13.69-.13,2.15-.33,4.27-.61,6.36-.84,6.52-2.79,12.9-5.87,19.14-1.28,2.57-2,5.01-2.14,7.3-.15,2.49.37,4.83,1.56,7.01,2.42,4.56,7,7.05,13.75,7.46Z"/>
    <path class="cls-5" d="m777.34,776.95c-7.73.42-12.63-.91-14.71-3.98-1.18-1.8-1.82-3.63-1.92-5.49-.1-1.86,1.44-8.66,2.19-13.58,3.33-21.83,6.19-39.02-6.89-66.34-.98-2.05-2.17-5.58-2.27-7.44-.11-2,.47-4.05,1.73-6.13,1.48-2.58,3.57-4.51,6.27-5.78,2.7-1.27,5.08-1.97,7.13-2.08,4.79-.26,7.51,1.53,8.16,5.37l.69,4.6c.19.87.34,1.82.45,2.84,3.89-9.53,10.31-14.54,19.26-15.02,9.48-.52,17.44,3.29,23.87,11.42,4.01,5.13,6.55,10.06,7.65,14.81,1.09,4.75,1.74,9,1.95,12.77.13,2.4.14,4.82.03,7.28-.27,9.48-3.11,18.17-8.51,26.06-4.52,6.23-10.27,9.53-17.26,9.91-6.99.38-12.95-2.41-17.89-8.37-.69-.89-1.46-1.98-2.31-3.26-1.05,1.38-1.54,2.76-1.47,4.13.07,1.27.41,2.63,1.03,4.06,1.31,4.24,3.31,8.52,6,12.84,1.68,2.95,2.59,5.67,2.72,8.16.11,2.1-.29,4.04-1.23,5.8-2.21,4.53-7.1,7.01-14.67,7.42Zm18.93-58.99c11.46-.8,12.22-14.52,12.24-18.17.04-5.83-2.39-12.5-6.47-16.35-2.04-1.92-8.9-4.33-13.09.12-3.51,3.74-6.38,9.38-6.28,18.44.08,7.38,4.62,16.58,13.59,15.96Z"/>
    <path class="cls-5" d="m728.91,764.89c-3.18.07-6.49-.17-9.91-.7-3.43-.54-6.77-1.77-10.02-3.71-6.32-4.13-9.62-9.84-9.89-17.13-.09-2.35.27-4.69,1.07-7.02,1.19-3.72,3.36-6.69,6.51-8.91,1.63-.99,2.93-1.5,3.91-1.54l1.61-.06c4.06-.15,7.04,2.27,8.94,7.24.61,1.94,1.63,3.66,3.06,5.18,1.26,1.08,2.29,1.66,3.08,1.73.79.07,1.28.1,1.47.09,1.12-.04,2.21-.55,3.25-1.52,1.51-1.52,2.24-3.19,2.17-5-.03-.83-.23-1.71-.61-2.62-1.8-3.56-5.33-6.32-10.59-8.29-4.77-1.78-8.35-3.98-10.75-6.59-2.86-3.18-4.52-6.03-4.98-8.56-.46-2.53-.71-4.26-.74-5.19-.11-3.13.51-6.19,1.87-9.18,3.78-7.88,11.1-12.02,21.96-12.41,5.87-.21,10.95.75,15.25,2.9,5.2,2.75,8.66,6.96,10.38,12.63.17.73.27,1.44.3,2.12.11,3.08-1,5.55-3.33,7.4-1.86,1.39-3.94,2.13-6.24,2.21-5.09.19-7.93-1.89-8.53-6.23-.5-2.87-1.39-4.43-2.67-4.68-.99-.16-1.7-.23-2.14-.22-1.17.04-2.36.36-3.57.94-1.68.85-2.94,1.92-3.78,3.22-.65,1.1-.95,2.12-.92,3.05.11,3.13,4.97,6.51,14.55,10.13,3.77,1.43,7.34,3.14,10.7,5.12,3.35,1.98,6.03,4.75,8.02,8.31,1.64,3.27,2.53,6.77,2.66,10.49.16,4.31-.73,8.28-2.65,11.93-2.94,5.25-7.77,9.18-14.49,11.77-4.78,1.89-9.77,2.93-14.95,3.12Z"/>
    <path class="cls-5" d="m685.79,704.53c-4.56-.32-8.3-1.45-11.21-3.4-2.24-1.91-3.29-4.31-3.14-7.2.24-3.64,1.91-6.63,4.99-8.97,4.52-3.24,9.62-4.67,15.29-4.28,2.72.19,5.14,1.06,7.23,2.6,3.12,2.32,4.58,5.3,4.39,8.94-.05,1-.24,1.96-.57,2.89-1.14,3.63-3.46,6.37-6.96,8.23-2.57,1.07-5.91,1.47-10.02,1.19Zm-1.74,78.82c-10.11-.7-14.97-4.62-14.6-11.76.07-1.4.37-2.92.9-4.55.98-2.79,2.03-5.55,3.15-8.29,3.18-7.52,4.88-13.29,5.09-17.32.28-5.34-1.06-10.31-4-14.91-1.26-2.11-1.85-4.08-1.75-5.92.14-2.67,1.78-5,4.92-6.98,4.96-3,9.71-4.34,14.25-4.03,4.83.33,7.19,2.54,7.08,6.62-.34,4.64-.95,9.23-1.82,13.79-.8,4.08-1.3,8.13-1.51,12.16-.1,1.93-.13,3.84-.08,5.73.13,5.9,1.39,11.81,3.78,17.73,1,2.44,1.45,4.69,1.34,6.75-.12,2.23-.88,4.25-2.3,6.04-2.89,3.76-7.7,5.4-14.44,4.94Z"/>
    <path class="cls-5" d="m675.82,651.9c-21-1.79-24.49,14.69-27.56,21.33-.96,2.09-1.82,4.23-2.61,6.42-2.72,7.72-5.24,11.69-7.57,11.89-1.53-.12-7.21-1.78-7.01-9.51l.14-1.58c.29-3.33.94-6.59,1.95-9.78.83-2.19,1.32-4.16,1.48-5.93.16-1.81-.04-3.4-.6-4.76-1.13-2.59-4.01-4.54-8.65-5.84-3.41-.9-6.86-1.49-10.37-1.77-8.36-.66-13.42.41-15.16,3.2-1.21,1.9-1.89,3.67-2.03,5.32-.15,1.69.05,3.55.59,5.59.73,2.48,1.84,4.67,3.32,6.6,1.48,1.92,3.1,3.75,4.85,5.51,5.49,5.52,10.53,11.97,15.14,19.33,1.43,2.32,2.05,4.47,1.87,6.45-.23,2.61-1.82,4.97-4.77,7.08-4.83,3.4-9.82,6.55-14.97,9.46-3.77,2.17-6.57,3.97-8.39,5.42-1.83,1.45-3.31,3.27-4.46,5.48-.78,1.59-1.23,3.11-1.35,4.54-.13,1.43.07,2.79.59,4.06,1,2.54,3.16,4.24,6.48,5.09,2.04.46,4.03.76,5.96.91,4,.31,7.77-.09,11.31-1.21,5.22-1.71,9.38-5.67,12.46-11.88l1.43-3.07c2.49-5.62,4.7-9.61,6.63-11.96,1.15-1.27,2.25-1.86,3.28-1.78,1.12.09,2.16.97,3.09,2.66,1.48,2.75,2.24,5.02,2.28,6.83.04,1.81.03,3.11-.04,3.91-.18,2.02-.49,4.11-1.36,6.13-3.5,8.15-.93,17.74,3.61,20.73,14.15,9.3,24.45-2.22,26.62-6.2.76-1.43,5.06-11.79-1.3-17.99-2.58-2.51-4.94-5.16-7.59-7.54-1.38-1.25-3.72-3.54-7-6.85-2.96-2.95-4.57-5.52-4.85-7.7-.28-2.19-.37-3.87-.27-5.05.16-1.86.64-3.66,1.43-5.43,1.38-2.86,3.17-5.4,5.36-7.6,4.28-4.33,13.3-11.33,22.66-13.77,6.05-1.57,11.9-5.5,12.68-13.59.37-3.79-2.66-11.89-17.31-13.14Z"/>
    <path class="cls-5" d="m958.91,768.88l-.96-.09c-7.5-.69-11.74-5.02-12.73-12.99l-.68-4.89c-1.38,1.64-2.82,3.23-4.3,4.76-6.22,6.99-13.4,10.12-21.53,9.38-2.07-.19-4.23-.63-6.48-1.32-9.57-3.24-14.86-10.21-15.87-20.92-.13-1.51-.13-2.99,0-4.43.5-5.48,3.18-10.7,8.03-15.68,2.95-2.95,6.23-5.17,9.82-6.66,3.6-1.49,7.36-2.63,11.29-3.39,5.74-1.14,11.33-2.75,16.77-4.82,2.8-1.3,4.35-3.54,4.64-6.74.28-3.03-.75-5.54-3.09-7.52-1.34-1.14-2.73-1.78-4.17-1.91-3.42-.1-6.53,1.28-9.31,4.14-1.02,1.19-1.87,2.54-2.54,4.03-2.47,5.35-6.56,7.77-12.25,7.25-2.77-.25-5.12-1.49-7.06-3.7-1.97-2.54-2.81-5.38-2.52-8.52l.06-.64c1.22-6.27,4.61-10.79,10.17-13.55,4.38-2.17,8.56-3.4,12.53-3.68,3.97-.28,7.6-.27,10.9.03,5.05.46,9.5,1.43,13.33,2.91,13.26,5.18,19.26,14.63,18,28.36-.19,2.07-.57,4.21-1.15,6.41-1.3,5.46-2.22,11.03-2.74,16.73l-.2,2.15c-.36,3.88,1.59,6.61,5.85,8.18,4.79,1.56,7,4.37,6.63,8.41-.13,1.38-.56,2.93-1.31,4.63-1.99,4.7-4.67,8.29-8.07,10.77-3.39,2.48-7.09,3.59-11.09,3.33Zm-26.73-26.18c5,.46,9.03-2.28,12.1-8.23,1.52-2.54,2.41-5.28,2.68-8.2.36-3.88-.21-5.89-1.7-6.03l-.64-.06c-.53-.05-1.05.01-1.55.18-3.09.95-6.15,2.09-9.16,3.43-3.06,1.17-5.19,2.18-6.39,3.04-1.89,1.33-2.95,3.27-3.19,5.82-.08,1.44.06,2.85.42,4.22,1.12,3.54,3.6,5.48,7.43,5.83Z"/>
  </g>
</svg>