<?xml version="1.0" encoding="UTF-8"?>
<svg id="Capa_1" data-name="Capa 1" xmlns="http://www.w3.org/2000/svg" viewBox="0 0 1600 1600">
  <defs>
    <style>
      .cls-1 {
        fill: #9b9b00;
      }

      .cls-1, .cls-2, .cls-3, .cls-4, .cls-5 {
        stroke-width: 0px;
      }

      .cls-2 {
        fill: #cb0073;
      }

      .cls-3 {
        fill: #adb100;
      }

      .cls-4 {
        fill: #7f3726;
      }

      .cls-5 {
        fill: #ede8d6;
      }
    </style>
  </defs>
  <path class="cls-1" d="m847.43,758.76c-24-31.89-52.58-60.06-84.25-84.3-15.09-11.55-30.81-22.26-47.11-32.03-16.67-9.99-33.89-19.4-52.11-26.28-17.21-6.5-37.91-11.77-55.36-3.26-1.86.91-2.27,2.57-1.81,4.07-.59,1.3-.48,2.86.91,4.13,42.7,39.16,88.32,79.06,140.83,104.84,4.87,3.14,9.78,6.2,14.77,9.13,4.77,2.8,15.16,9.42,22.81,9.04,9.86,5.26,19.96,10.08,30.29,14.4,7.26,4.96,15.26,8.83,23.96,10.41,2.6.47,5.79-2.05,4.97-4.71,2.26-.71,3.9-3.06,2.1-5.45Z"/>
  <g>
    <path class="cls-3" d="m572.36,758.34c1.31,4.89,8.9,2.83,7.59-2.07-.6-2.26-1.26-4.51-1.92-6.75.84,2.14,1.69,4.27,2.48,6.43,1.73,4.72,9.33,2.69,7.59-2.07-.04-.11-.08-.21-.12-.32,1.39,1.64,2.82,3.26,4.31,4.84,3.27,3.47,7.89-1.01,6.14-4.82-5.87-12.78-12.29-25.3-19.23-37.52,8.22,10.45,16.26,21.06,24.08,31.82,2.98,4.11,8.93.59,6.77-4.01-21.54-45.84-54.2-86.2-94.56-116.79-3.22-2.44-8.87.76-6.14,4.82,26.35,39.19,50.73,80.47,63.02,126.44Z"/>
    <path class="cls-3" d="m562.45,536.02c-1.81-1.55-4-1.1-5.4.14-1.92.5-3.68,2.27-3.3,4.78,5.72,38.29,11.08,76.66,17.22,114.88,5.57,34.7,14.13,69.72,34.93,98.72,8.08,11.27,17.79,21.46,29.22,29.3.18.56.34,1.13.53,1.69.97,2.95,3.7,3.35,5.62,2.18.83.48,1.64,1,2.49,1.45,4.46,2.39,8.38-4.43,3.9-6.83-1.69-.9-3.34-1.86-4.95-2.87-4.66-34.83-8.74-69.85-15.33-104.38-6.39-33.47-15.41-67.33-31.93-97.37-8.58-15.6-19.4-30.1-32.99-41.7Z"/>
    <path class="cls-3" d="m687.48,597.76c-13.05-25-29.31-48.25-48.15-69.24-.01-.01-.03-.02-.04-.04-1.21-2.14-2.41-4.27-3.62-6.41-2.13-3.79-8.67-1.21-7.18,3.04,8.36,23.85,17.83,47.3,28.39,70.26,5.12,11.14,10.41,22.25,16.19,33.07,5.34,9.98,11.5,19.58,19.72,27.44.76.73,1.6,1.04,2.42,1.08.52,1.13,1.05,2.26,1.57,3.39.44.95,1.15,1.5,1.95,1.75.22.34.44.68.66,1.02.94,1.42,2.71,2.3,4.42,1.79,12.39-3.7,3.22-22.15.48-29.46-4.84-12.89-10.45-25.49-16.82-37.69Z"/>
    <path class="cls-3" d="m570.12,945.07c7.9,11.18,17.37,20.95,28.61,28.79,4.16,2.9,8.03-3.95,3.9-6.83-1.35-.94-2.66-1.91-3.95-2.9,1.92-.39,3.53-2.23,3.14-4.77-7.54-49.57-26.47-97.35-54.9-138.66-8.01-11.64-16.78-22.75-26.18-33.3-3.21-3.6-7.81,1.06-6.14,4.82,22.09,49.65,23.46,107.48,55.52,152.85Z"/>
    <path class="cls-3" d="m649.6,1055.63c-16.02-4.46-31.9-9.57-46.7-17.25-4.16-2.16-7.45,2.85-4.71,6.22,32.16,39.58,75.73,68.88,124.62,83.49,13.94,4.17,28.19,7.04,42.61,8.9,3.48.45,5.12-4.59,2.77-6.74-3.65-3.35-7.5-6.44-11.45-9.36,1.52.63,3.04,1.27,4.56,1.9,1.03.43,2.03.41,2.91.13,3.1,4.69,5.8,9.66,8.03,14.92,1.96,4.64,8.72.59,6.77-4.01-9.93-23.47-29-40.91-51.37-52.46-24.52-12.66-51.66-18.4-78.04-25.74Z"/>
    <path class="cls-3" d="m903.28,751.09c-1.25-2.21-2.61-4.33-4.01-6.41-20.83-40.34-62.23-65.04-102.56-83.31-13.35-6.05-26.86-11.72-40.19-17.79-4.16-1.89-7.58,2.73-4.71,6.22,2.84,3.45,5.66,6.91,8.48,10.38.12.65.39,1.3.89,1.91,3.89,4.69,7.9,9.27,12,13.75,2.75,3.33,5.48,6.68,8.27,9.97,8.75,10.34,18.34,20.27,30.49,26.59,1.54.8,3.21.39,4.4-.57,2.6,1.37,5.25,2.65,7.98,3.77,2.32,2.16,4.64,4.33,6.96,6.49,2.74,2.56,6.13.42,6.5-2.41,3.4,2.76,6.8,5.52,10.2,8.28,3.89,3.15,9.01-1.84,5.51-5.62-.64-.69-1.3-1.36-1.94-2.04.26-.29.49-.6.67-.94,12.88,9.78,25.51,19.89,37.81,30.4,1.12.95,2.37,1.14,3.51.86,1.04,2.13,2.03,4.29,2.91,6.5,1.84,4.6,9.32,2.76,7.59-2.07-.12-.32-.25-.63-.37-.95.28-.9.22-1.94-.39-3.02Z"/>
    <path class="cls-3" d="m970.41,790.12c-6-14.14-12.46-28.08-18.48-42.21-1.64-3.86-7.14-1.47-7.32,2-.24,4.46-.49,8.92-.73,13.38-.36.55-.6,1.21-.64,2.01-.29,6.08-.43,12.17-.42,18.25-.19,3.67-.39,7.35-.55,11.02-.62,14.17-.47,28.69,4.43,42.17.71,1.96,2.21,2.77,3.69,2.75.99,2.76,2.09,5.49,3.34,8.15.24,3.08.49,6.16.73,9.25.29,3.67,4.28,4.71,6.47,2.99.68,4.55,1.36,9.11,2.04,13.66.66,4.45,7.76,3.31,7.73-1.02,0-1.02-.04-2.04-.06-3.06.39-.02.78-.08,1.15-.19,2.89,15.83,5.38,31.73,7.35,47.7.18,1.45.99,2.47,2.01,3.08-.76,2.58-1.59,5.14-2.54,7.68-1.56,4.14,5.48,7.1,7.22,2.97.13-.3.23-.6.35-.91.01,0,.02-.02.04-.02h0c.82-.43,1.48-1.22,1.76-2.45.53-2.29.93-4.58,1.29-6.87,12.29-43.52-1.68-89.93-18.84-130.32Z"/>
  </g>
  <path class="cls-2" d="m991.5,844.01c-4.25,6.83-7.74,14.08-10.58,21.56-4.44-7.63-8.88-15.25-13.32-22.88-.16-.38-.36-.75-.52-1.14-.25-.6-.59-1.08-1-1.47-.56-.96-1.11-1.91-1.67-2.87-1.76-3.77-3.53-7.54-5.29-11.31-.58-1.24-1.48-1.84-2.44-1.99-6.51-11.2-13.03-22.4-19.5-33.62-7.88-13.67-15.19-27.55-19.9-42.66-4.77-15.32-7.14-31.19-7.2-47.23-.01-3.47-4.3-5.16-6.74-2.77-10.63,10.45-14.06,24.44-14.48,38.8-.37,2.01-.66,4.04-.82,6.08-8.28-10.13-18.09-18.94-29.19-26.07-1.45-.93-2.94-.69-4.05.14-8.15-4.74-16.71-8.87-25.46-12.49-13.16-5.44-26.68-9.91-40.3-14.04-15.53-4.72-31.37-8.92-46.02-16.05-10.04-4.89-19.45-11.21-26.98-19.31-.75-1.42-1.54-2.83-2.4-4.2-2.27-3.62-4.88-7.3-7.89-10.38,0,0,0-.02-.01-.02-.54-1.06-1.31-1.64-2.15-1.87-1.68-1.09-3.62-1.57-5.73-1.14-1.39.28-2.68.96-3.87,1.77-5.93.31-11.46,4.58-11.77,10.98-.03.58.12,1.15.38,1.67,1.32,21.88,16.34,40.23,34.96,50.72,5.49,3.09,11.24,5.53,17.16,7.49,2.39,2.1,4.85,4.12,7.39,6.07.07.07.15.15.23.23,0,0,.01-.02.02-.03.27.2.51.43.78.63,2.57,1.94,5.38-.45,5.73-3.09,2.23.48,4.46.92,6.71,1.32,18.09,5.89,36.57,10.54,55.33,13.93,5.75,2.95,11.68,5.59,17.77,7.87,4.82,2.23,9.77,4.2,14.92,5.81.26.08.51.13.75.16,9.03,5.99,18.14,11.86,27.4,17.51.25.15.5.27.75.36,7.92,8.33,14.55,18.24,21.35,27.09,5.52,7.2,11.05,14.41,16.57,21.61.52.68,1.04,1.36,1.56,2.03.11.27.2.55.31.81.44,1.06,1.19,1.8,2.03,2.25,1.54,2.01,3.08,4.01,4.62,6.02.29.37.62.77.96,1.19,1.89,3.35,3.7,6.75,5.39,10.2.26,1.51.88,2.75,1.76,3.71,9.93,21.3,16.45,44.25,21.85,67.15,7.93,33.62,14.54,67.97,14.13,102.66-.14,11.97-1.2,23.87-3.34,35.59-.37,1.39-.74,2.78-1.1,4.17-2.01-1.08-4.92-.47-5.71,2.31-1.77,6.19-3.55,12.37-5.32,18.56-.14.11-.29.22-.42.34-.42.38-.84.77-1.26,1.15-.63.57-1.08,1.27-1.44,2.01-1.92-.42-4.22.41-4.89,2.67-.47,1.58-1.05,3.11-1.6,4.66-1.71-.65-3.87-.31-4.97,1.54-1.23,2.06-2.55,4.05-3.88,6.03-1.48-.97-3.43-1.1-4.73.57-.21.27-.4.54-.6.81,0,0,0,0,0,0-.03.05-.06.09-.09.14-1.62,2.12-3.18,4.28-4.71,6.46-.06.08-.13.15-.2.23-.23.09-.46.2-.68.35-5.37,3.46-10.74,6.93-16.12,10.39-3.14,1.43-6.33,2.75-9.55,4-2.55.31-5.1.57-7.66.79-1.93-1.87-4.78-2.57-7.64-2.09-6.96,1.16-13.97,1.94-20.99,2.4-2.81.03-5.63.05-8.44.08-.85,0-1.59.15-2.3.34-10.71.17-21.42-.46-32.03-1.84-.79-.61-1.76-1.07-2.92-1.29-26.18-5.05-51.89-13.17-76.13-24.39-3.49-1.91-6.95-3.88-10.34-5.98-1.15-.72-2.46-1-3.76-1-16.04-8.45-31.29-18.35-45.45-29.71-.35-1.1-.96-2.2-1.96-3.21-17.1-17.48-32.53-36.43-46.29-56.54-1.18-3.4-2.33-6.8-3.52-10.2-1.64-17.01-7.59-33.54-12.33-49.84-2.91-10-5.82-20-8.73-30-.34-4.21-.85-8.39-1.19-12.39-.83-9.93-1.66-19.85-2.49-29.77.63-12.44,1.53-24.86,2.68-37.26.4-.64.75-1.35.98-2.19.7-2.57,1.34-5.15,2.01-7.73,3.91-9.07,8.19-18.02,12.07-27,1.01-2.34,1.99-4.71,2.96-7.08,4.22-4.59,7.17-10.32,8.82-16.38,1.83-6.72,2.07-13.65,1.72-20.56,1.28-9.2,1.27-19.11-3.64-26.62-5.22-7.98-17.49-10.65-24.22-4.52-1.62.73-3.12,1.75-4.4,3.14-6.43,6.98-.55,15.8.48,23.6.47,3.54.28,7.2-.62,10.59-13.84-14.45-28.91-27.99-48.15-34.56-1.38-.47-2.52-.16-3.35.53-2.95-.17-6.07,2.95-3.84,5.79,13.4,17.1,23.3,36.09,26.91,57.27-.82,23.09-3.14,46.31-4.24,69.46-1.21,6.4-2.34,12.8-2.9,19.26-.56,6.45-.04,13.06,1.94,19.08.29,5.99.93,11.92,1.84,17.78,1,12.31,3.68,24.46,7.96,36.12,2.42,7.61,5.4,15.03,8.98,22.15-11.29-7.38-24.31-12.09-37.99-13.45-3.99-.4-5.11,5.32-2.09,7.24.28.75.85,1.43,1.81,1.91,17.42,8.5,30.29,23.96,42.39,38.65,12.96,15.73,24.95,32.24,37.59,48.23,22.19,28.05,47.26,54.85,79.9,70.69,10.25,4.98,21.06,8.69,32.19,10.81,4.35,1.69,8.76,3.22,13.22,4.62-10.04,4.09-18.86,11.2-24.71,20.6-.91,1.46-.71,2.86.03,3.92.13.28.28.55.46.8.9,1.93,3.08,3.19,5.33,1.65,11.6-7.93,25.46-9.54,39.21-9.35,13.97.2,27.94,1.72,41.89,2.55,28.48,1.7,57.17,2.36,85.53-1.34,11.29-1.47,22.45-3.64,33.4-6.66,4.77-.24,9.54-.51,14.31-.83.77-.05,1.41-.29,1.95-.64.16,0,.31.01.47.02,2.4.23,4.78.54,7.13,1.03,2.45.51,4.18-1.09,4.72-2.96.58-.58,1.06-1.25,1.46-1.97,1.12-.57,1.96-1.67,1.97-3.32.03-12.18,1.76-24.22,5.29-35.89,3.65-12.07,9.55-22.83,15.65-33.79,5.25-9.43,9.5-19.16,12.01-29.62,1.21-3.2,2.41-6.4,3.47-9.65,5.33-16.32,8.57-33.35,8.82-50.53.28-18.66-2.59-37.18-5.29-55.58-3.07-20.91-5.88-41.99-3.78-63.14,1.85-4.09-4.53-7.5-7.09-3.38Z"/>
  <path class="cls-5" d="m936.42,841.11c-9.51-18.27-18.93-38.23-36.44-50.08-.84-1.06-1.69-2.11-2.55-3.15-19.08-24.2-41.93-45.23-70.8-57.26-14.52-6.05-29.8-9.86-45.39-11.49-14.18-3.66-28.5-6.84-42.33-11.69-12.62-4.43-24.8-10.48-34.84-19.44-.97-.86-2.01-1.31-3.05-1.47-.39-.38-.8-.76-1.18-1.15-1.53-2.21-3.07-4.41-4.69-6.56-1.22-1.62-2.63-3.07-4.22-4.23-1.19-1.44-2.72-2.09-4.27-2.14-1.22-.35-2.5-.52-3.86-.44-2.66.14-5.25,1.38-7.16,3.23-.61.59-1.4,1.5-1.96,2.3-.45.23-.89.48-1.32.76-.67.33-1.28.75-1.83,1.26-2.99,2.27-5.71,5.24-8.69,7.7-4.6,3.8-10.21,6.25-16.07,7.23-.92.06-1.85.15-2.78.26-3.59-.48-7.18-.92-10.79-1.27-1.92-.19-4.34,1.03-5.64,2.36-.45.46-.84,1.04-1.19,1.66-1.93,1.19-3.13,3.36-2.19,6.2,11.28,34.09-10.79,67.26-22.82,97.83-12.57,31.94-13.5,66.65-6.2,99.97,7.9,36.07,25.18,69.49,44.79,100.49,17.63,27.86,37.97,53.39,66.77,70.22,21.35,17.28,47.28,28.71,73.69,35.97,37.5,10.3,78.94,13.05,115.31-2.83,10.29-4.49,19.75-10.49,28.25-17.64,12.79-7.65,23.55-18.54,30.58-31.86,3.9-7.4,6.58-15.34,8.07-23.49,10.89-21.25,15.36-45.79,14.52-69.69-1.53-43.33-19.98-83.73-39.68-121.55Z"/>
  <g>
    <path class="cls-4" d="m746.68,899.02c-2.32-1.74-10.23-6.69-10.73-6.78-2.55-.42-3.6,1.13-3.98,3.61-1.63,10.67.05,20.66,8.42,25.81,4.44,2.73,10.87,2.39,13.94-1.93,3.03-4.26,2.26-10.26-.92-14.49-1.88-2.49-4.26-4.38-6.72-6.23Z"/>
    <path class="cls-4" d="m901.91,923.8c-1.83-2.26-8.29-8.99-8.75-9.19-2.37-1.03-3.77.22-4.74,2.53-4.19,9.95-4.99,20.05,1.87,27.08,3.64,3.73,9.96,4.97,13.99,1.52,3.97-3.39,4.69-9.4,2.64-14.28-1.21-2.87-3.07-5.29-5-7.68Z"/>
    <path class="cls-4" d="m691.79,978.42c-2.47-1.14-10.67-4.1-11.14-4.08-2.42.12-3.07,1.75-2.93,4.09.61,10.08,4.13,18.87,12.79,21.93,4.6,1.62,10.4.04,12.36-4.52,1.93-4.49.04-9.83-3.7-13.06-2.21-1.91-4.76-3.16-7.37-4.36Z"/>
    <path class="cls-4" d="m931.07,998.76c-1.24-2.42-5.87-9.81-6.25-10.08-1.97-1.4-3.49-.52-4.82,1.41-5.73,8.31-8.39,17.4-3.46,25.15,2.62,4.11,8.16,6.45,12.51,4.07,4.28-2.34,6.09-7.71,5.14-12.56-.56-2.86-1.8-5.43-3.11-7.98Z"/>
    <path class="cls-4" d="m770.01,1026.31c-2.89-.23-12.17-.19-12.62,0-2.35.98-2.36,2.8-1.31,5.04,4.53,9.62,11.44,16.95,21.21,16.84,5.18-.06,10.32-3.68,10.48-8.83.16-5.07-3.79-9.61-8.76-11.43-2.93-1.07-5.95-1.39-9-1.63Z"/>
    <path class="cls-4" d="m856.5,1030.68c-2.84-.61-12.09-1.8-12.58-1.67-2.49.68-2.8,2.54-2.11,4.95,2.98,10.38,8.69,18.74,18.44,19.92,5.18.63,10.87-2.38,11.85-7.59.97-5.13-2.24-10.27-6.9-12.77-2.75-1.48-5.7-2.2-8.71-2.84Z"/>
    <path class="cls-4" d="m862.88,977.52c-2.32-1.74-10.23-6.69-10.73-6.78-2.55-.42-3.6,1.13-3.98,3.61-1.63,10.67.05,20.66,8.42,25.81,4.44,2.73,10.87,2.39,13.94-1.93,3.03-4.26,2.26-10.26-.92-14.49-1.88-2.49-4.26-4.38-6.72-6.23Z"/>
    <path class="cls-4" d="m765.89,771.4c-2.74-.68-11.71-2.13-12.19-2.01-2.45.59-2.8,2.38-2.2,4.75,2.58,10.19,7.88,18.51,17.33,19.96,5.02.77,10.65-1.98,11.77-7.02,1.1-4.96-1.86-10.06-6.32-12.64-2.63-1.52-5.48-2.31-8.39-3.04Z"/>
    <path class="cls-4" d="m784.95,976.89c-2.51-1.31-10.89-4.8-11.38-4.8-2.52,0-3.28,1.66-3.25,4.11.13,10.51,3.34,19.83,12.19,23.45,4.7,1.92,10.82.56,13.08-4.08,2.23-4.57.54-10.22-3.19-13.77-2.2-2.09-4.79-3.53-7.45-4.91Z"/>
    <path class="cls-4" d="m700.39,742.9c-2.05-1.93-9.13-7.53-9.59-7.67-2.37-.68-3.48.69-4.02,3.03-2.34,10.05-1.51,19.81,5.98,25.66,3.97,3.1,10.05,3.47,13.27-.33,3.17-3.75,2.9-9.59.22-13.99-1.58-2.59-3.69-4.66-5.86-6.7Z"/>
    <path class="cls-4" d="m894.08,847.11c-2.08-1.91-9.26-7.48-9.73-7.6-2.43-.66-3.6.75-4.21,3.12-2.62,10.18-1.95,20.02,5.65,25.82,4.04,3.08,10.29,3.37,13.69-.52,3.34-3.83,3.18-9.72.51-14.12-1.58-2.59-3.71-4.66-5.91-6.68Z"/>
    <path class="cls-4" d="m816.59,871.03c-1.26-2.62-4.56-11.34-4.55-11.85.08-2.59,1.82-3.31,4.32-3.2,10.78.49,20.25,4.1,23.66,13.31,1.81,4.89.21,11.12-4.62,13.29-4.77,2.14-10.51.21-14.03-3.74-2.07-2.33-3.46-5.04-4.79-7.81Z"/>
    <path class="cls-4" d="m835.57,795.35c2.5,1.48,10.08,6.91,10.35,7.34,1.36,2.2.32,3.76-1.83,5.06-9.25,5.57-19.13,7.81-27.07,2.04-4.22-3.07-6.34-9.14-3.52-13.63,2.79-4.42,8.63-5.99,13.75-4.66,3.02.79,5.67,2.28,8.32,3.85Z"/>
    <path class="cls-4" d="m667.98,914.76c-1.26-2.62-4.56-11.34-4.55-11.85.08-2.59,1.82-3.31,4.32-3.2,10.78.49,20.25,4.1,23.66,13.31,1.81,4.89.21,11.12-4.62,13.29-4.77,2.14-10.51.21-14.03-3.74-2.07-2.33-3.46-5.04-4.79-7.81Z"/>
    <path class="cls-4" d="m812.98,919.76c1.45,2.51,5.42,10.96,5.44,11.46.11,2.58-1.56,3.44-4.07,3.52-10.79.34-20.51-2.53-24.62-11.45-2.18-4.73-1.07-11.07,3.59-13.61,4.59-2.5,10.46-1.01,14.27,2.65,2.25,2.16,3.84,4.76,5.38,7.42Z"/>
    <path class="cls-4" d="m712.28,855.23c1.45,2.51,5.42,10.96,5.44,11.46.11,2.58-1.56,3.44-4.07,3.52-10.79.34-20.51-2.53-24.62-11.45-2.18-4.73-1.07-11.07,3.59-13.61,4.59-2.5,10.46-1.01,14.27,2.65,2.25,2.16,3.84,4.76,5.38,7.42Z"/>
    <path class="cls-4" d="m664.27,802.66c.99-2.73,4.91-11.2,5.28-11.54,1.91-1.75,3.64-1.02,5.31.85,7.2,8.05,11.24,17.33,7.05,26.22-2.22,4.71-7.8,7.94-12.73,5.99-4.86-1.91-7.5-7.36-7.14-12.64.21-3.11,1.18-6,2.23-8.89Z"/>
    <path class="cls-4" d="m761.16,839.77c-3.54-3.81-17.92-9.06-19.2-8.88-2.18.31-3.46,1.56-3.01,3.98.99,5.23,2.43,10.38,4.52,15.27,2.08,4.88,5.14,9.31,10.54,10.68,5.5,1.39,10.53-2,11.96-7.31,1.35-5.04-1.48-10.16-4.82-13.75Z"/>
  </g>
</svg>