<?xml version="1.0" encoding="UTF-8"?>
<svg id="Capa_1" data-name="Capa 1" xmlns="http://www.w3.org/2000/svg" viewBox="0 0 1600 1600">
  <defs>
    <style>
      .cls-1 {
        fill: #f7db0d;
      }

      .cls-1, .cls-2, .cls-3 {
        stroke-width: 0px;
      }

      .cls-2 {
        fill: #fff5a9;
      }

      .cls-3 {
        fill: #ffe706;
      }
    </style>
  </defs>
  <path class="cls-3" d="m1150.08,773.89c-4.4-9.06-12.79-13.92-20.9-18.63-2.13-1.24-4.26-2.47-6.28-3.78-14.38-9.29-24.35-23.4-34.92-38.35-3.9-5.51-7.92-11.21-12.17-16.59-45.34-57.59-129.25-88.75-213.79-79.39-53.64,5.93-107.59,28.1-156.02,64.08-49.16,36.52-81.98,87.78-90.05,140.64-.55,3.62-1.02,7.32-1.48,11.03-2.05,16.31-4.17,33.17-14.55,44.48-2.63,2.87-5.76,5.35-9.07,7.97-4.23,3.35-8.61,6.82-12.18,11.35-4.61,5.84-6.83,13.71-5.82,20.55.76,5.12,3.25,9.28,7.19,12.02,5.03,3.5,10.86,3.66,16.01,3.79,1.67.04,3.34.08,4.96.26,14.46,1.55,25.01,14.53,35.2,27.1,2.42,2.98,4.83,5.94,7.27,8.75,24.57,28.22,62.73,47.02,107.46,52.95,37.65,4.99,75.08,1.25,119.7-5.89,11.35-1.82,22.9-3.79,34.53-6.09,27.67-5.47,55.76-12.77,82.48-24.2,41.56-17.77,74.4-43.76,94.99-75.16,7.45-11.36,13.48-23.68,19.32-35.59,7.95-16.24,15.46-31.58,26.33-44.97,1.11-1.37,2.27-2.76,3.44-4.18,12.26-14.81,27.52-33.25,18.34-52.16Z"/>
  <path class="cls-1" d="m596.06,933.07c1.67.04,3.34.08,4.96.26,14.46,1.55,25.01,14.53,35.2,27.1,2.42,2.98,4.83,5.94,7.27,8.75,24.57,28.22,62.73,47.02,107.46,52.95,37.65,4.99,75.08,1.25,119.7-5.89,11.35-1.82,22.9-3.79,34.53-6.09,27.67-5.47,55.76-12.77,82.48-24.2,41.56-17.77,74.4-43.76,94.99-75.16,5.8-8.85,10.73-18.27,15.39-27.63-308.29,95.96-430.72,14.08-478.59-78.21-1.42,5.61-2.63,11.25-3.5,16.92-.55,3.62-1.02,7.32-1.48,11.03-2.05,16.31-4.17,33.17-14.55,44.48-2.63,2.87-5.76,5.35-9.07,7.97-4.23,3.35-8.61,6.82-12.18,11.35-4.61,5.84-6.83,13.71-5.82,20.55.76,5.12,3.25,9.28,7.19,12.02,5.03,3.5,10.86,3.66,16.01,3.79Z"/>
  <g>
    <g>
      <path class="cls-2" d="m949.29,759.72c-.94,3.63-1.88,7.26-2.83,10.89,6.29.23,11.96-6.09,11.05-12.32"/>
      <path class="cls-2" d="m950.65,780.67c-1.5.3-3.03.42-4.58.36-3.15-.12-6.09-1.66-7.98-4.19-1.89-2.53-2.53-5.79-1.73-8.85l2.82-10.89c1.41-5.46,6.91-8.77,12.36-7.57,1.29-.88,2.82-1.47,4.46-1.73,5.7-.83,11,3.28,11.83,8.98.88,6.04-1.08,12.26-5.39,17.05-3.22,3.59-7.36,5.95-11.79,6.83Z"/>
    </g>
    <g>
      <path class="cls-2" d="m1005.5,692.84c-3.85,2.46-9.37-3.37-6.7-7.07,2.67-3.71,9.95-.32,8.83,4.11"/>
      <path class="cls-2" d="m1006.24,703.59c-4.93.97-10.24-.72-14.11-4.81-5.2-5.5-5.94-13.36-1.8-19.12,4.15-5.76,11.85-7.57,18.72-4.36,6.86,3.2,10.44,10.23,8.7,17.12-.49,1.95-1.5,3.63-2.85,4.93-.81,1.69-2.08,3.18-3.78,4.27-1.54.98-3.19,1.63-4.89,1.97Z"/>
    </g>
    <g>
      <path class="cls-2" d="m950.03,650.55c.78,2.71-1.21,5.86-3.99,6.33,3.16-.64,6.31-1.28,9.47-1.92"/>
      <path class="cls-2" d="m948.18,667.1c-.13.03-.26.05-.39.07-5.61.95-10.96-2.77-12-8.37-.75-4.03.93-7.96,4-10.27.74-3.71,3.47-6.89,7.36-8.01,4.67-1.32,9.39.67,11.78,4.57,3.37,1.17,6.05,4.04,6.81,7.78,1.15,5.65-2.5,11.16-8.15,12.3l-9.09,1.85c-.1.02-.21.05-.32.07Zm-8.18-13.67h0s0,0,0,0Z"/>
    </g>
    <g>
      <path class="cls-2" d="m907.91,696.36c2.49-1.81,6.64.99,5.89,3.98"/>
      <path class="cls-2" d="m915.82,710.58c-1.46.29-3.01.27-4.55-.12-2.47-.62-4.51-2.07-5.9-3.98-2.29-.58-4.39-1.93-5.89-3.98-3.39-4.66-2.37-11.19,2.3-14.58,4.72-3.43,11.05-3.45,16.13-.03,5.08,3.42,7.44,9.3,6.02,14.97-1.02,4.05-4.27,6.95-8.11,7.71Z"/>
    </g>
  </g>
</svg>