<?xml version="1.0" encoding="UTF-8"?>
<svg id="Capa_1" data-name="Capa 1" xmlns="http://www.w3.org/2000/svg" viewBox="0 0 1600 1600">
  <defs>
    <style>
      .cls-1 {
        opacity: .1;
      }

      .cls-1, .cls-2, .cls-3, .cls-4, .cls-5 {
        stroke-width: 0px;
      }

      .cls-1, .cls-5 {
        fill: #fff;
      }

      .cls-2 {
        fill: #cabdac;
        opacity: .28;
      }

      .cls-3 {
        fill: #824014;
      }

      .cls-4 {
        fill: #934a19;
      }
    </style>
  </defs>
  <path class="cls-4" d="m600.44,672.27c31.58-17.35,66.89-27.84,96.57-48.26,22.54-15.51,41.01-36.2,62.68-52.89,40.07-30.87,91.1-47.22,141.65-45.39,50.55,1.83,100.26,21.82,138,55.51,16.65,14.86,31.27,32.75,38.52,53.85,6.51,18.96,6.74,39.41,6.91,59.45.17,19.88.34,39.76.5,59.64.15,17.8.09,36.48-8.37,52.15-5.53,10.23-14.25,18.36-20.59,28.11-8.4,12.93-12.31,28.17-17.9,42.53-17.53,45.07-52.35,82.11-93.23,107.94-40.88,25.84-87.64,41.14-134.98,50.98-41.08,8.54-85.93,12.65-123.15-6.71-28.73-14.94-49.11-42.02-65.78-69.78-29.71-49.46-50.91-104.02-62.37-160.57-10.41-51.32-8.97-98.8,41.54-126.55Z"/>
  <path class="cls-5" d="m621.56,680.58c20.53-12.16,43.08-20.55,63.86-32.27,60.23-33.97,106.33-95.91,174.11-109.56,53.28-10.73,108.14,11.8,152.54,43.15,11.69,8.26,23.06,17.28,31.78,28.63,17.08,22.22,22.45,51.35,23.12,79.37.5,20.61-1.29,41.45-7.45,61.13-11.83,37.78-38.75,68.64-64.97,98.3-13.47,15.24-27.35,30.8-45.34,40.28-15.42,8.12-32.91,11.26-50.13,13.89-43.7,6.68-87.79,10.83-131.97,12.41-36.33,1.3-74.59.4-106.16-17.63-41.81-23.88-62.44-71.87-80.3-116.58-18.28-45.75-1.33-76.09,40.9-101.11Z"/>
  <path class="cls-2" d="m733.34,669.59c19.57-15.68,39.14-31.36,58.72-47.04,15.58-12.49,31.36-25.09,49.35-33.6,45.64-21.58,105.43-10.59,134.06,29.52,20.54,28.79,23.4,66.68,24,102.55.14,8.2.16,16.6-2.59,24.41-3.14,8.9-9.59,16.24-15.92,23.31-16.13,18.01-32.42,35.87-48.87,53.59-7.53,8.11-15.3,16.35-25.08,21.42-13.86,7.19-30.01,7.18-45.41,7-46.05-.53-92.1-1.06-138.14-1.59-8.07-.09-16.52-.29-23.44-4.26-6.69-3.84-10.99-10.68-15.03-17.27-14.17-23.09-42.5-54.95-29.5-82.73,13.86-29.63,53.13-55.51,77.86-75.33Z"/>
  <path class="cls-3" d="m1049.61,804.87c-32.57,35.11-54.77,82.56-97.87,103.45-15.07,7.31-31.69,10.74-47.44,16.45-32.69,11.85-61.62,33.85-81.78,62.18-4.09,5.75-7.98,12.98-5.38,19.54,3.02,7.61,12.78,9.62,20.97,9.56,48.74-.34,90.59-33.65,125.1-68.07,22.37-22.31,43.62-45.96,61.55-72.03,12.12-17.62,39.64-52.76,37.51-75.22-5-2.31-8.75-.08-12.67,4.14Z"/>
  <path class="cls-1" d="m670.19,950.8c2.89,4.24,5.78,9.83,3.02,14.15-1.6,2.5-4.68,3.65-7.63,3.94-12.19,1.19-22.17-9.18-29.43-19.04-6.31-8.57-46.88-61.1-22.53-65.82,14.77-2.86,48.74,55.29,56.57,66.77Z"/>
  <path class="cls-2" d="m809,727.89c20.58-36.51,62.33-62.65,93.45-89.99,10.61-9.32,21.5-18.81,34.63-23.99,58.48-23.07,61.78,70.7,62.39,107.11.14,8.2.16,16.6-2.59,24.41-3.14,8.9-9.59,16.24-15.92,23.31-16.13,18.01-32.42,35.87-48.87,53.59-7.53,8.11-15.3,16.35-25.08,21.42-23.97,12.43-47.44,6.17-72.52,5.45-25.2-.72-50.47-1.55-75.63-2.28-16.16-.47-35.91,4.93-51.36-1.98,21.81-18.19,42.6-37.1,63.7-56.32,15.64-14.24,25.02-33.92,33.89-53.12,1.2-2.59,2.5-5.12,3.9-7.61Z"/>
</svg>