<?xml version="1.0" encoding="UTF-8"?>
<svg id="Capa_1" data-name="Capa 1" xmlns="http://www.w3.org/2000/svg" viewBox="0 0 2560 1600">
  <defs>
    <style>
      .cls-1 {
        stroke-width: 0px;
      }
    </style>
  </defs>
  <path class="cls-1" d="m1707.92,1027.89c-26.08.32-55.12-13.24-71.6-30.04-10.86-11.04-18.54-23.76-23.03-38.18-3.86-13.39-5.89-28.55-6.07-45.49-.17-15.28,2.36-39.9,7.57-73.84,3.48-22.35,5.19-35.59,5.15-39.72-.02-1.86.06-4.85-.71-8.82-3.97-20.4-27.9-15.64-35.66-23.51-6.26-6.36-10.07-14.46-10.19-25.61-.07-6.82,1.61-13.96,5.04-21.44,5.45-12.04,14.35-15.75,25.88-17.87,5.78-1.06,13.85-2.08,15.91-13.57,5.84-33.53,8.45-47.82,9.45-51.97,4.17-15.95,11.79-27.5,22.87-34.65,5.54-3.36,11.3-5.08,17.3-5.15,8.88-.1,16.67,3.75,23.37,11.52,7.54,9.01,11.38,20.33,11.52,33.96.11,10.54-1.41,22.64-4.57,36.31-.59,2.28-.88,4.76-.85,7.45.09,8.06,8.5,11.99,25.23,11.81l12.39-.44c24.79-.27,37.28,9,37.49,27.8l.04,3.41c.18,16.94-5.06,28.77-15.73,35.5-6.78,3.38-14.1,5.11-21.95,5.2l-2.17.02c-15.08.16-25.37,3.99-30.86,11.49-4.46,7.69-6.58,21.97-6.36,42.83.18,16.73,2.63,33.13,7.35,49.19,3.47,11.82,6.6,37.62,19.94,39.18,35,4.08,37.19,42.34,36.76,54.66-.36,10.2-1.52,20.57-5.67,29.9-9.52,21.41-27.8,29.83-47.82,30.07Z"/>
  <path class="cls-1" d="m1526.37,588.11c-16.94-.31-30.92-4.17-41.94-11.61-8.54-7.38-12.71-17.07-12.49-29.05.48-15.07,6.29-27.78,17.43-38.11,16.38-14.37,35.1-21.37,56.17-20.98,10.12.18,19.16,3.24,27.11,9.17,11.82,8.89,17.6,20.88,17.32,35.96-.08,4.13-.67,8.15-1.77,12.05-3.79,15.22-12.06,27.05-24.82,35.5-9.39,5-21.73,7.35-37.01,7.08Zm-.73,370.27c42.76-.78,63.83-18,63.22-51.67-.12-6.61-1.18-13.82-3.18-21.64-3.75-13.36-7.82-26.61-12.19-39.76-12.43-36.14-18.82-63.71-19.17-82.71-.46-25.2,5.84-48.25,18.89-69.15,5.61-9.6,8.34-18.75,8.18-27.42-.23-12.6-6.84-23.94-19.83-34.04-20.53-15.33-40.4-22.82-59.61-22.47-20.45.37-30.7,10.17-30.77,29.38.81,21.89,2.76,43.65,5.83,65.29,2.83,19.37,4.42,38.56,4.77,57.56.17,9.09.02,18.08-.44,26.97-1.36,27.71-7.47,55.2-18.34,82.46-4.55,11.24-6.73,21.72-6.56,31.42.19,10.53,3.16,20.19,8.9,28.97,11.7,18.38,31.8,27.32,60.3,26.8Z"/>
  <path class="cls-1" d="m1261.07,1053.76c-32.35,4.34-53.41.39-63.18-11.85-5.55-7.18-8.84-14.66-9.89-22.44-1.04-7.78,3.16-36.89,4.68-57.87,6.73-92.94,13.07-166.18-51.02-276.75-4.81-8.29-10.97-22.77-12.01-30.55-1.12-8.39.61-17.17,5.22-26.34,5.36-11.35,13.5-20.15,24.44-26.41,10.93-6.26,20.71-9.97,29.31-11.12,20.06-2.69,32.1,3.93,36.11,19.86l4.44,19.1c1.11,3.6,2.05,7.54,2.83,11.81,13.21-41.37,38.55-64.57,76.02-69.6,39.72-5.33,74.44,8.05,104.18,40.12,18.55,20.23,30.91,40.15,37.09,59.75,6.17,19.6,10.31,37.28,12.43,53.05,1.35,10.03,2.19,20.24,2.54,30.61,2.02,39.96-7.02,77.44-27.13,112.44-16.92,27.7-40.02,43.51-69.3,47.44-29.28,3.93-55.29-5.82-78.02-29.24-3.18-3.53-6.79-7.84-10.8-12.93-3.97,6.16-5.57,12.11-4.8,17.84.71,5.33,2.61,10.91,5.68,16.75,6.92,17.42,16.75,34.75,29.49,52.01,8.04,11.84,12.78,22.99,14.17,33.43,1.18,8.8.1,17.07-3.24,24.82-7.77,19.8-27.52,31.83-59.25,36.08Zm59.99-254.41c47.93-7.16,46.56-65.13,45.45-80.48-1.78-24.52-14.19-51.79-32.66-66.62-9.22-7.41-38.86-15.24-55,4.87-13.54,16.88-23.71,41.56-20.27,79.63,2.8,31,24.95,68.2,62.48,62.59Z"/>
  <path class="cls-1" d="m1053.35,1019.11c-13.37,1.34-27.34,1.45-41.92.33-14.59-1.12-29.05-5.21-43.38-12.29-27.97-15.27-43.73-38.19-47.27-68.77-1.14-9.85-.42-19.81,2.15-29.88,3.76-16.03,11.9-29.24,24.42-39.64,6.52-4.7,11.84-7.3,15.94-7.78l6.77-.78c17.03-1.97,30.36,7.2,39.99,27.5,3.21,7.95,8.07,14.87,14.57,20.77,5.68,4.13,10.18,6.21,13.51,6.23,3.33.03,5.41,0,6.23-.1,4.72-.55,9.11-3.03,13.17-7.45,5.85-6.92,8.34-14.17,7.46-21.76-.4-3.49-1.55-7.1-3.44-10.83-8.74-14.37-24.51-24.82-47.3-31.33-20.65-5.92-36.45-13.97-47.41-24.14-13.09-12.41-21.02-23.87-23.79-34.37-2.77-10.49-4.39-17.69-4.84-21.59-1.52-13.13.08-26.21,4.81-39.24,13.27-34.4,42.69-54.23,88.25-59.51,24.63-2.85,46.32-.48,65.09,7.12,22.77,9.84,38.72,26.4,47.87,49.67.97,3.01,1.63,5.95,1.96,8.82,1.5,12.93-2.36,23.67-11.55,32.22-7.36,6.47-15.87,10.26-25.51,11.38-21.35,2.47-34-5.31-37.96-23.37-3.05-11.92-7.31-18.18-12.78-18.8-4.2-.34-7.22-.41-9.07-.2-4.93.57-9.83,2.28-14.69,5.13-6.8,4.12-11.74,9.06-14.82,14.82-2.35,4.85-3.3,9.22-2.85,13.12,1.52,13.13,23.05,25.72,64.58,37.75,16.35,4.76,31.92,10.76,46.69,17.99,14.77,7.23,26.93,17.99,36.49,32.27,7.98,13.22,12.87,27.63,14.68,43.22,2.09,18.06-.3,35.08-7.19,51.06-10.64,23.07-29.65,41.18-57.03,54.34-19.48,9.54-40.1,15.57-61.85,18.09Z"/>
  <path class="cls-1" d="m851.92,779.57c-19.29.19-35.38-3.34-48.28-10.59-10.08-7.28-15.28-17.03-15.61-29.25-.18-15.38,5.81-28.51,17.99-39.38,17.94-15.14,38.91-22.83,62.89-23.07,11.52-.11,21.95,2.74,31.28,8.54,13.88,8.72,21.03,20.77,21.44,36.15.11,4.22-.37,8.33-1.43,12.35-3.58,15.64-12.42,27.95-26.53,36.94-10.44,5.37-24.36,8.14-41.77,8.32Zm18.88,332.08c-42.74.42-64.51-14.44-65.32-44.59-.16-5.92.59-12.4,2.26-19.45,3.18-12.06,6.68-24.03,10.49-35.91,10.89-32.67,16.11-57.52,15.65-74.54-.61-22.57-7.87-43.03-21.79-61.4-6.01-8.45-9.12-16.56-9.33-24.33-.3-11.28,5.82-21.61,18.37-30.99,19.85-14.26,39.38-21.48,58.58-21.67,20.44-.2,31.09,8.3,31.97,25.5.11,19.61-.91,39.14-3.07,58.59-2.01,17.41-2.78,34.63-2.32,51.65.22,8.14.75,16.19,1.58,24.13,2.53,24.77,9.79,49.22,21.8,73.33,5.02,9.94,7.64,19.26,7.88,27.95.25,9.43-2.3,18.16-7.66,26.17-10.91,16.76-30.6,25.28-59.09,25.56Z"/>
  <path class="cls-1" d="m792.49,561.55c-88.91-.54-98.11,69.93-108.84,98.86-3.32,9.11-6.27,18.39-8.83,27.86-8.88,33.39-18.18,50.89-27.9,52.51-6.47,0-30.92-5.09-32.66-37.68l.06-6.7c.13-14.11,1.78-28.03,4.96-41.78,2.75-9.47,4.16-17.95,4.24-25.44.07-7.68-1.29-14.29-4.1-19.82-5.61-10.53-18.39-17.76-38.34-21.67-14.63-2.67-29.37-4-44.21-3.99-35.4.02-56.3,6.19-62.69,18.52-4.46,8.39-6.72,16.07-6.78,23.04-.07,7.14,1.38,14.9,4.35,23.3,3.9,10.17,9.29,19.05,16.17,26.64,6.87,7.58,14.28,14.76,22.21,21.55,24.92,21.41,48.28,46.84,70.09,76.29,6.76,9.28,10.11,18.11,10.03,26.51-.1,11.07-6.01,21.52-17.71,31.34-19.18,15.9-39.12,30.82-59.8,44.76-15.13,10.36-26.3,18.9-33.5,25.6-7.2,6.7-12.84,14.87-16.93,24.51-2.73,6.96-4.12,13.48-4.18,19.55-.06,6.07,1.22,11.69,3.84,16.87,5.04,10.35,14.69,16.77,28.94,19.27,8.74,1.24,17.21,1.86,25.39,1.86,16.94,0,32.67-2.97,47.19-8.87,21.4-8.94,37.55-26.98,48.47-54.13l4.98-13.39c8.6-24.47,16.57-41.97,23.9-52.5,4.43-5.72,8.83-8.58,13.21-8.58,4.75,0,9.39,3.38,13.89,10.17,7.13,11.06,11.09,20.39,11.87,27.98.79,7.59,1.16,13.08,1.13,16.47-.08,8.57-.7,17.47-3.67,26.25-11.99,35.44,1.98,74.94,22.09,86,62.61,34.41,102.12-17.45,109.9-34.95,2.72-6.25,17.35-51.28-11.43-75.23-11.68-9.71-22.51-20.07-34.41-29.17-6.24-4.82-16.82-13.65-31.73-26.49-13.41-11.42-21.06-21.68-22.98-30.78-1.91-9.1-2.85-16.16-2.8-21.16.07-7.86,1.48-15.63,4.21-23.3,4.87-12.5,11.54-23.75,20.01-33.76,16.55-19.65,52.17-52.07,90.73-65.43,24.91-8.63,48.21-27.08,48.82-61.36.29-16.07-15.15-49.12-77.19-49.5Z"/>
  <path class="cls-1" d="m2022.05,959.47l-4.05-.05c-31.77-.39-51.07-17.19-57.87-50.41l-4.48-20.34c-5.28,7.37-10.77,14.52-16.49,21.43-23.83,31.49-52.98,47.02-87.46,46.59-8.79-.11-18.02-1.24-27.68-3.38-41.34-10.42-65.91-38-73.69-82.72-1.05-6.32-1.54-12.53-1.46-18.61.29-23.21,9.81-46.08,28.57-68.61,11.43-13.38,24.47-23.81,39.1-31.3,14.63-7.48,30.08-13.49,46.37-18.02,23.75-6.69,46.73-15.31,68.95-25.86,11.35-6.39,17.11-16.35,17.27-29.88.16-12.84-5.02-23.05-15.51-30.62-6.03-4.35-12.09-6.57-18.18-6.65-14.43.73-27.03,7.56-37.78,20.49-3.9,5.36-7.02,11.3-9.35,17.8-8.63,23.34-25,34.85-49.11,34.55-11.72-.14-22.03-4.55-30.94-13.23-9.12-10.03-13.59-21.69-13.43-34.99l.03-2.7c3.04-26.78,15.79-46.91,38.27-60.38,17.71-10.6,34.86-17.15,51.46-19.65,16.59-2.5,31.88-3.66,45.85-3.49,21.41.26,40.42,2.87,57.04,7.8,57.48,17.39,85.87,55.15,85.15,113.29-.11,8.79-1.01,17.91-2.7,27.35-3.67,23.4-5.65,47.15-5.95,71.26l-.11,9.13c-.2,16.45,8.9,27.27,27.32,32.45,20.67,4.99,30.9,16.05,30.69,33.17-.07,5.86-1.39,12.49-3.96,19.9-6.79,20.43-16.9,36.42-30.34,47.97-13.44,11.56-28.61,17.45-45.52,17.69Zm-121.13-101.23c21.18.26,37.23-12.61,48.14-38.62,5.55-11.2,8.4-23,8.55-35.39.2-16.45-2.85-24.72-9.16-24.79l-2.7-.03c-2.25-.03-4.4.4-6.44,1.27-12.69,5.03-25.15,10.85-37.4,17.46-12.47,5.93-21.09,10.9-25.88,14.89-7.52,6.22-11.34,14.74-11.47,25.55.15,6.09,1.2,11.96,3.16,17.62,5.91,14.5,16.97,21.85,33.2,22.05Z"/>
</svg>