<?xml version="1.0" encoding="UTF-8"?>
<svg id="Capa_1" data-name="Capa 1" xmlns="http://www.w3.org/2000/svg" xmlns:xlink="http://www.w3.org/1999/xlink" viewBox="0 0 1600 1600">
  <defs>
    <style>
      .cls-1 {
        clip-path: url(#clippath);
      }

      .cls-2 {
        stroke-width: 8.75px;
      }

      .cls-2, .cls-3, .cls-4, .cls-5, .cls-6, .cls-7 {
        stroke-miterlimit: 10;
      }

      .cls-2, .cls-3, .cls-4, .cls-5, .cls-7 {
        fill: none;
      }

      .cls-2, .cls-3, .cls-7 {
        stroke-linecap: round;
      }

      .cls-2, .cls-4, .cls-7 {
        stroke: #4b2910;
      }

      .cls-8, .cls-9 {
        fill: #00d461;
      }

      .cls-10, .cls-11 {
        fill: #b3b3b3;
      }

      .cls-12, .cls-13 {
        fill: #cb0073;
      }

      .cls-14 {
        clip-path: url(#clippath-1);
      }

      .cls-15 {
        clip-path: url(#clippath-4);
      }

      .cls-16 {
        clip-path: url(#clippath-3);
      }

      .cls-17 {
        clip-path: url(#clippath-2);
      }

      .cls-18 {
        clip-path: url(#clippath-5);
      }

      .cls-19, .cls-20 {
        opacity: .5;
      }

      .cls-19, .cls-21, .cls-22 {
        fill: #4b2910;
      }

      .cls-19, .cls-21, .cls-22, .cls-23, .cls-13, .cls-11, .cls-24, .cls-25, .cls-26, .cls-27, .cls-9 {
        stroke-width: 0px;
      }

      .cls-3 {
        stroke: #e6e6e6;
      }

      .cls-3, .cls-7 {
        stroke-width: 5.83px;
      }

      .cls-4 {
        stroke-width: 2.92px;
      }

      .cls-21 {
        fill-rule: evenodd;
      }

      .cls-5 {
        stroke: #999;
        stroke-width: 5.48px;
      }

      .cls-6 {
        stroke: #00d461;
        stroke-width: 11.66px;
      }

      .cls-6, .cls-24 {
        fill: #fff;
      }

      .cls-23 {
        fill: #1b3cc0;
      }

      .cls-25 {
        fill: #fd6ec3;
      }

      .cls-26 {
        fill: #ffb921;
      }

      .cls-27 {
        fill: #eb0e92;
      }
    </style>
    <clipPath id="clippath">
      <path class="cls-13" d="m765.6,664.53s-101.77-80.46-78.39-230.16c0,0,40.07-32.29,43.26-62.07.48-4.45-.97-12.33-10.55-14.46-7.05-1.57-14,3.37-17.29,9.8-2.83,5.55-6.15,11.04-11.12,15.17,0,0-.18-29.27,8.01-57.08,7.13-24.19-17.69-27.75-23.26-19.18,0,0-14.53-21.61-31.59-5.66,0,0-15.07-16.8-25.51-1.9-65.72,93.8-48.68,319.5,141.58,399.29"/>
    </clipPath>
    <clipPath id="clippath-1">
      <path class="cls-13" d="m1229.59,826.28s3.17-10.48,4.91-27.28v-.03c4.18-40.02.36-115.82-73.15-171.13-69.9-52.61-127.2-37.13-157.42-21.15-4.45,2.32-8.3,4.68-11.5,6.84-.8.55-1.57,1.07-2.3,1.58-1.87,1.3-3.47,2.51-4.79,3.56-.45.34-.86.65-1.21.95-2.27,1.83-3.43,2.94-3.43,2.94l16.26,27.13c2.5-.96,4.98-1.82,7.38-2.6,3.49-1.15,6.87-2.15,10.18-2.96,1.16-.3,2.32-.58,3.46-.83,1.6-.37,3.13-.7,4.68-1,1.26-.22,2.49-.44,3.68-.62.22-.03.41-.08.59-.09,1.16-.18,2.34-.33,3.46-.47,80.95-9.69,94.05,80.53,98.21,97.42,4.71,18.97-6.69,26.1-6.69,26.1-27.82,19.18-11.9,46.46-11.9,46.46l1.33-.86,15.34-9.95,7.98-5.18c4.59-2.29,9.32-4.3,14.12-5.99,0,.24,0,.48,0,.72-.11,3.58-.17,9.35,0,16.1.48,19.03,2.87,45.76,12.13,52.98,14.83,11.54,24.02-6.22,24.02-6.22,13.58,10.43,22.21-5.15,22.21-5.15,17.39,7.55,22.46-21.3,22.46-21.3Z"/>
    </clipPath>
    <clipPath id="clippath-2">
      <path class="cls-9" d="m428.1,909.5s29.55-43.02,81.16-28.16c51.6,14.87,152.06,148.04,170.11,221.84,0,0-18.47,33.17-60.34,53.72l-190.93-247.4Z"/>
    </clipPath>
    <clipPath id="clippath-3">
      <path class="cls-11" d="m420.5,955.11c21.34,53.57,88.84,136.29,156.97,185.41,54.29,39.14,47.97-.96,35.13-25.63-27.08-52.04-86.47-145.08-136.65-190.78-41.5-37.8-71.44-9.13-55.46,31Z"/>
    </clipPath>
    <clipPath id="clippath-4">
      <path class="cls-9" d="m898.13,1225.06s-41.7-31.39-24.62-82.3c17.08-50.91,154.48-145.51,228.99-160.35,0,0,32.34,19.89,51.06,62.61l-255.43,180.04Z"/>
    </clipPath>
    <clipPath id="clippath-5">
      <path class="cls-11" d="m943.36,1234.62c54.44-19,140.01-82.86,192.03-148.8,41.45-52.54,1.11-47.96-24.09-36.21-53.17,24.8-148.69,80.11-196.51,128.26-39.56,39.83-12.22,70.98,28.57,56.75Z"/>
    </clipPath>
  </defs>
  <path class="cls-27" d="m509.64,927.05c2.98,8.73,15.13,9.72,19.34,1.52,4.45-8.67,11.84-18.94,24.08-29.66,32.86-28.79,28.3-59.68,16.82-70.27-11.25-10.37-45.8-13.61-61.65,34.36-8.07,24.44-4.27,47.4,1.41,64.05Z"/>
  <path class="cls-27" d="m684.37,1198.28c13.9.41,16.7,19.96,3.47,24.24-40.97,13.29-99.08,25.87-166.09,22.14-131.96-7.33-163.64-75.37-124.17-106.34,23.07-18.11,83.79-20.21,143.27,23.07,38.17,27.78,97.57,35.55,143.52,36.89Z"/>
  <path class="cls-25" d="m754.19,1246.67c-301.9-40.24-515.73-327.24-432.2-559.9,45.5-126.72,201.72-101.03,159.3,107.23-28.94,142.07,35.85,337.01,277.1,423.71,38.48,13.83,12.04,31.13-4.2,28.97Z"/>
  <g>
    <g>
      <path class="cls-12" d="m765.6,664.53s-101.77-80.46-78.39-230.16c0,0,40.07-32.29,43.26-62.07.48-4.45-.97-12.33-10.55-14.46-7.05-1.57-14,3.37-17.29,9.8-2.83,5.55-6.15,11.04-11.12,15.17,0,0-.18-29.27,8.01-57.08,7.13-24.19-17.69-27.75-23.26-19.18,0,0-14.53-21.61-31.59-5.66,0,0-15.07-16.8-25.51-1.9-65.72,93.8-48.68,319.5,141.58,399.29"/>
      <g class="cls-1">
        <g class="cls-20">
          <path class="cls-21" d="m644.13,558.05l-7.59,11.39c-1.89,2.84-2.58,6.31-1.91,9.66.67,3.35,2.64,6.29,5.48,8.18l10.77,7.18c2.84,1.89,6.31,2.58,9.66,1.91,3.35-.67,6.29-2.64,8.18-5.48l7.59-11.39c4.22,1.46,8.8,1.79,13.25.9,6.59-1.32,12.39-5.2,16.12-10.79l6.09-9.13c4-5.99,5.45-13.33,4.04-20.39-1.41-7.06-5.57-13.28-11.57-17.28-5.99-4-12.52-8.35-18.52-12.35-5.99-4-13.33-5.45-20.39-4.04-7.06,1.41-13.28,5.57-17.28,11.57l-6.09,9.13c-3.73,5.59-5.08,12.44-3.77,19.03.89,4.46,2.95,8.55,5.93,11.89Zm4.11.87c.52-.78.41-1.81-.25-2.47-3.02-2.99-5.11-6.83-5.96-11.05-1.11-5.58.03-11.37,3.19-16.1l6.09-9.13c3.42-5.13,8.75-8.7,14.8-9.91,6.05-1.21,12.33.03,17.47,3.46,5.99,4,12.52,8.35,18.52,12.35,5.13,3.42,8.7,8.75,9.9,14.8,1.21,6.05-.03,12.33-3.46,17.47l-6.09,9.13c-3.16,4.73-8.06,8.02-13.64,9.13-4.23.85-8.58.39-12.49-1.25-.86-.36-1.86-.06-2.38.72l-8.46,12.68c-1.32,1.98-3.37,3.35-5.7,3.82s-4.75-.01-6.73-1.33l-10.77-7.18c-1.98-1.32-3.35-3.37-3.82-5.7-.47-2.33.01-4.75,1.33-6.73l8.46-12.68Z"/>
          <path class="cls-21" d="m673.32,539.72c.69-1.03.94-2.3.7-3.51-.24-1.22-.96-2.29-1.99-2.98l-9.08-6.06c-1.03-.69-2.3-.94-3.51-.7-1.22.24-2.29.96-2.98,1.99l-1.98,2.97c-3.11,4.66-1.85,10.95,2.81,14.06h0c4.66,3.11,10.95,1.85,14.06-2.81.69-1.03,1.37-2.05,1.98-2.97Z"/>
          <path class="cls-21" d="m699.53,557.2c.69-1.03.94-2.3.69-3.51-.24-1.22-.96-2.29-1.99-2.98-3.06-2.04-7.32-4.88-10.38-6.92-1.03-.69-2.3-.94-3.51-.7s-2.29.96-2.98,1.99c-.61.91-1.28,1.93-1.98,2.96-3.35,5.02-1.99,11.8,3.03,15.14h0c5.02,3.35,11.8,1.99,15.14-3.03l1.98-2.96Z"/>
          <path class="cls-21" d="m671.58,561.17c.77-1.15,1.05-2.56.78-3.92s-1.07-2.55-2.22-3.32h0c-1.15-.77-2.56-1.05-3.92-.78-1.36.27-2.55,1.07-3.32,2.22-.34.51-.68,1.01-.99,1.49-.47.71-.64,1.58-.48,2.41.17.83.66,1.57,1.37,2.04l3.35,2.23c.71.47,1.58.64,2.41.48.83-.17,1.57-.66,2.04-1.37l.99-1.49Z"/>
          <path class="cls-21" d="m650.33,577.99c.33-.5.45-1.11.34-1.7-.12-.59-.46-1.11-.96-1.44-.5-.33-1.11-.45-1.7-.34-.59.12-1.11.46-1.44.96-1.95,2.93-5.49,8.24-5.49,8.24l3.76,2.51,5.49-8.24Z"/>
          <path class="cls-21" d="m659.28,583.96c.33-.5.45-1.11.34-1.7-.12-.59-.46-1.11-.96-1.44s-1.11-.45-1.7-.34c-.59.12-1.11.46-1.44.96l-5.49,8.24,3.76,2.51,5.49-8.24Z"/>
        </g>
      </g>
    </g>
    <path class="cls-9" d="m976.85,594.75c-2.72-6.3-4.76-13.02-6.43-19.53-5.14-20.01-6.82-38.02-13.3-35.25-6.86,2.91-11.46,12.78-13.87,19.59.19,1.13.43,2.22.66,3.3,0,.03-.01.06.01.06v.03c.43,2.07.89,4.02,1.36,5.83.17.76.37,1.51.55,2.22,1.41,5.54,2.59,9.15,2.72,9.58l.02.04s5.35,3.45,23.06,15.84c1.27.9,2.6,1.84,4,2.83h.06c1.66,1.19,3.39,2.42,5.23,3.7-1.53-2.62-2.87-5.37-4.06-8.23Z"/>
    <path class="cls-9" d="m1056.19,712.25c-.22-6.86.35-13.86,1.18-20.53,2.57-20.5,7.62-37.86.57-37.67-7.44.19-15.35,7.68-20.09,13.13-.24,1.12-.42,2.22-.6,3.31-.02.02-.03.05-.01.06l-.02.02c-.36,2.08-.64,4.07-.87,5.92-.13.77-.21,1.54-.31,2.26-.72,5.67-.95,9.46-.98,9.91v.04s17.39,30.91,18.63,32.78c-.46-3,2.55-6.15,2.49-9.25Z"/>
    <path class="cls-9" d="m763.03,786.24c-3.66-6.85-8.19-13.39-12.78-19.46-14.11-18.65-28.9-32.83-21.88-36.63,7.41-4.03,19.4-1.16,27.14,1.51.87.97,1.66,1.94,2.46,2.91.03.01.06.03.05.06h.03c1.53,1.85,2.93,3.64,4.2,5.33.56.69,1.08,1.39,1.58,2.05,3.92,5.15,6.29,8.75,6.57,9.16l.02.04s.44,40.16.28,42.69c-1.25-3.2-5.98-4.58-7.68-7.66Z"/>
    <path class="cls-9" d="m1002.99,610.38c-4.05-2.87-7.74-5.5-11.11-7.87-1.84-1.28-3.57-2.51-5.23-3.69h-.06c-1.4-1.01-2.73-1.95-4-2.85-.51-.37-1.02-.71-1.51-1.05.02-.3.03-.59.08-.88,4.29-5.82,11.57-13.92,18.97-14.71,6.26-.69,4.05,13.35,2.85,31.04Z"/>
    <path class="cls-4" d="m819,854.41s-.06-.01-.16-.07"/>
    <path class="cls-9" d="m878.27,535.71s-11.52-31.18-25.05-6.42c-13.55,24.79-24.38,41.01-18.98,5.94.57-3.77,1.03-7.56,1.37-11.36.04-.5.08-1.03.12-1.53,2.61-30.99-1.69-60.6-1.69-60.6,0,0-10.1-26.73,15.29-11.5,20.16,12.12,30.66,49.39,34.12,64.09v.06c.89,3.75,1.3,6.02,1.3,6.02,0,0,.47,4.63.67,9.71.38,9.58-.29,20.75-7.15,5.57Z"/>
    <path class="cls-9" d="m945.88,566.36c-.38-.28-3.84-3.09-8.47-8.64-4.68-5.56-10.58-13.91-15.69-25.24-10.48-23.24-28.44-7.29-28.44-7.29l-7.86,4.94-1.96-15.73v-.06s18.5-29.03,38.02-45.1c19.52-16.04,24.68,7.86,18.14,33.42-3.37,13.16-1.6,29.75.95,42.68.19,1.13.43,2.22.66,3.3,0,.03-.01.06.01.06v.03c.43,2.07.89,4.02,1.36,5.83.17.76.37,1.51.55,2.22,1.41,5.54,2.59,9.15,2.72,9.58Z"/>
    <path class="cls-13" d="m1026.64,851.02c-24.19-8.12-39.09-27.89-46.49-40.69-40.07-.54-124.53,3.46-161.31,44.01-4.39-1.91-95.68-43.62-52.83-213.36,3.58-14.22,7.46-25.6,11.62-35.97l.02-.08,12.85-28.43c4.37-9.2,9.08-18.98,14.12-30.79,7.2-10.62,19.58-25.44,30.99-21.83-.34,3.79-.8,7.59-1.37,11.36-5.4,35.07,5.43,18.85,18.98-5.94,13.54-24.77,25.05,6.42,25.05,6.42,6.86,15.18,7.52,4,7.15-5.57l7.86-4.94s17.96-15.96,28.44,7.29c5.1,11.33,11,19.67,15.69,25.24,4.63,5.55,8.09,8.36,8.47,8.64l.02.04s5.04,3.25,21.55,14.79c.49.33,1,.68,1.51,1.05,1.27.9,2.6,1.84,4,2.83h.06c1.66,1.19,3.39,2.42,5.23,3.7,3.37,2.37,7.06,5,11.11,7.87,2.42,1.7,4.97,3.53,7.64,5.42,40.59,28.85,63.1,99.45,59.68,153.92-1.93,30.93-8.53,66.08-30.03,95.03Z"/>
    <path class="cls-7" d="m756.11,695.57c1.11-10.83,2.85-22.35,5.34-34.6"/>
    <path class="cls-13" d="m947.1,901.85c38.18-10.27,63.2-28.78,79.54-50.84-24.19-8.12-39.09-27.89-46.49-40.69-40.07-.54-124.53,3.46-161.31,44.01-.59.66-1.19,1.35-1.78,2.01-5.11,6.07-9.18,12.91-11.93,20.6-9.87,27.6-12.78,54.73-7.48,82.42,8.76,46.04,40.28,93.6,100.36,147.55l164.95-112.12c-102.99-25.87-115.85-92.94-115.85-92.94Z"/>
    <path class="cls-13" d="m797.65,959.37c-32.12,24.94-87.11,74.84-118.29,143.82,0,0-26.4-83.42-86.13-149.5,0,0,125.77-103.4,229.79-105.52-5.11,6.07-15.14,21.09-17.9,28.78-9.87,27.6-12.78,54.73-7.48,82.42Z"/>
    <path class="cls-9" d="m845.51,569.44c-3.6-4.32-16.69-16.74-22.27,3.19-7.61,27.21-16.63,44.72-17.61,9.25-.11-3.81-.34-7.62-.69-11.42-.05-.5-.1-1.03-.16-1.53-2.99-30.96-12.54-59.31-12.54-59.31,0,0-14.73-24.48,12.97-14.05,22.01,8.3,39.02,43.09,45.06,56.93l.03.06c1.53,3.53,2.35,5.69,2.35,5.69,0,0,1.46,4.44,2.4,9.43,1.32,7.02-5.8,6.26-9.56,1.76Z"/>
    <path class="cls-7" d="m980.15,810.33c-40.07-.54-124.53,3.46-161.31,44.01-.59.66-1.19,1.35-1.78,2.01-5.11,6.07-9.18,12.91-11.93,20.6-9.87,27.6-12.78,54.73-7.48,82.42"/>
    <g>
      <path class="cls-24" d="m720.49,1035.92c-15.38,19.72-29.81,42.24-41.13,67.27,0,0-43.69-68.31-86.13-149.5,0,0,20.24-16.64,51.18-36.7,15.85,13.09,56.09,51.51,76.08,118.94Z"/>
      <path class="cls-24" d="m736.18,1016.97c-3.05,3.46-6.11,7.04-9.1,10.73-20.48-65.5-59.8-102.82-75.23-115.47,3.34-2.12,6.78-4.25,10.33-6.38,14.91,12.19,53.05,48.11,73.99,111.12Z"/>
      <path class="cls-24" d="m756.17,995.79c-4.4,4.35-8.82,8.94-13.28,13.76-21.13-61.22-58.33-96.24-73-108.28,4.92-2.89,10.03-5.8,15.25-8.64,14.47,11.89,49.79,45.32,71.03,103.16Z"/>
      <path class="cls-23" d="m727.08,1027.71c-2.22,2.68-4.43,5.43-6.59,8.21-19.99-67.43-60.23-105.85-76.08-118.94,2.42-1.58,4.9-3.14,7.45-4.74,15.42,12.65,54.74,49.96,75.23,115.47Z"/>
      <path class="cls-23" d="m742.9,1009.55c-2.24,2.41-4.48,4.9-6.72,7.43-20.94-63-59.08-98.93-73.99-111.12,2.53-1.52,5.09-3.06,7.71-4.59,14.67,12.04,51.87,47.06,73,108.28Z"/>
    </g>
    <g>
      <path class="cls-24" d="m820.03,1016.63c-3.7-6.34-6.98-12.59-9.84-18.8,22.97-21.51,75.05-63.03,145.26-75.45,2.61,4.73,6.01,10.03,10.43,15.58-72.93,14-125.74,59.05-145.84,78.67Z"/>
      <path class="cls-24" d="m831.52,1034.42c-2.67-3.78-5.19-7.59-7.57-11.36,19.89-19.47,73.18-65.26,146.94-79.2,3.36,3.81,7.23,7.63,11.61,11.43-75.13,12.57-129.85,58.66-150.99,79.13Z"/>
      <path class="cls-24" d="m1062.95,994.8l-164.95,112.12c-25.84-23.2-46.39-45.2-62.13-66.48,21.38-20.71,77.06-67.58,153.49-79.51,17.04,13.15,40.73,25.6,73.58,33.87Z"/>
      <path class="cls-23" d="m970.9,943.86c-73.76,13.94-127.06,59.73-146.94,79.2-1.35-2.15-2.66-4.29-3.92-6.42,20.11-19.62,72.91-64.67,145.84-78.67,1.55,1.93,3.21,3.92,5.02,5.89Z"/>
      <path class="cls-23" d="m989.37,960.93c-76.44,11.93-132.12,58.8-153.49,79.51-1.51-1.98-2.95-4.01-4.36-6.02,21.14-20.47,75.86-66.56,150.99-79.13,2.13,1.9,4.45,3.79,6.86,5.64Z"/>
    </g>
    <path class="cls-7" d="m661.85,349.34s.29-24.93,14.42-42.77"/>
    <path class="cls-7" d="m630.25,343.68s.29-24.93,14.42-42.77"/>
    <path class="cls-3" d="m678.49,906.13s5.8-6.73,13.18-7.48"/>
    <path class="cls-3" d="m688.29,916.7s5.8-6.73,13.18-7.48"/>
    <path class="cls-3" d="m698.36,927.73s5.8-6.73,13.18-7.48"/>
    <path class="cls-3" d="m706.69,937.49s5.8-6.73,13.18-7.48"/>
    <path class="cls-3" d="m957.7,937.19s-1.74-8.72-7.8-12.99"/>
    <path class="cls-3" d="m943.97,941.57s-1.74-8.72-7.8-12.99"/>
    <path class="cls-3" d="m929.77,946.21s-1.74-8.72-7.8-12.99"/>
    <path class="cls-3" d="m917.72,950.62s-1.74-8.72-7.8-12.99"/>
  </g>
  <g>
    <g>
      <path class="cls-12" d="m1229.59,826.28s3.17-10.48,4.91-27.28v-.03c4.18-40.02.36-115.82-73.15-171.13-69.9-52.61-127.2-37.13-157.42-21.15-4.45,2.32-8.3,4.68-11.5,6.84-.8.55-1.57,1.07-2.3,1.58-1.87,1.3-3.47,2.51-4.79,3.56-.45.34-.86.65-1.21.95-2.27,1.83-3.43,2.94-3.43,2.94l16.26,27.13c2.5-.96,4.98-1.82,7.38-2.6,3.49-1.15,6.87-2.15,10.18-2.96,1.16-.3,2.32-.58,3.46-.83,1.6-.37,3.13-.7,4.68-1,1.26-.22,2.49-.44,3.68-.62.22-.03.41-.08.59-.09,1.16-.18,2.34-.33,3.46-.47,80.95-9.69,94.05,80.53,98.21,97.42,4.71,18.97-6.69,26.1-6.69,26.1-27.82,19.18-11.9,46.46-11.9,46.46l1.33-.86,15.34-9.95,7.98-5.18c4.59-2.29,9.32-4.3,14.12-5.99,0,.24,0,.48,0,.72-.11,3.58-.17,9.35,0,16.1.48,19.03,2.87,45.76,12.13,52.98,14.83,11.54,24.02-6.22,24.02-6.22,13.58,10.43,22.21-5.15,22.21-5.15,17.39,7.55,22.46-21.3,22.46-21.3Z"/>
      <g class="cls-14">
        <path class="cls-19" d="m1144.43,744c-.36.01-.73-.07-1.07-.24-7.02-3.63-12.68-7.62-16.8-11.86-5.02-5.16-7.67-10.61-7.88-16.18-.13-3.61,1.13-6.76,3.64-9.11,2.84-2.66,7.29-4.12,11.32-3.7,3.28.34,6.1,3.86,9.01,6.13,2.74-2.48,13.92-11.26,21.05-3.96,2.41,2.47,4.17,5.21,4.3,8.82.21,5.58-2.03,11.2-6.66,16.72-3.8,4.53-9.14,8.93-15.88,13.07-.32.2-.68.3-1.05.32Zm-12.51-36.86c-2.17.08-4.8.86-6.66,2.6-1.6,1.5-2.37,3.46-2.28,5.81.17,4.48,2.41,8.97,6.66,13.34,3.59,3.69,8.48,9.35,14.59,12.61,5.85-3.7,10.51-9.72,13.82-13.67,3.92-4.68,5.82-9.32,5.66-13.8-.09-2.36-1-4.25-2.71-5.63-2.39-1.93-5.8-2.38-8.11-1.97-2.91.52-5.73,2.18-8.16,4.8-.39.42-.93.67-1.5.69-.57.02-1.13-.19-1.55-.58-2.61-2.43-5.55-3.88-8.49-4.18-.4-.04-.83-.05-1.28-.04Z"/>
        <path class="cls-19" d="m1173.21,646.06c8.63-.79,21.78-5.48,18.84-16.72-2.5-9.57-15.04-9.22-22.8-8.35-2.25.25-4.56.61-6.88,1.07,1.17-.92,2.31-1.89,3.41-2.91,5.6-5.24,9.57-13.35,5.63-20.84-1.57-2.98-4.48-5.6-7.9-6.13-4.01-.62-7.11,1.92-9.25,5.04-3.99,5.82-6.66,12.92-8.53,20.08-.76-5.64-2.03-11.22-4.15-16.31-2.54-6.08-8.89-13.37-16.1-9.16-8.09,4.73-5.66,16.01-2.48,23,2,4.38,4.75,8.34,8.08,11.72-3.47-1.02-6.98-1.87-10.55-2.52-5.46-1-11.43-2.01-16.96-.95-8.98,1.72-14.05,10.67-8.3,18.46,5.93,8.03,16.12,7.23,24.19,3.16,1.79-.9,3.58-1.82,5.36-2.76-3.05,3.22-5.86,6.64-8.24,10.36-4.92,7.69-7.41,19.5.05,26.47,8.07,7.55,16.08-.17,19.24-8.12,1.51-3.8,2.66-7.73,3.46-11.73.66,2.96,1.46,5.86,2.43,8.69,2.64,7.64,10.53,17.17,19.76,13.32,9.43-3.94,7.41-17.99,3.86-25.19-2.17-4.4-5.23-8.07-8.75-11.29,5.33,1.53,10.94,2.13,16.57,1.61Zm-18.22-41.66c1.48-3.06,3.31-6.86,6.67-8.22,5.81-2.35,8.31,4.3,7.7,8.9-.88,6.64-6.41,11.25-11.48,15.01-3.38,2.5-6.94,4.71-10.47,6.98,1.59-7.84,4.09-15.46,7.58-22.67Zm-27.92,12.58c-3.2-5.87-6.3-15.43-.44-20.69,13.15-11.8,16.53,26.19,16.69,32.51,0,.21.08.45.21.71-.77.54-1.52,1.1-2.24,1.7-.2-.28-.45-.51-.72-.67-5.64-3.2-10.38-7.86-13.49-13.56Zm-27.07,25.6c-4.39-2.75-5.09-8.39-1.58-12.12,3.14-3.34,7.79-4.19,12.18-4.09,8.42.2,16.9,2.16,24.9,4.88-4.69,2.71-9.47,5.27-14.25,7.81-6.2,3.29-14.41,7.8-21.24,3.52Zm34.35,20.49c-1.28,4.19-2.8,8.68-5.8,11.99-3.45,3.8-9.2,4.62-12-.52-4.4-8.07,1.96-18.49,7-24.62,3.98-4.84,8.51-9.22,13.19-13.4.11,3.06.29,6.15.59,9.23-.27,5.86-1.24,11.67-2.96,17.31Zm26.8-9.48c3.86,6.16,6.99,19.81-1.8,23.76-9.65,4.33-14.38-8.06-15.98-15.02-1.21-5.25-2.07-10.55-2.62-15.9.1-3.43-.03-6.86-.38-10.27.01.01.02.02.04.04,2.38,1.85,4.91,3.46,7.56,4.83,5.11,3.43,9.91,7.35,13.18,12.57Zm-17.9-18.86c.27.02.53-.03.75-.19,1.6-1.17,3.25-2.28,4.92-3.37,4.89-2.73,10.49-4.37,15.87-5.51,5.26-1.11,21.79-4.33,23.99,3.04,1.3,4.37-2.21,8.53-5.73,10.54-4.06,2.32-9.05,3.12-13.66,3.32-7.37.32-14.71-1.33-21.22-4.67-1.62-1.09-3.27-2.15-4.91-3.18Z"/>
      </g>
    </g>
    <path class="cls-7" d="m1185.67,852.12s9.38-23.1,3.26-45.02"/>
    <path class="cls-7" d="m1208.27,846.31s9.38-23.1,3.26-45.02"/>
    <path class="cls-7" d="m1030.39,641.12c-10.06,1.2-21.18,3.95-33.45,8.58"/>
    <path class="cls-7" d="m980.68,622.56s8.33-8,23.25-15.87"/>
  </g>
  <g>
    <g>
      <path class="cls-8" d="m428.1,909.5s29.55-43.02,81.16-28.16c51.6,14.87,152.06,148.04,170.11,221.84,0,0-18.47,33.17-60.34,53.72l-190.93-247.4Z"/>
      <g class="cls-17">
        <path class="cls-24" d="m545.93,894.89s12.95,39.44-7.54,73.66l-97.93-87.54,54.73-24.49,50.74,38.37Z"/>
        <path class="cls-24" d="m692.13,1111.22s-29.68-29.02-69.42-25.74l35.34,126.51,46.13-38.31-12.05-62.46Z"/>
        <path class="cls-6" d="m600.38,1178.74c-10.19-2.61-22.14-8.93-36.54-19.31-68.48-49.38-140.96-135.34-165-195.7-9.95-24.97-7.52-49.39,6.49-65.33,11.66-13.26,29.84-18.31,48.64-13.49,12.57,3.22,25.26,10.6,37.71,21.94,53.99,49.17,115.52,147.09,141.63,197.26,6.53,12.55,19.98,43.91,3.94,64.12-3.96,4.99-15.47,15.99-36.85,10.51h0Z"/>
      </g>
    </g>
    <g>
      <path class="cls-10" d="m420.5,955.11c21.34,53.57,88.84,136.29,156.97,185.41,54.29,39.14,47.97-.96,35.13-25.63-27.08-52.04-86.47-145.08-136.65-190.78-41.5-37.8-71.44-9.13-55.46,31Z"/>
      <g class="cls-16">
        <line class="cls-5" x1="746.37" y1="1031.9" x2="443.55" y2="1246.15"/>
        <line class="cls-5" x1="733.7" y1="1013.99" x2="430.88" y2="1228.24"/>
        <line class="cls-5" x1="721.02" y1="996.07" x2="418.2" y2="1210.32"/>
        <line class="cls-5" x1="708.35" y1="978.16" x2="405.53" y2="1192.41"/>
        <line class="cls-5" x1="695.68" y1="960.25" x2="392.86" y2="1174.5"/>
        <line class="cls-5" x1="683" y1="942.33" x2="380.18" y2="1156.58"/>
        <line class="cls-5" x1="670.33" y1="924.42" x2="367.51" y2="1138.67"/>
        <line class="cls-5" x1="657.65" y1="906.51" x2="354.84" y2="1120.76"/>
        <line class="cls-5" x1="644.98" y1="888.59" x2="342.16" y2="1102.84"/>
        <line class="cls-5" x1="632.31" y1="870.68" x2="329.49" y2="1084.93"/>
        <line class="cls-5" x1="619.63" y1="852.77" x2="316.81" y2="1067.02"/>
        <line class="cls-5" x1="606.96" y1="834.86" x2="304.14" y2="1049.11"/>
        <line class="cls-5" x1="594.28" y1="816.94" x2="291.47" y2="1031.19"/>
      </g>
    </g>
  </g>
  <path class="cls-9" d="m800.01,643.62c5.45-9.38,14.94-17.17,29.09-.44,1.33,1.57,3.84.16,3.21-1.79-4.67-14.47-14.02-37.58-22.91-25-7.01,9.92-10.8,18.83-12.83,25.81-.62,2.13,2.33,3.33,3.44,1.42Z"/>
  <path class="cls-9" d="m904.12,623.34c-8.98-6.1-20.91-9.01-26.41,12.2-.52,1.99-3.39,1.81-3.67-.22-2.05-15.06-3.63-39.95,9.83-32.45,10.62,5.91,17.88,12.3,22.74,17.71,1.48,1.65-.65,4.01-2.49,2.77Z"/>
  <path class="cls-9" d="m1025.43,747.26c-3.98-15.13-12.19-28.71-28.7-6.65-1.55,2.07-3.83-.55-2.91-3.33,6.8-20.63,19.52-53.2,26.42-32.59,5.44,16.25,7.84,30.32,8.8,41.16.29,3.3-2.8,4.5-3.61,1.4Z"/>
  <g>
    <path class="cls-22" d="m954.47,686.26c-.39,4.15-1.4,8.1-2.97,11.76-3.82,8.95-10.82,16.12-19.52,20.2-6.13,2.88-13.07,4.19-20.3,3.52-21.6-2.02-37.49-21.19-35.47-42.79.39-4.18,1.4-8.13,3.01-11.78,3.8-8.99,10.85-16.12,19.52-20.17,6.13-2.88,13.07-4.2,20.27-3.52,21.63,2.02,37.5,21.16,35.47,42.79Z"/>
    <path class="cls-24" d="m951.49,698.02c-3.82,8.95-10.82,16.12-19.52,20.2l-52.77-51.06c3.8-8.99,10.85-16.12,19.52-20.17l52.77,51.03Z"/>
  </g>
  <g>
    <path class="cls-22" d="m854.4,698.44c-.39,4.15-1.4,8.1-2.97,11.76-3.82,8.95-10.82,16.12-19.52,20.2-6.13,2.88-13.07,4.19-20.3,3.52-21.6-2.02-37.49-21.19-35.47-42.79.39-4.18,1.4-8.13,3.01-11.78,3.8-8.99,10.85-16.12,19.52-20.17,6.13-2.88,13.07-4.2,20.27-3.52,21.63,2.02,37.5,21.16,35.47,42.79Z"/>
    <path class="cls-24" d="m851.43,710.2c-3.82,8.95-10.82,16.12-19.52,20.2l-52.77-51.06c3.8-8.99,10.85-16.12,19.52-20.17l52.77,51.03Z"/>
  </g>
  <path class="cls-22" d="m852.25,695.92l-10.2-8.28c.52-.64,5.25-6.33,12.99-9.94,10.86-5.06,22.42-3.48,32.57,4.47l-8.1,10.34c-14.13-11.06-25.2.9-27.27,3.42Z"/>
  <path class="cls-2" d="m887.8,783.9s36.84.6,54.32-37.44"/>
  <path class="cls-13" d="m919.91,435.98c-6.86.81-10.57-7.8-5.29-12.24,33.95-28.55,120.01-81.92,253.59-37.96,176.48,58.08,171.64,174.99,114.81,197.53-39.48,15.66-105-7.15-158.09-75.96-60.52-78.44-161.05-76.59-205.02-71.37Z"/>
  <path class="cls-25" d="m1179,363.36c-7.75-.74-8.6-11.77-1.06-13.68,23.39-5.93,56.34-10.83,93.66-6.3,73.5,8.93,88.72,48.12,65.52,63.99-13.56,9.28-47.58,8.23-79.24-18.14-20.32-16.93-53.24-23.44-78.88-25.87Z"/>
  <path class="cls-13" d="m274.96,684.45c-1.92,10.04-16.44,9.79-18.01-.32-4.85-31.3-7.17-74.96,3.38-123.17,20.78-94.94,73.89-109.97,91.75-77.69,10.44,18.87,4.86,63.2-33.53,101.31-24.64,24.46-37.24,66.67-43.59,99.87Z"/>
  <path class="cls-27" d="m1262.7,634.48c-10.02-4.69-20.99,4.99-17.41,15.46,3.79,11.07,6.52,26,5.61,45.51-2.45,52.38,28.06,74.14,46.76,73.02,18.33-1.1,49.89-28.28,21.6-81.9-14.41-27.32-37.44-43.14-56.56-52.09Z"/>
  <g>
    <g>
      <path class="cls-8" d="m898.13,1225.06s-41.7-31.39-24.62-82.3c17.08-50.91,154.48-145.51,228.99-160.35,0,0,32.34,19.89,51.06,62.61l-255.43,180.04Z"/>
      <g class="cls-15">
        <path class="cls-24" d="m898.93,1069.76s54.34-15.28,99.63,14.57l-124.69,127.9-30.05-75.8,55.12-66.68Z"/>
        <path class="cls-24" d="m1111.08,970.01s-30.28,28.39-28.72,68.24l127.92-29.83-36.27-47.74-62.93,9.33Z"/>
        <path class="cls-6" d="m1174.57,1064.59c-3.05,10.07-9.88,21.74-20.87,35.67-52.29,66.28-141.31,134.97-202.65,156.38-25.38,8.86-49.67,5.38-64.98-9.31-12.75-12.23-17-30.61-11.38-49.18,3.76-12.42,11.69-24.78,23.55-36.72,51.46-51.81,151.95-109.05,203.2-132.96,12.82-5.98,44.73-18.06,64.23-1.16,4.81,4.17,15.3,16.15,8.91,37.27h0Z"/>
      </g>
    </g>
    <g>
      <path class="cls-10" d="m943.36,1234.62c54.44-19,140.01-82.86,192.03-148.8,41.45-52.54,1.11-47.96-24.09-36.21-53.17,24.8-148.69,80.11-196.51,128.26-39.56,39.83-12.22,70.98,28.57,56.75Z"/>
      <g class="cls-18">
        <line class="cls-5" x1="1020.66" y1="912.66" x2="1240.31" y2="1211.58"/>
        <line class="cls-5" x1="1002.98" y1="925.65" x2="1222.63" y2="1224.58"/>
        <line class="cls-5" x1="985.29" y1="938.65" x2="1204.95" y2="1237.57"/>
        <line class="cls-5" x1="967.61" y1="951.64" x2="1187.26" y2="1250.56"/>
        <line class="cls-5" x1="949.93" y1="964.63" x2="1169.58" y2="1263.56"/>
        <line class="cls-5" x1="932.25" y1="977.63" x2="1151.9" y2="1276.55"/>
        <line class="cls-5" x1="914.56" y1="990.62" x2="1134.22" y2="1289.54"/>
        <line class="cls-5" x1="896.88" y1="1003.61" x2="1116.53" y2="1302.54"/>
        <line class="cls-5" x1="879.2" y1="1016.61" x2="1098.85" y2="1315.53"/>
        <line class="cls-5" x1="861.52" y1="1029.6" x2="1081.17" y2="1328.52"/>
        <line class="cls-5" x1="843.83" y1="1042.59" x2="1063.48" y2="1341.52"/>
        <line class="cls-5" x1="826.15" y1="1055.59" x2="1045.8" y2="1354.51"/>
        <line class="cls-5" x1="808.47" y1="1068.58" x2="1028.12" y2="1367.5"/>
      </g>
    </g>
  </g>
  <line class="cls-4" x1="1134.33" y1="812.62" x2="1129.57" y2="820.16"/>
  <g>
    <path class="cls-26" d="m1247.51,1013.51c-1.73,5.7-3.58,11.39-5.57,17.03-44.54,127.95-149.54,240.65-317.83,216.38-39.68-5.71-64.8-14.8-76.5-22.97-.03,0-.05-.04-.08-.05-.36-.24-.69-.48-.99-.73-.36-.24-.68-.51-1.01-.77-.3-.23-.6-.48-.87-.7-.66-.59-1.27-1.17-1.79-1.72-.17-.16-.33-.36-.49-.55-1.4-1.59-2.21-3.12-2.46-4.51-.06-.26-.08-.5-.09-.71-.03-.49.03-.93.14-1.38.6-2.34,3.07-4.24,7.32-5.44,173.74-49.04,203.78-147.26,211.62-185.26,17.74-86.17,9.87-116.3,18.73-158.88,4.31-20.84,16.91-39.1,33.68-52.98,4.53-3.72,9.35-7.12,14.38-10.19,2.92-1.75,5.9-3.4,8.94-4.93,4.59-2.29,9.32-4.3,14.12-5.99,0,.24,0,.48,0,.72-.11,3.58-.17,9.35,0,16.1.48,19.03,2.87,45.76,12.13,52.98,14.83,11.54,24.02-6.22,24.02-6.22,13.58,10.43,22.21-5.15,22.21-5.15,17.39,7.55,22.46-21.3,22.46-21.3,0,0,3.17-10.48,4.91-27.28,18.47,14.85,31.2,40.59,32.12,79.98.28,12.08-.01,24.5-.96,37.11-.36,5.53-.88,11.09-1.51,16.71-2.96,26.6-8.5,53.87-16.64,80.71Z"/>
    <path class="cls-22" d="m1130.24,801.22c-15.28,11.59-34.94,32.52-38.32,64.98-1.74,16.8-4.17,30.96-5.11,49.2-1.33,25.87-3,58.11-13.61,109.65-13.01,63.13-52.61,114.68-116.16,152.43-9.69,5.74-26.62,14.28-44.91,21.03-41.96,15.5-78.18,14.41-64.59,25.38-.36-.24-.69-.48-.99-.73-.36-.24-.68-.51-1.01-.77-.3-.23-.6-.48-.87-.7-.66-.59-1.27-1.17-1.79-1.72-.17-.16-.33-.36-.49-.55-1.4-1.59-2.21-3.12-2.46-4.51-.06-.26-.08-.5-.09-.71-.03-.49.03-.93.14-1.38.6-2.34,3.07-4.24,7.32-5.44,173.74-49.04,203.78-147.26,211.62-185.26,17.74-86.17,9.87-116.3,18.73-158.88,4.31-20.84,16.91-39.1,33.68-52.98,4.53-3.72,9.35-7.12,14.38-10.19,2.92-1.75,5.9-3.4,8.94-4.93,4.59-2.29,9.32-4.3,14.12-5.99,0,.24,0,.48,0,.72,0,0-8.26,3.57-18.53,11.36Z"/>
    <g>
      <path class="cls-24" d="m1182.79,968.28c-7.37,28.78-24.15,50.7-41.39,56.64-5.08,1.74-10.2,2.11-15.15.85-21.64-5.54-31.46-40.29-21.9-77.58,9.55-37.28,34.87-63.03,56.5-57.49,4.94,1.27,9.25,4.06,12.87,8.02,12.25,13.49,16.43,40.78,9.06,69.56Z"/>
      <path class="cls-22" d="m1164.22,963.52c-4.38,17.09-13.64,30.29-22.88,34.07-2.72,1.11-5.45,1.41-8.05.74-11.39-2.92-16.04-23.25-10.37-45.39,5.67-22.14,19.52-37.73,30.92-34.81,2.6.67,4.85,2.24,6.7,4.52,6.29,7.76,8.06,23.78,3.68,40.87Z"/>
      <path class="cls-22" d="m1210.78,975.45c-3.04,11.86-7.67,22.54-13.29,31.42-11.99,19.08-28.47,29.85-43.25,26.06l-27.99-7.17c4.94,1.27,10.06.89,15.15-.85,9.28-3.19,18.41-11.02,26.02-22.05,6.55-9.46,11.95-21.29,15.36-34.59,4.26-16.64,4.67-32.79,1.84-46.06-2.01-9.66-5.73-17.81-10.9-23.5-3.62-3.97-7.93-6.76-12.87-8.02l27.99,7.17c11.1,2.84,19.09,13.35,22.93,27.97,3.7,13.86,3.66,31.43-1,49.62Z"/>
      <path class="cls-24" d="m1314.97,985.86c-7.37,28.78-24.15,50.7-41.39,56.64-5.08,1.74-10.2,2.11-15.15.85-11.98-3.07-20.34-15.08-23.77-31.52l30.8,4.1c2.6.67,5.32.37,8.04-.74,9.25-3.8,18.5-16.99,22.88-34.08,4.38-17.09,2.61-33.1-3.68-40.85-1.85-2.28-4.09-3.88-6.69-4.54l-.41-.05c-.66-.14-1.29-.24-1.98-.27l-31.73-4.21c11.78-17.09,27.22-26.47,41.14-22.9,4.94,1.27,9.25,4.06,12.87,8.02,12.25,13.49,16.43,40.78,9.06,69.56Z"/>
      <path class="cls-22" d="m1321.02,915.44l-27.99-7.17c4.94,1.27,9.25,4.06,12.87,8.02,12.25,13.49,16.43,40.78,9.06,69.56-7.37,28.78-24.15,50.7-41.39,56.64-5.08,1.74-10.2,2.11-15.15.85l27.99,7.17c21.66,5.55,46.98-20.2,56.53-57.48,9.55-37.28-.27-72.03-21.93-77.58Z"/>
      <path class="cls-24" d="m1216.43,976.9c-2.95,11.52-7.28,21.94-12.51,30.84l-6.43-.86c5.62-8.88,10.25-19.56,13.29-31.42,4.66-18.19,4.71-35.76,1-49.62l6.32.84c3.33,14.4,3.02,31.92-1.67,50.23Z"/>
      <path class="cls-22" d="m1296.38,981.09c-4.38,17.09-13.63,30.28-22.88,34.08-2.72,1.11-5.45,1.4-8.04.74l-30.8-4.1-30.74-4.08c5.23-8.89,9.55-19.31,12.51-30.84,4.69-18.3,5-35.83,1.67-50.23l33.79,4.5,31.73,4.21c.69.03,1.32.13,1.98.27l.41.05c2.6.67,4.84,2.26,6.69,4.54,6.29,7.75,8.06,23.77,3.68,40.85Z"/>
    </g>
    <g>
      <path class="cls-24" d="m978.45,1247.41c-3.94,15.38-14.09,27.14-25.93,31.85-3.1,1.24-6.35,1.98-9.6,2.2-2.94.18-5.9-.08-8.85-.83-18.59-4.76-28.84-27.36-22.92-50.45,5.92-23.11,25.77-38,44.36-33.24,2.95.75,5.67,1.95,8.16,3.52,2.75,1.75,5.24,3.96,7.36,6.54,8.12,9.82,11.37,25.01,7.42,40.42Z"/>
      <ellipse class="cls-22" cx="944.8" cy="1238.77" rx="23.77" ry="19.12" transform="translate(-489.68 1846.61) rotate(-75.63)"/>
      <path class="cls-24" d="m1093.82,1276.96c-3.94,15.38-14.09,27.14-25.93,31.85-3.1,1.24-6.35,1.98-9.6,2.2-2.94.18-5.9-.08-8.85-.83-11.74-3.01-20.16-13.15-23.28-26.02l28.1,7.2h.03c10.21,2.62,21.16-5.57,24.41-18.26,3.26-12.72-2.4-25.16-12.61-27.78h-.03s-28.08-7.2-28.08-7.2c8.91-9.81,21.16-14.64,32.9-11.63,2.95.76,5.67,1.95,8.16,3.52,2.75,1.75,5.24,3.96,7.36,6.54,8.12,9.82,11.36,25.01,7.42,40.42Z"/>
      <path class="cls-22" d="m1087.87,1230.83l-16.99-4.35c2.95.75,5.67,1.95,8.16,3.52,2.75,1.75,5.24,3.96,7.36,6.54,8.12,9.82,11.37,25.01,7.42,40.42-3.94,15.38-14.09,27.14-25.93,31.85-3.1,1.24-6.35,1.98-9.6,2.2-2.94.18-5.9-.08-8.85-.83l16.99,4.35c18.59,4.76,38.47-10.12,44.38-33.21,5.92-23.11-4.35-45.72-22.94-50.48Z"/>
      <path class="cls-22" d="m1078.69,1273.09c-3.25,12.69-14.19,20.88-24.41,18.27h-.03s-70.27-18.01-70.27-18.01c-8.93,9.78-21.19,14.63-32.93,11.62l-16.99-4.35c2.95.75,5.91,1.02,8.85.83,3.25-.21,6.5-.95,9.6-2.2,11.84-4.71,21.99-16.46,25.93-31.85s.7-30.6-7.42-40.42c-2.12-2.58-4.61-4.79-7.36-6.54-2.49-1.57-5.21-2.77-8.16-3.52l16.99,4.35c11.74,3.01,20.13,13.15,23.26,26.02l70.3,18.01h.03c10.21,2.62,15.87,15.06,12.61,27.79Z"/>
    </g>
  </g>
  <g>
    <path class="cls-22" d="m781.4,737.41c-3.43.95-5.69,4.92-4.77,8.35,2.11.86,4.76.96,6.45-.57,1.68-1.53.53-7.23-1.67-7.78"/>
    <path class="cls-22" d="m797.65,745.69c.96-1.42,2.78-2,4.49-2.13.53-.04,1.13-.03,1.52.33.38.34.46.9.52,1.41.15,1.32.27,2.8-.55,3.86-.96,1.25-2.78,1.36-4.35,1.28-.19,0-.39-.02-.55-.13-.19-.13-.29-.36-.36-.58-.43-1.27-.57-2.63-.4-3.95"/>
    <path class="cls-22" d="m787.94,756.57c.69-.06,1.39,0,2.06.15.56.13,1.13.36,1.53.78.73.77.71,1.95.65,3.01-.03.57-.07,1.17-.39,1.64-.58.84-1.77.92-2.79.92-.31,0-.65-.01-.9-.21-.18-.15-.27-.38-.35-.6-.7-2.04-.59-4.35.3-6.32"/>
    <path class="cls-22" d="m775.14,757.24c.83-.21,1.78.3,2.06,1.11s-.14,1.8-.92,2.15-1.8.02-2.22-.72c-.28-.49-.3-1.08-.3-1.65,0-.36.01-.74.22-1.03s.69-.4.92-.13"/>
  </g>
  <g>
    <path class="cls-22" d="m961.87,705.95c-3.43.95-5.69,4.92-4.77,8.35,2.11.86,4.76.96,6.45-.57,1.68-1.53.53-7.23-1.67-7.78"/>
    <path class="cls-22" d="m978.12,714.22c.96-1.42,2.78-2,4.49-2.13.53-.04,1.13-.03,1.52.33.38.34.46.9.52,1.41.15,1.32.27,2.8-.55,3.86-.96,1.25-2.78,1.36-4.35,1.28-.19,0-.39-.02-.55-.13-.19-.13-.29-.36-.36-.58-.43-1.27-.57-2.63-.4-3.95"/>
    <path class="cls-22" d="m968.41,725.11c.69-.06,1.39,0,2.06.15.56.13,1.13.36,1.53.78.73.77.71,1.95.65,3.01-.03.57-.07,1.17-.39,1.64-.58.84-1.77.92-2.79.92-.31,0-.65-.01-.9-.21-.18-.15-.27-.38-.35-.6-.7-2.04-.59-4.35.3-6.32"/>
    <path class="cls-22" d="m955.61,725.77c.83-.21,1.78.3,2.06,1.11.28.81-.14,1.8-.92,2.15s-1.8.02-2.22-.72c-.28-.49-.3-1.08-.3-1.65,0-.36.01-.74.22-1.03s.69-.4.92-.13"/>
  </g>
  <path class="cls-9" d="m854.93,755.28c1,3.07-2.84,5.45-5.12,3.17-6.92-6.94-14.58-18.44-10.79-33.22,4.39-17.13,16.14-13.13,23.15-8.88,2.14,1.3,1.91,4.46-.38,5.48-6.23,2.78-14.26,10.73-6.85,33.45Z"/>
</svg>