<?xml version="1.0" encoding="UTF-8"?>
<svg id="Capa_1" data-name="Capa 1" xmlns="http://www.w3.org/2000/svg" xmlns:xlink="http://www.w3.org/1999/xlink" viewBox="0 0 1600 1600">
  <defs>
    <style>
      .cls-1 {
        clip-path: url(#clippath);
      }

      .cls-2, .cls-3 {
        fill: #02af4c;
      }

      .cls-4, .cls-5 {
        fill: #fff;
      }

      .cls-6, .cls-7 {
        fill: #ffe706;
      }

      .cls-8, .cls-9 {
        fill: #fe299e;
      }

      .cls-10, .cls-11 {
        fill: #9b26c6;
      }

      .cls-12, .cls-13 {
        fill: #934a19;
      }

      .cls-14, .cls-15 {
        fill: #1b3cc0;
      }

      .cls-16, .cls-17 {
        fill: #4b2910;
      }

      .cls-18 {
        stroke-dasharray: 0 0 35.46 35.46;
      }

      .cls-18, .cls-19, .cls-20, .cls-21, .cls-22, .cls-23, .cls-24, .cls-25, .cls-26, .cls-27 {
        fill: none;
        stroke-miterlimit: 10;
      }

      .cls-18, .cls-20, .cls-21, .cls-22, .cls-23, .cls-24, .cls-25, .cls-26, .cls-27 {
        stroke-linecap: round;
      }

      .cls-18, .cls-20, .cls-21, .cls-23, .cls-24, .cls-25, .cls-26 {
        stroke: #824014;
        stroke-width: 9.71px;
      }

      .cls-19 {
        stroke: #7d9907;
        stroke-width: 6.47px;
      }

      .cls-20 {
        stroke-dasharray: 0 0 41.35 41.35;
      }

      .cls-21 {
        stroke-dasharray: 0 0 33.97 33.97;
      }

      .cls-28 {
        clip-path: url(#clippath-1);
      }

      .cls-29 {
        clip-path: url(#clippath-4);
      }

      .cls-30 {
        clip-path: url(#clippath-3);
      }

      .cls-31 {
        clip-path: url(#clippath-2);
      }

      .cls-32 {
        clip-path: url(#clippath-7);
      }

      .cls-33 {
        clip-path: url(#clippath-8);
      }

      .cls-34 {
        clip-path: url(#clippath-6);
      }

      .cls-35 {
        clip-path: url(#clippath-5);
      }

      .cls-36 {
        clip-path: url(#clippath-9);
      }

      .cls-37, .cls-38 {
        opacity: .15;
      }

      .cls-37, .cls-39, .cls-40, .cls-17, .cls-41, .cls-42, .cls-15, .cls-43, .cls-44, .cls-45, .cls-11, .cls-13, .cls-46, .cls-5, .cls-47, .cls-7, .cls-9, .cls-48, .cls-49, .cls-3 {
        stroke-width: 0px;
      }

      .cls-37, .cls-43 {
        fill: #1d1d1b;
      }

      .cls-50 {
        clip-path: url(#clippath-13);
      }

      .cls-51 {
        clip-path: url(#clippath-12);
      }

      .cls-52 {
        clip-path: url(#clippath-10);
      }

      .cls-53 {
        clip-path: url(#clippath-11);
      }

      .cls-22 {
        stroke-width: 4.82px;
      }

      .cls-22, .cls-27 {
        stroke: #4b2910;
      }

      .cls-23 {
        stroke-dasharray: 0 0 33.74 33.74;
      }

      .cls-25 {
        stroke-dasharray: 0 0 32.45 32.45;
      }

      .cls-26 {
        stroke-dasharray: 0 0 33.9 33.9;
      }

      .cls-27 {
        stroke-width: 10.33px;
      }

      .cls-40 {
        fill: #fc4e0e;
      }

      .cls-41 {
        fill: #5e0096;
      }

      .cls-42 {
        fill: #94c108;
      }

      .cls-44 {
        fill: #1bd7f3;
      }

      .cls-45 {
        fill: #bdef25;
      }

      .cls-46 {
        fill: #7d9907;
      }

      .cls-47 {
        fill: #fff5a9;
      }

      .cls-48 {
        fill: #e6e6e6;
      }

      .cls-49 {
        fill: #00d461;
      }
    </style>
    <clipPath id="clippath">
      <path class="cls-9" d="m669,1092s-63.14,64.94-11.93,124.93c0,0,58.38,23.82,112.54-42.73,54.17-66.55,40.91-130.08,40.91-130.08l-10.75-7.89-24.96-1.12-105.81,56.89Z"/>
    </clipPath>
    <clipPath id="clippath-1">
      <path class="cls-15" d="m956.25,1148.98s53.1,73.37-6.22,125.35c0,0-61.2,15.15-105.2-58.52-43.99-73.67-21.71-134.62-21.71-134.62l11.78-6.26,24.86,2.49,96.49,71.57Z"/>
    </clipPath>
    <clipPath id="clippath-2">
      <path class="cls-13" d="m614.7,847.57c60.47,11.67,183,15.48,187.23-160.01,4.24-175.5-133.07-217.2-183.72-214.63-50.65,2.57-167.18,67.68-153.17,190.75,14.01,123.07,70.02,168.52,149.65,183.89Z"/>
    </clipPath>
    <clipPath id="clippath-3">
      <path class="cls-3" d="m1018.7,507.28c19.05,68.71,44.85,177.04-171.36,231.2,0,0,13.94-27.79,10.85-90.53-3.09-62.74,35.23-135.97,115.2-164.09,12.07-4.24,34.71-14.81,45.31,23.43Z"/>
    </clipPath>
    <clipPath id="clippath-4">
      <path class="cls-7" d="m829.39,665.33s-88.17,27.63-74.73,107.66c14,83.37,99.88,88.21,135.46,79.32,35.59-8.9,64.31-27.56,64.31-27.56,0,0,16.98,19.41,38.82,18.6,21.84-.81,12.13-25.07,12.13-25.07,0,0,24.26,2.43,18.6-21.03,0,0,17.72-1.62,5.63-26.69-12.1-25.07-53.58-47.79-106.95-19.53-55.3,29.28-71.8,39.85-104.96,19.63-33.16-20.22-14.03-67.69,22.37-79.01"/>
    </clipPath>
    <clipPath id="clippath-5">
      <path class="cls-7" d="m829.39,665.33s-88.17,27.63-74.73,107.66c14,83.37,99.88,88.21,135.46,79.32,35.59-8.9,64.31-27.56,64.31-27.56,0,0,16.98,19.41,38.82,18.6,21.84-.81,12.13-25.07,12.13-25.07,0,0,24.26,2.43,18.6-21.03,0,0,17.72-1.62,5.63-26.69-12.1-25.07-53.58-47.79-106.95-19.53-55.3,29.28-71.8,39.85-104.96,19.63-33.16-20.22-14.03-67.69,22.37-79.01"/>
    </clipPath>
    <clipPath id="clippath-6">
      <path class="cls-7" d="m1135.35,741.07s84.92-1.64,153.05-27.33c43.69-16.48,99.04-54.69,105.81-111.11,3.83-31.95-3.95-65.24-30.49-84.05-16.73-11.86-26.48.51-23.1,7.99,0,0-21.05-8.89-21.64,11.82,0,0-22.47-1.87-15.75,21.3,4.81,16.6,15.47,23.74,15.47,23.74,0,0,7.31,102.47-170.89,133.8"/>
    </clipPath>
    <clipPath id="clippath-7">
      <path class="cls-17" d="m243.67,710.71l150.88-99.15c.55-.36,1.14-.72,1.71-1.03,3.54-1.93,7.55-2.96,11.57-2.96h0c8.87,0,17.03,4.84,21.27,12.63,6.39,11.72,2.05,26.46-9.67,32.85l-158.52,86.42c-2.47,1.34-5.24,2.04-8.02,2.04-5.68,0-10.93-2.83-14.04-7.56-5.08-7.73-2.92-18.16,4.81-23.25Z"/>
    </clipPath>
    <clipPath id="clippath-8">
      <path class="cls-11" d="m387.09,598.92c-19.96,10.73-27.45,35.6-16.73,55.56,10.72,19.96,35.6,27.45,55.56,16.73,19.96-10.72,27.45-35.6,16.72-55.56-10.72-19.96-35.6-27.45-55.56-16.73Z"/>
    </clipPath>
    <clipPath id="clippath-9">
      <path class="cls-13" d="m256.43,702.32s-11.84-45.73,39.43-78.95c39.96-25.89,69.61.31,72.17,14.21,3.08,16.78-5.16,26.85-20.15,23.28,0,0-2.04,23.6-28.57,17.11,0,0-5.41,15.49-20.08,14.16-11.1-1.01-16.29-7.55-16.29-7.55l-26.5,17.73Z"/>
    </clipPath>
    <clipPath id="clippath-10">
      <path class="cls-5" d="m637.53,695.7c27.67-6.64,47.68-26.41,56.74-40.76,5.99-9.48,3.15-22.02-6.33-28-9.44-5.96-21.92-3.18-27.94,6.22-2.51,3.83-24.99,35.97-63.03,19.31-10.28-4.5-22.25.18-26.74,10.45-4.5,10.27.18,22.24,10.45,26.74,21.19,9.28,40.38,9.99,56.85,6.04Z"/>
    </clipPath>
    <clipPath id="clippath-11">
      <path class="cls-17" d="m482.44,576.94s1.03-7.42,5.96-8.57c95.77-22.38,153.49-7.42,170.82-2.12,4.05,1.24,4.01,8.65,4.01,8.65.02.36,3.12,58.6-48.22,54.51-42.38-3.37-38.72-45.02-36.09-59.68-9.86.12-20.52.71-31.94,1.92,2.19,14.56,5.33,56.41-29.97,59.8-42.79,4.1-34.58-54.49-34.58-54.49h0Z"/>
    </clipPath>
    <clipPath id="clippath-12">
      <path class="cls-9" d="m475.1,1020.72s-82.08,38.3-55.5,112.56c0,0,46.12,42.99,120.38,0,74.26-42.99,84.42-107.09,84.42-107.09l-7.25-11.2-22.94-9.91-119.12,15.63Z"/>
    </clipPath>
    <clipPath id="clippath-13">
      <path class="cls-15" d="m1249.26,1054.84s75.13,50.58,37.34,119.81c0,0-52.24,35.31-118.92-18.7-66.68-54-66.77-118.9-66.77-118.9l8.9-9.93,24.2-6.23,115.24,33.94Z"/>
    </clipPath>
  </defs>
  <g>
    <path class="cls-42" d="m463.54,1144.46c3.52,10.31,17.87,11.48,22.85,1.79,5.26-10.24,13.99-22.38,28.45-35.04,38.83-34.02,33.43-70.52,19.87-83.02-13.3-12.26-54.12-16.08-72.84,40.59-9.54,28.88-5.04,56.01,1.67,75.68Z"/>
    <path class="cls-42" d="m440.37,1258.47c14.12,8.39,5.81,30.19-10.31,27.04-49.94-9.77-117.19-30.1-184.27-72.37-132.11-83.25-125.82-171.7-67.29-181.06,34.22-5.47,98.14,27.17,134.77,105.99,23.51,50.59,80.41,92.67,127.11,120.41Z"/>
    <path class="cls-45" d="m748.09,1355.3c-356.7-47.55-609.35-386.64-510.66-661.54,53.76-149.72,238.34-119.38,188.21,126.7-34.19,167.86,42.35,398.18,327.41,500.62,45.47,16.34,14.22,36.78-4.96,34.22Z"/>
    <path class="cls-46" d="m876.1,370.7c-8.74,1.04-13.48-9.94-6.74-15.61,43.28-36.39,153-104.44,323.3-48.4,224.98,74.04,218.82,223.09,146.37,251.83-50.33,19.96-133.86-9.11-201.54-96.84-77.15-99.99-205.32-97.64-261.38-90.99Z"/>
    <path class="cls-45" d="m1228.48,286.33c-9.16-.87-10.17-13.9-1.25-16.16,27.64-7,66.56-12.8,110.66-7.44,86.84,10.55,104.82,56.86,77.42,75.61-16.02,10.96-56.22,9.73-93.63-21.43-24.01-20-62.91-27.7-93.2-30.57Z"/>
    <path class="cls-46" d="m181.87,691.03c-2.27,11.86-19.43,11.56-21.28-.37-5.73-36.98-8.47-88.57,3.99-145.53,24.55-112.17,87.3-129.93,108.4-91.79,12.34,22.3,5.74,74.67-39.62,119.7-29.11,28.9-43.99,78.77-51.5,118Z"/>
    <path class="cls-42" d="m1102.15,486.08c-11.84-5.54-24.8,5.9-20.57,18.27,4.48,13.08,7.71,30.72,6.63,53.77-2.9,61.89,33.16,87.6,55.25,86.27,21.66-1.3,58.94-33.41,25.52-96.77-17.03-32.28-44.24-50.97-66.83-61.54Z"/>
  </g>
  <g>
    <path class="cls-19" d="m241.04,726.58c-107.35,37.62-128.85,199.03-107.03,261.7,37.5,107.72,144.45,179.6,214.94,144.39,20.12-10.05,39.81-26.72,39.67-49.21-.13-21.61-16.95-39.83-35.76-50.45-18.82-10.63-40.19-15.91-59.49-25.63-44.8-22.58-76.38-79.13-54.51-124.29,18.56-38.32,69.03-53.24,109.98-41.55,40.95,11.68,72.96,44.05,96.57,79.49,16.06,24.1,13.02,157.64,114.99,206.21,60.68,28.9,214.16,1.52,270.56-66.22,77.01-92.5-64.3-175.39,140.96-238.88,67.4-20.85,242.49-65.48,331.76,24.04,66.58,66.77,64.83,168.49-28.34,163.67-39.58-2.05-76.72-84.24-165.53-84.24-203.85,0-143.51,146.25-136.08,165.09,37.57,95.29,199.53,35.09,171.14,145.02-27.27,105.59-220.18-.88-214.26-19.59"/>
    <g>
      <g>
        <g>
          <path class="cls-8" d="m669,1092s-63.14,64.94-11.93,124.93c0,0,58.38,23.82,112.54-42.73,54.17-66.55,40.91-130.08,40.91-130.08l-10.75-7.89-24.96-1.12-105.81,56.89Z"/>
          <g class="cls-1">
            <path class="cls-5" d="m622.18,1172.66s50.52-73.27,126.26-1.4c75.75,71.87-56.19,78.42-56.19,78.42,0,0-68.88-2.23-70.08-77.02Z"/>
            <g>
              <path class="cls-5" d="m638.66,1233.32l-12.68-54.38,18.5,12.31c1.43.72,14.62,7.03,33.1,7.03,22.38,0,43.19-8.87,61.85-26.36,47.8-44.79,63.66-141.14,63.82-142.11l1.22-7.61,29.92,37.67-3.69,133.14-138.28,66.18-53.75-25.88Z"/>
              <path class="cls-9" d="m806.61,1030.35l24.36,30.67-3.6,129.84-134.94,64.58-50.82-24.46-10.36-44.46,11.53,7.67s14.15,7.49,34.82,7.49c18.1,0,41.19-5.74,64.17-27.28,49.24-46.13,64.85-144.05,64.85-144.05m-4.28-16.3l-2.43,15.23c-.17,1.06-15.87,96.21-62.79,140.17-18.02,16.88-38.05,25.44-59.53,25.44-17.32,0-29.51-5.65-31.39-6.58l-11.2-7.45-14.26-9.49,3.89,16.68,10.36,44.46.74,3.17,2.93,1.41,50.82,24.46,2.94,1.41,2.94-1.41,134.94-64.58,3.74-1.79.11-4.14,3.6-129.84.07-2.47-1.54-1.94-24.36-30.67-9.59-12.08h0Z"/>
            </g>
            <path class="cls-5" d="m708.16,1135.71c-.9.34-1.94.3-2.86-.21-23.12-12.86-43.93-.37-44.81.17-1.6.98-3.68.49-4.67-1.1-.98-1.59-.5-3.68,1.09-4.67,1.01-.63,24.99-15.17,51.68-.33,1.64.91,2.23,2.98,1.32,4.62-.4.73-1.04,1.25-1.76,1.52Z"/>
            <path class="cls-5" d="m713.35,1120.75c-.9.34-1.94.3-2.86-.21-23.12-12.86-43.93-.37-44.81.17-1.59.98-3.68.49-4.67-1.1-.98-1.59-.5-3.68,1.09-4.67,1.01-.63,24.99-15.17,51.68-.33,1.64.91,2.23,2.98,1.32,4.62-.4.73-1.04,1.25-1.76,1.52Z"/>
          </g>
        </g>
        <path class="cls-13" d="m718.23,831.37s-16.61,126.01,54.22,183.62l27.32,21.23s-32.56,91.86-135.1,60.72c0,0-88.77-118.83-12.95-265.77"/>
        <path class="cls-5" d="m629.9,1019.67c-1.33-5.05-2.59-10.29-3.69-15.76,25.38,3.17,73,3.46,114.53-28.06,2.56,4.82,5.44,9.52,8.58,14.05-43.41,34.57-94.2,33.24-119.41,29.78Z"/>
        <path class="cls-5" d="m635.46,1037.83c-1.36-3.85-2.62-7.87-3.85-12.04,24.76,3.66,77.33,5.79,121.84-30.3,2.65,3.46,5.54,6.8,8.64,9.97-46.26,39.52-102.19,36.29-126.63,32.37Z"/>
        <path class="cls-5" d="m799.78,1036.21s-32.56,91.87-135.11,60.73c0,0-14.7-19.68-27-52.89,24.15,4.01,82.16,7.96,129.38-33.73,1.75,1.62,3.53,3.17,5.41,4.69l27.32,21.2Z"/>
        <path class="cls-44" d="m753.45,995.49c-44.51,36.09-97.08,33.96-121.84,30.3-.58-2.01-1.17-4.05-1.72-6.12,25.22,3.46,76.01,4.79,119.41-29.78,1.33,1.91,2.69,3.75,4.14,5.6Z"/>
        <path class="cls-44" d="m767.05,1010.32c-47.23,41.69-105.24,37.74-129.38,33.73v-.03c-.78-2.01-1.49-4.08-2.2-6.18,24.44,3.92,80.38,7.15,126.63-32.37,1.59,1.68,3.24,3.3,4.95,4.86Z"/>
        <path class="cls-48" d="m744.01,997.28c-1.4.12-2.73-.75-3.14-2.15-.05-.16-2.38-7.73-7.8-10.89-1.43-.83-1.92-2.67-1.08-4.11.83-1.44,2.67-1.92,4.11-1.08,7.54,4.4,10.42,13.98,10.54,14.38.47,1.59-.45,3.26-2.04,3.72-.2.06-.39.09-.59.11Z"/>
        <path class="cls-48" d="m730.73,1003.08c-1.4.12-2.73-.75-3.14-2.15-.05-.16-2.38-7.73-7.8-10.89-1.43-.83-1.92-2.67-1.08-4.11.83-1.43,2.67-1.92,4.11-1.08,7.54,4.4,10.42,13.98,10.54,14.39.47,1.59-.45,3.26-2.04,3.72-.2.06-.39.09-.59.11Z"/>
        <path class="cls-48" d="m717.46,1008.87c-1.4.12-2.73-.75-3.14-2.15-.05-.16-2.38-7.73-7.8-10.89-1.43-.83-1.92-2.67-1.08-4.11.83-1.44,2.67-1.92,4.11-1.08,7.54,4.4,10.42,13.98,10.54,14.39.47,1.59-.45,3.26-2.04,3.72-.2.06-.39.09-.59.11Z"/>
        <path class="cls-48" d="m704.18,1014.66c-1.4.12-2.73-.75-3.14-2.15-.05-.15-2.37-7.72-7.8-10.88-1.43-.83-1.92-2.67-1.08-4.11.83-1.43,2.67-1.92,4.1-1.08,7.55,4.4,10.42,13.98,10.54,14.38.46,1.59-.45,3.26-2.04,3.73-.19.06-.39.09-.58.11Z"/>
      </g>
      <g>
        <g>
          <path class="cls-14" d="m956.25,1148.98s53.1,73.37-6.22,125.35c0,0-61.2,15.15-105.2-58.52-43.99-73.67-21.71-134.62-21.71-134.62l11.78-6.26,24.86,2.49,96.49,71.57Z"/>
          <g class="cls-28">
            <path class="cls-5" d="m990.93,1235.56s-39.41-79.79-124.74-19.61c-85.33,60.18,44.28,85.71,44.28,85.71,0,0,68.48,7.73,80.46-66.1Z"/>
            <g>
              <path class="cls-5" d="m781.66,1225.61l15.56-132.28,35.04-32.96.1,7.71c.01.98,1.8,98.61,42.64,149.84,23.64,29.65,50.78,35.88,69.39,35.88,12.09,0,20.6-2.66,21.79-3.05l20.08-9.51-20.39,51.98-56.93,17.84-127.28-85.45Z"/>
              <path class="cls-15" d="m828.98,1068.12s1.32,99.15,43.38,151.91c24.51,30.74,52.74,37.15,72.04,37.15,13.82,0,23.06-3.29,23.06-3.29l12.52-5.93-16.67,42.49-53.82,16.87-124.21-83.38,15.18-129,28.53-26.83m6.58-15.5l-11.23,10.56-28.53,26.83-1.8,1.69-.29,2.46-15.18,129-.48,4.12,3.44,2.31,124.21,83.38,2.71,1.82,3.11-.97,53.82-16.87,3.1-.97,1.19-3.03,16.67-42.49,6.26-15.94-15.48,7.33-12.14,5.75c-1.5.48-9.41,2.81-20.53,2.81-17.86,0-43.94-6-66.73-34.6-40.1-50.3-41.88-146.8-41.9-147.77l-.21-15.41h0Z"/>
            </g>
            <path class="cls-5" d="m911.18,1186.58c.84.47,1.88.58,2.86.21,24.74-9.38,43.52,5.98,44.31,6.63,1.44,1.2,3.57,1.01,4.78-.42,1.2-1.43,1.02-3.57-.41-4.77-.91-.77-22.54-18.62-51.09-7.79-1.75.66-2.64,2.62-1.97,4.38.3.78.85,1.39,1.52,1.76Z"/>
            <path class="cls-5" d="m908.21,1171.03c.84.47,1.88.58,2.86.21,24.74-9.38,43.52,5.98,44.31,6.63,1.43,1.2,3.58,1.01,4.78-.42,1.2-1.43,1.02-3.57-.41-4.77-.91-.77-22.54-18.62-51.09-7.78-1.75.66-2.64,2.62-1.97,4.38.3.78.85,1.39,1.52,1.76Z"/>
          </g>
        </g>
        <path class="cls-7" d="m945.15,883.98s-1.75,127.08-80.15,173.88l-30.1,17.06s18.96,95.6,124.92,79.58c0,0,104.99-104.77,51.17-261.11"/>
        <path class="cls-5" d="m1005.38,1083.06c2.04-4.81,4.05-9.81,5.93-15.07-25.57-.52-72.73-7.11-109.28-44.3-3.23,4.4-6.75,8.63-10.52,12.66,37.96,40.47,88.41,46.49,113.87,46.7Z"/>
        <path class="cls-5" d="m997.25,1100.23c1.9-3.62,3.73-7.41,5.55-11.36-25.03.05-77.36-5.43-116.19-47.57-3.13,3.04-6.46,5.93-9.99,8.62,40.07,45.79,95.89,50.66,120.63,50.31Z"/>
        <path class="cls-5" d="m834.89,1074.91s18.96,95.61,124.93,79.59c0,0,17.38-17.35,34.35-48.44-24.47.49-82.45-3.98-123.16-52.05-1.96,1.35-3.95,2.63-6.03,3.86l-30.1,17.04Z"/>
        <path class="cls-40" d="m886.6,1041.3c38.83,42.14,91.16,47.61,116.19,47.57.87-1.9,1.74-3.84,2.58-5.81-25.45-.21-75.9-6.23-113.87-46.7-1.59,1.7-3.2,3.33-4.91,4.94Z"/>
        <path class="cls-40" d="m871.01,1054.01c40.72,48.07,98.69,52.54,123.16,52.05v-.03c1.06-1.87,2.07-3.82,3.07-5.8-24.75.35-80.57-4.52-120.63-50.31-1.81,1.44-3.68,2.8-5.6,4.09Z"/>
        <path class="cls-48" d="m895.7,1044.44c1.37.32,2.81-.35,3.42-1.67.07-.15,3.47-7.3,9.29-9.65,1.54-.62,2.28-2.37,1.66-3.91-.62-1.54-2.37-2.28-3.91-1.66-8.1,3.26-12.33,12.33-12.5,12.71-.69,1.51-.03,3.29,1.48,3.98.19.09.37.15.56.19Z"/>
        <path class="cls-48" d="m907.99,1052.09c1.37.32,2.81-.35,3.42-1.67.07-.15,3.47-7.3,9.29-9.65,1.54-.62,2.28-2.37,1.66-3.91-.62-1.54-2.37-2.28-3.91-1.66-8.1,3.26-12.33,12.33-12.5,12.71-.69,1.51-.03,3.29,1.48,3.98.19.09.37.15.56.19Z"/>
        <path class="cls-48" d="m920.29,1059.73c1.37.32,2.81-.35,3.42-1.67.07-.15,3.47-7.3,9.29-9.65,1.54-.62,2.28-2.37,1.66-3.91-.62-1.54-2.37-2.28-3.91-1.66-8.1,3.26-12.33,12.33-12.5,12.71-.69,1.51-.03,3.29,1.48,3.98.19.09.37.15.56.19Z"/>
        <path class="cls-48" d="m932.59,1067.38c1.37.32,2.81-.35,3.42-1.67.07-.14,3.46-7.3,9.28-9.64,1.54-.62,2.28-2.37,1.67-3.91-.62-1.54-2.36-2.28-3.91-1.66-8.11,3.26-12.33,12.33-12.5,12.71-.69,1.51-.02,3.29,1.48,3.98.18.08.37.15.56.19Z"/>
      </g>
      <path class="cls-7" d="m919.8,891.16s173.45,61.45,221.05-110.61c47.59-172.05-75.09-247.84-124.8-258.08-49.71-10.24-178.74,24.58-195.66,149.52-16.92,124.94,51.82,196.63,51.82,196.63,0,0-7.4,57.35,47.59,22.53Z"/>
      <g>
        <path class="cls-12" d="m614.7,847.57c60.47,11.67,183,15.48,187.23-160.01,4.24-175.5-133.07-217.2-183.72-214.63-50.65,2.57-167.18,67.68-153.17,190.75,14.01,123.07,70.02,168.52,149.65,183.89Z"/>
        <g class="cls-31">
          <g>
            <path class="cls-24" d="m696.95,487.4s2.98,6.52,7.26,18.01"/>
            <path class="cls-20" d="m716.93,544.74c15.6,56.02,29.81,144.2-1.94,223.52"/>
            <path class="cls-24" d="m706.46,787.1c-2.9,5.71-6.06,11.36-9.52,16.93"/>
          </g>
          <g>
            <path class="cls-24" d="m762.1,469.05s2.98,6.52,7.26,18.01"/>
            <path class="cls-20" d="m782.08,526.4c15.6,56.02,29.81,144.2-1.94,223.52"/>
            <path class="cls-24" d="m771.61,768.76c-2.9,5.71-6.06,11.36-9.52,16.93"/>
          </g>
          <g>
            <path class="cls-24" d="m720.64,504.25s4.11,4.32,9.93,12.77"/>
            <path class="cls-23" d="m747.16,546.34c21.44,46.32,40.33,129.77-11.85,244.9"/>
            <path class="cls-24" d="m728.07,806.5c-2.35,4.74-4.83,9.54-7.43,14.38"/>
          </g>
          <g>
            <path class="cls-24" d="m655.76,473.32s2.92,4.95,6.94,14.61"/>
            <path class="cls-25" d="m673.14,518.63c12.89,46.76,23.39,128.61-7.86,240.34"/>
            <path class="cls-24" d="m660.7,774.54c-1.56,5.08-3.21,10.22-4.94,15.42"/>
          </g>
          <g>
            <path class="cls-24" d="m624.4,446.32s.95,5.56,2.13,16.04"/>
            <path class="cls-26" d="m629.36,496.13c3.11,52.19,3.15,141.97-18.24,252.94"/>
            <path class="cls-24" d="m607.79,765.7c-1.09,5.23-2.23,10.51-3.41,15.82"/>
          </g>
          <g>
            <path class="cls-24" d="m580.69,439.99s-1.83,5.35-4.56,15.53"/>
            <path class="cls-21" d="m568.43,488.59c-10.37,51.17-21.98,140.04-11.4,253.62"/>
            <path class="cls-24" d="m558.75,759.11c.59,5.31,1.22,10.67,1.91,16.07"/>
          </g>
          <g>
            <path class="cls-24" d="m549.27,475.55s-3.51,4.74-8.77,13.59"/>
            <path class="cls-18" d="m524.23,520.62c-23.76,52.84-50.14,147.5-8.32,258.93"/>
            <path class="cls-24" d="m522.53,796.01c2.1,4.88,4.34,9.79,6.71,14.73"/>
          </g>
          <g>
            <path class="cls-9" d="m719.64,696.59c4.51-1.98,2.45-4.56,8.7-4.31,9.39.37,17.62-4.31,16.18-4.47-9.1-1-20.65-12.78-28.11-5.48-2.31,2.27-2.52,2.46-5.88,2.58-8.63.31-9.79,17.74-15.01,24.39-.89,1.13,8.56-1.89,15.17-9.27,3.91-4.37,4.45-1.45,8.96-3.43Z"/>
            <path class="cls-9" d="m721.69,702.17c1.28-.56,4.33-2.52,6.18-4.08,2.19-1.84,5.74-3.39,8.8-4.73,3.07-1.35,6.73-3.14,8.15-4.9.86-1.07-2.07,17.94-18.18,25.01-16.11,7.06-32.04-3.64-30.88-3.54,1.42.13,6.89-.9,9.58-2.45,2.9-1.67,6.39-3.19,9.22-3.55,2.4-.3,5.85-1.19,7.12-1.75Z"/>
          </g>
        </g>
      </g>
      <g>
        <path class="cls-2" d="m1018.7,507.28c19.05,68.71,44.85,177.04-171.36,231.2,0,0,13.94-27.79,10.85-90.53-3.09-62.74,35.23-135.97,115.2-164.09,12.07-4.24,34.71-14.81,45.31,23.43Z"/>
        <g class="cls-30">
          <path class="cls-49" d="m1000.13,468.96s-20.86,164.25-152.8,269.51c-131.94,105.26,38.62-237.08,38.62-237.08l114.18-32.44Z"/>
          <path class="cls-3" d="m918.18,654.28c-19.49,0-44.62-2.98-75.08-12.57l5.83-18.53c71.02,22.36,109.54,5.57,109.92,5.4l8.18,17.62c-1.1.52-17.83,8.08-48.85,8.08Z"/>
          <path class="cls-3" d="m906.84,696.6c-19.49,0-44.62-2.98-75.09-12.57l5.83-18.53c71.02,22.36,109.54,5.58,109.92,5.4l8.18,17.62c-1.1.52-17.82,8.08-48.85,8.08Z"/>
          <path class="cls-3" d="m929.54,611.85c-19.49,0-44.62-2.98-75.08-12.57l5.83-18.53c71.03,22.35,109.54,5.57,109.92,5.4l8.18,17.62c-1.11.52-17.83,8.08-48.85,8.08Z"/>
          <path class="cls-3" d="m952.87,567.98c-19.49,0-44.62-2.98-75.09-12.57l5.83-18.53c71.03,22.36,109.54,5.58,109.92,5.4l8.18,17.62c-1.1.52-17.82,8.08-48.84,8.08Z"/>
        </g>
      </g>
      <path class="cls-27" d="m1073.61,612.03s-6.47,29.43-46.43,22.46"/>
      <g>
        <g>
          <path class="cls-17" d="m1080.83,742.63l.28-85.15c1.11-13-15.32-19.54-23.44-9.33l-54.08,67.98c-12.17,15.29-35.67,17.12-54.86,20.83l-40.81,7.88c-29.19,5.64-42.61,39.71-25.11,63.73l75.55,103.74c17.33,23.8,53.45,21.8,68.05-3.78l19.74-34.59c10.24-17.94,20.61-39.97,40.32-46.17l130.6-46.88c12.99-4.08,10.91-23.08-2.66-24.25l-133.58-14.03Z"/>
          <path class="cls-5" d="m1453.72,451.4c-1.56,1.14-3.74.79-4.88-.77-1.13-1.56-.79-3.74.77-4.88,1.56-1.13,3.74-.79,4.88.77,1.13,1.56.79,3.74-.77,4.88Z"/>
          <path class="cls-5" d="m1439.7,455.34c-1.56,1.13-3.74.79-4.88-.77-1.13-1.56-.79-3.74.77-4.88,1.56-1.13,3.74-.79,4.88.77,1.13,1.56.79,3.74-.77,4.88Z"/>
          <path class="cls-5" d="m1425.86,459.09c-1.56,1.13-3.74.79-4.88-.77-1.13-1.56-.79-3.74.77-4.88,1.56-1.13,3.74-.79,4.88.77,1.13,1.56.79,3.74-.77,4.88Z"/>
          <rect class="cls-5" x="1452.28" y="450.49" width="2.49" height="9.19" transform="translate(-64.15 326.64) rotate(-12.55)"/>
          <rect class="cls-5" x="1437.49" y="454.34" width="2.49" height="9.19" transform="translate(-65.34 323.52) rotate(-12.55)"/>
          <rect class="cls-5" x="1423.64" y="456.81" width="2.49" height="9.19" transform="translate(-66.18 320.25) rotate(-12.54)"/>
          <path class="cls-44" d="m1414.51,511.1l-12.66-17.39-369.12,257.98c-5.48,3.74-6.79,11.27-2.88,16.64l10.93,15.01c3.91,5.36,11.48,6.44,16.72,2.37l357.01-274.6Z"/>
          <path class="cls-17" d="m1401.85,493.71l5.76-15.35c2.55-6.79,8.36-11.84,15.44-13.41l39.56-8.79c3.45-1.21,7.29-.02,9.45,2.94h0c2.7,3.71,1.88,8.9-1.83,11.59l-55.72,40.41-12.66-17.39Z"/>
          <path class="cls-5" d="m1457.54,468.3c-1.56,1.13-3.74.79-4.88-.77-1.14-1.56-.79-3.74.77-4.88,1.56-1.14,3.74-.79,4.88.77,1.14,1.56.79,3.74-.77,4.88Z"/>
          <path class="cls-5" d="m1444.26,472.08c-1.56,1.13-3.74.79-4.88-.77-1.13-1.56-.79-3.74.77-4.88,1.56-1.13,3.74-.79,4.88.77,1.13,1.56.79,3.74-.77,4.88Z"/>
          <path class="cls-5" d="m1429.78,475.86c-1.56,1.13-3.74.79-4.88-.77-1.13-1.56-.79-3.74.77-4.88,1.56-1.13,3.74-.79,4.88.77,1.13,1.56.79,3.74-.77,4.88Z"/>
          <path class="cls-44" d="m974.07,859.57l-35.84-49.2c-2.09-2.87-1.46-6.9,1.41-9l13.15-9.58c2.87-2.09,6.9-1.46,9,1.41l35.84,49.21c2.09,2.87,1.46,6.9-1.41,9l-13.15,9.58c-2.87,2.09-6.9,1.46-9-1.41Z"/>
          <path class="cls-5" d="m1017.06,823.18c-2.03.28-4.14-.54-5.43-2.31l-25.05-34.39c-.9-1.24-1.27-2.76-1.03-4.28.24-1.52,1.05-2.85,2.29-3.75l9.19-6.69c1.24-.9,2.76-1.27,4.28-1.03,1.52.24,2.85,1.05,3.75,2.29l25.05,34.39c.9,1.24,1.27,2.76,1.03,4.28-.24,1.52-1.05,2.85-2.29,3.75l-9.19,6.69c-.79.58-1.69.92-2.6,1.05Zm-17.08-50c-.53.07-1.03.27-1.47.6l-9.19,6.69c-.7.51-1.16,1.27-1.3,2.12-.13.86.07,1.72.58,2.42l25.05,34.39c1.06,1.45,3.09,1.77,4.55.71l9.19-6.69c.7-.51,1.16-1.27,1.3-2.12.13-.86-.07-1.72-.58-2.42l-25.05-34.39c-.51-.7-1.27-1.16-2.12-1.3-.32-.05-.64-.05-.95-.01Z"/>
          <path class="cls-5" d="m962.58,817.06c-2.04,1.48-4.89,1.03-6.37-1-1.48-2.04-1.03-4.89,1-6.37,2.04-1.48,4.89-1.03,6.37,1,1.48,2.04,1.03,4.89-1,6.37Z"/>
          <path class="cls-5" d="m970.92,828.51c-2.04,1.48-4.89,1.03-6.37-1-1.48-2.04-1.03-4.89,1-6.37,2.04-1.48,4.89-1.03,6.37,1,1.48,2.04,1.03,4.89-1,6.37Z"/>
          <path class="cls-5" d="m979.26,839.96c-2.04,1.48-4.89,1.03-6.37-1-1.48-2.04-1.03-4.89,1-6.37,2.04-1.48,4.89-1.03,6.37,1,1.48,2.04,1.03,4.89-1,6.37Z"/>
          <g>
            <rect class="cls-5" x="974.99" y="867.93" width="61.81" height="2.49" transform="translate(-201.56 1425.36) rotate(-65.56)"/>
            <path class="cls-44" d="m993.53,900.4c-.56.08-1.15,0-1.71-.25-1.56-.71-2.25-2.56-1.54-4.13l3.91-8.57c.71-1.57,2.57-2.25,4.13-1.54,1.56.71,2.26,2.56,1.54,4.13l-3.91,8.57c-.46,1.01-1.39,1.66-2.42,1.79Z"/>
          </g>
          <path class="cls-44" d="m950.33,765.48c-2.99,2.18-3.65,6.37-1.47,9.36,2.18,2.99,6.37,3.65,9.36,1.47,2.99-2.18,3.65-6.37,1.47-9.36-2.18-2.99-6.37-3.65-9.36-1.47Z"/>
          <path class="cls-44" d="m925.42,769.4c-2.99,2.18-3.65,6.37-1.47,9.36,2.18,2.99,6.37,3.65,9.36,1.47,2.99-2.18,3.65-6.37,1.47-9.36-2.18-2.99-6.37-3.65-9.36-1.47Z"/>
          <rect class="cls-5" x="913.8" y="653.08" width="540.92" height="2.49" transform="translate(-160.24 805.79) rotate(-35.35)"/>
          <rect class="cls-5" x="919.61" y="661.03" width="540.88" height="2.49" transform="translate(-161.35 831.21) rotate(-36.22)"/>
          <rect class="cls-5" x="925.63" y="669.35" width="540.96" height="2.49" transform="translate(-162.53 856.26) rotate(-37.06)"/>
          <path class="cls-5" d="m1414.68,512.33c-.44.06-.9-.12-1.18-.5l-12.66-17.39c-.41-.56-.28-1.34.27-1.74.55-.4,1.33-.28,1.74.27l12.66,17.39c.41.56.28,1.34-.27,1.74-.17.13-.37.2-.56.23Z"/>
        </g>
        <g>
          <path class="cls-6" d="m829.39,665.33s-88.17,27.63-74.73,107.66c14,83.37,99.88,88.21,135.46,79.32,35.59-8.9,64.31-27.56,64.31-27.56,0,0,16.98,19.41,38.82,18.6,21.84-.81,12.13-25.07,12.13-25.07,0,0,24.26,2.43,18.6-21.03,0,0,17.72-1.62,5.63-26.69-12.1-25.07-53.58-47.79-106.95-19.53-55.3,29.28-71.8,39.85-104.96,19.63-33.16-20.22-14.03-67.69,22.37-79.01"/>
          <g class="cls-29">
            <path class="cls-22" d="m1025.65,798.93s-13.49-22.27-35.66-30.82"/>
            <path class="cls-22" d="m1007.82,820.74s-13.49-22.27-35.66-30.82"/>
          </g>
        </g>
        <g>
          <path class="cls-6" d="m829.39,665.33s-88.17,27.63-74.73,107.66c14,83.37,99.88,88.21,135.46,79.32,35.59-8.9,64.31-27.56,64.31-27.56,0,0,16.98,19.41,38.82,18.6,21.84-.81,12.13-25.07,12.13-25.07,0,0,24.26,2.43,18.6-21.03,0,0,17.72-1.62,5.63-26.69-12.1-25.07-53.58-47.79-106.95-19.53-55.3,29.28-71.8,39.85-104.96,19.63-33.16-20.22-14.03-67.69,22.37-79.01"/>
          <g class="cls-35">
            <path class="cls-22" d="m1025.65,798.93s-13.49-22.27-35.66-30.82"/>
            <path class="cls-22" d="m1007.82,820.74s-13.49-22.27-35.66-30.82"/>
            <path class="cls-37" d="m824.75,834.73s-13.62,9.16-24.17,7.78c0,0,.61,4.97,7.2,7.35,2.24.81,1.77,3.85-.64,3.89-5.97.08-13.08-2.44-17.5-12.95,0,0-14.31-2.85-26.22-12.2-1.94-1.52.15-4.33,2.47-3.32,10.07,4.4,24.93,9.6,35.2,7.44,0,0,.97-4.68-11.3-8.76-2.3-.76-1.62-3.87.84-3.88,6.48-.03,14.75,1.86,20.41,10.09l4.59-2.07s-8.25-5.61-12.95-11.53c-1.56-1.97-1.3-4.48,1.72-2.55,9.06,5.82,29.32,16.99,46.56,13.31,0,0,.01-5.23,3.95-10.55l-3.69-2.94s-8.57,19.73-27.15,3.37c-1.14-1,.03-2.74,1.53-2.26,6.14,1.97,14.84,3.04,17.51-5.3,0,0-11.03-12.62-44.43-4.61-2.43.58-3.93-2.33-1.82-3.57,12.74-7.48,35.03-16.05,52.9.85,0,0,8.99-12.47,24.48-6.45,2.05.8,1.54,3.56-.68,3.82-4.2.49-9.42,2.17-14.26,6.73l1.9,1.98s17.33-16.29,69.67,10.35c2.29,1.17.81,4.37-1.72,3.69-12.93-3.48-29.44-7.68-34.54-7.94,0,0,1.63,9.65,13.1,9.73,1.28,0,2.68,1.4.13,2.92-2.9,1.73-7.11,3.14-11.82,1.27,0,0-1.64,10.68-13.76,7.05-1.89-.57-2.99-2.43.42-3.33,3.96-1.04,7.82-3.84,6.05-11.08-3.29-13.46-23.57-10.5-26.67,5.07,0,0,6.68-.42,13.77-3.32,2.11-.86,4.07,1.44,2.6,3.06-4.74,5.22-13.05,11.39-26.14,12.03,0,0,5.09,6.88,18.15,3.4,2.25-.6,3.83,2.08,2.01,3.43-5.87,4.36-14.83,7.99-24.84,1.47,0,0-8.84,9.48-22.87,2.47-2.06-1.03-1.19-3.86,1.17-3.79,5.74.16,12.79-.78,15.47-5.9,0,0-12-1.52-16.65-4.27Z"/>
          </g>
        </g>
        <path class="cls-22" d="m818.4,704.18c6.07-5.54,13.43-9.96,21.68-12.53"/>
        <path class="cls-22" d="m876.84,774.23c-20.1,8.52-33.77,9.51-51.45.71"/>
        <path class="cls-22" d="m861.74,855.5c10.95-.02,20.81-1.29,28.38-3.19,7-1.75,13.74-3.88,20.05-6.17"/>
        <path class="cls-22" d="m829.39,665.33s-4.36,1.37-11,4.37"/>
        <g>
          <path class="cls-6" d="m1135.35,741.07s84.92-1.64,153.05-27.33c43.69-16.48,99.04-54.69,105.81-111.11,3.83-31.95-3.95-65.24-30.49-84.05-16.73-11.86-26.48.51-23.1,7.99,0,0-21.05-8.89-21.64,11.82,0,0-22.47-1.87-15.75,21.3,4.81,16.6,15.47,23.74,15.47,23.74,0,0,7.31,102.47-170.89,133.8"/>
          <g class="cls-34">
            <path class="cls-22" d="m1361.29,549s-13.49-22.27-35.66-30.82"/>
            <path class="cls-22" d="m1340.91,561.51s-13.49-22.27-35.66-30.82"/>
            <g class="cls-38">
              <path class="cls-43" d="m1293.31,669.31s-.44-7-6.28-17.04c-1.1-1.89-1.77-4.27.87-1.5,2.86,3.01,6.3,7.26,8.21,11.94l3.83-3.74s-9.18-17.28,3.61-29.16c1.32-1.23,3.28-1.92,1.73.73-3.13,5.39-6.71,15.28.29,25.79,0,0,3.81-.83,7.39-.44,1.15.13,2.12.92,2.51,2.01l.72,2.02c.62,1.75-.45,3.66-2.28,3.99-6.06,1.08-17.51,4.66-14.53,16.14,0,0,15.13,6.13,7.24-10.16,0,0,1.51-2.5,4.21-2.31,0,0,11.96,17.22.04,21.11,0,0,5.81,8.28,19.34,10.47,2.19.36,4.04,2.13-1.61,2.05-4.68-.06-11.09-1.27-18.86-5.49,0,0-4.87,8.95-15.63,11.49-2.84.67-5.65.16-1.23-1.71,5.38-2.27,11.22-6.98,10.69-16.65,0,0-3.99-.23-7.11-4.16,0,0-3.76,17.59-19.18,18.04-12.41.36-19.28-1-25.01,2.46-1.39.84-4.18.9-1.97-1.55,1.89-2.1,5.49-4.13,12.37-4.45,14.94-.69,32.09-6.81,26.79-26.13-2.51-2.69-11.77,20.04-26.34,18.7-1.58-.15-2.84-1.68.02-2.68,5.58-1.96,14.08-6.52,15.71-16.34,2.47-14.87,14.43-3.43,14.43-3.43Z"/>
              <path class="cls-43" d="m1313.54,654.31s-7.3-18.68,9.22-21.47c1.48-.25,3.56.25,1.67,1.41-4.19,2.58-10.33,7.99-6.42,16.03,1.39,2.85,4.86,6.25,7.42,7.21,2.49.93,5.12.37,6.08-5.2,0,0,.55-4.21-8.08-8.16,0,0,4.69-2.59,12.13,4.21,0,0,.69-4.72-2.18-12.87-.41-1.16,1.17-1.93,1.81-.89,1.58,2.57,3.58,6.1,6.06,10.92,0,0,5.65-3.81,6.67-18.08.08-1.18,1.78-1.31,2-.15,1.76,9.51,2.48,24.38-9.79,25.61,0,0,.86,2.42-1.43,4.11,0,0,7.5,1.82,14.47-5.71.79-.85,2.16.02,1.69,1.07-2.85,6.28-9.23,14.74-22.64,12.59,0,0,12.46,14.86,4.04,23.1-1.2,1.18-3.85,1.72-2.81-.4,2.05-4.15,3.79-11.25-3.93-16.91,0,0-4.7-4.14-3.56,6.47.64,5.93-2.1,9.7-4.64,11.88-2,1.72-2.79,1.33-1.77-.93,1.78-3.94,3.32-11.4-1.64-22.6,0,0,1.78-1.92,1.89-2.75.17-1.31-1.78-4.99-1.78-4.99-.69-1.94-2.45-3.3-4.5-3.49h0Z"/>
            </g>
          </g>
        </g>
      </g>
      <g>
        <path class="cls-13" d="m731.16,618.42c27.05-36.54,68.66-113.93,43.43-222.06,0,0-44.23-30.51-49.86-61.28-.84-4.6.06-12.92,9.87-15.87,7.22-2.18,14.84,2.43,18.76,8.87,3.38,5.56,7.25,11.02,12.75,14.94,0,0-2.08-30.49-12.77-58.82-9.3-24.64,16.27-30.26,22.74-21.77,0,0,13.45-23.63,32.46-8.34,0,0,14.39-18.66,26.42-3.95,68.03,83.2,61.4,274.39-77.24,384.93"/>
        <path class="cls-22" d="m791.41,604.01c-10.23,10.89-21.44,21.29-33.69,31.06"/>
        <path class="cls-22" d="m731.16,618.42c11.27-15.22,25.07-37.54,35.51-66.21"/>
        <path class="cls-22" d="m794.41,305.85s-2.24-25.94-18.33-43.42"/>
        <path class="cls-22" d="m826.87,297.51s-2.24-25.94-18.33-43.42"/>
      </g>
      <g>
        <path class="cls-13" d="m490.12,749.26s-49.63,73.17-130.44,66.17c-80.81-7-105.62-102.44-105.62-102.44l87.17-34.11s23.54,148,140.62,43.65"/>
        <g>
          <g>
            <path class="cls-16" d="m243.67,710.71l150.88-99.15c.55-.36,1.14-.72,1.71-1.03,3.54-1.93,7.55-2.96,11.57-2.96h0c8.87,0,17.03,4.84,21.27,12.63,6.39,11.72,2.05,26.46-9.67,32.85l-158.52,86.42c-2.47,1.34-5.24,2.04-8.02,2.04-5.68,0-10.93-2.83-14.04-7.56-5.08-7.73-2.92-18.16,4.81-23.25Z"/>
            <g class="cls-32">
              <path class="cls-11" d="m351.06,644.62c2.41,16.22,10.17,30.64,22.38,41.58,4.58,4.11-1.53,11.51-6.15,7.37-14.1-12.65-23-29.24-25.78-47.97-.91-6.13,8.64-7.08,9.55-.99h0Z"/>
              <path class="cls-11" d="m262.09,706.03c4.18,11.27,10.89,20.79,20.11,28.5,6.72,5.62-1.98,16.13-8.73,10.48-10.97-9.17-19.17-20.77-24.14-34.18-3.05-8.24,9.71-13.04,12.76-4.8h0Z"/>
            </g>
          </g>
          <g>
            <path class="cls-10" d="m387.09,598.92c-19.96,10.73-27.45,35.6-16.73,55.56,10.72,19.96,35.6,27.45,55.56,16.73,19.96-10.72,27.45-35.6,16.72-55.56-10.72-19.96-35.6-27.45-55.56-16.73Z"/>
            <g class="cls-33">
              <path class="cls-41" d="m380.05,594.76c11.09,30.83,30.65,57.17,57.02,76.62,3.14,2.32.15,7.69-3.03,5.34-27.81-20.51-48.22-47.81-59.92-80.33-1.34-3.73,4.59-5.34,5.92-1.64h0Z"/>
            </g>
          </g>
        </g>
        <g>
          <path class="cls-12" d="m256.43,702.32s-11.84-45.73,39.43-78.95c39.96-25.89,69.61.31,72.17,14.21,3.08,16.78-5.16,26.85-20.15,23.28,0,0-2.04,23.6-28.57,17.11,0,0-5.41,15.49-20.08,14.16-11.1-1.01-16.29-7.55-16.29-7.55l-26.5,17.73Z"/>
          <g class="cls-36">
            <path class="cls-22" d="m320,680.39s-2.24-25.94-18.33-43.42"/>
            <path class="cls-22" d="m349.77,664.44s-2.24-25.94-18.33-43.42"/>
          </g>
        </g>
      </g>
      <g>
        <path class="cls-4" d="m637.53,695.7c27.67-6.64,47.68-26.41,56.74-40.76,5.99-9.48,3.15-22.02-6.33-28-9.44-5.96-21.92-3.18-27.94,6.22-2.51,3.83-24.99,35.97-63.03,19.31-10.28-4.5-22.25.18-26.74,10.45-4.5,10.27.18,22.24,10.45,26.74,21.19,9.28,40.38,9.99,56.85,6.04Z"/>
        <g class="cls-52">
          <g>
            <rect class="cls-39" x="632.86" y="640.71" width="5.64" height="56.45" transform="translate(-171.63 221.94) rotate(-17.49)"/>
            <rect class="cls-39" x="667.27" y="629.86" width="5.64" height="56.45" transform="translate(-241.09 430.4) rotate(-30.45)"/>
            <rect class="cls-39" x="598.45" y="651.55" width="5.64" height="56.45" transform="translate(-51.74 49.54) rotate(-4.52)"/>
          </g>
        </g>
      </g>
      <g>
        <path class="cls-16" d="m482.44,576.94s1.03-7.42,5.96-8.57c95.77-22.38,153.49-7.42,170.82-2.12,4.05,1.24,4.01,8.65,4.01,8.65.02.36,3.12,58.6-48.22,54.51-42.38-3.37-38.72-45.02-36.09-59.68-9.86.12-20.52.71-31.94,1.92,2.19,14.56,5.33,56.41-29.97,59.8-42.79,4.1-34.58-54.49-34.58-54.49h0Z"/>
        <g class="cls-53">
          <rect class="cls-5" x="606.65" y="530.16" width="31.14" height="122.38" transform="translate(1456.75 792.37) rotate(150)"/>
          <rect class="cls-5" x="501.43" y="532.84" width="31.14" height="122.38" transform="translate(1261.75 849.97) rotate(150)"/>
        </g>
      </g>
      <g>
        <g>
          <path class="cls-8" d="m475.1,1020.72s-82.08,38.3-55.5,112.56c0,0,46.12,42.99,120.38,0,74.26-42.99,84.42-107.09,84.42-107.09l-7.25-11.2-22.94-9.91-119.12,15.63Z"/>
          <g class="cls-51">
            <path class="cls-5" d="m402.69,1079.52s73.23-50.57,118.54,43.5c45.31,94.07-80.36,53.37-80.36,53.37,0,0-63.6-26.53-38.18-96.88Z"/>
            <g>
              <path class="cls-5" d="m396.57,1142.08l7.45-55.34,12.92,18.07c1.59,1.72,22.58,23.64,57.61,23.64,12.31,0,25.1-2.69,38.02-8.01,60.59-24.91,109.62-109.36,110.1-110.21l3.84-6.69,14.6,45.84-50.71,123.17-152.77,12.79-41.07-43.27Z"/>
              <path class="cls-9" d="m625.63,1011.93l11.89,37.32-49.45,120.1-149.08,12.48-38.83-40.91,6.09-45.24,8.06,11.26s21.88,24.9,60.25,24.9c11.64,0,24.79-2.29,39.31-8.26,62.4-25.66,111.76-111.66,111.76-111.66m1.79-16.76l-7.68,13.38c-.54.93-48.99,84.31-108.45,108.76-12.51,5.14-24.87,7.75-36.73,7.75-32.83,0-52.82-20.12-54.98-22.4l-7.81-10.92-9.96-13.93-2.28,16.97-6.09,45.24-.43,3.22,2.24,2.36,38.83,40.91,2.24,2.36,3.25-.27,149.08-12.48,4.13-.35,1.58-3.83,49.45-120.1.94-2.29-.75-2.36-11.89-37.32-4.68-14.7h0Z"/>
            </g>
            <path class="cls-5" d="m496.2,1075.49c-.97,0-1.92-.41-2.6-1.21-17.05-20.23-40.94-15.94-41.95-15.75-1.84.35-3.62-.85-3.97-2.69-.36-1.84.84-3.62,2.68-3.97,1.16-.23,28.75-5.31,48.43,18.03,1.21,1.43,1.03,3.57-.41,4.78-.64.54-1.41.8-2.19.8Z"/>
            <path class="cls-5" d="m506.36,1063.34c-.97,0-1.92-.41-2.6-1.21-17.05-20.23-40.94-15.94-41.95-15.75-1.84.35-3.62-.85-3.97-2.69-.36-1.84.84-3.62,2.68-3.97,1.16-.23,28.75-5.31,48.43,18.03,1.21,1.43,1.03,3.57-.41,4.78-.64.54-1.41.8-2.19.8Z"/>
          </g>
        </g>
        <path class="cls-13" d="m670.77,849.9s-137.59,7.06-76.56,128.4l22.94,36.69s-64.17,58.57-148.18,8.61c0,0-93.11-245.67,179.22-213.22"/>
        <path class="cls-22" d="m537,815.9c27.65-8.39,63.91-11.14,111.19-5.5"/>
        <path class="cls-5" d="m454.37,955.28v-.02c-.5-6.09-.77-12.38-.77-18.76,24.48,8.26,73,19.03,126.1-.16.84,5.32,2.19,10.97,4.12,16.97-54.15,21.07-104.09,10.39-129.45,1.97Z"/>
        <path class="cls-5" d="m456.32,972.23c-.54-3.62-1.02-7.35-1.43-11.2,25.8,8.49,76.19,19.01,130.61-2.78,1.06,2.99,2.29,6.06,3.64,9.21-54.8,23.35-106.06,13.35-132.82,4.77Z"/>
        <path class="cls-5" d="m617.15,1015s-64.17,58.56-148.19,8.62c0,0-7.17-18.89-11.72-45.5,27.38,8.64,79.04,18.28,134.02-5.95.9,2.01,1.9,4.07,2.94,6.15l22.94,36.68Z"/>
        <path class="cls-44" d="m591.27,972.16c-54.99,24.23-106.64,14.59-134.02,5.95-.32-1.92-.63-3.87-.93-5.88,26.77,8.58,78.02,18.58,132.82-4.77.66,1.54,1.36,3.12,2.13,4.71Z"/>
        <path class="cls-44" d="m585.5,958.25c-54.42,21.79-104.81,11.27-130.61,2.78-.2-1.9-.38-3.8-.52-5.75,25.37,8.42,75.3,19.1,129.45-1.97.52,1.61,1.06,3.26,1.67,4.93Z"/>
        <path class="cls-22" d="m643.29,854.55s.08-.02.11-.03c5.97-1.55,12.13-2.21,18.3-2.21,17.45-.02,36-2.26,53.7-8.57"/>
        <path class="cls-48" d="m574.79,959.43c-1.38-.25-2.44-1.44-2.47-2.89,0-.17-.28-8.08-4.69-12.54-1.16-1.18-1.15-3.08.03-4.25,1.18-1.17,3.08-1.16,4.25.03,6.14,6.21,6.41,16.21,6.42,16.63.03,1.66-1.28,3.03-2.94,3.06-.21,0-.4-.01-.59-.05Z"/>
        <path class="cls-48" d="m560.46,961.55c-1.38-.25-2.44-1.44-2.47-2.89,0-.17-.28-8.08-4.69-12.54-1.16-1.18-1.15-3.08.03-4.25,1.18-1.17,3.08-1.16,4.25.03,6.13,6.21,6.41,16.21,6.42,16.64.03,1.66-1.28,3.03-2.94,3.06-.21,0-.4-.01-.59-.05Z"/>
        <path class="cls-48" d="m546.14,963.68c-1.38-.25-2.44-1.44-2.47-2.89,0-.17-.28-8.08-4.69-12.54-1.16-1.18-1.15-3.08.03-4.25,1.18-1.17,3.08-1.16,4.25.03,6.13,6.21,6.41,16.21,6.42,16.64.03,1.66-1.28,3.03-2.94,3.06-.21,0-.4-.01-.59-.05Z"/>
        <path class="cls-48" d="m531.81,965.81c-1.38-.25-2.44-1.44-2.47-2.89,0-.16-.27-8.07-4.69-12.54-1.17-1.18-1.15-3.08.03-4.25,1.18-1.17,3.08-1.16,4.25.03,6.14,6.22,6.41,16.22,6.42,16.64.03,1.66-1.29,3.03-2.94,3.06-.2,0-.4-.01-.59-.05Z"/>
      </g>
      <g>
        <g>
          <path class="cls-14" d="m1249.26,1054.84s75.13,50.58,37.34,119.81c0,0-52.24,35.31-118.92-18.7-66.68-54-66.77-118.9-66.77-118.9l8.9-9.93,24.2-6.23,115.24,33.94Z"/>
          <g class="cls-50">
            <path class="cls-5" d="m1311.65,1124.17s-64.49-61.33-123.86,24.57c-59.37,85.89,71.1,65.21,71.1,65.21,0,0,66.95-16.34,52.76-89.77Z"/>
            <g>
              <path class="cls-5" d="m1111.77,1186.93l-30.97-129.55,21.54-43.02,2.75,7.2c.35.92,35.66,91.95,91.65,125.97,16.2,9.84,32.75,14.83,49.22,14.83,27.52,0,46.05-14.13,47.69-15.42l15.57-15.84-1.24,55.82-47.29,36.37-148.93-36.36Z"/>
              <path class="cls-15" d="m1101.92,1022.77s35.4,92.62,93.06,127.66c18.87,11.47,36.2,15.32,50.98,15.32,30.38,0,49.97-16.3,49.97-16.3l9.71-9.88-1.01,45.64-44.71,34.38-145.33-35.48-30.2-126.33,17.54-35.02m.83-16.82l-6.9,13.78-17.54,35.02-1.11,2.21.58,2.41,30.2,126.33.96,4.03,4.03.98,145.33,35.48,3.17.77,2.58-1.99,44.71-34.38,2.58-1.98.07-3.25,1.01-45.64.38-17.12-12.01,12.21-9.42,9.58c-2.1,1.62-19.65,14.56-45.42,14.56-15.83,0-31.8-4.82-47.45-14.34-54.97-33.4-89.9-123.38-90.24-124.28l-5.51-14.39h0Z"/>
            </g>
            <path class="cls-5" d="m1219.91,1105.66c.95.15,1.96-.11,2.75-.79,19.99-17.33,42.92-9.39,43.89-9.04,1.77.63,3.7-.28,4.34-2.04.64-1.76-.27-3.7-2.03-4.34-1.12-.41-27.58-9.71-50.65,10.29-1.42,1.23-1.57,3.37-.34,4.79.55.63,1.27,1.01,2.03,1.13Z"/>
            <path class="cls-5" d="m1211.76,1092.09c.95.15,1.96-.11,2.75-.79,19.99-17.33,42.92-9.39,43.88-9.04,1.76.63,3.71-.28,4.34-2.04.64-1.76-.27-3.7-2.03-4.34-1.12-.41-27.57-9.71-50.64,10.29-1.42,1.23-1.57,3.37-.34,4.79.55.63,1.27,1.01,2.03,1.13Z"/>
          </g>
        </g>
        <path class="cls-7" d="m1082.49,855.71s134.82,28.34,55.68,138.74l-28.35,32.68s54.29,67.82,145.04,31.52c0,0,130.13-228.23-143.94-238.46"/>
        <path class="cls-5" d="m1279.9,993.41v-.02c1.44-5.94,2.69-12.11,3.68-18.41-25.47,4.36-75.07,7.46-124.55-19.74-1.65,5.12-3.87,10.5-6.7,16.13,50.22,29.22,101.21,26.43,127.58,22.05Z"/>
        <path class="cls-5" d="m1275.35,1009.85c1.1-3.49,2.15-7.11,3.15-10.84-26.8,4.38-78.21,6.94-128.59-23.03-1.51,2.79-3.2,5.64-5.03,8.53,50.51,31.58,102.7,29.66,130.47,25.35Z"/>
        <path class="cls-5" d="m1109.82,1027.12s54.3,67.82,145.05,31.53c0,0,10.02-17.55,18.65-43.13-28.39,4.29-80.92,5.79-131.47-26.69-1.21,1.85-2.51,3.73-3.86,5.62l-28.36,32.67Z"/>
        <path class="cls-40" d="m1142.04,988.83c50.55,32.48,103.08,30.98,131.47,26.69.61-1.85,1.23-3.72,1.83-5.67-27.78,4.31-79.96,6.23-130.47-25.35-.89,1.42-1.83,2.87-2.83,4.32Z"/>
        <path class="cls-40" d="m1149.9,975.98c50.38,29.98,101.79,27.41,128.59,23.03.5-1.85.97-3.7,1.41-5.6-26.37,4.38-77.36,7.17-127.58-22.05-.76,1.51-1.56,3.05-2.42,4.61Z"/>
        <path class="cls-48" d="m1160.3,978.81c1.4-.03,2.63-1.04,2.89-2.47.03-.17,1.53-7.94,6.58-11.66,1.33-.98,1.62-2.86.63-4.2-.98-1.34-2.86-1.62-4.2-.63-7.03,5.18-8.85,15.02-8.92,15.44-.29,1.63.8,3.19,2.43,3.48.2.04.4.05.59.05Z"/>
        <path class="cls-48" d="m1174.12,983.13c1.4-.03,2.63-1.04,2.89-2.47.03-.17,1.53-7.94,6.58-11.66,1.33-.98,1.62-2.86.63-4.2-.98-1.34-2.86-1.62-4.2-.63-7.03,5.19-8.85,15.02-8.92,15.44-.29,1.63.8,3.19,2.43,3.48.2.04.4.05.59.05Z"/>
        <path class="cls-48" d="m1187.94,987.46c1.4-.03,2.63-1.04,2.89-2.47.03-.17,1.53-7.94,6.58-11.66,1.33-.98,1.62-2.86.63-4.2-.98-1.34-2.86-1.62-4.2-.63-7.03,5.19-8.85,15.02-8.92,15.44-.29,1.63.8,3.19,2.43,3.48.2.04.4.05.59.05Z"/>
        <path class="cls-48" d="m1201.76,991.78c1.4-.03,2.63-1.04,2.89-2.47.03-.15,1.52-7.93,6.58-11.66,1.34-.98,1.62-2.86.63-4.2-.98-1.33-2.86-1.62-4.2-.63-7.03,5.19-8.85,15.02-8.93,15.44-.29,1.63.8,3.19,2.43,3.48.2.04.4.05.59.05Z"/>
      </g>
      <g>
        <ellipse class="cls-47" cx="1119.27" cy="654.33" rx="6.87" ry="9.86" transform="translate(-168.73 506.1) rotate(-23.75)"/>
        <ellipse class="cls-47" cx="1103.94" cy="676.96" rx="6.87" ry="9.86" transform="translate(-179.14 501.84) rotate(-23.75)"/>
        <ellipse class="cls-47" cx="1096.5" cy="636.81" rx="6.87" ry="9.86" transform="translate(-163.6 495.45) rotate(-23.75)"/>
        <ellipse class="cls-47" cx="1115.94" cy="612.03" rx="6.87" ry="9.86" transform="translate(-151.98 501.18) rotate(-23.75)"/>
        <ellipse class="cls-47" cx="1103.94" cy="608.86" rx="6.87" ry="9.86" transform="translate(-151.72 496.07) rotate(-23.75)"/>
        <ellipse class="cls-47" cx="1075.54" cy="589.17" rx="6.87" ry="9.86" transform="translate(-146.19 482.97) rotate(-23.75)"/>
        <ellipse class="cls-47" cx="1078.83" cy="567.77" rx="6.87" ry="9.86" transform="translate(-137.3 482.49) rotate(-23.75)"/>
        <ellipse class="cls-47" cx="1049.53" cy="573.32" rx="6.87" ry="9.86" transform="translate(-142.01 471.16) rotate(-23.75)"/>
      </g>
    </g>
  </g>
</svg>