<?xml version="1.0" encoding="UTF-8"?>
<svg id="Capa_1" data-name="Capa 1" xmlns="http://www.w3.org/2000/svg" viewBox="0 0 2560 1600">
  <defs>
    <style>
      .cls-1 {
        fill: #fff;
        stroke-width: 0px;
      }
    </style>
  </defs>
  <path class="cls-1" d="m724.61,599.25l-37.42-196.01h48.11l20.2,159.18h3.56l20.49-159.18h47.22l-38.61,196.01h-63.55Z"/>
  <path class="cls-1" d="m835.98,599.25v-196.01h46.63v196.01h-46.63Z"/>
  <path class="cls-1" d="m929.53,599.25l-37.42-196.01h48.11l20.2,159.18h3.56l20.49-159.18h47.22l-38.61,196.01h-63.55Z"/>
  <path class="cls-1" d="m1040.89,599.25v-196.01h46.63v196.01h-46.63Zm38.31-212.05h-35.34l17.22-44.84h44.25l-26.13,44.84Z"/>
  <path class="cls-1" d="m1143.05,599.25l35.64-196.01h70.09l35.05,196.01h-49.3l-19.9-160.37h-3.86l-19.9,160.37h-47.81Zm33.86-32.67v-29.4h75.14v29.4h-75.14Z"/>
  <path class="cls-1" d="m1328.36,440.37v-37.12h120.87v37.12h-120.87Zm37.72,158.89v-196.01h45.73v196.01h-45.73Z"/>
  <path class="cls-1" d="m1514.56,603.11c-11.48,0-21.38-2.08-29.7-6.24s-15.1-10.44-20.34-18.86c-5.25-8.41-9.11-19.01-11.58-31.78-2.48-12.77-3.71-27.57-3.71-44.4,0-23.76,2.38-43.16,7.13-58.21,4.75-15.04,12.03-26.18,21.83-33.41,9.8-7.22,22.02-10.84,36.68-10.84,11.48,0,21.38,2.03,29.7,6.09,8.32,4.06,15.24,10.2,20.79,18.41,5.54,8.22,9.7,18.71,12.47,31.48,2.77,12.77,4.16,27.77,4.16,44.99s-1.39,32.57-4.16,45.44c-2.77,12.87-6.88,23.56-12.32,32.07-5.45,8.52-12.43,14.85-20.94,19.01-8.52,4.16-18.52,6.24-30,6.24Zm.3-35.04c4.55,0,8.32-2.38,11.28-7.13s5.24-11.98,6.83-21.68c1.58-9.7,2.37-21.68,2.37-35.93,0-15.04-.84-27.67-2.52-37.87-1.68-10.2-4.06-17.87-7.13-23.02-3.07-5.15-6.78-7.72-11.14-7.72s-7.67,2.48-10.54,7.42c-2.87,4.95-5,12.32-6.38,22.13-1.39,9.8-2.08,22.23-2.08,37.27,0,11.09.39,20.79,1.19,29.1.79,8.32,1.98,15.25,3.56,20.79,1.58,5.54,3.61,9.7,6.09,12.47,2.47,2.77,5.3,4.16,8.46,4.16Z"/>
  <path class="cls-1" d="m1598.31,599.25v-196.01h45.74v196.01h-45.74Zm21.98,0v-36.23h32.67c6.13,0,11.18-2.08,15.15-6.24,3.96-4.16,6.98-10.79,9.06-19.9,2.08-9.1,3.12-20.98,3.12-35.64,0-11.29-.59-20.89-1.78-28.81-1.19-7.92-2.92-14.3-5.2-19.16-2.28-4.85-5.25-8.36-8.91-10.54-3.67-2.18-7.97-3.27-12.92-3.27h-31.18v-36.23h30.59c14.45,0,27.32,3.81,38.61,11.43,11.28,7.62,20.19,18.76,26.73,33.41,6.53,14.65,9.8,32.57,9.8,53.75,0,17.22-1.78,31.68-5.35,43.36-3.56,11.68-8.17,21.14-13.81,28.36-5.64,7.23-11.73,12.67-18.26,16.33-6.53,3.67-12.77,6.14-18.71,7.42-5.94,1.29-10.99,1.93-15.15,1.93h-34.45Z"/>
  <path class="cls-1" d="m1803.82,603.11c-11.48,0-21.38-2.08-29.7-6.24s-15.1-10.44-20.34-18.86c-5.25-8.41-9.11-19.01-11.58-31.78-2.48-12.77-3.71-27.57-3.71-44.4,0-23.76,2.38-43.16,7.13-58.21,4.75-15.04,12.03-26.18,21.83-33.41,9.8-7.22,22.02-10.84,36.68-10.84,11.48,0,21.38,2.03,29.7,6.09,8.32,4.06,15.24,10.2,20.79,18.41,5.54,8.22,9.7,18.71,12.47,31.48,2.77,12.77,4.16,27.77,4.16,44.99s-1.39,32.57-4.16,45.44c-2.77,12.87-6.88,23.56-12.32,32.07-5.45,8.52-12.43,14.85-20.94,19.01-8.52,4.16-18.52,6.24-30,6.24Zm.3-35.04c4.55,0,8.32-2.38,11.28-7.13,2.97-4.75,5.24-11.98,6.83-21.68,1.58-9.7,2.37-21.68,2.37-35.93,0-15.04-.84-27.67-2.52-37.87-1.68-10.2-4.06-17.87-7.13-23.02-3.07-5.15-6.78-7.72-11.14-7.72s-7.67,2.48-10.54,7.42c-2.87,4.95-5,12.32-6.38,22.13-1.39,9.8-2.08,22.23-2.08,37.27,0,11.09.39,20.79,1.19,29.1.79,8.32,1.98,15.25,3.56,20.79,1.58,5.54,3.61,9.7,6.09,12.47,2.47,2.77,5.3,4.16,8.46,4.16Z"/>
  <path class="cls-1" d="m762.03,904.61c-12.67,0-23.36-2.23-32.07-6.68-8.71-4.45-15.69-11.03-20.94-19.75-5.25-8.71-9.01-19.25-11.28-31.63-2.28-12.37-3.42-26.38-3.42-42.02s1.14-29.85,3.42-42.62c2.27-12.77,6.04-23.66,11.28-32.67,5.24-9.01,12.22-15.89,20.94-20.64,8.71-4.75,19.4-7.13,32.07-7.13,11.68,0,21.43,1.93,29.25,5.79,7.82,3.86,13.96,9.21,18.41,16.04,4.46,6.83,7.42,14.7,8.91,23.61s1.63,18.51.45,28.81l-42.77,4.75c1.19-10.49,1.09-19.01-.3-25.54-1.39-6.53-3.56-11.28-6.53-14.25-2.97-2.97-6.14-4.46-9.5-4.46-3.17,0-5.99,1.24-8.46,3.71-2.48,2.48-4.56,6.29-6.24,11.43-1.68,5.15-2.97,11.78-3.86,19.9-.89,8.12-1.34,17.92-1.34,29.4,0,17.03.94,30.49,2.82,40.39,1.88,9.9,4.4,16.98,7.57,21.23,3.17,4.26,6.63,6.38,10.39,6.38,5.15,0,9.16-2.62,12.03-7.87,2.87-5.24,4.75-12.07,5.64-20.49.89-8.41.94-17.47.15-27.17l43.06,5.64c1.38,12.67,1.43,24.26.15,34.75-1.29,10.5-4.31,19.55-9.06,27.17-4.75,7.62-11.29,13.51-19.6,17.67s-18.71,6.24-31.18,6.24Z"/>
  <path class="cls-1" d="m897.75,904.61c-11.48,0-21.38-2.08-29.7-6.24-8.32-4.16-15.1-10.44-20.34-18.86-5.25-8.41-9.11-19.01-11.58-31.78-2.48-12.77-3.71-27.57-3.71-44.4,0-23.76,2.38-43.16,7.13-58.21,4.75-15.04,12.03-26.18,21.83-33.41,9.8-7.22,22.02-10.84,36.68-10.84,11.48,0,21.38,2.03,29.7,6.09,8.32,4.06,15.24,10.2,20.79,18.41,5.54,8.22,9.7,18.71,12.47,31.48,2.77,12.77,4.16,27.77,4.16,44.99s-1.39,32.57-4.16,45.44c-2.77,12.87-6.88,23.56-12.32,32.07-5.45,8.52-12.43,14.85-20.94,19.01-8.52,4.16-18.52,6.24-29.99,6.24Zm.3-35.05c4.55,0,8.32-2.37,11.28-7.13,2.97-4.75,5.24-11.98,6.83-21.68,1.58-9.7,2.38-21.68,2.38-35.93,0-15.04-.84-27.67-2.52-37.87-1.68-10.2-4.06-17.87-7.13-23.02-3.07-5.15-6.78-7.72-11.14-7.72s-7.68,2.48-10.54,7.42c-2.87,4.95-5,12.32-6.38,22.13-1.39,9.8-2.08,22.23-2.08,37.27,0,11.09.39,20.79,1.19,29.1.79,8.32,1.98,15.25,3.56,20.79,1.58,5.55,3.61,9.7,6.09,12.47,2.47,2.78,5.29,4.16,8.46,4.16Z"/>
  <path class="cls-1" d="m981.5,900.75v-196.01h46.03v196.01h-46.03Zm8.61,0v-39.5h88.2v39.5h-88.2Z"/>
  <path class="cls-1" d="m1144.25,904.61c-11.48,0-21.38-2.08-29.7-6.24-8.32-4.16-15.1-10.44-20.34-18.86-5.25-8.41-9.11-19.01-11.58-31.78-2.48-12.77-3.71-27.57-3.71-44.4,0-23.76,2.38-43.16,7.13-58.21,4.75-15.04,12.03-26.18,21.83-33.41,9.8-7.22,22.02-10.84,36.68-10.84,11.48,0,21.38,2.03,29.7,6.09,8.32,4.06,15.24,10.2,20.79,18.41,5.54,8.22,9.7,18.71,12.47,31.48,2.77,12.77,4.16,27.77,4.16,44.99s-1.39,32.57-4.16,45.44c-2.77,12.87-6.88,23.56-12.32,32.07-5.45,8.52-12.43,14.85-20.94,19.01-8.52,4.16-18.52,6.24-29.99,6.24Zm.3-35.05c4.55,0,8.32-2.37,11.28-7.13,2.97-4.75,5.24-11.98,6.83-21.68,1.58-9.7,2.38-21.68,2.38-35.93,0-15.04-.84-27.67-2.52-37.87-1.68-10.2-4.06-17.87-7.13-23.02-3.07-5.15-6.78-7.72-11.14-7.72s-7.68,2.48-10.54,7.42c-2.87,4.95-5,12.32-6.38,22.13-1.39,9.8-2.08,22.23-2.08,37.27,0,11.09.39,20.79,1.19,29.1.79,8.32,1.98,15.25,3.56,20.79,1.58,5.55,3.61,9.7,6.09,12.47,2.47,2.78,5.29,4.16,8.46,4.16Z"/>
  <path class="cls-1" d="m1228,900.75v-196.01h59.4c4.16,0,9.06.4,14.7,1.19,5.64.79,11.43,2.33,17.37,4.6,5.94,2.28,11.48,5.6,16.63,9.95,5.15,4.36,9.35,10.1,12.62,17.22,3.27,7.13,4.9,15.94,4.9,26.43,0,6.14-.74,11.93-2.23,17.37-1.49,5.45-3.86,10.35-7.13,14.7-3.27,4.36-7.53,8.07-12.77,11.14-5.25,3.07-11.83,5.4-19.75,6.98v2.67c9.7,1.19,16.98,3.91,21.83,8.17,4.85,4.26,8.36,9.65,10.54,16.19,2.18,6.53,4.05,13.76,5.64,21.68l7.42,37.72h-47.52l-5.05-31.78c-.99-6.73-2.18-12.77-3.56-18.12-1.39-5.35-3.62-9.65-6.68-12.92-3.07-3.27-7.57-4.9-13.51-4.9h-7.13v67.71h-45.73Zm45.73-98h8.02c8.91,0,15.44-2.62,19.6-7.87,4.16-5.24,6.24-13.61,6.24-25.09,0-10.1-1.88-17.42-5.64-21.98-3.76-4.55-10-6.83-18.71-6.83h-9.5v61.77Z"/>
  <path class="cls-1" d="m1350.05,938.46c3.56-8.91,6.09-17.27,7.57-25.09,1.49-7.82,2.38-15.74,2.67-23.76.3-8.02.45-16.68.45-25.99h40.39c0,13.47-.85,24.95-2.53,34.45-1.68,9.5-3.91,17.47-6.68,23.91-2.78,6.43-5.64,11.93-8.61,16.48h-33.26Z"/>
  <path class="cls-1" d="m1482.8,900.75l-37.42-196.01h48.11l20.19,159.18h3.56l20.49-159.18h47.22l-38.61,196.01h-63.55Z"/>
  <path class="cls-1" d="m1594.16,900.75v-196.01h46.63v196.01h-46.63Z"/>
  <path class="cls-1" d="m1687.71,900.75l-37.42-196.01h48.11l20.19,159.18h3.56l20.49-159.18h47.22l-38.61,196.01h-63.55Z"/>
  <path class="cls-1" d="m1799.07,900.75v-196.01h46.63v196.01h-46.63Zm38.31-212.05h-35.34l17.22-44.84h44.25l-26.13,44.84Z"/>
  <path class="cls-1" d="m697.89,1202.24v-196.01h46.63v196.01h-46.63Z"/>
  <path class="cls-1" d="m764.71,1202.24v-196.01h52.27l43.66,122.36h3.27l-2.08-122.36h42.77v196.01h-51.08l-44.84-127.11h-3.27l2.08,127.11h-42.77Z"/>
  <path class="cls-1" d="m913.79,1043.35v-37.12h120.87v37.12h-120.87Zm37.72,158.88v-196.01h45.73v196.01h-45.73Z"/>
  <path class="cls-1" d="m1043.86,1202.24v-196.01h46.03v196.01h-46.03Zm31.78-159.48v-36.53h348.5v36.53h-348.5Zm0,76.62v-33.86h348.5v33.86h-348.5Zm0,82.86v-36.53h348.5v36.53h-348.5Z"/>
  <g>
    <path class="cls-1" d="m1449.23,1202.24v-196.01h52.27l43.66,122.36h3.27l-2.08-122.36h42.76v196.01h-51.08l-44.84-127.11h-3.27l2.08,127.11h-42.77Z"/>
    <path class="cls-1" d="m1666.92,1206.1c-13.27,0-24.25-1.93-32.97-5.79-8.71-3.86-15.44-9.01-20.19-15.44-4.75-6.43-7.77-13.76-9.06-21.98-1.29-8.21-1.04-16.78.74-25.69l41.58-4.75c-.79,6.93-.7,13.42.3,19.45.99,6.04,3.07,10.99,6.24,14.85,3.16,3.86,7.72,5.79,13.66,5.79,2.77,0,5.39-.54,7.87-1.63,2.47-1.09,4.5-2.97,6.09-5.64,1.58-2.67,2.37-6.38,2.37-11.14,0-6.53-1.48-12.07-4.45-16.63-2.97-4.55-7.08-8.71-12.32-12.47-5.25-3.76-11.24-7.62-17.97-11.58-5.74-3.56-11.28-7.18-16.63-10.84-5.35-3.66-10.15-7.82-14.4-12.47-4.26-4.65-7.62-9.95-10.1-15.89-2.48-5.94-3.71-12.77-3.71-20.49,0-10.1,2.23-18.95,6.68-26.58,4.45-7.62,11.23-13.56,20.34-17.82,9.1-4.25,20.29-6.38,33.56-6.38,15.44,0,27.81,2.73,37.12,8.17,9.3,5.45,15.93,12.87,19.9,22.27,3.96,9.4,5.54,20.05,4.75,31.93l-41.28,5.34c.6-4.35.54-8.51-.15-12.47-.7-3.96-1.93-7.52-3.71-10.69-1.78-3.17-4.11-5.64-6.98-7.43-2.87-1.78-6.19-2.67-9.95-2.67-3.17,0-5.89.65-8.17,1.93-2.28,1.29-4.11,3.12-5.5,5.5-1.39,2.37-2.08,5.05-2.08,8.02,0,4.95,1.43,9.21,4.31,12.77,2.87,3.56,6.48,6.68,10.84,9.35,4.35,2.67,8.81,5.4,13.36,8.17,6.33,3.37,12.57,7.18,18.71,11.43,6.13,4.26,11.73,9.06,16.78,14.4s9.06,11.54,12.03,18.56c2.97,7.03,4.45,15.2,4.45,24.5s-1.98,18.71-5.94,27.02c-3.96,8.32-10.5,14.9-19.6,19.75-9.11,4.85-21.28,7.28-36.53,7.28Z"/>
    <path class="cls-1" d="m1803.82,1206.1c-11.48,0-21.38-2.08-29.7-6.24s-15.1-10.44-20.34-18.86c-5.25-8.41-9.11-19.01-11.58-31.78-2.48-12.77-3.71-27.57-3.71-44.4,0-23.76,2.38-43.16,7.13-58.21,4.75-15.04,12.03-26.18,21.83-33.41,9.8-7.22,22.02-10.84,36.68-10.84,11.48,0,21.38,2.03,29.7,6.09,8.32,4.06,15.24,10.2,20.79,18.41,5.54,8.22,9.7,18.71,12.47,31.48,2.77,12.77,4.16,27.77,4.16,44.99s-1.39,32.57-4.16,45.44c-2.77,12.87-6.88,23.56-12.32,32.07-5.45,8.52-12.43,14.85-20.94,19.01-8.52,4.16-18.52,6.24-30,6.24Zm.3-35.05c4.55,0,8.32-2.37,11.28-7.13,2.97-4.75,5.24-11.98,6.83-21.68,1.58-9.7,2.37-21.68,2.37-35.93,0-15.04-.84-27.67-2.52-37.87-1.68-10.19-4.06-17.87-7.13-23.02-3.07-5.15-6.78-7.72-11.14-7.72s-7.67,2.48-10.54,7.42c-2.87,4.95-5,12.32-6.38,22.13-1.39,9.8-2.08,22.23-2.08,37.27,0,11.09.39,20.79,1.19,29.1.79,8.32,1.98,15.25,3.56,20.79,1.58,5.55,3.61,9.7,6.09,12.47,2.47,2.78,5.3,4.16,8.46,4.16Z"/>
  </g>
</svg>