<?xml version="1.0" encoding="UTF-8"?>
<svg id="Capa_1" data-name="Capa 1" xmlns="http://www.w3.org/2000/svg" viewBox="0 0 2560 1600">
  <defs>
    <style>
      .cls-1 {
        fill: #0a3087;
      }

      .cls-1, .cls-2, .cls-3 {
        stroke-width: 0px;
      }

      .cls-2 {
        fill: #fff;
      }

      .cls-3 {
        fill: #011640;
      }
    </style>
  </defs>
  <path class="cls-3" d="m2143.73,834.54c-6.86-8.62-28.33-30.5-36.36-39.29-.64-.7-1.19-1.47-1.81-2.19.84-13.2,2.26-26.3,4.26-39.16,2.13-12.12,3.29-24.09,3.43-35.59.51-41.33-10.19-76.86-31.8-105.62-8.43-11.22-45.37-50.43-50.46-55.51-20.12-20.07-46.35-35.08-78.24-44.73h-.03s-.03-.02-.03-.02l-.13-.04h-.04s-.04-.02-.04-.02c-21.33-6.34-45.45-9.71-71.69-10.04-1.09-.01-2.2-.02-3.3-.02-15.86,0-33.04,1.38-51.07,4.09-23.62,3.56-47.65,12.57-71.41,26.8-14.66,8.79-27.01,19.5-36.94,32.03-2.73-4.52-5.81-8.84-9.24-12.95-.15-.19-.33-.39-.51-.6-15.13-17.57-34.91-28.19-56.44-30.52-3.77-12.11-9.85-23.24-18.05-33.02-4.92-5.87-35.46-39.13-43.28-46.74-3.13-3.05-6.5-5.93-10.1-8.64l-.17-.13c-17.25-12.86-37.81-19.86-59.48-20.25-.9-.02-1.81-.02-2.71-.02h0c-34.1,0-64.72,11.69-90.99,34.75-.39.35-.77.69-1.15,1.04-20.74,19.24-32.74,43.92-34.93,71.69-8.23-5.26-16.75-9.76-25.52-13.47-20.22-8.55-41.75-12.88-63.99-12.88-7.81,0-15.8.54-23.77,1.61-24.46,3.28-46.25,11.76-64.9,25.25-11.27-5.13-23.84-7.73-37.45-7.73-5.03,0-10.26.36-15.56,1.07-15.93,2.14-32.12,8-49.47,17.94-20.77,11.89-36.52,28.83-46.81,50.32-.91,1.83-1.76,3.67-2.56,5.53-9.67-1.53-19.68-2.3-29.92-2.3-8.31,0-16.92.51-25.59,1.51-23.94,2.77-45.25,8.82-63.75,18.05-4.42-15.54-13.15-30.2-25.04-42.65-1.93-2.02-29.33-32.1-36.36-39.29-30.45-31.18-73.27-37.95-103.83-38.13-.44,0-.89,0-1.35,0-24.6,0-47.06,4.16-66.75,12.36-20.02,8.34-37.42,20.95-51.71,37.46-3.76,4.35-7.28,8.93-10.57,13.77-14.91-18.48-37.65-30.8-67.87-36.73-.25-.05-.47-.09-.69-.13-17.71-3.23-35.73-4.87-53.6-4.87h-.26c-15.17,0-37.79.77-58.98,7.29-24.74,7.61-42.51,21.45-52.83,41.14-8.6,16.25-13.03,32.56-13.18,48.48-.13,13.63,2.4,27.88,7.52,42.35.16.46.33.91.5,1.37,6.35,16.56,15.38,31.36,26.85,44.01,7.55,8.32,15.7,16.33,24.28,23.84,3.66,5.45,7.69,10.61,12.08,15.45,8.34,9.2,17.42,18.01,26.99,26.2,3.86,3.31,7.69,6.77,11.48,10.34,1.36,1.68,2.72,3.37,4.07,5.08-14.27,11.36-29.06,22.21-44.12,32.36-.11.08-.24.16-.37.25-17.37,11.89-30.33,21.87-39.61,30.5-12.93,12.03-23.1,26.66-30.23,43.49-.2.47-.39.94-.58,1.42-5.2,13.25-7.9,26.51-8.02,39.38-.14,14.93,3.11,29.14,9.67,42.25,7.89,16.01,54.98,66.53,69.14,75.26,10.65,6.57,22.97,11.17,36.61,13.56.6.11,1.2.2,1.79.28,11.19,1.59,22.16,2.4,32.58,2.4h.47c23.94-.01,46.75-4.36,67.79-12.9l.48-.2c11-4.6,21.15-10.56,30.43-17.81,0,0,30.58,34.52,40.11,42.69,4.63,3.98,9.57,7.42,14.75,10.27,17.05,9.37,34.44,15.18,51.88,17.36,0,0,51.28,57.47,65.01,66.84,20.23,13.81,45.69,20.53,77.83,20.53.77,0,1.54,0,2.31-.01,19.76-.2,37.85-3.45,53.77-9.66,21.67-8.46,38.87-22.23,51.13-40.93,8.68-13.06,14.04-27.19,16.03-42.16,4.36.69,8.73,1.21,13.08,1.54,7.9.6,15.83.91,23.55.91,9.44,0,18.79-.46,27.78-1.36.3-.03.59-.06.87-.09,25.13-2.91,49.39-9.6,72.23-19.88,0,0,19.71,21.33,19.93,21.56,15.49,16.35,32.49,27.72,56.51,32.22,8.49,1.59,17.38,2.37,27.16,2.37s19.31-.72,30.29-2.19c21.64-2.9,40.72-8.94,56.71-17.93,21.87-12.3,37.51-29.85,46.48-52.16,7.1-16.88,9.43-34.87,6.93-53.46-.61-4.55-1.53-9.14-2.75-13.74,12.71-1.87,24.18-4.57,35.67-9.45,0,0,11.98,12.37,16.8,17.44,6.92,7.28,14.8,13.54,23.55,18.69,19.11,11.25,42.01,16.95,68.07,16.95,1.1,0,2.21-.01,3.32-.03,15.94-.29,29.04-1.99,42.16-5.88,0,0,18.3,20.3,25.85,27.97,13.7,13.97,31.25,25.72,50.72,33.96,19.48,8.25,40.01,12.6,59.36,12.6.53,0,1.06,0,1.59-.01,21.73-.26,42.13-6.12,58.98-16.93,16.95-10.88,30.47-26.87,39.08-46.25,1.68-3.77,3.14-7.64,4.4-11.64,13.03,2.85,25.85,4.36,38.12,4.52.69,0,1.38.01,2.07.01,17.85,0,35.18-2.94,51.51-8.72,11.9-4.22,23.33-9.98,34.12-17.18,19.78,18.38,45.94,28.21,76.52,28.58l4,.05c.24,0,.47,0,.7,0,.27,0,.54,0,.81,0,30.17-.43,57.4-10.89,80.91-31.1,20.98-18.04,36.67-42.27,46.61-72.03,4.5-13.07,6.75-25.2,6.9-37.08.26-20.71-6.02-39.72-18.16-54.96Z"/>
  <path class="cls-1" d="m2052.95,778.06l.02-1.86c.27-21.6,2.06-43.17,5.32-64.11,2.01-11.35,3.09-22.54,3.22-33.26.47-37.85-9.2-70.21-28.72-96.18-19.3-25.68-47.73-44.34-84.51-55.47-.07-.02-.13-.04-.2-.06-19.97-5.93-42.68-9.09-67.5-9.4-15.94-.19-33.4,1.12-51.89,3.9-21.63,3.26-43.76,11.59-65.8,24.78-21.79,13.06-37.83,31-47.54,52.87-3.19-13.88-9.31-26.31-18.35-37.12-.13-.15-.26-.31-.39-.46-14.43-16.75-33.82-25.87-54.61-25.63-13.34.15-26.1,3.86-37.92,11.03-.32.19-.64.39-.95.6-2.49,1.61-5.13,3.5-7.84,5.72,2.56-5.59,4.65-11.49,6.22-17.65,1.93-7.03,2.97-14.31,3.11-21.67.51-27.9-11.38-52.42-33.46-69.03-.05-.04-.1-.07-.15-.11-14.63-10.91-32.11-16.85-50.54-17.18-31.24-.57-59.26,9.83-83.27,30.9-.28.25-.56.5-.84.76-19.01,17.64-29.5,40.6-30.31,66.42,0,.18-.01.37-.01.55-.18,10.07,1.4,19.71,4.61,28.64-36.94-35.82-81.99-51.26-130.9-44.7-25.28,3.39-47.25,12.91-65.38,28.31-1.21-.77-2.39-1.47-3.54-2.1-13.77-7.57-30.26-10.14-49-7.62-13.93,1.87-28.28,7.11-43.88,16.04-18.04,10.33-31.7,25.03-40.63,43.71-2.71,5.46-4.84,10.95-6.41,16.45-19.58-4.73-40.92-5.8-63.73-3.16-41.63,4.82-69.93,19.61-89.16,37.55-4.14-3.81-8.72-7.32-13.74-10.47-.05-.03-.1-.06-.15-.09-5.05-3.14-10.29-5.78-15.71-7.91,3.05-9.58,4.72-19.76,4.91-30.36.36-20.27-8.41-41.1-24.08-57.14-26.74-27.38-65.29-33.33-92.92-33.5-.42,0-.83,0-1.25,0-45.33,0-81.28,14.97-106.83,44.51-9.84,11.37-16.93,23.6-22.27,35.27-1.17-3.48-2.57-6.85-4.21-10.08-.13-.25-.26-.5-.39-.75-11.6-21.77-33.86-36.03-66.17-42.37-.18-.03-.36-.07-.54-.1-16.81-3.07-33.97-4.62-51.05-4.61-33.15.02-79.35,4.21-98.2,40.22-7.45,14.06-11.28,28.01-11.41,41.46-.11,11.83,2.12,24.3,6.64,37.08.12.34.24.67.37,1,5.66,14.76,13.69,27.94,23.88,39.17,7.9,8.72,16.54,17.09,25.59,24.84,22.13,19.01,43.28,42.05,62.87,68.49.1.14.19.27.29.4-.33.3-.69.62-1.1.97-17.79,14.74-36.52,28.75-55.67,41.66-.08.06-.17.11-.25.17-16.76,11.48-29.14,20.99-37.85,29.09-11.33,10.54-20.26,23.41-26.54,38.23-.14.34-.28.68-.42,1.03-4.52,11.51-6.86,22.92-6.96,33.91-.12,12.48,2.6,24.35,8.06,35.27,10.77,21.89,31.45,36.52,58.26,41.21.43.08.87.14,1.3.21,10.52,1.49,20.92,2.27,30.87,2.24,21.96-.01,42.82-3.97,62.02-11.77.13-.05.25-.1.38-.15,20.91-8.74,38.33-22.93,52.06-42.35.81,6.81,2.17,13.57,4.07,20.18,7.53,26.2,23.01,47.36,42.47,58.06,22.39,12.3,42.8,16.44,60.12,16.44,8.62,0,16.48-1.03,23.44-2.58-.04,1.68-.05,3.35,0,5,.75,27.92,13.04,51.4,34.61,66.12,17.58,12,40.22,17.85,69.16,17.85.72,0,1.44,0,2.16-.01h0c29.22-.29,68.91-8.11,92.19-43.67,9.99-15.02,14.81-31.68,14.33-49.54-.03-1.03-.08-2.06-.14-3.09,9.58,2.67,19.25,4.39,28.94,5.13,7.55.58,15.02.87,22.38.87,8.95,0,17.72-.43,26.24-1.28.21-.02.42-.04.63-.07,25.98-3.01,50.96-10.31,74.27-21.7,4.96-2.39,9.72-4.93,14.28-7.6,2.64,12.81,8.35,24.94,17.01,36.15.13.17.26.34.4.51,11.11,13.92,27.04,22.91,47.33,26.71,7.48,1.4,15.54,2.1,24.33,2.1s18.05-.68,28.25-2.05c32.2-4.32,74.04-18.36,91-60.68,6.06-14.36,8.05-29.69,5.92-45.57-1.31-9.75-4.24-19.64-8.77-29.57,5.69-.02,11.46-.41,17.28-1.19,17.62-2.36,33.91-7.93,48.6-16.5,2.14,4.97,4.72,9.79,7.74,14.44,13.33,20.83,40,45.28,91.74,45.28,1,0,2.01,0,3.03-.03h0c20.56-.37,38.34-3.97,53.17-10.71,6.43,13.74,15.16,26.28,26.09,37.39,25.1,25.59,63.86,41.97,99.11,41.97.46,0,.92,0,1.38,0,38.45-.47,69.14-20.17,84.21-54.05,3.74-8.41,5.92-16.78,7.23-24.61,4.11,1.4,8.33,2.67,12.68,3.77.37.09.75.18,1.13.27,12.25,2.72,24.27,4.17,35.73,4.32,33.15.42,63.44-10.18,89.42-30.95,17.4,21.42,43.07,33.25,74.8,33.64l4,.05c.17,0,.34,0,.51,0,.19,0,.39,0,.58,0,26.48-.38,50.41-9.59,71.11-27.38,18.86-16.21,33.02-38.18,42.07-65.3,3.97-11.52,5.96-22.1,6.08-32.32.43-34.95-20.85-61.56-57.2-71.96Z"/>
  <g>
    <path class="cls-2" d="m1680.09,1001.57c-25.76.31-54.43-13.07-70.7-29.66-10.73-10.9-18.31-23.47-22.75-37.7-3.82-13.22-5.81-28.19-5.99-44.92-.16-15.09,2.33-39.4,7.47-72.91,3.43-22.07,5.13-35.14,5.08-39.23-.02-1.84.06-4.79-.7-8.71-3.92-20.15-27.55-15.44-35.21-23.22-6.18-6.28-9.95-14.28-10.06-25.29-.07-6.73,1.59-13.79,4.97-21.17,5.38-11.89,14.17-15.56,25.56-17.65,5.71-1.05,13.68-2.05,15.71-13.41,5.76-33.11,8.35-47.23,9.33-51.32,4.11-15.75,11.64-27.16,22.58-34.21,5.47-3.32,11.16-5.02,17.08-5.08,8.77-.09,16.46,3.7,23.07,11.38,7.44,8.9,11.23,20.08,11.38,33.54.11,10.4-1.39,22.35-4.51,35.85-.59,2.25-.87,4.7-.84,7.35.09,7.96,8.39,11.84,24.91,11.67l12.24-.44c24.48-.26,36.82,8.89,37.02,27.45l.04,3.37c.18,16.73-5,28.41-15.53,35.05-6.7,3.34-13.92,5.05-21.67,5.13l-2.14.02c-14.89.16-25.05,3.94-30.48,11.35-4.41,7.6-6.5,21.7-6.28,42.3.18,16.52,2.6,32.71,7.26,48.58,3.43,11.67,6.51,37.15,19.69,38.69,34.56,4.03,36.73,41.81,36.3,53.98-.36,10.07-1.5,20.31-5.6,29.52-9.4,21.14-27.45,29.45-47.22,29.69Z"/>
    <path class="cls-2" d="m1500.81,567.29c-16.73-.3-30.53-4.12-41.41-11.46-8.44-7.29-12.55-16.85-12.33-28.69.47-14.88,6.21-27.43,17.21-37.64,16.17-14.19,34.66-21.1,55.47-20.72,9.99.18,18.92,3.2,26.77,9.06,11.67,8.78,17.38,20.62,17.11,35.51-.07,4.08-.66,8.05-1.75,11.9-3.75,15.03-11.91,26.72-24.51,35.06-9.27,4.93-21.45,7.26-36.55,6.99Zm-.72,365.64c42.22-.77,63.03-17.77,62.43-51.02-.12-6.53-1.17-13.65-3.14-21.37-3.71-13.19-7.72-26.28-12.04-39.26-12.28-35.69-18.59-62.91-18.93-81.68-.45-24.88,5.77-47.64,18.65-68.28,5.54-9.48,8.23-18.51,8.08-27.08-.23-12.44-6.75-23.64-19.59-33.62-20.27-15.14-39.89-22.53-58.86-22.19-20.19.37-30.32,10.04-30.38,29.01.8,21.61,2.72,43.1,5.76,64.47,2.8,19.13,4.36,38.08,4.71,56.84.16,8.98.02,17.86-.43,26.63-1.34,27.37-7.37,54.51-18.11,81.43-4.49,11.1-6.65,21.44-6.48,31.03.19,10.4,3.12,19.94,8.78,28.61,11.55,18.15,31.4,26.97,59.55,26.46Z"/>
    <path class="cls-2" d="m1238.83,1027.11c-31.95,4.28-52.74.38-62.39-11.7-5.48-7.09-8.73-14.47-9.76-22.15-1.03-7.69,3.12-36.42,4.62-57.14,6.65-91.78,12.91-164.1-50.38-273.29-4.75-8.19-10.83-22.48-11.86-30.17-1.11-8.29.61-16.96,5.16-26.01,5.29-11.21,13.33-19.9,24.13-26.08,10.8-6.18,20.45-9.84,28.94-10.98,19.81-2.66,31.7,3.88,35.66,19.61l4.38,18.86c1.1,3.56,2.03,7.45,2.8,11.66,13.05-40.85,38.07-63.76,75.07-68.73,39.22-5.26,73.51,7.95,102.87,39.62,18.32,19.98,30.53,39.65,36.62,59,6.09,19.36,10.19,36.82,12.27,52.38,1.33,9.91,2.16,19.99,2.51,30.23,2,39.46-6.93,76.47-26.79,111.03-16.71,27.35-39.52,42.97-68.43,46.84-28.92,3.88-54.6-5.75-77.04-28.88-3.14-3.49-6.7-7.75-10.67-12.77-3.92,6.08-5.5,11.96-4.74,17.62.71,5.26,2.57,10.77,5.61,16.54,6.83,17.2,16.54,34.31,29.12,51.36,7.94,11.69,12.62,22.7,14,33.01,1.17,8.69.1,16.86-3.2,24.51-7.67,19.55-27.18,31.43-58.51,35.63Zm59.24-251.23c47.33-7.07,45.98-64.31,44.88-79.47-1.76-24.21-14.02-51.14-32.25-65.79-9.11-7.32-38.38-15.05-54.31,4.81-13.37,16.67-23.41,41.04-20.02,78.63,2.76,30.61,24.64,67.35,61.7,61.81Z"/>
    <path class="cls-2" d="m1033.71,992.9c-13.2,1.32-27,1.43-41.39.33-14.4-1.1-28.68-5.15-42.84-12.13-27.62-15.08-43.18-37.71-46.68-67.91-1.13-9.73-.42-19.56,2.12-29.51,3.71-15.83,11.75-28.88,24.11-39.14,6.44-4.65,11.69-7.21,15.75-7.68l6.69-.77c16.82-1.95,29.98,7.11,39.49,27.15,3.17,7.85,7.96,14.69,14.39,20.51,5.6,4.08,10.05,6.13,13.34,6.16,3.29.03,5.34,0,6.15-.1,4.66-.54,9-2.99,13.01-7.36,5.78-6.83,8.24-13.99,7.37-21.49-.4-3.44-1.54-7.01-3.4-10.7-8.63-14.19-24.2-24.51-46.71-30.94-20.39-5.85-36-13.8-46.81-23.84-12.92-12.26-20.75-23.57-23.49-33.94-2.74-10.36-4.33-17.47-4.78-21.32-1.5-12.97.08-25.89,4.75-38.75,13.11-33.96,42.16-53.56,87.14-58.77,24.32-2.82,45.74-.47,64.27,7.03,22.48,9.72,38.24,26.07,47.27,49.05.96,2.97,1.61,5.87,1.93,8.71,1.48,12.77-2.33,23.37-11.41,31.82-7.27,6.39-15.67,10.13-25.19,11.24-21.08,2.44-33.57-5.25-37.48-23.07-3.01-11.77-7.22-17.95-12.62-18.56-4.15-.34-7.13-.41-8.96-.19-4.86.56-9.7,2.26-14.51,5.07-6.72,4.07-11.59,8.94-14.63,14.63-2.32,4.79-3.26,9.11-2.81,12.96,1.5,12.97,22.76,25.39,63.77,37.28,16.15,4.7,31.52,10.62,46.11,17.76,14.58,7.14,26.6,17.76,36.04,31.87,7.88,13.06,12.71,27.28,14.49,42.68,2.07,17.83-.3,34.64-7.1,50.42-10.51,22.78-29.28,40.67-56.32,53.66-19.24,9.42-39.6,15.37-61.08,17.86Z"/>
    <path class="cls-2" d="m834.8,756.36c-19.05.19-34.93-3.29-47.67-10.46-9.95-7.19-15.09-16.81-15.41-28.88-.18-15.19,5.74-28.16,17.77-38.89,17.72-14.95,38.42-22.55,62.11-22.78,11.38-.11,21.68,2.7,30.89,8.44,13.7,8.61,20.76,20.51,21.17,35.69.11,4.17-.36,8.23-1.41,12.19-3.54,15.44-12.27,27.6-26.2,36.48-10.31,5.31-24.06,8.04-41.24,8.21Zm18.65,327.93c-42.2.42-63.7-14.26-64.51-44.04-.16-5.84.59-12.24,2.24-19.21,3.14-11.91,6.6-23.73,10.36-35.46,10.75-32.26,15.9-56.8,15.45-73.61-.6-22.28-7.77-42.5-21.51-60.63-5.94-8.34-9.01-16.36-9.21-24.03-.3-11.14,5.74-21.34,18.14-30.6,19.6-14.08,38.89-21.21,57.85-21.4,20.18-.2,30.7,8.19,31.57,25.18.11,19.37-.9,38.65-3.03,57.86-1.98,17.2-2.75,34.2-2.3,51,.22,8.04.74,15.98,1.56,23.83,2.5,24.46,9.67,48.6,21.53,72.42,4.95,9.82,7.55,19.02,7.78,27.6.25,9.32-2.27,17.93-7.56,25.84-10.77,16.55-30.22,24.97-58.35,25.24Z"/>
    <path class="cls-2" d="m776.11,541.06c-87.79-.53-96.88,69.05-107.48,97.62-3.28,8.99-6.19,18.16-8.72,27.51-8.77,32.97-17.95,50.26-27.55,51.85-6.39,0-30.54-5.03-32.26-37.21l.06-6.61c.13-13.93,1.76-27.68,4.9-41.26,2.72-9.35,4.11-17.72,4.18-25.13.07-7.58-1.28-14.11-4.05-19.57-5.54-10.4-18.16-17.53-37.86-21.4-14.45-2.64-29-3.95-43.66-3.94-34.96.02-55.59,6.12-61.91,18.28-4.4,8.29-6.63,15.87-6.7,22.75-.07,7.05,1.36,14.72,4.3,23.01,3.85,10.05,9.17,18.81,15.96,26.3,6.79,7.49,14.1,14.58,21.93,21.28,24.61,21.14,47.68,46.25,69.21,75.33,6.68,9.16,9.98,17.89,9.9,26.18-.1,10.93-5.93,21.25-17.49,30.95-18.94,15.7-38.63,30.44-59.05,44.2-14.95,10.23-25.97,18.66-33.08,25.28-7.11,6.62-12.68,14.68-16.72,24.21-2.7,6.88-4.07,13.31-4.13,19.31-.06,5.99,1.21,11.55,3.79,16.66,4.98,10.22,14.51,16.56,28.58,19.02,8.63,1.23,16.99,1.84,25.07,1.84,16.73,0,32.26-2.93,46.6-8.75,21.13-8.83,37.08-26.65,47.86-53.45l4.92-13.23c8.49-24.16,16.36-41.44,23.6-51.85,4.37-5.65,8.72-8.47,13.05-8.47,4.7,0,9.27,3.34,13.72,10.04,7.04,10.93,10.95,20.13,11.72,27.63.78,7.49,1.15,12.91,1.12,16.26-.08,8.46-.69,17.25-3.63,25.92-11.84,35,1.95,74.01,21.82,84.92,61.83,33.98,100.84-17.23,108.52-34.51,2.69-6.18,17.13-50.64-11.29-74.28-11.53-9.59-22.23-19.82-33.98-28.81-6.16-4.76-16.61-13.48-31.33-26.16-13.24-11.28-20.8-21.41-22.69-30.4-1.89-8.99-2.81-15.96-2.77-20.89.07-7.76,1.46-15.43,4.16-23.01,4.81-12.35,11.4-23.46,19.76-33.33,16.34-19.41,51.52-51.42,89.59-64.61,24.6-8.52,47.61-26.74,48.21-60.59.28-15.87-14.96-48.51-76.22-48.88Z"/>
    <path class="cls-2" d="m1990.3,934.01l-4-.05c-31.38-.39-50.43-16.98-57.14-49.78l-4.43-20.09c-5.21,7.28-10.64,14.34-16.28,21.16-23.53,31.09-52.32,46.43-86.37,46.01-8.68-.11-17.79-1.22-27.33-3.34-40.83-10.29-65.08-37.53-72.77-81.69-1.04-6.24-1.52-12.37-1.44-18.38.28-22.92,9.69-45.5,28.21-67.76,11.29-13.21,24.16-23.52,38.61-30.91,14.45-7.39,29.71-13.32,45.79-17.8,23.45-6.61,46.14-15.12,68.09-25.53,11.2-6.31,16.89-16.15,17.06-29.5.16-12.68-4.95-22.76-15.32-30.24-5.96-4.3-11.94-6.49-17.95-6.56-14.25.72-26.69,7.46-37.31,20.24-3.85,5.29-6.93,11.16-9.23,17.58-8.52,23.05-24.69,34.42-48.5,34.12-11.57-.14-21.76-4.49-30.55-13.06-9.01-9.9-13.42-21.42-13.26-34.55l.03-2.67c3-26.45,15.59-46.32,37.79-59.63,17.49-10.47,34.43-16.94,50.82-19.4,16.39-2.47,31.48-3.62,45.28-3.45,21.14.26,39.91,2.83,56.33,7.71,56.76,17.17,84.79,54.46,84.08,111.87-.11,8.68-1,17.68-2.67,27.01-3.62,23.11-5.58,46.56-5.88,70.37l-.11,9.01c-.2,16.25,8.79,26.93,26.98,32.05,20.41,4.93,30.52,15.85,30.31,32.76-.07,5.79-1.38,12.34-3.91,19.65-6.71,20.17-16.69,35.96-29.96,47.37-13.28,11.41-28.26,17.24-44.95,17.47Zm-119.62-99.96c20.91.26,36.76-12.45,47.54-38.14,5.48-11.06,8.29-22.71,8.44-34.95.2-16.24-2.82-24.41-9.05-24.48l-2.67-.03c-2.23-.03-4.34.4-6.36,1.26-12.53,4.97-24.84,10.71-36.94,17.24-12.31,5.86-20.83,10.76-25.55,14.71-7.42,6.14-11.2,14.55-11.33,25.23.14,6.01,1.19,11.81,3.12,17.4,5.83,14.32,16.76,21.57,32.78,21.77Z"/>
  </g>
</svg>